#N canvas 779 262 537 506 10;
#X obj 24 79 table notelength-\$1 \$2;
#X obj 26 174 tabread notelength-\$1;
#X floatatom 26 196 8 0 0 0 - - -, f 8;
#X obj 26 152 hradio 15 1 0 10 empty empty empty 0 -8 0 10 -262144
-1 -1 0;
#X obj 24 105 table noteaccord-\$1 \$2;
#X obj 242 40 r DATASDIR;
#X obj 242 110 s noteaccord-\$1;
#X obj 24 231 r notebanks;
#X obj 24 252 route \$1;
#X text 21 10 notebank id_bank num_samples dir(relatively to DATASDIR)
;
#X obj 242 62 list append \$3;
#X obj 243 137 loadbang;
#X obj 243 158 pack 0 \$2;
#X obj 243 177 s notelength-\$1;
#X text 306 156 notelength-BANKID[0]=num_samples;
#X obj 223 137 bng 15 250 50 0 empty empty empty 17 7 0 10 -262144
-1 -1;
#X obj 24 468 s noteaccord-\$1;
#X obj 120 381 r DATASDIR;
#X obj 51 400 list prepend;
#X obj 51 442 s noteaccord-\$1;
#X obj 51 341 b;
#X msg 51 421 write \$1/\$2/notes.txt;
#X obj 51 362 list prepend \$3;
#X obj 80 341 bng 15 250 50 0 empty empty empty 17 7 0 10 -262144 -1
-1;
#X msg 242 86 const 0 \, read \$1/\$2/notes.txt;
#X obj 178 356 s notebanks-snd;
#X obj 178 293 b;
#X obj 178 315 list prepend props \$1 \$2 \$3;
#X obj 178 336 list trim;
#X obj 25 37 clone -s 1 notetable \$2 \$1 \$3;
#X obj 51 321 del 1000;
#X obj 24 273 route setaccord getprops, f 52;
#X text 62 299 auto-save;
#X obj 24 299 t a b;
#X obj 386 293 s notelength-\$1;
#X obj 397 270 s noteaccord-\$1;
#X msg 397 245 resize \$1;
#X obj 397 203 f \$2;
#X obj 397 224 + 1;
#X connect 1 0 2 0;
#X connect 3 0 1 0;
#X connect 5 0 10 0;
#X connect 7 0 8 0;
#X connect 8 0 31 0;
#X connect 10 0 24 0;
#X connect 11 0 12 0;
#X connect 11 0 37 0;
#X connect 12 0 13 0;
#X connect 15 0 12 0;
#X connect 17 0 18 1;
#X connect 18 0 21 0;
#X connect 20 0 22 0;
#X connect 21 0 19 0;
#X connect 22 0 18 0;
#X connect 23 0 22 0;
#X connect 24 0 6 0;
#X connect 26 0 27 0;
#X connect 27 0 28 0;
#X connect 28 0 25 0;
#X connect 30 0 20 0;
#X connect 31 0 33 0;
#X connect 31 1 26 0;
#X connect 33 0 16 0;
#X connect 33 1 30 0;
#X connect 36 0 35 0;
#X connect 36 0 34 0;
#X connect 37 0 38 0;
#X connect 38 0 36 0;
