#N canvas 727 79 639 649 10;
#X declare -path ../absGAMME;
#X declare -stdpath iemlib -lib iemlib1 -stdpath moonlib -lib zexy
;
#X declare -path ../seqGAMME;
#X obj 122 35 fraise_interface;
#X obj 42 11 loadbang;
#X msg 42 33 \; pd dsp 1;
#X obj 41 72 declare -path ../absGAMME;
#N canvas 188 221 1061 545 MASTERaudio 1;
#X obj 118 60 catch~ MASTER;
#X obj 87 375 z~ 64;
#X obj 123 409 *~;
#X obj 124 299 *~;
#X obj 114 500 dac~;
#X obj 291 14 vsl 15 128 0 1 0 0 empty empty empty 0 -9 0 10 -262144
-1 -1 12681 1;
#X obj 291 161 pow 2;
#X msg 291 183 \$1 50;
#X obj 291 205 line~;
#X obj 151 202 rev1~;
#X obj 178 157 loadbang;
#X msg 178 179 50;
#X obj 650 45 r AMPLIswitchs;
#X obj 650 67 route phono;
#X obj 650 89 == 1;
#X floatatom 487 399 5 0 0 0 - - -, f 5;
#X obj 415 10 declare -stdpath iemlib -lib iemlib1 -stdpath moonlib
-lib zexy;
#X obj 227 104 * 0.7;
#X obj 287 308 delwrite~ \$0-del 4000;
#X obj 301 380 vd~ \$0-del;
#X floatatom 325 340 5 0 0 0 - - -, f 5;
#X obj 378 442 pow 2;
#X msg 378 487 \$1 200;
#X obj 378 509 line~;
#X obj 393 340 mull~ 0 50;
#X obj 378 464 * 2000;
#X obj 650 112 s fx-ctl;
#X obj 286 278 hip~ 20;
#N canvas 590 197 547 494 time 0;
#X obj 108 150 i;
#X obj 108 172 change;
#X msg 142 230 2 1;
#X msg 176 229 3 2;
#X msg 273 229 2 3;
#X msg 305 229 2 4;
#X msg 371 231 2 8;
#X obj 108 126 * 8.5;
#X msg 338 231 2 6;
#X obj 108 200 sel 0 1 2 3 4 5 6 7 8, f 36;
#X msg 108 286 \$1 \$2;
#X obj 51 51 inlet;
#X obj 415 183 r CLOCK;
#X obj 415 228 unpack f f;
#X obj 178 54 inlet;
#X obj 51 77 list prepend 0;
#X obj 51 99 route 0 1;
#X obj 51 128 pow 2;
#X msg 51 173 \$1 200;
#X obj 51 421 line~;
#X obj 51 150 * 2000;
#X obj 108 308 /;
#X obj 108 330 pack f f;
#X obj 146 307 t b f;
#X msg 108 231 4 1;
#X obj 108 351 *;
#X msg 209 229 1 1;
#X msg 240 229 3 4;
#X obj 108 373 spigot;
#X obj 51 443 outlet~;
#X floatatom 191 385 5 0 0 0 - - -, f 5;
#X obj 415 205 route list;
#X connect 0 0 1 0;
#X connect 1 0 9 0;
#X connect 2 0 10 0;
#X connect 3 0 10 0;
#X connect 4 0 10 0;
#X connect 5 0 10 0;
#X connect 6 0 10 0;
#X connect 7 0 0 0;
#X connect 8 0 10 0;
#X connect 9 0 24 0;
#X connect 9 1 2 0;
#X connect 9 2 3 0;
#X connect 9 3 26 0;
#X connect 9 4 27 0;
#X connect 9 5 4 0;
#X connect 9 6 5 0;
#X connect 9 7 8 0;
#X connect 9 8 6 0;
#X connect 10 0 21 0;
#X connect 11 0 15 0;
#X connect 12 0 31 0;
#X connect 13 1 23 0;
#X connect 14 0 15 1;
#X connect 14 0 28 1;
#X connect 15 0 16 0;
#X connect 16 0 17 0;
#X connect 16 1 7 0;
#X connect 17 0 20 0;
#X connect 18 0 19 0;
#X connect 19 0 29 0;
#X connect 20 0 18 0;
#X connect 21 0 22 0;
#X connect 21 0 30 0;
#X connect 22 0 25 0;
#X connect 23 0 22 0;
#X connect 23 1 22 1;
#X connect 24 0 10 0;
#X connect 25 0 28 0;
#X connect 26 0 10 0;
#X connect 27 0 10 0;
#X connect 28 0 19 0;
#X connect 31 0 13 0;
#X restore 375 211 pd time;
#X obj 421 167 r AMPLIswitchs;
#X obj 421 189 route main;
#X obj 151 137 mull~ 0 50;
#X obj 286 255 mull~ 0 50;
#X obj 335 67 r MASTERVOL;
#X obj 142 378 limiter~ 10 1;
#X obj 227 58 r FXMIX;
#X obj 227 80 pow 2;
#X obj 152 87 lop~ 1000;
#X obj 152 113 hip~ 150;
#X obj 9 105 catch~ MASTER-CLEAN;
#X obj 118 253 hp6_butt~ 80;
#X obj 124 435 hp6_butt~ 90;
#X connect 0 0 37 0;
#X connect 0 0 40 0;
#X connect 1 0 2 0;
#X connect 2 0 41 0;
#X connect 3 0 1 0;
#X connect 3 0 34 0;
#X connect 5 0 6 0;
#X connect 6 0 7 0;
#X connect 7 0 8 0;
#X connect 8 0 3 1;
#X connect 9 0 40 0;
#X connect 10 0 11 0;
#X connect 11 0 9 1;
#X connect 12 0 13 0;
#X connect 13 0 14 0;
#X connect 14 0 26 0;
#X connect 17 0 31 1;
#X connect 19 0 3 0;
#X connect 19 0 24 0;
#X connect 19 0 31 0;
#X connect 20 0 19 0;
#X connect 21 0 25 0;
#X connect 22 0 23 0;
#X connect 24 0 27 0;
#X connect 25 0 22 0;
#X connect 27 0 18 0;
#X connect 28 0 19 0;
#X connect 29 0 30 0;
#X connect 30 0 28 1;
#X connect 31 0 9 0;
#X connect 32 0 27 0;
#X connect 33 0 5 0;
#X connect 34 0 2 1;
#X connect 35 0 36 0;
#X connect 36 0 17 0;
#X connect 37 0 32 0;
#X connect 37 0 38 0;
#X connect 38 0 31 0;
#X connect 40 0 3 0;
#X connect 41 0 4 1;
#X connect 41 0 4 0;
#X restore 121 11 pd MASTERaudio;
#X obj 512 44 r /BPM;
#X floatatom 512 66 5 0 0 0 - - -, f 5;
#X obj 477 148 GAMMEKBV /BASS 1;
#X obj 477 84 GAMMEKBV /GAMME;
#X obj 477 211 GAMMEKBV /CHORD;
#X obj 503 322 s /BPM;
#X floatatom 485 290 5 0 0 0 - - -, f 5;
#X msg 535 291 120;
#X msg 569 292 150;
#N canvas 378 272 846 556 PHONEnotes 0;
#X obj 40 254 r PHONEkeys;
#X msg 215 156 -1;
#X msg 250 155 1;
#X obj 215 186 +;
#X obj 215 127 sel 1;
#X obj 259 127 sel 1;
#X msg 304 128 0;
#X obj 215 230 * 12;
#X obj 215 279 + 60;
#X obj 340 128 t a a;
#X obj 340 199 spigot;
#X msg 372 151 \$1;
#X obj 372 173 < 10;
#X obj 215 98 route 10 11 0;
#X obj 372 383 + 60;
#X obj 499 376 + 60;
#X obj 477 28 r AMPLIswitchs;
#X obj 477 70 tgl 15 0 empty empty empty 17 7 0 10 -262144 -1 -1 0
1;
#X obj 494 93 sel 0 1;
#X msg 494 115 set /GAMME;
#X msg 517 138 set /CHORD;
#X obj 477 167 sel 0 1;
#X obj 499 340 * 1.51;
#X obj 477 213 f;
#X obj 340 221 t a a;
#X obj 37 70 route 13 14 15;
#X obj 37 126 lastKeyOn;
#X msg 37 96 0 \$1;
#X msg 73 96 1 \$1;
#X msg 110 96 2 \$1;
#X obj 37 148 + 1;
#X obj 37 194 list prepend 0;
#X obj 37 218 s PHONEkeysPage;
#X obj 215 51 r PHONEkeysPage;
#X obj 215 73 route 0;
#X obj 340 436 s PHONEnotes;
#X obj 499 406 s PHONEnote;
#X obj 460 307 sel -1;
#X msg 460 329 -1;
#X floatatom 484 464 5 0 0 0 - - -, f 5;
#X obj 525 431 r PHONEnote;
#X floatatom 374 274 5 0 0 0 - - -, f 5;
#X obj 460 285 f;
#X obj 215 252 change;
#X obj 215 208 clip -3 2;
#X obj 340 293 unpack f f;
#X obj 340 412 pack f f f;
#X obj 340 340 t f f;
#X obj 372 361 * 1.51;
#X obj 340 315 - 1;
#X obj 620 33 r AMPLIpots;
#X obj 477 49 route range phono;
#X obj 620 55 route treble;
#X obj 571 80 tgl 15 0 empty empty empty 17 7 0 10 -262144 -1 -1 0
1;
#X obj 620 104 spigot 1;
#X obj 673 81 == 0;
#X obj 40 275 route 13 14 15;
#X obj 71 296 * 2;
#X obj 103 296 * 4;
#X obj 39 432 list prepend 0;
#X obj 39 456 s PHONEkeysPage;
#X obj 71 342 +;
#X obj 103 318 t b f;
#X obj 40 387 +;
#X obj 71 363 t b f;
#X floatatom 372 476 8 0 0 0 - - -, f 8;
#X floatatom 298 415 5 0 0 0 - - -, f 5;
#X msg 548 191 3.14159;
#X msg 477 191 1.5708;
#X obj 372 251 lastKeyOn;
#X obj 669 189 accord;
#X connect 0 0 56 0;
#X connect 1 0 3 0;
#X connect 2 0 3 0;
#X connect 3 0 44 0;
#X connect 4 0 1 0;
#X connect 5 0 2 0;
#X connect 6 0 44 0;
#X connect 7 0 43 0;
#X connect 8 0 14 1;
#X connect 8 0 15 1;
#X connect 9 0 10 0;
#X connect 9 1 11 0;
#X connect 10 0 24 0;
#X connect 11 0 12 0;
#X connect 12 0 10 1;
#X connect 13 0 4 0;
#X connect 13 1 5 0;
#X connect 13 2 6 0;
#X connect 13 3 9 0;
#X connect 14 0 46 2;
#X connect 14 0 65 0;
#X connect 15 0 36 0;
#X connect 16 0 51 0;
#X connect 17 0 18 0;
#X connect 17 0 21 0;
#X connect 18 0 19 0;
#X connect 18 1 20 0;
#X connect 21 0 68 0;
#X connect 21 1 67 0;
#X connect 22 0 15 0;
#X connect 23 0 22 1;
#X connect 23 0 48 1;
#X connect 24 0 45 0;
#X connect 24 1 69 0;
#X connect 25 0 27 0;
#X connect 25 1 28 0;
#X connect 25 2 29 0;
#X connect 25 3 31 0;
#X connect 26 0 30 0;
#X connect 27 0 26 0;
#X connect 28 0 26 0;
#X connect 29 0 26 0;
#X connect 30 0 31 1;
#X connect 31 0 32 0;
#X connect 33 0 34 0;
#X connect 34 0 13 0;
#X connect 37 0 38 0;
#X connect 37 1 22 0;
#X connect 38 0 36 0;
#X connect 40 0 39 0;
#X connect 42 0 37 0;
#X connect 43 0 8 0;
#X connect 44 0 3 1;
#X connect 44 0 7 0;
#X connect 45 0 49 0;
#X connect 45 1 46 1;
#X connect 46 0 35 0;
#X connect 47 0 46 0;
#X connect 47 1 48 0;
#X connect 48 0 14 0;
#X connect 48 0 66 0;
#X connect 49 0 47 0;
#X connect 50 0 52 0;
#X connect 51 0 17 0;
#X connect 51 1 53 0;
#X connect 52 0 54 0;
#X connect 55 0 54 1;
#X connect 56 0 63 0;
#X connect 56 1 57 0;
#X connect 56 2 58 0;
#X connect 56 3 59 0;
#X connect 57 0 61 0;
#X connect 58 0 62 0;
#X connect 59 0 60 0;
#X connect 61 0 64 0;
#X connect 62 0 61 0;
#X connect 62 1 61 1;
#X connect 63 0 59 1;
#X connect 64 0 63 0;
#X connect 64 1 63 1;
#X connect 67 0 23 0;
#X connect 68 0 23 0;
#X connect 69 0 41 0;
#X connect 69 0 42 0;
#X restore 258 34 pd PHONEnotes;
#N canvas 356 268 841 316 PHONEgamme 0;
#N canvas 6 74 679 299 keys 0;
#X obj 50 25 declare -path ../seqGAMME;
#X obj 51 58 r PHONEkeysPage;
#X obj 51 102 unpack f f;
#X obj 51 124 spigot;
#X obj 51 145 - 1;
#X obj 183 118 unpack f f;
#X obj 183 140 spigot;
#X obj 183 162 - 1;
#X floatatom 230 162 5 0 0 0 - - -, f 5;
#X floatatom 139 158 5 0 0 0 - - -, f 5;
#X obj 88 217 s GAMMESEQ-recall;
#X obj 229 205 s GAMMESEQ-load;
#X obj 51 165 t f f;
#X obj 83 186 moses 0;
#X obj 51 218 >= 0;
#X obj 51 241 s GAMMESEQ-play;
#X obj 183 183 moses 0;
#X obj 51 80 route 1 3 2;
#X obj 335 116 sel 1 2;
#X msg 335 148 -1;
#X msg 372 147 1;
#X obj 419 150 r /BPM;
#X obj 365 177 +;
#X obj 365 202 s /BPM;
#X connect 1 0 17 0;
#X connect 2 0 3 0;
#X connect 2 1 3 1;
#X connect 3 0 4 0;
#X connect 4 0 12 0;
#X connect 5 0 6 0;
#X connect 5 1 6 1;
#X connect 6 0 7 0;
#X connect 7 0 8 0;
#X connect 7 0 16 0;
#X connect 12 0 14 0;
#X connect 12 1 13 0;
#X connect 13 1 10 0;
#X connect 14 0 15 0;
#X connect 16 1 11 0;
#X connect 17 0 2 0;
#X connect 17 1 5 0;
#X connect 17 2 18 0;
#X connect 18 0 19 0;
#X connect 18 1 20 0;
#X connect 19 0 22 0;
#X connect 20 0 22 0;
#X connect 21 0 22 1;
#X connect 22 0 23 0;
#X restore 8 284 pd keys;
#X obj 6 11 l seq8 GAMMESEQ;
#X restore 258 57 pd PHONEgamme;
#X obj 53 228 Saxo;
#X obj 53 297 Accordeon;
#X obj 56 367 Basse;
#X obj 162 170 s choixGamme;
#X obj 269 172 s gammeAccord;
#X obj 272 148 hsl 128 15 0 1 0 0 empty empty empty -2 -8 0 10 -262144
-1 -1 12700 1;
#X obj 162 149 tgl 15 0 empty empty empty 17 7 0 10 -262144 -1 -1 1
1;
#X obj 282 338 ../domoNet;
#X msg 435 319 1;
#X obj 270 96 loadbang;
#X msg 270 118 1;
#X obj 211 243 r SELECTOR;
#X obj 230 417 GAMMEKBV /DODECA;
#X obj 144 438 r /DODECA;
#X floatatom 144 460 5 0 0 0 - - -, f 5;
#X obj 144 366 loadbang;
#X msg 144 388 4095;
#X obj 144 409 s /DODECA;
#X obj 271 383 accord;
#X obj 211 265 moses 3;
#X obj 211 286 s choixGamme;
#N canvas 41 86 990 682 mic 0;
#X obj 75 10 adc~;
#X obj 76 107 *~;
#X obj 77 167 throw~ MASTER;
#X obj 146 83 hsl 128 15 0 1 0 1 empty empty empty -2 -8 0 10 -262144
-1 -1 0 1;
#X obj 143 103 pow 2;
#X obj 300 28 fiddle~ 2048;
#X obj 353 82 unpack f f;
#X obj 433 137 + 4.13;
#X obj 486 140 + 6.13;
#X obj 536 145 + 9.13;
#X obj 536 167 accord;
#X obj 486 163 accord;
#X obj 433 162 accord;
#X obj 375 159 accord;
#X obj 376 276 osc~;
#X obj 323 313 osc~;
#X obj 277 325 osc~;
#X obj 432 283 osc~;
#X obj 484 282 osc~;
#X obj 536 287 osc~;
#X obj 410 372 *~;
#X obj 535 233 +~;
#X obj 535 255 mtof~;
#X obj 486 230 +~;
#X obj 486 252 mtof~;
#X obj 432 231 +~;
#X obj 432 253 mtof~;
#X obj 375 228 +~;
#X obj 377 252 mtof~;
#X obj 324 268 +~;
#X obj 324 290 mtof~;
#X obj 277 278 +~;
#X obj 277 300 mtof~;
#X obj 614 45 osc~ 5;
#X obj 594 314 hsl 128 15 0 1 0 1 empty empty empty -2 -8 0 10 -262144
-1 -1 9800 1;
#X obj 591 334 pow 2;
#X msg 510 383 \$1 20;
#X obj 510 405 line~;
#X obj 409 652 throw~ MASTER;
#X obj 511 361 *;
#X obj 511 331 dbtorms;
#X floatatom 283 127 5 0 0 0 - - -, f 5;
#X msg 354 58 \$2 \$1;
#X obj 411 412 hip~ 100;
#X obj 458 103 + 12;
#X obj 708 480 r GROS_BOUTON;
#X obj 708 502 sel 1;
#X obj 708 526 tgl 15 0 empty empty empty 17 7 0 10 -262144 -1 -1 0
1;
#X obj 769 574 s GROSSE_LED;
#X obj 689 559 switch~;
#X obj 791 34 r AXLSLOW1;
#X obj 791 56 unpack f f f;
#X obj 687 39 r OCTAVE;
#X obj 558 33 osc~ 5;
#X obj 613 135 +~ 0;
#X obj 687 87 * 12;
#X obj 342 122 min 90;
#X floatatom 669 136 5 0 0 0 - - -, f 5;
#X obj 769 518 r TEMPOLED;
#X obj 769 544 spigot;
#X obj 331 473 atan~;
#X obj 687 61 - 1;
#X floatatom 605 369 5 0 0 0 - - -, f 5;
#X obj 835 210 pow 3;
#X obj 835 254 + 1;
#X obj 835 174 max 0;
#X obj 411 434 lop~ 5000;
#X obj 410 537 z~ 64;
#X obj 409 562 *~;
#X obj 465 540 limiter~ 10 1;
#X obj 410 512 +~;
#X obj 835 232 * 100;
#X obj 431 485 bob~;
#X obj 893 189 + 1;
#X obj 893 211 / 2;
#X obj 893 233 * 100;
#X obj 893 255 + 25;
#X obj 893 277 mtof;
#X obj 892 322 line~;
#X obj 331 501 lop~ 6000;
#X obj 475 485 sig~ 2;
#X msg 892 299 \$1 50;
#X obj 744 68 abs;
#X obj 744 90 pow 2;
#X obj 744 112 * 4;
#X obj 746 157 line~;
#X msg 746 134 \$1 50;
#X obj 613 74 *~;
#X obj 919 86 + 1;
#X obj 919 108 / 2;
#X obj 919 128 * 5;
#X obj 534 214 line~;
#X msg 534 191 \$1 10;
#X obj 378 205 line~;
#X msg 378 182 \$1 10;
#X obj 324 245 +~ 12;
#X obj 276 255 +~ 24;
#X obj 486 209 line~;
#X msg 486 186 \$1 10;
#X obj 434 208 line~;
#X msg 434 185 \$1 10;
#X obj 924 175 line~;
#X msg 924 152 \$1 50;
#X obj 410 624 *~ 0.4;
#X connect 0 0 1 0;
#X connect 0 0 5 0;
#X connect 1 0 2 0;
#X connect 3 0 4 0;
#X connect 4 0 1 1;
#X connect 5 2 42 0;
#X connect 6 0 56 0;
#X connect 6 1 44 0;
#X connect 7 0 12 0;
#X connect 8 0 11 0;
#X connect 9 0 10 0;
#X connect 10 0 92 0;
#X connect 11 0 98 0;
#X connect 12 0 100 0;
#X connect 13 0 94 0;
#X connect 14 0 20 0;
#X connect 15 0 20 0;
#X connect 16 0 20 0;
#X connect 17 0 20 0;
#X connect 18 0 20 0;
#X connect 19 0 20 0;
#X connect 20 0 43 0;
#X connect 21 0 22 0;
#X connect 22 0 19 0;
#X connect 23 0 24 0;
#X connect 24 0 18 0;
#X connect 25 0 26 0;
#X connect 26 0 17 0;
#X connect 27 0 28 0;
#X connect 28 0 14 0;
#X connect 29 0 30 0;
#X connect 30 0 15 0;
#X connect 31 0 32 0;
#X connect 32 0 16 0;
#X connect 33 0 87 0;
#X connect 34 0 35 0;
#X connect 35 0 39 1;
#X connect 36 0 37 0;
#X connect 37 0 20 1;
#X connect 39 0 36 0;
#X connect 40 0 39 0;
#X connect 42 0 6 0;
#X connect 43 0 66 0;
#X connect 44 0 9 0;
#X connect 44 0 8 0;
#X connect 44 0 7 0;
#X connect 44 0 13 0;
#X connect 45 0 46 0;
#X connect 46 0 47 0;
#X connect 47 0 48 0;
#X connect 47 0 49 0;
#X connect 50 0 51 0;
#X connect 51 0 65 0;
#X connect 51 0 82 0;
#X connect 51 2 73 0;
#X connect 51 2 88 0;
#X connect 52 0 61 0;
#X connect 54 0 21 1;
#X connect 54 0 23 1;
#X connect 54 0 25 1;
#X connect 54 0 27 1;
#X connect 54 0 29 1;
#X connect 54 0 31 1;
#X connect 55 0 54 1;
#X connect 55 0 57 0;
#X connect 56 0 40 0;
#X connect 58 0 59 0;
#X connect 60 0 79 0;
#X connect 61 0 55 0;
#X connect 62 0 39 1;
#X connect 63 0 71 0;
#X connect 65 0 63 0;
#X connect 66 0 70 0;
#X connect 67 0 68 0;
#X connect 68 0 103 0;
#X connect 69 0 68 1;
#X connect 70 0 67 0;
#X connect 70 0 69 0;
#X connect 71 0 64 0;
#X connect 73 0 74 0;
#X connect 74 0 75 0;
#X connect 75 0 76 0;
#X connect 76 0 77 0;
#X connect 77 0 81 0;
#X connect 78 0 72 1;
#X connect 80 0 72 2;
#X connect 81 0 78 0;
#X connect 82 0 83 0;
#X connect 83 0 84 0;
#X connect 84 0 86 0;
#X connect 85 0 87 1;
#X connect 86 0 85 0;
#X connect 87 0 54 0;
#X connect 88 0 89 0;
#X connect 89 0 90 0;
#X connect 90 0 102 0;
#X connect 91 0 21 0;
#X connect 92 0 91 0;
#X connect 93 0 27 0;
#X connect 93 0 95 0;
#X connect 93 0 96 0;
#X connect 94 0 93 0;
#X connect 95 0 29 0;
#X connect 96 0 31 0;
#X connect 97 0 23 0;
#X connect 98 0 97 0;
#X connect 99 0 25 0;
#X connect 100 0 99 0;
#X connect 101 0 33 0;
#X connect 102 0 101 0;
#X connect 103 0 38 0;
#X restore 48 123 pd mic;
#X obj 412 387 r BASSE_KB;
#X msg 412 409 \$2 \$1;
#X obj 412 431 route 1;
#X obj 458 476 - 4;
#X obj 458 500 moses 3;
#X floatatom 458 522 5 0 0 0 - - -, f 5;
#X obj 458 541 s OCTAVE;
#X obj 503 453 loadbang;
#X msg 503 475 1;
#X obj 412 454 moses 4;
#X connect 1 0 2 0;
#X connect 5 0 6 0;
#X connect 11 0 10 0;
#X connect 12 0 10 0;
#X connect 13 0 10 0;
#X connect 21 0 20 0;
#X connect 22 0 19 0;
#X connect 24 0 10 0;
#X connect 25 0 26 0;
#X connect 26 0 21 0;
#X connect 26 0 22 0;
#X connect 27 0 35 0;
#X connect 29 0 30 0;
#X connect 31 0 32 0;
#X connect 32 0 33 0;
#X connect 35 0 36 0;
#X connect 38 0 39 0;
#X connect 39 0 40 0;
#X connect 40 0 47 0;
#X connect 41 0 42 0;
#X connect 42 0 43 0;
#X connect 43 0 44 0;
#X connect 45 0 46 0;
#X connect 46 0 43 0;
#X connect 47 1 41 0;
