#N canvas 53 119 596 398 10;
#X obj 150 270 outlet~;
#X obj 150 184 hip~ 5;
#X obj 150 111 mtof;
#X floatatom 150 54 5 0 0 0 - - -, f 5;
#X obj 336 111 tabread \$2-wave;
#X floatatom 336 78 5 0 0 0 - - -, f 5;
#X floatatom 336 133 5 0 0 0 - - -, f 5;
#X obj 150 162 tabosc4~ \$2-wave;
#X msg 117 138 0;
#X obj 151 240 *~;
#X obj 280 211 line~;
#X obj 208 31 r accordeonVox;
#X obj 208 53 route \$1;
#X obj 208 75 unpack f f;
#X obj 265 100 accord;
#X obj 30 187 hip~ 5;
#X obj 30 165 tabosc4~ \$2-wave;
#X obj 150 137 + 0.5;
#X obj 30 142 - 0.5;
#X obj 72 22 loadbang;
#X obj 72 44 f \$1;
#X obj 72 66 * -0.05;
#X obj 47 22 bng 15 250 50 0 empty empty empty 17 7 0 10 -262144 -1
-1;
#X obj 364 296 f \$1;
#X obj 364 318 * -0.05;
#X obj 364 340 + 0.5;
#X floatatom 364 362 5 0 0 0 - - -, f 5;
#X floatatom 367 260 5 0 0 0 - - -, f 5;
#X obj 72 88 + 0.8;
#X obj 260 136 sel 0 1;
#X msg 266 162 0 30;
#X msg 302 163 1 150;
#X obj 214 315 l lp10_butt~ 15000;
#X obj 426 292 l block~ 64 1 4;
#X obj 485 166 switch~;
#X obj 485 114 tgl 15 0 empty empty empty 17 7 0 10 -262144 -1 -1 0
1;
#X obj 332 210 line;
#X obj 332 232 != 0;
#X connect 1 0 9 0;
#X connect 2 0 17 0;
#X connect 2 0 18 0;
#X connect 3 0 2 0;
#X connect 4 0 6 0;
#X connect 5 0 4 0;
#X connect 7 0 1 0;
#X connect 8 0 7 0;
#X connect 9 0 0 0;
#X connect 10 0 9 1;
#X connect 11 0 12 0;
#X connect 12 0 13 0;
#X connect 13 0 29 0;
#X connect 13 1 14 0;
#X connect 14 0 2 0;
#X connect 15 0 9 0;
#X connect 16 0 15 0;
#X connect 17 0 7 0;
#X connect 18 0 16 0;
#X connect 19 0 20 0;
#X connect 20 0 21 0;
#X connect 21 0 28 0;
#X connect 22 0 20 0;
#X connect 23 0 24 0;
#X connect 24 0 25 0;
#X connect 25 0 26 0;
#X connect 27 0 23 0;
#X connect 28 0 18 1;
#X connect 28 0 17 1;
#X connect 29 0 30 0;
#X connect 29 1 31 0;
#X connect 30 0 10 0;
#X connect 30 0 36 0;
#X connect 31 0 10 0;
#X connect 31 0 36 0;
#X connect 35 0 34 0;
#X connect 36 0 37 0;
#X connect 37 0 35 0;
