#N canvas 157 146 677 619 10;
#X declare -stdpath creb -lib creb;
#X declare -stdpath cyclone -lib cyclone;
#X obj 35 8 declare -stdpath creb -lib creb;
#X obj 36 30 declare -stdpath cyclone -lib cyclone;
#X obj 125 513 delwrite~ \$0-d 500;
#X obj 110 284 vline~;
#X floatatom 299 209 5 0 0 0 - - -, f 5;
#X obj 299 228 mtof;
#X msg 299 250 1000 \$1;
#X obj 299 272 /;
#X obj 110 308 hip~ 5;
#X obj 110 219 metro 800;
#X obj 49 243 tgl 15 0 empty empty empty 17 7 0 10 -262144 -1 -1 0
1;
#X floatatom 165 281 5 0 0 0 - - -, f 5;
#X obj 165 300 mtof;
#X floatatom 165 322 5 0 0 0 - - -, f 5;
#X msg 110 255 1 0.1 \, -1 0.1 5 \, 0 10 10;
#X obj 72 368 bp~ 120 10;
#X obj 141 364 bp~ 3100 15;
#X obj 72 390 *~ 10;
#X obj 114 415 lop~ 100;
#X obj 155 341 bp~ 830 15;
#X obj 163 401 *~ 10;
#X obj 221 65 r BASSE_KB;
#X obj 299 159 + 24;
#X obj 299 186 accord;
#X obj 221 108 unpack;
#X obj 221 86 lastKeyOn;
#X obj 47 185 b;
#X obj 188 434 *~ 0.9;
#X obj 249 397 lop~ 500;
#X obj 15 74 route \$1;
#X obj 299 134 +;
#X obj 358 57 sel 0 1;
#X obj 358 103 f;
#X msg 429 81 3.14159;
#X msg 358 81 1.5708;
#X obj 433 231 * \$1;
#X obj 359 34 r choixGamme;
#X obj 333 132 t b f;
#X obj 328 542 outlet~;
#X obj 456 32 loadbang;
#X msg 456 54 0;
#X obj 15 53 r BASSE_TRIG;
#X obj 432 186 loadbang;
#X msg 432 208 4;
#X obj 221 134 sel -1;
#X msg 221 156 8;
#X obj 233 234 * 1.57;
#X obj 234 190 * -1;
#X obj 234 212 + 8;
#X obj 298 336 vd~ \$0-d;
#X obj 299 316 line~;
#X msg 299 294 \$1 20;
#X obj 360 289 * 10;
#X obj 168 136 != -1;
#X obj 47 207 spigot;
#X obj 84 101 r BASSE_MODE;
#X obj 382 362 pack f 0.5;
#X msg 382 387 \$2 \$1;
#X obj 382 409 /;
#X obj 382 431 exp;
#X obj 449 340 log;
#X obj 452 297 hsl 128 15 0 1 0 1 empty empty empty -2 -8 0 10 -262144
-1 -1 4800 1;
#X obj 449 317 pow 3;
#X obj 15 104 sel 0 1;
#X obj 79 159 spigot 1;
#X obj 15 159 spigot 1;
#X obj 68 133 != 2;
#X obj 132 132 == 0;
#X obj 436 490 route \$1;
#X obj 436 469 r BASSE_TRIG_AUTO;
#X floatatom 487 371 5 0 0 0 - - -, f 5;
#X floatatom 364 488 5 0 0 0 - - -, f 5;
#X obj 298 358 hip~ 60;
#X connect 3 0 8 0;
#X connect 4 0 5 0;
#X connect 5 0 6 0;
#X connect 5 0 52 0;
#X connect 5 0 56 0;
#X connect 6 0 7 0;
#X connect 7 0 51 0;
#X connect 8 0 15 0;
#X connect 8 0 16 0;
#X connect 8 0 18 0;
#X connect 8 0 19 0;
#X connect 9 0 14 0;
#X connect 10 0 9 0;
#X connect 11 0 12 0;
#X connect 12 0 13 0;
#X connect 13 0 16 1;
#X connect 14 0 3 0;
#X connect 15 0 17 0;
#X connect 16 0 20 0;
#X connect 17 0 2 0;
#X connect 18 0 2 0;
#X connect 19 0 20 0;
#X connect 20 0 2 0;
#X connect 21 0 25 0;
#X connect 22 0 23 0;
#X connect 23 0 4 0;
#X connect 24 0 44 0;
#X connect 24 0 53 0;
#X connect 25 0 24 0;
#X connect 26 0 54 0;
#X connect 27 0 2 0;
#X connect 28 0 27 0;
#X connect 29 0 63 0;
#X connect 30 0 22 0;
#X connect 31 0 34 0;
#X connect 31 1 33 0;
#X connect 32 0 46 1;
#X connect 33 0 32 0;
#X connect 34 0 32 0;
#X connect 35 0 37 0;
#X connect 36 0 31 0;
#X connect 37 0 30 0;
#X connect 37 1 30 1;
#X connect 39 0 40 0;
#X connect 40 0 31 0;
#X connect 41 0 29 0;
#X connect 42 0 43 0;
#X connect 43 0 35 0;
#X connect 44 0 45 0;
#X connect 44 1 47 0;
#X connect 45 0 47 0;
#X connect 46 0 30 0;
#X connect 47 0 48 0;
#X connect 48 0 46 0;
#X connect 49 0 72 0;
#X connect 50 0 49 0;
#X connect 51 0 50 0;
#X connect 52 0 28 1;
#X connect 53 0 54 1;
#X connect 54 0 14 0;
#X connect 55 0 66 0;
#X connect 55 0 67 0;
#X connect 56 0 57 0;
#X connect 57 0 58 0;
#X connect 58 0 59 0;
#X connect 59 0 27 1;
#X connect 59 0 71 0;
#X connect 60 0 56 1;
#X connect 61 0 62 0;
#X connect 62 0 60 0;
#X connect 62 0 70 0;
#X connect 63 0 65 0;
#X connect 63 1 64 0;
#X connect 64 0 26 0;
#X connect 65 0 26 0;
#X connect 66 0 65 1;
#X connect 67 0 64 1;
#X connect 68 0 14 0;
#X connect 69 0 68 0;
#X connect 72 0 28 0;
#X connect 72 0 38 0;
