#N canvas 46 451 450 300 10;
#X obj 75 29 inlet;
#X obj 75 51 t f f f f f f f f, f 50;
#X obj 372 77 & 128;
#X obj 372 120 change;
#X msg 372 142 7 \$1;
#X obj 329 120 change;
#X obj 287 119 change;
#X obj 244 119 change;
#X obj 202 120 change;
#X obj 159 120 change;
#X obj 117 119 change;
#X obj 75 119 change;
#X obj 75 76 & 1;
#X obj 117 76 & 2;
#X obj 159 77 & 4;
#X obj 202 77 & 8;
#X obj 244 76 & 16;
#X obj 287 76 & 32;
#X obj 329 77 & 64;
#X msg 75 141 0 \$1;
#X msg 117 141 1 \$1;
#X msg 159 142 2 \$1;
#X msg 202 142 3 \$1;
#X msg 244 141 4 \$1;
#X msg 287 141 5 \$1;
#X msg 329 142 6 \$1;
#X obj 75 206 outlet;
#X obj 372 99 == 0;
#X obj 329 99 == 0;
#X obj 287 98 == 0;
#X obj 244 98 == 0;
#X obj 202 99 == 0;
#X obj 159 99 == 0;
#X obj 117 98 == 0;
#X obj 75 98 == 0;
#X connect 0 0 1 0;
#X connect 1 0 12 0;
#X connect 1 1 13 0;
#X connect 1 2 14 0;
#X connect 1 3 15 0;
#X connect 1 4 16 0;
#X connect 1 5 17 0;
#X connect 1 6 18 0;
#X connect 1 7 2 0;
#X connect 2 0 27 0;
#X connect 3 0 4 0;
#X connect 4 0 26 0;
#X connect 5 0 25 0;
#X connect 6 0 24 0;
#X connect 7 0 23 0;
#X connect 8 0 22 0;
#X connect 9 0 21 0;
#X connect 10 0 20 0;
#X connect 11 0 19 0;
#X connect 12 0 34 0;
#X connect 13 0 33 0;
#X connect 14 0 32 0;
#X connect 15 0 31 0;
#X connect 16 0 30 0;
#X connect 17 0 29 0;
#X connect 18 0 28 0;
#X connect 19 0 26 0;
#X connect 20 0 26 0;
#X connect 21 0 26 0;
#X connect 22 0 26 0;
#X connect 23 0 26 0;
#X connect 24 0 26 0;
#X connect 25 0 26 0;
#X connect 27 0 3 0;
#X connect 28 0 5 0;
#X connect 29 0 6 0;
#X connect 30 0 7 0;
#X connect 31 0 8 0;
#X connect 32 0 9 0;
#X connect 33 0 10 0;
#X connect 34 0 11 0;
