#N canvas 240 265 450 300 10;
#X obj 160 90 inlet;
#X obj 160 112 list \$1 \$2 \$3 \$4 \$5;
#X obj 160 134 list trim;
#X obj 160 156 outlet;
#X obj 208 90 loadbang;
#X connect 0 0 1 0;
#X connect 1 0 2 0;
#X connect 2 0 3 0;
#X connect 4 0 1 0;
