#N canvas 97 85 1084 745 10;
#X declare -stdpath cyclone -lib cyclone;
#X floatatom 293 175 5 0 0 0 - - -, f 5;
#X obj 287 236 mtof;
#X obj 163 208 vline~;
#X obj 36 157 hsl 128 15 0 1 0 0 empty empty empty -2 -8 0 10 -262144
-1 -1 0 1;
#X obj 33 177 pow 3;
#X msg 33 197 \$1 5;
#X obj 33 217 line~;
#X obj 104 246 *~;
#X obj 78 184 noise~;
#X obj 192 401 clip~ -1 1;
#X obj 192 381 hip~ 5;
#X obj 302 20 key;
#X obj 413 172 keyup;
#X obj 346 87 - 97;
#X msg 364 223 1;
#X msg 412 217 0;
#X obj 342 179 change;
#X obj 78 224 *~ 0.5;
#X msg 390 82 5;
#X obj 300 410 declare -stdpath cyclone -lib cyclone;
#X floatatom 558 343 5 0 0 0 - - -, f 5;
#X obj 150 264 hip~ 50;
#X msg 215 207 0 50;
#X floatatom 427 79 5 0 0 0 - - -, f 5;
#N canvas 7 75 545 290 filter 0;
#X obj 198 22 inlet~;
#X obj 75 139 *~ 20;
#X obj 75 117 bp~ 500 20;
#X obj 151 113 bp~ 1200 20;
#X obj 151 135 *~ 20;
#X obj 236 115 bp~ 2400 20;
#X obj 236 137 *~ 10;
#X obj 316 139 *~ 10;
#X obj 315 117 bp~ 3200 20;
#X obj 15 137 *~ 3;
#X obj 15 115 lop~ 200;
#X obj 401 115 bp~ 5600 100;
#X obj 198 51 +~;
#X obj 182 199 +~;
#X obj 401 137 *~ 20;
#X obj 182 221 outlet~;
#X floatatom 195 87 5 0 0 0 - - -, f 5;
#X floatatom 110 53 5 0 0 0 - - -, f 5;
#X floatatom 46 63 5 0 0 0 - - -, f 5;
#X floatatom 291 69 5 0 0 0 - - -, f 5;
#X floatatom 364 69 5 0 0 0 - - -, f 5;
#X floatatom 449 74 5 0 0 0 - - -, f 5;
#X connect 0 0 12 0;
#X connect 1 0 13 0;
#X connect 2 0 1 0;
#X connect 3 0 4 0;
#X connect 4 0 13 0;
#X connect 5 0 6 0;
#X connect 6 0 13 0;
#X connect 7 0 13 0;
#X connect 8 0 7 0;
#X connect 9 0 13 0;
#X connect 10 0 9 0;
#X connect 11 0 14 0;
#X connect 12 0 2 0;
#X connect 12 0 3 0;
#X connect 12 0 5 0;
#X connect 12 0 8 0;
#X connect 12 0 11 0;
#X connect 12 0 10 0;
#X connect 13 0 15 0;
#X connect 14 0 13 0;
#X connect 16 0 4 1;
#X connect 17 0 1 1;
#X connect 18 0 9 1;
#X connect 19 0 6 1;
#X connect 20 0 7 1;
#X connect 21 0 14 1;
#X restore 191 438 pd filter;
#X obj 413 194 spigot;
#X obj 346 64 spigot;
#X obj 302 42 moses 97;
#X obj 426 31 tgl 15 0 empty empty empty 17 7 0 10 -262144 -1 -1 0
1;
#N canvas 615 94 821 766 saxTube 0;
#X obj 84 29 inlet~;
#X obj 103 461 outlet~;
#X obj 85 277 delwrite~ \$0-del 1000;
#X obj 204 115 vd~ \$0-del 50;
#X obj 204 34 inlet~;
#X obj 377 338 hsl 128 15 0 4 0 0 empty empty empty -2 -8 0 10 -262144
-1 -1 0 1;
#X obj 415 369 pow 3;
#X msg 415 389 \$1 5;
#X obj 415 409 line~;
#X obj 362 158 noise~;
#X obj 362 178 lop~ 8000;
#X obj 205 142 hip~ 20;
#X obj 362 198 *~ 0.2;
#X floatatom 376 408 5 0 0 0 - - -, f 5;
#X obj 310 43 block~ 8 1 2;
#X obj 468 267 atan~;
#X obj 264 388 atan~;
#X obj 468 245 +~ 4.5;
#X floatatom 331 131 5 0 0 0 - - -, f 5;
#X obj 331 107 hsl 128 15 0 20 0 0 empty empty empty -2 -8 0 10 -262144
-1 -1 0 1;
#X floatatom 289 108 5 0 0 0 - - -, f 5;
#X obj 289 84 hsl 128 15 -20 20 0 0 empty empty empty -2 -8 0 10 -262144
-1 -1 0 1;
#X obj 264 363 hip~ 5;
#N canvas 0 50 450 250 (subpatch) 0;
#X array \$0-anche 100 float 3;
#A 0 -0.0751437 -0.0750732 -0.0749996 -0.0749229 -0.0748429 -0.0747592
-0.0746716 -0.0745799 -0.0744837 -0.0743828 -0.0742767 -0.074165 -0.0740474
-0.0739233 -0.0737922 -0.0736535 -0.0735064 -0.0733502 -0.0731841 -0.073007
-0.0728178 -0.0726153 -0.0723981 -0.0721643 -0.0719122 -0.0716395 -0.0713435
-0.0710212 -0.070669 -0.0702824 -0.0698563 -0.0693843 -0.0688587 -0.06827
-0.0676064 -0.0668527 -0.0659897 -0.0649925 -0.0638281 -0.0624523 -0.0608045
-0.0588003 -0.0563189 -0.0531849 -0.0491397 -0.0438029 -0.0366408 -0.027021
-0.0145728 0 0.0636512 0.127044 0.189922 0.25203 0.313115 0.372931
0.431234 0.487788 0.542364 0.59474 0.644705 0.692054 0.736597 0.778153
0.816553 0.851641 0.883275 0.911327 0.935683 0.956245 0.972928 0.985665
0.994405 0.999112 0.999768 0.996368 0.988928 0.977477 0.962061 0.942744
0.919604 0.892734 0.862243 0.828256 0.790909 0.750355 0.706758 0.660294
0.611153 0.559533 0.505644 0.449704 0.39194 0.332587 0.271884 0.21008
0.147423 0.0841683 0.0205721 -0.0431073;
#X coords 0 1 100 -1 200 140 1;
#X restore 502 106 graph;
#X obj 609 315 until;
#X msg 609 273 100;
#X obj 609 295 t f b;
#X obj 609 337 i;
#X obj 640 337 + 1;
#X msg 651 315 0;
#X obj 609 389 - 49;
#X obj 609 411 / 50;
#X obj 609 359 t f f;
#X obj 609 565 tabwrite \$0-anche;
#X obj 649 477 / 1.57;
#X obj 609 453 moses 0;
#X obj 609 476 * 3;
#X obj 264 299 tabread4~ \$0-anche;
#X obj 265 256 *~ 100;
#X obj 265 278 +~ 50;
#X obj 386 482 outlet~;
#X msg 517 477 10;
#X msg 521 551 1;
#X obj 609 432 * 5;
#X obj 131 192 lop~ 1000;
#X obj 131 213 *~ 0.7;
#X obj 609 500 atan;
#X obj 716 462 / 1.57;
#X obj 716 440 atan;
#X obj 650 512 sin;
#X obj 609 522 / 20;
#X floatatom 399 287 5 0 0 0 - - -, f 5;
#X obj 456 37 inlet~;
#X obj 265 222 *~;
#X obj 297 182 *~ -0.1;
#X obj 264 409 lop~ 1000;
#X obj 255 446 hip~ 1000;
#X obj 245 474 *~ 0.2;
#X connect 0 0 2 0;
#X connect 3 0 11 0;
#X connect 4 0 3 0;
#X connect 5 0 6 0;
#X connect 6 0 7 0;
#X connect 6 0 13 0;
#X connect 7 0 8 0;
#X connect 9 0 10 0;
#X connect 10 0 12 0;
#X connect 11 0 1 0;
#X connect 11 0 44 0;
#X connect 11 0 53 0;
#X connect 16 0 55 0;
#X connect 17 0 15 0;
#X connect 18 0 17 1;
#X connect 19 0 18 0;
#X connect 20 0 53 1;
#X connect 21 0 20 0;
#X connect 22 0 16 0;
#X connect 24 0 27 0;
#X connect 25 0 26 0;
#X connect 26 0 24 0;
#X connect 26 1 29 0;
#X connect 27 0 28 0;
#X connect 27 0 32 0;
#X connect 28 0 27 1;
#X connect 29 0 27 1;
#X connect 30 0 31 0;
#X connect 31 0 43 0;
#X connect 32 0 30 0;
#X connect 32 1 33 1;
#X connect 34 0 49 0;
#X connect 35 0 36 0;
#X connect 35 1 34 0;
#X connect 36 0 46 0;
#X connect 37 0 40 0;
#X connect 37 0 22 0;
#X connect 38 0 39 0;
#X connect 39 0 37 0;
#X connect 41 0 50 1;
#X connect 42 0 50 1;
#X connect 43 0 35 0;
#X connect 44 0 45 0;
#X connect 45 0 2 0;
#X connect 46 0 50 0;
#X connect 48 0 47 0;
#X connect 49 0 33 0;
#X connect 50 0 33 0;
#X connect 51 0 55 1;
#X connect 52 0 54 0;
#X connect 53 0 38 0;
#X connect 54 0 53 1;
#X connect 55 0 2 0;
#X connect 55 0 56 0;
#X connect 56 0 57 0;
#X connect 57 0 2 0;
#X restore 192 361 pd saxTube;
#X obj 478 230 b;
#X obj 478 257 pack 3 0.5;
#X msg 478 282 \$1 \, \$2 100;
#X obj 547 207 hsl 128 15 0 4 0 0 empty empty empty -2 -8 0 10 -262144
-1 -1 0 1;
#X floatatom 558 240 5 0 0 0 - - -, f 5;
#X obj 97 442 line~;
#X obj 80 508 *~;
#X msg 219 135 40;
#X obj 419 272 line~;
#X obj 395 356 *~;
#X obj 414 378 *~;
#X obj 410 331 *~;
#X obj 486 366 +~ 1;
#X obj 488 345 *~ 0.05;
#X msg 248 131 52;
#X obj 77 203 lop~ 1000;
#X msg 198 107 28;
#X floatatom 218 308 5 0 0 0 - - -, f 5;
#X obj 208 286 * 0.5;
#X obj 80 463 moonlib/ssaw~;
#X obj 80 530 lop~;
#X obj 80 485 hip~ 5;
#X obj 155 426 * 4;
#X obj 487 323 osc~ 2;
#X msg 89 385 1 200;
#X msg 35 404 0 50;
#X obj 190 459 atan~;
#X msg 564 278 \$1 20;
#X obj 184 593 hsl 128 15 0 3 0 0 empty empty empty -2 -8 0 10 -262144
-1 -1 0 1;
#X msg 162 178 1 5 \, 0.1 50 10;
#X floatatom 181 613 5 0 0 0 - - -, f 5;
#X obj 161 100 line~;
#X obj 160 36 r SOUFFLE;
#X msg 115 75 0;
#X obj 522 7 r SAX_KB;
#X obj 522 70 lastKeyOn;
#X floatatom 547 99 5 0 0 0 - - -, f 5;
#X obj 649 49 sel 0 1;
#X obj 649 95 f;
#X obj 650 26 r choixGamme;
#X obj 747 24 loadbang;
#X msg 747 46 0;
#X obj 522 119 * 1.57;
#X obj 522 182 accord;
#X obj 494 201 bng 15 250 50 0 empty empty empty 17 7 0 10 -262144
-1 -1;
#X obj 308 130 + 0;
#X floatatom 602 185 5 0 0 0 - - -, f 5;
#X obj 242 50 != 0;
#X obj 242 77 change;
#X obj 242 99 sel 0 1;
#X obj 522 143 + 36;
#X obj 186 538 throw~ MASTER;
#X obj 193 486 *~ 0.5;
#X msg 649 73 2.31479;
#X msg 720 73 4.36143;
#X obj 79 97 *~;
#X obj 459 252 bng 15 250 50 0 empty empty empty 17 7 0 10 -262144
-1 -1;
#X obj 305 91 + 36;
#X obj 294 381 clip~ 0 7;
#X obj 80 126 *~ 0.2;
#X obj 522 29 route 9 10;
#X obj 707 282 tgl 15 0 empty empty empty 17 7 0 10 -262144 -1 -1 0
1;
#X obj 360 280 *~ 1;
#X obj 707 234 sel 1;
#X obj 707 302 * 10;
#X obj 707 324 + 5;
#X obj 295 354 *~ 5;
#X obj 80 552 *~ 1;
#X obj 130 623 *~ 0.2;
#X obj 824 158 r BASSE_KB;
#X msg 824 180 \$2 \$1;
#X obj 824 202 route 1;
#X obj 826 343 * 12;
#X obj 826 365 + 36;
#X floatatom 826 433 5 0 0 0 - - -, f 5;
#X obj 575 142 t b f;
#X obj 824 267 moses 3;
#X obj 824 232 - 4;
#X msg 158 66 \$1 10;
#X obj 688 519 tgl 15 0 empty empty empty 17 7 0 10 -262144 -1 -1 0
1;
#X msg 728 465 1;
#X msg 656 489 0;
#X obj 656 468 del 2000;
#X obj 665 420 sel 0 1;
#X msg 680 447 stop;
#X obj 665 398 != 0;
#X obj 661 361 tgl 15 0 empty empty empty 17 7 0 10 -262144 -1 -1 0
1;
#X obj 689 597 switch~;
#X obj 826 311 r OCTAVE;
#X obj 403 528 mtof~;
#X obj 402 504 +~;
#X obj 385 552 sig~ 1000;
#X obj 385 574 /~;
#X obj 858 58 s SAX_KB;
#X obj 859 13 tgl 15 0 empty empty empty 17 7 0 10 -262144 -1 -1 0
1;
#X obj 836 122 s SOUFFLE;
#X obj 836 97 hsl 128 15 0 1 0 0 empty empty empty -2 -8 0 10 -262144
-1 -1 0 1;
#X msg 577 503 \$1 50;
#X obj 577 525 line~;
#X obj 503 504 *~;
#X obj 518 449 hsl 128 15 0 1 0 0 empty empty empty -2 -8 0 10 -262144
-1 -1 0 1;
#X msg 858 36 1 \$1;
#X obj 503 482 osc~ 5;
#X obj 925 273 r AXLSLOW1;
#X obj 925 295 unpack f f f;
#X obj 918 380 abs;
#X obj 918 402 * 7;
#X obj 985 387 abs;
#X floatatom 992 561 5 0 0 0 - - -, f 5;
#X floatatom 918 464 5 0 0 0 - - -, f 5;
#X obj 918 424 + 2;
#X obj 985 409 * 4;
#X obj 387 593 lop~ 4000;
#X obj 313 554 *~ 0.5;
#X connect 0 0 1 0;
#X connect 0 0 120 0;
#X connect 1 0 48 0;
#X connect 2 0 7 1;
#X connect 2 0 21 0;
#X connect 3 0 4 0;
#X connect 4 0 5 0;
#X connect 5 0 6 0;
#X connect 7 0 29 0;
#X connect 8 0 45 0;
#X connect 9 0 24 0;
#X connect 10 0 9 0;
#X connect 11 0 27 0;
#X connect 12 0 25 0;
#X connect 13 0 87 0;
#X connect 15 0 22 0;
#X connect 15 0 55 0;
#X connect 15 0 38 0;
#X connect 17 0 7 0;
#X connect 18 0 75 0;
#X connect 18 0 87 0;
#X connect 21 0 29 0;
#X connect 22 0 2 0;
#X connect 23 0 75 0;
#X connect 24 0 56 0;
#X connect 25 0 15 0;
#X connect 26 0 13 0;
#X connect 27 1 26 0;
#X connect 28 0 25 1;
#X connect 28 0 26 1;
#X connect 29 0 10 0;
#X connect 30 0 31 0;
#X connect 30 0 86 0;
#X connect 31 0 32 0;
#X connect 32 0 38 0;
#X connect 33 0 31 1;
#X connect 33 0 34 0;
#X connect 33 0 57 0;
#X connect 35 0 36 1;
#X connect 36 0 50 0;
#X connect 37 0 75 1;
#X connect 39 0 40 0;
#X connect 41 0 39 0;
#X connect 41 0 39 1;
#X connect 41 0 40 1;
#X connect 42 0 41 1;
#X connect 43 0 42 0;
#X connect 44 0 75 1;
#X connect 45 0 17 0;
#X connect 46 0 75 1;
#X connect 48 0 47 0;
#X connect 48 0 52 0;
#X connect 49 0 51 0;
#X connect 50 0 97 0;
#X connect 50 0 98 0;
#X connect 51 0 36 0;
#X connect 52 0 50 1;
#X connect 53 0 43 0;
#X connect 54 0 35 0;
#X connect 55 0 35 0;
#X connect 56 0 82 0;
#X connect 57 0 38 0;
#X connect 58 0 60 0;
#X connect 58 0 98 1;
#X connect 61 0 92 0;
#X connect 61 0 96 0;
#X connect 61 0 85 0;
#X connect 61 0 85 1;
#X connect 62 0 108 0;
#X connect 62 0 77 0;
#X connect 62 0 115 0;
#X connect 63 0 61 0;
#X connect 64 0 90 0;
#X connect 65 0 66 0;
#X connect 65 0 72 0;
#X connect 67 0 83 0;
#X connect 67 1 84 0;
#X connect 68 0 72 1;
#X connect 69 0 67 0;
#X connect 70 0 71 0;
#X connect 71 0 67 0;
#X connect 72 0 80 0;
#X connect 73 0 75 0;
#X connect 73 0 76 0;
#X connect 75 0 0 0;
#X connect 75 0 14 0;
#X connect 75 0 59 0;
#X connect 75 0 74 0;
#X connect 78 0 79 0;
#X connect 79 0 15 0;
#X connect 79 1 30 0;
#X connect 80 0 73 0;
#X connect 82 0 81 0;
#X connect 83 0 68 0;
#X connect 84 0 68 0;
#X connect 85 0 89 0;
#X connect 87 0 75 0;
#X connect 88 0 29 2;
#X connect 89 0 7 1;
#X connect 90 1 93 0;
#X connect 90 2 65 0;
#X connect 91 0 94 0;
#X connect 92 0 41 0;
#X connect 93 0 91 0;
#X connect 94 0 95 0;
#X connect 95 0 96 1;
#X connect 96 0 88 0;
#X connect 97 0 24 0;
#X connect 98 0 29 0;
#X connect 99 0 100 0;
#X connect 100 0 101 0;
#X connect 101 0 107 0;
#X connect 102 0 103 0;
#X connect 103 0 104 0;
#X connect 103 0 105 0;
#X connect 105 0 80 0;
#X connect 105 1 80 1;
#X connect 107 0 106 0;
#X connect 108 0 61 0;
#X connect 108 0 35 0;
#X connect 109 0 117 0;
#X connect 110 0 109 0;
#X connect 111 0 109 0;
#X connect 112 0 111 0;
#X connect 113 0 112 0;
#X connect 113 1 110 0;
#X connect 113 1 114 0;
#X connect 114 0 112 0;
#X connect 115 0 113 0;
#X connect 116 0 115 0;
#X connect 118 0 102 0;
#X connect 119 0 122 1;
#X connect 119 0 143 0;
#X connect 120 0 119 0;
#X connect 121 0 122 0;
#X connect 122 0 142 0;
#X connect 124 0 131 0;
#X connect 126 0 125 0;
#X connect 127 0 128 0;
#X connect 128 0 129 1;
#X connect 129 0 120 1;
#X connect 130 0 127 0;
#X connect 131 0 123 0;
#X connect 132 0 129 0;
#X connect 133 0 134 0;
#X connect 134 0 135 0;
#X connect 134 2 137 0;
#X connect 135 0 136 0;
#X connect 136 0 140 0;
#X connect 137 0 141 0;
#X connect 140 0 132 0;
#X connect 140 0 139 0;
#X connect 141 0 127 0;
#X connect 141 0 138 0;
#X connect 142 0 29 1;
#X connect 143 0 49 0;
