#N canvas 196 259 322 277 10;
#X declare -stdpath moonlib -path moonlib;
#N canvas 584 151 507 552 guts 0;
#N canvas 569 541 450 192 getnote 0;
#X obj 141 111 tabread;
#X obj 172 39 r \$0-bank;
#X msg 172 80 set noteaccord-\$1;
#X obj 141 17 r \$0-note;
#X obj 141 135 outlet;
#X obj 172 60 + 1;
#X obj 141 38 + 1;
#X floatatom 103 74 5 0 0 0 - - -, f 5;
#X floatatom 92 146 5 0 0 0 - - -, f 5;
#X connect 0 0 4 0;
#X connect 0 0 8 0;
#X connect 1 0 5 0;
#X connect 2 0 0 0;
#X connect 3 0 6 0;
#X connect 5 0 2 0;
#X connect 6 0 0 0;
#X connect 7 0 0 0;
#X restore 394 91 pd getnote;
#X obj 34 29 r \$0-bank;
#X obj 34 50 + 1;
#X obj 59 246 s \$0-note-rcv;
#X msg 59 217 number \$1 \, color 0 22 22;
#X msg 100 189 number 1 \, color 0 0 22;
#X obj 34 111 s notebanks;
#X obj 34 139 r notebanks-snd;
#X obj 34 190 route 0;
#X obj 34 73 t f f;
#X obj 34 313 s \$0-bank-rcv;
#X msg 155 246 label bank-\$1;
#X msg 34 287 label bank-\$1:\$3;
#X obj 34 267 list prepend;
#X msg 34 92 \$1 getprops;
#X obj 34 160 route props;
#X obj 283 255 +~;
#N canvas 707 303 590 453 playsample 0;
#X obj 98 49 r \$0-bank;
#X obj 67 27 r \$0-note;
#X obj 98 70 + 1;
#X obj 67 48 + 1;
#X obj 67 167 tabplay~;
#X obj 66 276 *~;
#X obj 81 210 pow 2;
#X msg 81 232 \$1 10;
#X obj 81 254 line~;
#X obj 81 186 r \$0-volsample;
#X obj 67 92 pack f f;
#X msg 67 113 set NT-\$2-\$1 \, bang;
#X obj 196 111 r \$0-play;
#X obj 66 297 outlet~;
#X obj 244 299 t f b, f 6;
#X obj 244 324 +;
#X obj 244 345 f;
#X obj 244 366 /;
#X obj 187 246 spigot;
#X msg 304 295 0;
#X msg 220 199 1;
#X msg 190 200 0;
#X obj 220 177 t b b;
#X obj 244 387 outlet;
#X obj 277 325 f;
#X obj 277 346 + 1;
#X obj 187 267 moses 20;
#X obj 244 268 moses 110;
#X text 326 280 mean midinote on sample;
#X text 326 266 note midi moyenne sur le sample;
#X floatatom 108 345 5 0 0 0 - - -, f 5;
#X msg 182 154 stop;
#X obj 220 154 del 500;
#X floatatom 120 394 5 0 0 0 - - -, f 5;
#X obj 187 225 sigmund~ -hop 4096 -stabletime 300 pitch;
#X connect 0 0 2 0;
#X connect 1 0 3 0;
#X connect 1 0 32 0;
#X connect 2 0 10 1;
#X connect 3 0 10 0;
#X connect 4 0 5 0;
#X connect 4 0 34 0;
#X connect 4 1 21 0;
#X connect 4 1 31 0;
#X connect 5 0 13 0;
#X connect 6 0 7 0;
#X connect 7 0 8 0;
#X connect 8 0 5 1;
#X connect 9 0 6 0;
#X connect 10 0 11 0;
#X connect 11 0 4 0;
#X connect 12 0 4 0;
#X connect 14 0 15 0;
#X connect 14 1 24 0;
#X connect 15 0 16 0;
#X connect 16 0 15 1;
#X connect 16 0 17 0;
#X connect 17 0 23 0;
#X connect 17 0 33 0;
#X connect 18 0 26 0;
#X connect 18 0 30 0;
#X connect 19 0 24 1;
#X connect 19 0 15 1;
#X connect 20 0 18 1;
#X connect 21 0 18 1;
#X connect 22 0 20 0;
#X connect 22 1 19 0;
#X connect 24 0 25 0;
#X connect 25 0 17 1;
#X connect 25 0 24 1;
#X connect 26 1 27 0;
#X connect 27 0 14 0;
#X connect 31 0 32 0;
#X connect 32 0 22 0;
#X connect 34 0 18 0;
#X restore 283 74 pd playsample;
#N canvas 983 349 202 274 playsynth 0;
#X obj 30 215 *~;
#X obj 45 149 pow 2;
#X msg 45 171 \$1 10;
#X obj 45 193 line~;
#X obj 30 236 outlet~;
#X obj 45 125 r \$0-volsynth;
#X obj 31 17 inlet;
#X obj 31 38 mtof;
#X obj 31 61 ssaw~;
#X obj 31 82 lop~;
#X obj 31 103 hip~ 80;
#X obj 77 60 * 5;
#X connect 0 0 4 0;
#X connect 1 0 2 0;
#X connect 2 0 3 0;
#X connect 3 0 0 1;
#X connect 5 0 1 0;
#X connect 6 0 7 0;
#X connect 7 0 8 0;
#X connect 7 0 11 0;
#X connect 8 0 9 0;
#X connect 9 0 10 0;
#X connect 10 0 0 0;
#X connect 11 0 9 1;
#X restore 301 223 pd playsynth;
#X obj 378 44 r \$0-synthsrc;
#X obj 394 112 f;
#X obj 358 113 f;
#X msg 394 133 0 \$1;
#X msg 358 134 1 \$1;
#X obj 358 155 route 0;
#X obj 358 177 s \$0-accord-rcv;
#X obj 378 65 t b f;
#X obj 301 202 r \$0-accord;
#X obj 274 348 r \$0-accord;
#X obj 259 370 f;
#X obj 259 320 r \$0-save;
#X obj 259 391 list prepend;
#X obj 259 439 list prepend;
#X obj 259 414 list prepend setaccord;
#X obj 399 414 r \$0-bank;
#X obj 399 435 + 1;
#X obj 342 391 + 1;
#X obj 342 371 r \$0-note;
#X obj 259 460 s notebanks;
#X obj 42 430 r show-accorder;
#X msg 42 451 vis 0 \, vis 1;
#X obj 42 472 s accorder-canvas;
#X obj 133 25 declare -stdpath moonlib -path moonlib;
#X floatatom 323 177 5 0 0 0 - - -, f 5;
#X msg 408 224 label accord:\$1;
#X obj 408 245 s \$0-accord-rcv;
#X obj 41 363 r \$0-on;
#X obj 41 384 switch~;
#X obj 283 282 throw~ master;
#X connect 0 0 20 0;
#X connect 1 0 2 0;
#X connect 2 0 9 0;
#X connect 4 0 3 0;
#X connect 5 0 3 0;
#X connect 7 0 15 0;
#X connect 8 0 4 0;
#X connect 8 0 13 0;
#X connect 9 0 14 0;
#X connect 9 1 5 0;
#X connect 9 1 8 1;
#X connect 9 1 13 1;
#X connect 9 1 11 0;
#X connect 11 0 10 0;
#X connect 12 0 10 0;
#X connect 13 0 12 0;
#X connect 14 0 6 0;
#X connect 15 0 8 0;
#X connect 16 0 48 0;
#X connect 17 0 16 0;
#X connect 17 1 21 0;
#X connect 18 0 16 0;
#X connect 19 0 26 0;
#X connect 20 0 22 0;
#X connect 21 0 23 0;
#X connect 22 0 24 0;
#X connect 23 0 24 0;
#X connect 24 0 25 0;
#X connect 24 0 43 0;
#X connect 26 0 21 0;
#X connect 26 0 20 0;
#X connect 26 1 24 1;
#X connect 27 0 18 0;
#X connect 27 0 44 0;
#X connect 28 0 29 1;
#X connect 29 0 31 0;
#X connect 30 0 29 0;
#X connect 31 0 33 0;
#X connect 32 0 38 0;
#X connect 33 0 32 0;
#X connect 34 0 35 0;
#X connect 35 0 32 1;
#X connect 36 0 31 1;
#X connect 37 0 36 0;
#X connect 39 0 40 0;
#X connect 40 0 41 0;
#X connect 44 0 45 0;
#X connect 46 0 47 0;
#X restore 20 233 pd guts;
#X obj 20 252 namecanvas accorder-canvas;
#X obj 7 3 cnv 15 300 220 empty empty empty 20 12 0 14 -233017 -66577
0;
#X obj 15 66 hradio 15 1 0 7 \$0-note \$0-note-rcv note 0 -8 0 10 -262144
-1 -1 0;
#X obj 15 25 hradio 15 1 0 16 \$0-bank \$0-bank-rcv bank-1:Chants/ChantsAurore
0 -8 0 10 -262144 -1 -1 0;
#X obj 112 108 bng 20 250 50 0 \$0-play empty play 0 -7 0 10 -4034
-1 -1;
#X obj 19 108 hsl 80 20 0 1 0 1 \$0-volsample empty volume-sample -2
-8 0 10 -262144 -1 -1 4800 1;
#X obj 20 146 hsl 80 20 0 1 0 1 \$0-volsynth empty volume-synthé -2
-8 0 10 -262144 -1 -1 0 1;
#X text 197 253 chaipu=brigitte;
#X obj 112 135 vradio 20 1 0 2 \$0-synthsrc \$0-synthsrc-rcv empty
0 -8 0 10 -262144 -1 -1 0;
#X text 135 137 original;
#X text 135 157 analyse;
#X obj 19 188 hsl 240 20 30 100 0 0 \$0-accord \$0-accord-rcv accord:55.4431
-2 -8 0 10 -257985 -1 -1 8687 1;
#X obj 266 188 bng 20 250 50 0 \$0-save empty save 0 -7 0 10 -258113
-1 -1;
#X obj 257 70 tgl 20 0 \$0-on empty ON 4 10 0 10 -260097 -1 -1 1 1
;
