#N canvas 1856 294 337 406 10;
#X obj 101 41 r Shift-snd;
#X obj 35 223 outlet;
#X obj 162 88 r NumSet;
#X obj 14 20 r Led\$1-real;
#X floatatom 46 52 5 0 0 0 - - -, f 5;
#X obj 162 123 == \$1;
#X obj 26 113 f;
#X obj 99 72 sel 0 1;
#X obj 160 152 f;
#X obj 160 175 sel 0 1;
#X msg 137 189 0, f 1;
#X msg 183 199 1, f 1;
#X msg 179 240 0, f 1;
#X msg 209 268 1, f 1;
#X msg 230 291 0, f 1;
#X obj 177 221 del 100;
#X obj 205 245 del 100;
#X obj 228 272 del 100;
#X obj 254 300 del 100;
#X obj 132 298 del 400;
#X connect 0 0 7 0;
#X connect 2 0 5 0;
#X connect 3 0 4 0;
#X connect 3 0 6 0;
#X connect 5 0 8 0;
#X connect 6 0 1 0;
#X connect 7 1 8 0;
#X connect 8 0 1 0;
#X connect 8 0 9 0;
#X connect 9 0 10 0;
#X connect 9 0 19 0;
#X connect 9 1 11 0;
#X connect 9 1 15 0;
#X connect 10 0 1 0;
#X connect 11 0 1 0;
#X connect 12 0 1 0;
#X connect 13 0 1 0;
#X connect 14 0 1 0;
#X connect 15 0 12 0;
#X connect 15 0 16 0;
#X connect 16 0 13 0;
#X connect 16 0 17 0;
#X connect 17 0 14 0;
#X connect 17 0 18 0;
#X connect 18 0 6 0;
#X connect 19 0 6 0;
