#N canvas 1768 318 526 726 10;
#X obj 40 313 inlet;
#X obj 184 31 r \$1-AX-\$2;
#X obj 76 454 f;
#X obj 228 114 sel -1;
#X obj 226 173 change;
#X obj 69 609 outlet;
#X obj 184 58 t f f;
#X obj 88 432 bng 15 250 50 0 empty empty empty 17 7 0 10 -262144 -1
-1;
#X obj 138 112 moses 0;
#X obj 267 421 maxlib/scale 0 1 \$3 \$4;
#X floatatom 132 57 5 0 0 0 - - -, f 5;
#X obj 74 530 spigot 0;
#X obj 139 342 tgl 15 0 empty empty empty 17 7 0 10 -262144 -1 -1 1
1;
#X obj 266 475 spigot 0;
#X obj 131 506 tgl 15 0 empty empty empty 17 7 0 10 -262144 -1 -1 0
1;
#X obj 226 202 sel 0 1;
#X obj 226 226 t b b b b;
#X msg 225 249 0, f 1;
#X msg 349 275 1, f 1;
#X obj 320 454 tgl 15 0 empty empty empty 17 7 0 10 -262144 -1 -1 0
1;
#X obj 327 251 t b b b;
#X obj 291 187 tgl 15 0 empty empty empty 17 7 0 10 -262144 -1 -1 0
1;
#X msg 265 143 1;
#X msg 228 145 0;
#X msg 373 275 0, f 1;
#X msg 329 275 1, f 1;
#X msg 286 250 0, f 1;
#X msg 246 248 1, f 1;
#X obj 75 362 spigot 1;
#X connect 0 0 28 0;
#X connect 1 0 6 0;
#X connect 1 0 10 0;
#X connect 2 0 11 0;
#X connect 3 0 23 0;
#X connect 3 1 22 0;
#X connect 4 0 15 0;
#X connect 4 0 21 0;
#X connect 6 0 8 0;
#X connect 6 1 3 0;
#X connect 7 0 2 0;
#X connect 8 1 9 0;
#X connect 9 0 13 0;
#X connect 11 0 5 0;
#X connect 12 0 28 1;
#X connect 13 0 5 0;
#X connect 14 0 11 1;
#X connect 15 0 16 0;
#X connect 15 1 20 0;
#X connect 16 0 17 0;
#X connect 16 1 27 0;
#X connect 16 2 7 0;
#X connect 16 3 26 0;
#X connect 17 0 14 0;
#X connect 18 0 14 0;
#X connect 19 0 13 1;
#X connect 20 0 25 0;
#X connect 20 1 18 0;
#X connect 20 2 24 0;
#X connect 22 0 4 0;
#X connect 23 0 4 0;
#X connect 24 0 12 0;
#X connect 25 0 19 0;
#X connect 26 0 19 0;
#X connect 27 0 12 0;
#X connect 28 0 2 0;
