#N canvas 2020 629 450 300 10;
#X text 116 203 0=haut 1=bas;
#X text 18 254 0=droite 1=gauche;
#X text 181 252 0=verso 1=recto;
#X obj 102 7 inlet;
#X obj 68 123 spigot;
#X obj 134 123 spigot;
#X obj 207 122 spigot;
#X obj 68 103 r AX-x;
#X obj 102 30 t f f;
#X obj 92 52 sel 0;
#X msg 92 73 -1;
#X obj 46 179 s \$1-AX-x;
#X obj 134 179 s \$1-AX-y;
#X obj 206 178 s \$1-AX-z;
#X obj 134 103 r AX-y;
#X obj 207 102 r AX-z;
#X connect 3 0 8 0;
#X connect 4 0 11 0;
#X connect 5 0 12 0;
#X connect 6 0 13 0;
#X connect 7 0 4 0;
#X connect 8 0 9 0;
#X connect 8 1 4 1;
#X connect 8 1 5 1;
#X connect 8 1 6 1;
#X connect 9 0 10 0;
#X connect 10 0 11 0;
#X connect 10 0 12 0;
#X connect 10 0 13 0;
#X connect 14 0 5 0;
#X connect 15 0 6 0;
