#N canvas 1660 114 768 547 10;
#X obj 26 465 *~ 0.2;
#X obj 27 500 out \$3-Main;
#X obj 27 11 sample \$1-sample-\$4 1 20 \$1 \$4;
#X obj 27 39 sample \$1-sample-\$4 2 20 \$1 \$4;
#X obj 28 67 sample \$1-sample-\$4 3 20 \$1 \$4;
#X obj 27 95 sample \$1-sample-\$4 4 20 \$1 \$4;
#X obj 27 123 sample \$1-sample-\$4 5 20 \$1 \$4;
#X obj 27 151 sample \$1-sample-\$4 6 20 \$1 \$4;
#X obj 26 179 sample \$1-sample-\$4 7 20 \$1 \$4;
#X obj 26 207 sample \$1-sample-\$4 8 20 \$1 \$4;
#X obj 27 235 sample \$1-sample-\$4 9 20 \$1 \$4;
#X obj 27 263 sample \$1-sample-\$4 10 20 \$1 \$4;
#X obj 27 291 sample \$1-sample-\$4 11 20 \$1 \$4;
#X obj 27 319 sample \$1-sample-\$4 12 20 \$1 \$4;
#X obj 28 347 sample \$1-sample-\$4 13 20 \$1 \$4;
#X obj 27 375 sample \$1-sample-\$4 14 20 \$1 \$4;
#X obj 27 403 sample \$1-sample-\$4 15 20 \$1 \$4;
#X obj 27 431 sample \$1-sample-\$4 16 20 \$1 \$4;
#X obj 360 430 decoupeur \$1-sample-\$4-16 \$1-dctl;
#X obj 360 402 decoupeur \$1-sample-\$4-15 \$1-dctl;
#X obj 361 375 decoupeur \$1-sample-\$4-14 \$1-dctl;
#X obj 361 347 decoupeur \$1-sample-\$4-13 \$1-dctl;
#X obj 361 319 decoupeur \$1-sample-\$4-12 \$1-dctl;
#X obj 361 291 decoupeur \$1-sample-\$4-11 \$1-dctl;
#X obj 361 263 decoupeur \$1-sample-\$4-10 \$1-dctl;
#X obj 362 237 decoupeur \$1-sample-\$4-9 \$1-dctl;
#X obj 362 207 decoupeur \$1-sample-\$4-8 \$1-dctl;
#X obj 361 178 decoupeur \$1-sample-\$4-7 \$1-dctl;
#X obj 361 152 decoupeur \$1-sample-\$4-6 \$1-dctl;
#X obj 362 123 decoupeur \$1-sample-\$4-5 \$1-dctl;
#X obj 361 95 decoupeur \$1-sample-\$4-4 \$1-dctl;
#X obj 361 67 decoupeur \$1-sample-\$4-3 \$1-dctl;
#X obj 360 39 decoupeur \$1-sample-\$4-2 \$1-dctl;
#X obj 363 11 decoupeur \$1-sample-\$4-1 \$1-dctl;
#X connect 0 0 1 0;
#X connect 0 0 1 1;
#X connect 2 0 0 0;
#X connect 3 0 0 0;
#X connect 4 0 0 0;
#X connect 5 0 0 0;
#X connect 6 0 0 0;
#X connect 7 0 0 0;
#X connect 8 0 0 0;
#X connect 9 0 0 0;
#X connect 10 0 0 0;
#X connect 11 0 0 0;
#X connect 12 0 0 0;
#X connect 13 0 0 0;
#X connect 14 0 0 0;
#X connect 15 0 0 0;
#X connect 16 0 0 0;
#X connect 17 0 0 0;
