#N canvas 1366 239 899 679 10;
#X declare -path AutoPreset -stdpath moonlib -stdpath iemlib -lib zexy
;
#X obj 616 325 throw~ OUT-1;
#X obj 709 324 throw~ OUT-2;
#N canvas 0 81 450 300 declares 0;
#X obj 38 16 declare -path AutoPreset -stdpath moonlib -stdpath iemlib
-lib zexy;
#X restore 615 38 pd declares;
#N canvas 552 1197 542 366 masterMain 0;
#X obj 184 42 mull~ 1 10;
#X obj 349 33 mull~ 1 10;
#X obj 91 34 mull~ 1 10;
#X obj 122 133 lim~;
#X obj 158 133 lim~;
#X obj 170 133 lim~;
#X obj 105 135 vsl 15 80 0 1 0 1 empty empty IN 0 -9 0 10 -262130 -1
-1 800 1;
#X obj 105 222 pow 2;
#X obj 105 244 * 4;
#X obj 141 135 vsl 15 80 0 1 0 1 empty empty OUT 0 -9 0 10 -262130
-1 -1 4739 1;
#X obj 141 222 pow 2;
#X obj 141 244 * 4;
#X obj 312 126 loadbang;
#X msg 312 148 \; pd dsp 1;
#X obj 73 1 inlet~;
#X obj 173 288 outlet~;
#X obj 288 300 outlet~;
#X obj 82 306 s~ \$0-Main-in1;
#X obj 181 17 catch~ \$0-Main-out1;
#X obj 326 8 catch~ \$0-Main-out2;
#X obj 172 -3 catch~ \$0-Main;
#X obj 452 36 catch~ \$0-Main;
#X obj 140 67 inlet;
#X connect 0 0 4 0;
#X connect 1 0 5 0;
#X connect 2 0 3 0;
#X connect 3 0 17 0;
#X connect 4 0 15 0;
#X connect 5 0 16 0;
#X connect 6 0 7 0;
#X connect 7 0 8 0;
#X connect 8 0 2 1;
#X connect 9 0 10 0;
#X connect 10 0 11 0;
#X connect 11 0 0 1;
#X connect 11 0 1 1;
#X connect 12 0 13 0;
#X connect 14 0 2 0;
#X connect 18 0 0 0;
#X connect 19 0 1 0;
#X connect 22 0 9 0;
#X coords 0 -1 1 1 85 120 1 100 100;
#X restore 621 197 pd masterMain;
#X obj 622 146 inlet~ in;
#X obj 164 280 out \$0-Main;
#N canvas 687 325 609 443 Mode 0;
#X obj 131 87 i;
#X obj 131 109 change;
#X obj 131 131 t f f f;
#X obj 131 381 min 3;
#X floatatom 73 159 5 0 0 0 - - -, f 5;
#X obj 131 65 * 7.9;
#X obj 131 45 r \$1-Mode;
#X obj 314 59 route label;
#X symbolatom 356 235 15 0 0 0 - - -, f 15;
#X obj 314 81 symbol;
#X obj 154 333 + 1;
#X obj 217 168 change;
#X obj 217 147 max 0;
#X obj 217 190 + 0;
#X floatatom 430 131 5 0 0 0 - - -, f 5;
#X obj 446 58 == 2;
#X obj 314 103 pack s f f;
#X obj 314 147 route 0 1;
#X msg 345 189 symbol \$1;
#X msg 413 188 symbol \$1/\$2;
#X msg 314 125 \$2 list \$1 \$3;
#X msg 358 266 label \$1;
#X obj 217 212 s \$1-fs1-fragdenum-rcv;
#X obj 154 355 s \$1-fs1-timemode-rcv;
#X obj 131 403 s \$1-fs1-mode-rcv;
#X obj 314 37 r \$1-fs1-mode-rcv;
#X obj 446 36 r \$1-fs1-timemode-snd;
#X obj 397 100 r \$1-fs1-fragdenum;
#X obj 344 293 s \$1-b2-info;
#X floatatom 275 179 5 0 0 0 - - -, f 5;
#X floatatom 86 230 5 0 0 0 - - -, f 5;
#X obj 204 241 moses 7;
#X msg 203 262 1;
#X msg 154 265 0;
#X obj 154 288 f;
#X obj 154 241 moses 3;
#X obj 217 125 - 3;
#X obj 154 311 change -1;
#X connect 0 0 1 0;
#X connect 1 0 2 0;
#X connect 1 0 4 0;
#X connect 2 0 3 0;
#X connect 2 1 35 0;
#X connect 2 2 36 0;
#X connect 3 0 24 0;
#X connect 5 0 0 0;
#X connect 6 0 5 0;
#X connect 7 0 9 0;
#X connect 8 0 21 0;
#X connect 9 0 16 0;
#X connect 10 0 23 0;
#X connect 11 0 13 0;
#X connect 12 0 11 0;
#X connect 13 0 22 0;
#X connect 13 0 29 0;
#X connect 15 0 16 1;
#X connect 16 0 20 0;
#X connect 17 0 18 0;
#X connect 17 1 19 0;
#X connect 18 0 8 0;
#X connect 19 0 8 0;
#X connect 20 0 17 0;
#X connect 21 0 28 0;
#X connect 25 0 7 0;
#X connect 26 0 15 0;
#X connect 27 0 14 0;
#X connect 27 0 16 2;
#X connect 31 0 32 0;
#X connect 31 1 33 0;
#X connect 32 0 34 0;
#X connect 33 0 34 0;
#X connect 34 0 37 0;
#X connect 35 0 33 0;
#X connect 35 1 31 0;
#X connect 36 0 12 0;
#X connect 37 0 10 0;
#X restore 743 228 pd Mode;
#X obj 610 59 decoupeur_ctl \$1-config \$1-dctl \$1;
#X obj 393 20 r Sel\$2-snd;
#X obj 516 46 i;
#N canvas 2031 395 377 382 play 0;
#X obj 97 324 s Led\$2-rcv;
#X msg 252 67 0;
#X obj 156 221 ||;
#X obj 61 31 r Play\$2-snd;
#X obj 173 196 t b f;
#X obj 152 244 tgl 15 0 empty empty empty 17 7 0 10 -262144 -1 -1 0
1;
#X obj 177 167 tgl 15 0 empty empty empty 17 7 0 10 -262144 -1 -1 0
1;
#X obj 193 290 outlet on-off;
#X obj 134 85 sel 0 1;
#X obj 103 63 t f f;
#X obj 169 112 del 250;
#X obj 64 188 spigot;
#X obj 110 167 tgl 15 0 empty empty empty 17 7 0 10 -262144 -1 -1 0
1;
#X msg 166 139 0;
#X msg 135 121 1;
#X connect 2 0 5 0;
#X connect 3 0 9 0;
#X connect 4 0 2 0;
#X connect 4 1 2 1;
#X connect 5 0 7 0;
#X connect 5 0 0 0;
#X connect 6 0 4 0;
#X connect 8 0 11 0;
#X connect 8 1 10 0;
#X connect 8 1 14 0;
#X connect 9 0 2 0;
#X connect 9 1 8 0;
#X connect 10 0 13 0;
#X connect 11 0 6 0;
#X connect 12 0 11 1;
#X connect 13 0 12 0;
#X connect 14 0 12 0;
#X restore 30 17 pd play;
#X obj 163 235 FXson \$1-\$2;
#X floatatom 35 246 5 0 0 0 - - -, f 5;
#X obj 35 315 MORPHgroup \$1-\$2 FX;
#X obj 35 262 r FX\$2-snd;
#X obj 383 227 KEPCommon \$1-\$2 \$0 \$1 \$2;
#X obj 45 60 switch~;
#X obj 45 42 tgl 15 0 empty empty empty 17 7 0 10 -262144 -1 -1 0 1
;
#X obj 155 3 r Play\$2-snd;
#X obj 163 30 Axelero \$1-\$2;
#X floatatom 224 445 5 0 0 0 - - -, f 5;
#X floatatom 220 567 5 0 0 0 - - -, f 5;
#X obj 228 494 Ax \$1-\$2 x;
#X obj 516 26 * 15.9;
#N canvas 278 775 651 586 samples 0;
#X obj 17 506 *~ 0.2;
#X obj 18 541 out \$0-Main;
#X obj 18 52 l sample \$1-sample 1 20 \$1;
#X obj 18 80 l sample \$1-sample 2 20 \$1;
#X obj 18 107 l sample \$1-sample 3 20 \$1;
#X obj 18 136 l sample \$1-sample 4 20 \$1;
#X obj 16 164 l sample \$1-sample 5 20 \$1;
#X obj 18 192 l sample \$1-sample 6 20 \$1;
#X obj 18 220 l sample \$1-sample 7 20 \$1;
#X obj 18 248 l sample \$1-sample 8 20 \$1;
#X obj 17 276 l sample \$1-sample 9 20 \$1;
#X obj 18 304 l sample \$1-sample 10 20 \$1;
#X obj 18 332 l sample \$1-sample 11 20 \$1;
#X obj 18 360 l sample \$1-sample 12 20 \$1;
#X obj 19 388 l sample \$1-sample 13 20 \$1;
#X obj 19 415 l sample \$1-sample 14 20 \$1;
#X obj 18 444 l sample \$1-sample 15 20 \$1;
#X obj 18 472 l sample \$1-sample 16 20 \$1;
#X obj 360 52 l decoupeur \$1-sample-1 \$1-dctl;
#X obj 361 80 l decoupeur \$1-sample-2 \$1-dctl;
#X obj 362 109 l decoupeur \$1-sample-3 \$1-dctl;
#X obj 362 136 l decoupeur \$1-sample-4 \$1-dctl;
#X obj 362 164 l decoupeur \$1-sample-5 \$1-dctl;
#X obj 362 192 l decoupeur \$1-sample-6 \$1-dctl;
#X obj 362 220 l decoupeur \$1-sample-7 \$1-dctl;
#X obj 361 249 l decoupeur \$1-sample-8 \$1-dctl;
#X obj 361 276 l decoupeur \$1-sample-9 \$1-dctl;
#X obj 362 304 l decoupeur \$1-sample-10 \$1-dctl;
#X obj 362 332 l decoupeur \$1-sample-11 \$1-dctl;
#X obj 362 360 l decoupeur \$1-sample-12 \$1-dctl;
#X obj 362 388 l decoupeur \$1-sample-13 \$1-dctl;
#X obj 361 416 l decoupeur \$1-sample-14 \$1-dctl;
#X obj 362 444 l decoupeur \$1-sample-15 \$1-dctl;
#X obj 362 472 l decoupeur \$1-sample-16 \$1-dctl;
#X connect 0 0 1 0;
#X connect 0 0 1 1;
#X connect 2 0 0 0;
#X connect 3 0 0 0;
#X connect 4 0 0 0;
#X connect 5 0 0 0;
#X connect 6 0 0 0;
#X connect 7 0 0 0;
#X connect 8 0 0 0;
#X connect 9 0 0 0;
#X connect 10 0 0 0;
#X connect 11 0 0 0;
#X connect 12 0 0 0;
#X connect 13 0 0 0;
#X connect 14 0 0 0;
#X connect 15 0 0 0;
#X connect 16 0 0 0;
#X connect 17 0 0 0;
#X restore 611 19 pd samples _etc;
#X obj 710 173 m;
#X obj 753 170 r Vol123-snd;
#X obj 399 44 intPos 16;
#X floatatom 326 37 5 0 0 0 - - -, f 5;
#X obj 446 82 s INDICATOR;
#X obj 98 499 s INDICATOR;
#X floatatom 434 127 5 0 0 0 - - -, f 5;
#X obj 98 427 intPos 16;
#N canvas 2613 629 566 475 apmaster_autoload 0;
#X obj 84 34 route loaded saved;
#X obj 29 162 loadbang;
#X msg 84 397 loadfile \$1;
#X obj 84 78 symbol;
#X obj 86 337 symbol;
#X msg 84 196 set \$1;
#X msg 84 218 Mur;
#X obj 27 119 split_path;
#X obj 236 353 pack s s;
#X obj 236 308 t b a;
#X obj 84 249 symbol;
#X obj 233 282 print;
#X obj 233 232 bng 15 250 50 0 empty empty empty 17 7 0 10 -262144
-1 -1;
#X obj 233 261 getdir 5;
#X obj 236 330 getdir 5;
#X obj 189 153 r KEP_SETTINGSDIR;
#X obj 84 271 pack s s;
#X msg 84 293 symbol \$2/\$1;
#X obj 29 184 del 2000;
#X obj 83 7 r SONGS-apmaster-snd;
#X obj 236 377 makesymbol %s/KEPSETTINGS/ConfigSong/%s;
#X obj 104 151 t b s;
#X obj 191 118 symbol;
#X obj 194 90 inlet;
#X msg 189 176 symbol \$1/ConfigInstrus/Blaster;
#X obj 84 422 s \$1-\$2-SETTING-apmaster-rcv;
#X symbolatom 49 451 0 0 0 0 - - -;
#X connect 0 0 3 0;
#X connect 0 1 3 0;
#X connect 1 0 18 0;
#X connect 2 0 25 0;
#X connect 3 0 7 0;
#X connect 4 0 2 0;
#X connect 4 0 26 0;
#X connect 5 0 6 0;
#X connect 7 1 5 0;
#X connect 8 0 20 0;
#X connect 9 0 14 0;
#X connect 9 1 8 1;
#X connect 10 0 16 0;
#X connect 12 0 13 0;
#X connect 13 0 11 0;
#X connect 14 0 8 0;
#X connect 15 0 24 0;
#X connect 16 0 17 0;
#X connect 17 0 4 0;
#X connect 18 0 6 0;
#X connect 21 0 5 0;
#X connect 21 1 5 0;
#X connect 22 0 10 0;
#X connect 23 0 22 0;
#X connect 24 0 16 1;
#X restore 432 397 pd apmaster_autoload;
#X msg 496 376 Batteries2;
#X msg 492 354 Batteries1;
#N canvas 1751 868 303 259 apmaster_symbol 0;
#X obj 75 38 route loaded saved;
#X obj 75 155 outlet;
#X obj 75 67 symbol;
#X obj 75 100 split_path;
#X obj 75 16 r \$1-\$2-SETTING-apmaster-snd;
#X connect 0 0 2 0;
#X connect 0 1 2 0;
#X connect 2 0 3 0;
#X connect 3 1 1 0;
#X connect 4 0 0 0;
#X restore 423 444 pd apmaster_symbol;
#X symbolatom 619 458 0 0 0 0 - #1-#2-prepa-rcv #1-#2-prepa-snd;
#X obj 587 482 l paramsym \$1-\$2 SONGS prepa;
#X obj 458 525 s \$1-\$2-prepa-rcv;
#X obj 393 361 symbol;
#X symbolatom 347 414 0 0 0 0 - - -;
#X symbolatom 373 488 0 0 0 0 - - -;
#X obj 377 332 apsym SONGS \$1-\$2-prepa \$1-\$2-prepa;
#X msg 315 561 1;
#X msg 359 566 2;
#X obj 331 604 s \$1-Set;
#N canvas 1366 188 450 300 Set 0;
#X obj 357 87 tgl 15 0 empty empty empty 17 7 0 10 -262144 -1 -1 0
1;
#X obj 101 113 cnv 15 48 20 empty empty empty 20 12 0 14 -204786 -66577
0;
#X obj 50 39 r Shift-snd;
#X obj 50 59 tgl 15 0 empty empty empty 17 7 0 10 -262144 -1 -1 0 1
;
#X obj 58 164 crossPot2;
#X obj 10 94 crossPot;
#X obj 50 80 == 0;
#X obj 141 38 loadbang;
#X msg 141 60 0;
#X floatatom 7 126 5 0 0 0 - - -, f 5;
#X obj 103 118 nbx 1 14 1 8 0 0 \$1-\$2-Set-snd \$1-\$2-Set-rcv empty
0 -8 0 10 -262144 -1 -1 1 256;
#X floatatom 19 192 5 0 0 0 - - -, f 5;
#X obj 5 17 r Vol\$2-snd;
#X obj 128 160 s \$1-Set;
#X obj 141 185 s INDICATOR;
#X obj 286 186 i;
#X obj 286 164 + 0.5;
#X obj 286 141 * 8;
#X floatatom 44 220 5 0 0 0 - - -, f 5;
#X floatatom 88 238 5 0 0 0 - - -, f 5;
#X obj 58 184 intPos 8;
#X obj 103 206 + 1;
#X obj 12 256 s Vol\$1-\$2;
#X obj 113 15 api SONGS \$1-\$2-Set \$1-\$2-Set 2;
#X obj 128 141 min 2;
#X connect 2 0 3 0;
#X connect 3 0 4 1;
#X connect 3 0 6 0;
#X connect 4 0 11 0;
#X connect 4 0 20 0;
#X connect 5 0 9 0;
#X connect 5 0 22 0;
#X connect 6 0 5 1;
#X connect 7 0 8 0;
#X connect 8 0 3 0;
#X connect 10 0 24 0;
#X connect 12 0 5 0;
#X connect 12 0 4 0;
#X connect 16 0 15 0;
#X connect 17 0 16 0;
#X connect 20 0 18 0;
#X connect 20 1 19 0;
#X connect 20 1 21 0;
#X connect 20 1 14 0;
#X connect 21 0 10 0;
#X connect 24 0 13 0;
#X coords 0 -1 1 1 50 35 1 100 100;
#X restore 506 137 pd Set;
#X obj 726 36 BBdecSamples \$1 \$2 \$0 2;
#X obj 721 13 BBdecSamples \$1 \$2 \$0 1;
#X obj 30 86 fragseq \$1-fs1 \$1-sample \$1-\$2 \$1;
#X obj 709 147 r Vol\$1-\$2;
#X connect 3 0 0 0;
#X connect 3 1 1 0;
#X connect 4 0 3 0;
#X connect 8 0 27 0;
#X connect 8 0 28 0;
#X connect 10 0 17 0;
#X connect 10 0 50 0;
#X connect 11 0 5 0;
#X connect 11 1 5 1;
#X connect 14 0 12 0;
#X connect 14 0 13 0;
#X connect 14 0 32 0;
#X connect 17 0 16 0;
#X connect 18 0 19 0;
#X connect 20 0 22 0;
#X connect 22 0 21 0;
#X connect 23 0 9 0;
#X connect 25 0 3 1;
#X connect 26 0 25 1;
#X connect 27 0 31 0;
#X connect 27 0 50 1;
#X connect 27 1 29 0;
#X connect 27 1 50 1;
#X connect 32 1 30 0;
#X connect 34 0 33 0;
#X connect 35 0 33 0;
#X connect 36 0 39 0;
#X connect 36 0 42 0;
#X connect 40 0 41 0;
#X connect 40 0 33 0;
#X connect 43 0 40 0;
#X connect 44 0 46 0;
#X connect 45 0 46 0;
#X connect 50 0 11 0;
#X connect 50 1 11 1;
#X connect 51 0 25 0;
