#N canvas 0 774 1366 717 10;
#X declare -path Fraise -stdpath Fraise;
#X obj 22 237 analog/parse;
#X obj 21 16 declare -path Fraise -stdpath Fraise;
#X obj 145 278 route s;
#X obj 145 300 route 0 1 2 3 4 5 6 7 8, f 31;
#X obj 145 327 tgl 15 0 empty empty empty 17 7 0 10 -262144 -1 -1 0
1;
#X obj 165 327 tgl 15 0 empty empty empty 17 7 0 10 -262144 -1 -1 0
1;
#X obj 185 327 tgl 15 0 empty empty empty 17 7 0 10 -262144 -1 -1 0
1;
#X obj 206 327 tgl 15 0 empty empty empty 17 7 0 10 -262144 -1 -1 0
1;
#X obj 226 327 tgl 15 0 empty empty empty 17 7 0 10 -262144 -1 -1 0
1;
#X obj 246 327 tgl 15 0 empty empty empty 17 7 0 10 -262144 -1 -1 0
1;
#X obj 267 327 tgl 15 0 empty empty empty 17 7 0 10 -262144 -1 -1 0
1;
#X obj 287 327 tgl 15 0 empty empty empty 17 7 0 10 -262144 -1 -1 0
1;
#X obj 307 327 tgl 15 0 empty empty empty 17 7 0 10 -262144 -1 -1 0
1;
#X obj 22 259 unpack f f;
#X obj 22 306 pack f f;
#X obj 79 281 / 16384;
#X msg 125 823 s 0 \$1;
#X obj 21 38 pied/pied 0 41424;
#X obj 259 277 tgl 15 0 empty empty empty 17 7 0 10 -262144 -1 -1 0
1;
#X obj 18 140 fruit/fruit 1 blaster1 10 fw;
#X obj 223 140 fruit/fruit 1 blaster2 11 fw;
#X obj 427 140 fruit/fruit 1 blaster3 12 fwAxl;
#X obj 22 207 fruit/receive blaster1;
#X obj 45 799 fruit/send2 blaster1;
#X msg 173 737 L\$1;
#X obj 173 714 tgl 15 0 empty empty empty 17 7 0 10 -262144 -1 -1 0
1;
#X msg 317 775 L\$1;
#X obj 317 752 tgl 15 0 empty empty empty 17 7 0 10 -262144 -1 -1 0
1;
#X obj 200 799 fruit/send2 blaster2;
#X msg 575 771 L\$1;
#X obj 578 747 tgl 15 0 empty empty empty 17 7 0 10 -262144 -1 -1 0
1;
#X obj 458 795 fruit/send2 blaster3;
#X obj 34 337 unpack f f;
#X floatatom 34 359 5 0 0 0 - - -, f 5;
#X floatatom 102 364 5 0 0 0 - - -, f 5;
#X obj 206 716 tgl 15 0 empty empty empty 17 7 0 10 -262144 -1 -1 0
1;
#X msg 206 763 l\$1\$2;
#X obj 232 689 tgl 15 0 empty empty empty 17 7 0 10 -262144 -1 -1 0
1;
#X obj 235 712 metro 800;
#X msg 206 741 0 \$1 \, 1 \$1 \, 2 \$1;
#X obj 461 244 analog/parse;
#X obj 584 285 route s;
#X obj 584 307 route 0 1 2 3 4 5 6 7 8, f 31;
#X obj 584 334 tgl 15 0 empty empty empty 17 7 0 10 -262144 -1 -1 0
1;
#X obj 604 334 tgl 15 0 empty empty empty 17 7 0 10 -262144 -1 -1 0
1;
#X obj 624 334 tgl 15 0 empty empty empty 17 7 0 10 -262144 -1 -1 0
1;
#X obj 645 334 tgl 15 0 empty empty empty 17 7 0 10 -262144 -1 -1 0
1;
#X obj 665 334 tgl 15 0 empty empty empty 17 7 0 10 -262144 -1 -1 0
1;
#X obj 685 334 tgl 15 0 empty empty empty 17 7 0 10 -262144 -1 -1 0
1;
#X obj 706 334 tgl 15 0 empty empty empty 17 7 0 10 -262144 -1 -1 0
1;
#X obj 726 334 tgl 15 0 empty empty empty 17 7 0 10 -262144 -1 -1 0
1;
#X obj 746 334 tgl 15 0 empty empty empty 17 7 0 10 -262144 -1 -1 0
1;
#X obj 461 266 unpack f f;
#X obj 461 313 pack f f;
#X obj 518 288 / 16384;
#X obj 698 284 tgl 15 0 empty empty empty 17 7 0 10 -262144 -1 -1 0
1;
#X obj 480 341 unpack f f;
#X floatatom 480 363 5 0 0 0 - - -, f 5;
#X floatatom 548 368 5 0 0 0 - - -, f 5;
#X obj 461 214 fruit/receive blaster2;
#X obj 383 324 s Play1-rcv;
#X obj 621 411 s Shift-rcv;
#X obj 14 445 route 0 1 2 3 4 5 6 7 8 9;
#X obj 116 482 AbsVol 1;
#X obj 136 504 AbsVol 2;
#X obj 14 467 AbsVol 3;
#X obj 24 487 AbsVol 4;
#X obj 476 461 route 0 1 2 3 4 5 6 7 8 9;
#X obj 562 482 AbsVol 5;
#X obj 48 508 AbsVol 7;
#X obj 58 528 AbsVol 8;
#X obj 476 484 AbsFX 1;
#X obj 915 534 AbsSel 1;
#X obj 153 527 AbsVol 9;
#X obj 14 590 tgl 15 0 empty empty empty 17 7 0 10 -262144 -1 -1 0
1;
#X msg 15 637 0 \$1;
#X msg 15 657 l\$1\$2;
#X obj 94 593 tgl 15 0 empty empty empty 17 7 0 10 -262144 -1 -1 0
1;
#X msg 94 661 l\$1\$2;
#X msg 94 641 1 \$1;
#X obj 172 590 tgl 15 0 empty empty empty 17 7 0 10 -262144 -1 -1 0
1;
#X msg 172 658 l\$1\$2;
#X msg 172 638 2 \$1;
#X obj 259 595 tgl 15 0 empty empty empty 17 7 0 10 -262144 -1 -1 0
1;
#X msg 270 650 0 \$1;
#X msg 270 675 l\$1\$2;
#X obj 338 599 tgl 15 0 empty empty empty 17 7 0 10 -262144 -1 -1 0
1;
#X msg 348 673 l\$1\$2;
#X msg 348 648 1 \$1;
#X obj 416 596 tgl 15 0 empty empty empty 17 7 0 10 -262144 -1 -1 0
1;
#X msg 410 671 l\$1\$2;
#X msg 412 643 2 \$1;
#X obj 489 693 tgl 15 0 empty empty empty 17 7 0 10 -262144 -1 -1 0
1;
#X msg 489 740 l\$1\$2;
#X msg 489 718 0 \$1 \, 1 \$1 \, 2 \$1;
#X msg 634 773 R;
#X obj 735 776 unpack f f f f f f;
#X floatatom 715 813 5 0 0 0 - - -, f 5;
#X floatatom 768 812 5 0 0 0 - - -, f 5;
#X floatatom 812 812 5 0 0 0 - - -, f 5;
#X obj 736 743 r AXLSLOW1;
#X obj 503 596 tgl 15 0 empty empty empty 17 7 0 10 -262144 -1 -1 0
1;
#X msg 501 642 0 \$1;
#X msg 503 667 l\$1\$2;
#X obj 582 600 tgl 15 0 empty empty empty 17 7 0 10 -262144 -1 -1 0
1;
#X msg 582 668 l\$1\$2;
#X msg 582 647 1 \$1;
#X obj 693 587 tgl 15 0 empty empty empty 17 7 0 10 -262144 -1 -1 0
1;
#X msg 683 666 l\$1\$2;
#X msg 684 645 2 \$1;
#X obj 259 595 tgl 15 0 empty empty empty 17 7 0 10 -262144 -1 -1 0
1;
#X msg 270 675 l\$1\$2;
#X obj 338 599 tgl 15 0 empty empty empty 17 7 0 10 -262144 -1 -1 0
1;
#X obj 416 596 tgl 15 0 empty empty empty 17 7 0 10 -262144 -1 -1 0
1;
#X obj 736 660 fruit/receive blaster3;
#X obj 736 683 route 1;
#X obj 736 705 axlprocess 1;
#X obj 861 246 analog/parse;
#X obj 984 287 route s;
#X obj 984 309 route 0 1 2 3 4 5 6 7 8, f 31;
#X obj 984 336 tgl 15 0 empty empty empty 17 7 0 10 -262144 -1 -1 0
1;
#X obj 1004 336 tgl 15 0 empty empty empty 17 7 0 10 -262144 -1 -1
0 1;
#X obj 1024 336 tgl 15 0 empty empty empty 17 7 0 10 -262144 -1 -1
0 1;
#X obj 1045 336 tgl 15 0 empty empty empty 17 7 0 10 -262144 -1 -1
0 1;
#X obj 1065 336 tgl 15 0 empty empty empty 17 7 0 10 -262144 -1 -1
0 1;
#X obj 1085 336 tgl 15 0 empty empty empty 17 7 0 10 -262144 -1 -1
0 1;
#X obj 1106 336 tgl 15 0 empty empty empty 17 7 0 10 -262144 -1 -1
0 1;
#X obj 1126 336 tgl 15 0 empty empty empty 17 7 0 10 -262144 -1 -1
0 1;
#X obj 1146 336 tgl 15 0 empty empty empty 17 7 0 10 -262144 -1 -1
0 1;
#X obj 861 268 unpack f f;
#X obj 861 315 pack f f;
#X obj 918 290 / 16384;
#X obj 1098 286 tgl 15 0 empty empty empty 17 7 0 10 -262144 -1 -1
0 1;
#X obj 880 343 unpack f f;
#X floatatom 880 365 5 0 0 0 - - -, f 5;
#X floatatom 948 370 5 0 0 0 - - -, f 5;
#X obj 1094 360 s Play6-rcv;
#X obj 1115 381 s Play7-rcv;
#X obj 1134 405 s Play8-rcv;
#X obj 1010 386 s Play9-rcv;
#X obj 1021 413 s Shift-rcv;
#X obj 876 463 route 0 1 2 3 4 5 6 7 8 9;
#X obj 861 216 fruit/receive blaster3;
#X obj 1013 506 AbsVol 456;
#X obj 881 560 AbsVol 123;
#X obj 577 522 AbsVol 6;
#X obj 1074 577 AbsVol Gen;
#X obj 901 749 s AX-x;
#X obj 1016 748 s AX-y;
#X obj 1140 744 s AX-z;
#X text 1015 766 0=haut 1=bas;
#X text 876 766 0=droite 1=gauche;
#X text 1121 760 0=verso 1=recto;
#X obj 962 617 r AXLSLOW1;
#X obj 961 652 unpack f f f;
#X obj 903 700 + 1;
#X obj 903 720 / 2;
#X obj 1018 702 + 1;
#X obj 1018 722 / 2;
#X obj 1139 694 + 1;
#X obj 1140 717 / 2;
#N canvas 1366 900 450 300 INDICATOR 0;
#X obj 258 32 r INDICATOR;
#X obj 258 54 b;
#X obj 258 100 s INDICATOR_RESTORE;
#X obj 164 136 clone -s 1 8 INDICATORLED;
#X obj 258 75 del 1000;
#X connect 0 0 1 0;
#X connect 1 0 4 0;
#X connect 4 0 2 0;
#X restore 280 501 pd INDICATOR;
#X obj 26 604 r Led1-real;
#X obj 537 570 AbsSel 2;
#X obj 613 563 AbsSel 3;
#X obj 870 505 AbsSel 4;
#X obj 843 533 AbsSel 5;
#X obj 941 509 AbsSel 6;
#X obj 991 535 AbsSel 7;
#X obj 1114 554 AbsSel 8;
#X obj 486 504 AbsFX 2;
#X obj 506 527 AbsFX 3;
#X obj 517 547 AbsFX 4;
#X obj 608 502 AbsFX 5;
#X obj 628 542 AbsFX 6;
#X obj 88 549 AbsFX 7;
#X obj 100 572 AbsFX 8;
#X obj 182 474 AbsFX 9;
#X obj 188 361 AbsPlay 1;
#X obj 236 384 AbsPlay 2;
#X obj 283 404 AbsPlay 3;
#X obj 156 384 AbsPlay 4;
#X obj 186 404 AbsPlay 5;
#X obj 694 358 AbsPlay 6;
#X obj 715 379 AbsPlay 7;
#X obj 734 403 AbsPlay 8;
#X obj 595 389 AbsPlay 9;
#X obj 5 572 AbsLed 1;
#X obj 98 613 AbsLed 3;
#X obj 178 609 AbsLed 2;
#X obj 252 623 AbsLed 4;
#X obj 336 614 AbsLed 6;
#X obj 415 616 AbsLed 5;
#X obj 505 618 AbsLed 7;
#X obj 611 594 AbsLed 9;
#X obj 682 621 AbsLed 8;
#X obj 598 366 s Play9-rcv;
#X obj 629 649 tgl 15 0 empty empty empty 17 7 0 10 -262144 -1 -1 1
1;
#X obj 598 617 r Led9-snd;
#X connect 0 0 13 0;
#X connect 0 1 2 0;
#X connect 2 0 3 0;
#X connect 3 0 4 0;
#X connect 3 1 5 0;
#X connect 3 2 6 0;
#X connect 3 3 7 0;
#X connect 3 4 8 0;
#X connect 3 5 9 0;
#X connect 3 6 10 0;
#X connect 3 7 11 0;
#X connect 3 8 12 0;
#X connect 4 0 181 0;
#X connect 5 0 182 0;
#X connect 6 0 178 0;
#X connect 7 0 179 0;
#X connect 8 0 180 0;
#X connect 13 0 14 0;
#X connect 13 1 15 0;
#X connect 14 0 32 0;
#X connect 14 0 62 0;
#X connect 15 0 14 1;
#X connect 22 0 0 0;
#X connect 24 0 23 1;
#X connect 25 0 24 0;
#X connect 26 0 28 1;
#X connect 27 0 26 0;
#X connect 29 0 31 1;
#X connect 30 0 29 0;
#X connect 32 0 33 0;
#X connect 32 1 34 0;
#X connect 35 0 39 0;
#X connect 36 0 23 1;
#X connect 36 0 28 1;
#X connect 36 0 31 1;
#X connect 37 0 38 0;
#X connect 38 0 35 0;
#X connect 39 0 36 0;
#X connect 40 0 52 0;
#X connect 40 1 41 0;
#X connect 41 0 42 0;
#X connect 42 0 43 0;
#X connect 42 1 44 0;
#X connect 42 2 45 0;
#X connect 42 3 46 0;
#X connect 42 4 47 0;
#X connect 42 5 48 0;
#X connect 42 6 49 0;
#X connect 42 7 50 0;
#X connect 42 8 51 0;
#X connect 43 0 196 0;
#X connect 44 0 61 0;
#X connect 45 0 183 0;
#X connect 46 0 184 0;
#X connect 47 0 185 0;
#X connect 52 0 53 0;
#X connect 52 1 54 0;
#X connect 53 0 56 0;
#X connect 53 0 67 0;
#X connect 54 0 53 1;
#X connect 56 0 57 0;
#X connect 56 1 58 0;
#X connect 59 0 40 0;
#X connect 62 0 65 0;
#X connect 62 1 66 0;
#X connect 62 2 69 0;
#X connect 62 3 70 0;
#X connect 62 4 175 0;
#X connect 62 5 176 0;
#X connect 62 6 63 0;
#X connect 62 7 64 0;
#X connect 62 8 73 0;
#X connect 62 9 177 0;
#X connect 67 0 71 0;
#X connect 67 1 170 0;
#X connect 67 2 171 0;
#X connect 67 3 172 0;
#X connect 67 4 163 0;
#X connect 67 5 68 0;
#X connect 67 6 145 0;
#X connect 67 7 164 0;
#X connect 67 8 173 0;
#X connect 67 9 174 0;
#X connect 75 0 76 0;
#X connect 76 0 23 1;
#X connect 77 0 79 0;
#X connect 78 0 23 1;
#X connect 79 0 78 0;
#X connect 80 0 82 0;
#X connect 81 0 23 1;
#X connect 82 0 81 0;
#X connect 83 0 84 0;
#X connect 84 0 85 0;
#X connect 85 0 28 1;
#X connect 86 0 88 0;
#X connect 87 0 28 1;
#X connect 88 0 87 0;
#X connect 89 0 91 0;
#X connect 90 0 28 1;
#X connect 91 0 90 0;
#X connect 92 0 94 0;
#X connect 93 0 31 1;
#X connect 94 0 93 0;
#X connect 95 0 31 1;
#X connect 96 0 97 0;
#X connect 96 1 98 0;
#X connect 96 2 99 0;
#X connect 100 0 96 0;
#X connect 101 0 102 0;
#X connect 102 0 103 0;
#X connect 103 0 31 1;
#X connect 104 0 106 0;
#X connect 105 0 31 1;
#X connect 106 0 105 0;
#X connect 107 0 109 0;
#X connect 108 0 31 1;
#X connect 109 0 108 0;
#X connect 114 0 115 0;
#X connect 115 0 116 0;
#X connect 117 0 129 0;
#X connect 118 0 119 0;
#X connect 119 0 120 0;
#X connect 119 1 121 0;
#X connect 119 2 122 0;
#X connect 119 3 123 0;
#X connect 119 4 124 0;
#X connect 119 5 125 0;
#X connect 119 6 126 0;
#X connect 119 7 127 0;
#X connect 119 8 128 0;
#X connect 120 0 139 0;
#X connect 121 0 140 0;
#X connect 122 0 136 0;
#X connect 123 0 137 0;
#X connect 124 0 138 0;
#X connect 129 0 130 0;
#X connect 129 1 131 0;
#X connect 130 0 133 0;
#X connect 130 0 141 0;
#X connect 131 0 130 1;
#X connect 133 0 134 0;
#X connect 133 1 135 0;
#X connect 141 0 166 0;
#X connect 141 1 165 0;
#X connect 141 2 144 0;
#X connect 141 3 72 0;
#X connect 141 4 167 0;
#X connect 141 5 168 0;
#X connect 141 6 143 0;
#X connect 141 7 169 0;
#X connect 141 8 146 0;
#X connect 142 0 117 0;
#X connect 153 0 154 0;
#X connect 154 0 155 0;
#X connect 154 1 157 0;
#X connect 154 2 159 0;
#X connect 155 0 156 0;
#X connect 156 0 147 0;
#X connect 157 0 158 0;
#X connect 158 0 148 0;
#X connect 159 0 160 0;
#X connect 160 0 149 0;
#X connect 162 0 75 0;
#X connect 187 0 75 0;
#X connect 187 0 74 0;
#X connect 188 0 79 0;
#X connect 189 0 82 0;
#X connect 190 0 84 0;
#X connect 191 0 88 0;
#X connect 192 0 91 0;
#X connect 193 0 102 0;
#X connect 195 0 109 0;
#X connect 198 0 106 0;
#X connect 198 0 197 0;
