#N canvas 0 990 450 300 10;
#X obj 86 80 tgl 15 0 empty empty empty 17 7 0 10 -262144 -1 -1 0 1
;
#X obj 109 83 r Led\$1-snd;
#X obj 109 258 s Led\$1-real;
#X obj 109 149 f;
#X obj 211 82 r INDICATOR_RESTORE;
#X obj 247 119 r INDICATOR;
#X obj 247 161 moses 8;
#X obj 247 191 >= \$1;
#X obj 293 192 - 8;
#X obj 293 216 < \$1;
#X floatatom 351 230 5 0 0 0 - - -, f 5;
#X obj 247 141 + 1;
#X connect 1 0 3 0;
#X connect 3 0 2 0;
#X connect 4 0 3 0;
#X connect 5 0 11 0;
#X connect 6 0 7 0;
#X connect 6 1 8 0;
#X connect 6 1 10 0;
#X connect 7 0 2 0;
#X connect 8 0 9 0;
#X connect 9 0 2 0;
#X connect 11 0 6 0;
