#N canvas 0 990 555 383 10;
#X obj 112 12 inlet;
#X obj 112 169 moses;
#X obj 159 169 moses;
#X obj 191 193 t f f;
#X obj 223 214 - 0.01;
#X obj 112 194 t f f;
#X obj 144 215 + 0.01;
#X obj 262 169 f;
#X obj 112 278 f;
#X obj 112 345 outlet;
#X obj 112 130 * 15.9;
#X obj 204 12 loadbang;
#X obj 204 34 f \$1;
#X obj 204 56 sel 0;
#X msg 297 145 0.005;
#X obj 151 108 - 0.01;
#X obj 179 11 bng 15 250 50 0 empty empty empty 17 7 0 10 -262144 -1
-1;
#X msg 262 146 0.8;
#X obj 112 300 i;
#X obj 112 322 change;
#X connect 0 0 10 0;
#X connect 1 0 5 0;
#X connect 1 1 2 0;
#X connect 2 1 3 0;
#X connect 3 0 8 0;
#X connect 3 1 2 1;
#X connect 3 1 4 0;
#X connect 4 0 1 1;
#X connect 5 0 8 0;
#X connect 5 1 1 1;
#X connect 5 1 6 0;
#X connect 6 0 2 1;
#X connect 7 0 4 1;
#X connect 7 0 6 1;
#X connect 8 0 18 0;
#X connect 10 0 1 0;
#X connect 11 0 12 0;
#X connect 12 0 13 0;
#X connect 13 0 14 0;
#X connect 13 1 17 0;
#X connect 13 1 15 0;
#X connect 14 0 7 0;
#X connect 15 0 10 1;
#X connect 16 0 12 0;
#X connect 17 0 7 0;
#X connect 18 0 19 0;
#X connect 19 0 9 0;
