#N canvas 1875 83 450 300 10;
#X obj 11 11 cnv 15 99 122 empty empty MASTERS 5 12 1 14 -260097 -1
0;
#X obj 16 202 apmaster MASTERS;
#X obj 38 54 bng 25 250 50 0 empty empty save 3 -7 1 10 -258113 -1
-1;
#X obj 29 144 bng 15 250 50 0 empty empty load 17 7 1 10 -4034 -1 -1
;
#X obj 29 170 bng 15 250 50 0 empty empty save_as 17 7 1 10 -258113
-1 -1;
#N canvas 1035 129 351 454 apmaster_autoload 0;
#X obj 84 34 route loaded saved;
#X obj 29 162 loadbang;
#X msg 84 397 loadfile \$1;
#X obj 84 78 symbol;
#X obj 84 369 symbol;
#X msg 84 196 set \$1;
#X msg 84 223 MASTERS;
#X obj 84 12 r MASTERS-apmaster-snd;
#X obj 84 422 s MASTERS-apmaster-rcv;
#X obj 27 119 split_path;
#X obj 236 353 pack s s;
#X obj 236 308 t b a;
#X obj 84 249 symbol;
#X obj 233 282 print;
#X obj 233 232 bng 15 250 50 0 empty empty empty 17 7 0 10 -262144
-1 -1;
#X obj 233 261 getdir 5;
#X obj 236 330 getdir 5;
#X obj 236 377 makesymbol %s/KEPSETTINGS/ConfigMaster/%s;
#X obj 189 153 r KEP_SETTINGSDIR;
#X msg 189 176 symbol \$1/ConfigMaster;
#X obj 84 271 pack s s;
#X msg 84 293 symbol \$2/\$1;
#X obj 29 184 del 2000;
#X connect 0 0 3 0;
#X connect 0 1 3 0;
#X connect 1 0 22 0;
#X connect 2 0 8 0;
#X connect 3 0 9 0;
#X connect 4 0 2 0;
#X connect 5 0 6 0;
#X connect 6 0 12 0;
#X connect 7 0 0 0;
#X connect 9 1 5 0;
#X connect 10 0 17 0;
#X connect 11 0 16 0;
#X connect 11 1 10 1;
#X connect 12 0 20 0;
#X connect 14 0 15 0;
#X connect 15 0 13 0;
#X connect 16 0 10 0;
#X connect 18 0 19 0;
#X connect 19 0 20 1;
#X connect 20 0 21 0;
#X connect 21 0 4 0;
#X connect 22 0 6 0;
#X restore 152 69 pd apmaster_autoload;
#N canvas 1751 706 284 213 apmaster_symbol 0;
#X obj 75 38 route loaded saved;
#X obj 75 155 outlet;
#X obj 75 67 symbol;
#X obj 75 16 r MASTERS-apmaster-snd;
#X obj 75 100 split_path;
#X connect 0 0 2 0;
#X connect 0 1 2 0;
#X connect 2 0 4 0;
#X connect 3 0 0 0;
#X connect 4 1 1 0;
#X restore 154 18 pd apmaster_symbol;
#X symbolatom 154 43 0 0 0 0 - - -;
#X obj 160 166 s MASTERS-apmaster-rcv;
#X msg 160 143 savein;
#X obj 38 104 bng 15 250 50 0 empty empty reload 17 7 1 10 -4034 -1
-1;
#X msg 107 143 loadin;
#X connect 2 0 9 0;
#X connect 3 0 1 0;
#X connect 4 0 1 1;
#X connect 6 0 7 0;
#X connect 9 0 8 0;
#X connect 10 0 11 0;
#X connect 11 0 8 0;
#X coords 0 -1 1 1 100 180 1 10 10;
