#N canvas 467 226 899 405 10;
#X obj 616 298 throw~ OUT-1;
#X obj 709 297 throw~ OUT-2;
#N canvas 552 1197 542 366 masterMain 0;
#X obj 184 42 mull~ 1 10;
#X obj 349 33 mull~ 1 10;
#X obj 91 34 mull~ 1 10;
#X obj 122 133 lim~;
#X obj 158 133 lim~;
#X obj 170 133 lim~;
#X obj 105 135 vsl 15 80 0 1 0 1 empty empty IN 0 -9 0 10 -262130 -1
-1 800 1;
#X obj 105 222 pow 2;
#X obj 105 244 * 4;
#X obj 141 135 vsl 15 80 0 1 0 1 empty empty OUT 0 -9 0 10 -262130
-1 -1 7880 1;
#X obj 141 222 pow 2;
#X obj 141 244 * 4;
#X obj 312 126 loadbang;
#X msg 312 148 \; pd dsp 1;
#X obj 73 1 inlet~;
#X obj 173 288 outlet~;
#X obj 288 300 outlet~;
#X obj 82 306 s~ \$0-Main-in1;
#X obj 181 17 catch~ \$0-Main-out1;
#X obj 326 8 catch~ \$0-Main-out2;
#X obj 172 -3 catch~ \$0-Main;
#X obj 452 36 catch~ \$0-Main;
#X obj 140 67 inlet;
#X connect 0 0 4 0;
#X connect 1 0 5 0;
#X connect 2 0 3 0;
#X connect 3 0 17 0;
#X connect 4 0 15 0;
#X connect 5 0 16 0;
#X connect 6 0 7 0;
#X connect 7 0 8 0;
#X connect 8 0 2 1;
#X connect 9 0 10 0;
#X connect 10 0 11 0;
#X connect 11 0 0 1;
#X connect 11 0 1 1;
#X connect 12 0 13 0;
#X connect 14 0 2 0;
#X connect 18 0 0 0;
#X connect 19 0 1 0;
#X connect 22 0 9 0;
#X coords 0 -1 1 1 85 120 1 100 100;
#X restore 621 170 pd masterMain;
#X obj 622 146 inlet~ in;
#X obj 72 220 out \$0-Main;
#N canvas 684 251 609 443 Mode 0;
#X obj 131 87 i;
#X obj 131 109 change;
#X obj 131 131 t f f f;
#X obj 131 381 min 3;
#X floatatom 73 159 5 0 0 0 - - -, f 5;
#X obj 131 65 * 7.9;
#X obj 131 45 r \$1-Mode;
#X obj 314 59 route label;
#X symbolatom 356 235 15 0 0 0 - - -, f 15;
#X obj 314 81 symbol;
#X obj 154 333 + 1;
#X obj 217 168 change;
#X obj 217 147 max 0;
#X obj 217 190 + 0;
#X floatatom 430 131 5 0 0 0 - - -, f 5;
#X obj 446 58 == 2;
#X obj 314 103 pack s f f;
#X obj 314 147 route 0 1;
#X msg 345 189 symbol \$1;
#X msg 413 188 symbol \$1/\$2;
#X msg 314 125 \$2 list \$1 \$3;
#X msg 358 266 label \$1;
#X obj 217 212 s \$1-fs1-fragdenum-rcv;
#X obj 154 355 s \$1-fs1-timemode-rcv;
#X obj 131 403 s \$1-fs1-mode-rcv;
#X obj 314 37 r \$1-fs1-mode-rcv;
#X obj 446 36 r \$1-fs1-timemode-snd;
#X obj 397 100 r \$1-fs1-fragdenum;
#X obj 344 293 s \$1-b2-info;
#X floatatom 275 179 5 0 0 0 - - -, f 5;
#X floatatom 86 230 5 0 0 0 - - -, f 5;
#X obj 204 241 moses 7;
#X msg 203 262 1;
#X msg 154 265 0;
#X obj 154 288 f;
#X obj 154 241 moses 3;
#X obj 217 125 - 3;
#X obj 154 311 change -1;
#X connect 0 0 1 0;
#X connect 1 0 2 0;
#X connect 1 0 4 0;
#X connect 2 0 3 0;
#X connect 2 1 35 0;
#X connect 2 2 36 0;
#X connect 3 0 24 0;
#X connect 5 0 0 0;
#X connect 6 0 5 0;
#X connect 7 0 9 0;
#X connect 8 0 21 0;
#X connect 9 0 16 0;
#X connect 10 0 23 0;
#X connect 11 0 13 0;
#X connect 12 0 11 0;
#X connect 13 0 22 0;
#X connect 13 0 29 0;
#X connect 15 0 16 1;
#X connect 16 0 20 0;
#X connect 17 0 18 0;
#X connect 17 1 19 0;
#X connect 18 0 8 0;
#X connect 19 0 8 0;
#X connect 20 0 17 0;
#X connect 21 0 28 0;
#X connect 25 0 7 0;
#X connect 26 0 15 0;
#X connect 27 0 14 0;
#X connect 27 0 16 2;
#X connect 31 0 32 0;
#X connect 31 1 33 0;
#X connect 32 0 34 0;
#X connect 33 0 34 0;
#X connect 34 0 37 0;
#X connect 35 0 33 0;
#X connect 35 1 31 0;
#X connect 36 0 12 0;
#X connect 37 0 10 0;
#X restore 743 201 pd Mode;
#X obj 393 20 r Sel\$2-snd;
#X obj 407 61 i;
#X obj 407 41 * 16;
#X obj 709 89 r Vol\$2-snd;
#N canvas 674 386 377 382 play 0;
#X obj 97 324 s Led\$2-rcv;
#X msg 252 67 0;
#X obj 156 221 ||;
#X obj 61 31 r Play\$2-snd;
#X obj 173 196 t b f;
#X obj 152 244 tgl 15 0 empty empty empty 17 7 0 10 -262144 -1 -1 0
1;
#X obj 177 167 tgl 15 0 empty empty empty 17 7 0 10 -262144 -1 -1 0
1;
#X obj 193 290 outlet on-off;
#X obj 134 85 sel 0 1;
#X obj 103 63 t f f;
#X obj 169 112 del 250;
#X obj 64 188 spigot;
#X obj 110 167 tgl 15 0 empty empty empty 17 7 0 10 -262144 -1 -1 0
1;
#X msg 166 139 0;
#X msg 135 121 1;
#X connect 2 0 5 0;
#X connect 3 0 9 0;
#X connect 4 0 2 0;
#X connect 4 1 2 1;
#X connect 5 0 7 0;
#X connect 5 0 0 0;
#X connect 6 0 4 0;
#X connect 8 0 11 0;
#X connect 8 1 10 0;
#X connect 8 1 14 0;
#X connect 9 0 2 0;
#X connect 9 1 8 0;
#X connect 10 0 13 0;
#X connect 11 0 6 0;
#X connect 12 0 11 1;
#X connect 13 0 12 0;
#X connect 14 0 12 0;
#X restore 25 52 pd play;
#X floatatom 34 274 5 0 0 0 - - -, f 5;
#X obj 35 315 MORPHgroup \$1-\$2 FX;
#X obj 34 290 r FX\$2-snd;
#N canvas 0 1251 345 167 settingInstru 0;
#X msg 29 88 loadfile \$1;
#X obj 30 8 loadbang;
#X obj 31 109 s \$1-\$2-SETTING-apmaster-rcv;
#X obj 32 45 makesymbol \$1\$2;
#X connect 0 0 2 0;
#X connect 3 0 0 0;
#X restore 104 32 pd settingInstru;
#X obj 383 227 KEPCommon \$1-\$2 \$0 \$1 \$2;
#X obj 649 57 Sequence \$1-\$2;
#X obj 98 77 SonRythme \$1-\$2 \$2;
#X obj 373 148 l FXson \$1-\$2 \$2;
#X obj 24 94 switch~;
#X obj 24 76 tgl 15 0 empty empty empty 17 7 0 10 -262144 -1 -1 0 1
;
#X obj 505 4 r Play\$2-snd;
#X obj 498 41 Axelero \$1-\$2;
#X obj 638 31 tgl 15 0 empty empty empty 17 7 0 10 -262144 -1 -1 0
1;
#X obj 82 193 hip~ 60;
#X obj 424 101 ../Ax \$3 z -12 12;
#X obj 728 136 m;
#X obj 765 112 r Vol456-snd;
#X obj 167 279 s INDICATOR;
#X obj 149 240 intPos 16;
#X connect 2 0 0 0;
#X connect 2 1 1 0;
#X connect 3 0 2 0;
#X connect 6 0 8 0;
#X connect 8 0 7 0;
#X connect 9 0 26 0;
#X connect 10 0 20 0;
#X connect 13 0 11 0;
#X connect 13 0 12 0;
#X connect 13 0 29 0;
#X connect 17 0 24 0;
#X connect 20 0 19 0;
#X connect 21 0 22 0;
#X connect 21 0 23 0;
#X connect 24 0 4 0;
#X connect 24 0 4 1;
#X connect 26 0 2 1;
#X connect 27 0 26 1;
#X connect 29 1 28 0;
