#N canvas 1366 775 518 300 10;
#X obj 11 11 cnv 15 99 122 empty empty SONG 5 12 1 14 -4032 -1 0;
#X obj 33 75 bng 25 250 50 0 empty empty save 3 -7 1 10 -258113 -1
-1;
#X obj 23 141 bng 15 250 50 0 empty empty load 17 7 1 10 -4034 -1 -1
;
#X obj 24 167 bng 15 250 50 0 empty empty save_as 17 7 1 10 -258113
-1 -1;
#N canvas 2341 127 566 475 apmaster_autoload 0;
#X obj 84 34 route loaded saved;
#X obj 29 162 loadbang;
#X msg 84 397 loadfile \$1;
#X obj 84 78 symbol;
#X obj 84 369 symbol;
#X msg 84 196 set \$1;
#X msg 85 223 Gabber;
#X obj 27 119 split_path;
#X obj 236 353 pack s s;
#X obj 236 308 t b a;
#X obj 84 249 symbol;
#X obj 233 282 print;
#X obj 233 232 bng 15 250 50 0 empty empty empty 17 7 0 10 -262144
-1 -1;
#X obj 233 261 getdir 5;
#X obj 236 330 getdir 5;
#X obj 189 153 r KEP_SETTINGSDIR;
#X obj 84 271 pack s s;
#X msg 84 293 symbol \$2/\$1;
#X obj 29 184 del 2000;
#X obj 84 12 r SONGS-apmaster-snd;
#X msg 189 176 symbol \$1/ConfigSong;
#X obj 84 422 s SONGS-apmaster-rcv;
#X obj 236 377 makesymbol %s/KEPSETTINGS/ConfigSong/%s;
#X obj 104 151 t b s;
#X obj 191 118 symbol;
#X obj 194 90 inlet;
#X connect 0 0 3 0;
#X connect 0 1 3 0;
#X connect 1 0 18 0;
#X connect 2 0 21 0;
#X connect 3 0 7 0;
#X connect 4 0 2 0;
#X connect 5 0 6 0;
#X connect 6 0 10 0;
#X connect 7 1 5 0;
#X connect 8 0 22 0;
#X connect 9 0 14 0;
#X connect 9 1 8 1;
#X connect 10 0 16 0;
#X connect 12 0 13 0;
#X connect 13 0 11 0;
#X connect 14 0 8 0;
#X connect 15 0 20 0;
#X connect 16 0 17 0;
#X connect 17 0 4 0;
#X connect 18 0 6 0;
#X connect 19 0 0 0;
#X connect 20 0 16 1;
#X connect 23 0 5 0;
#X connect 23 1 5 0;
#X connect 24 0 10 0;
#X connect 25 0 24 0;
#X restore 209 249 pd apmaster_autoload;
#N canvas 1751 841 284 213 apmaster_symbol 0;
#X obj 75 38 route loaded saved;
#X obj 75 155 outlet;
#X obj 75 67 symbol;
#X obj 75 100 split_path;
#X obj 75 16 r SONGS-apmaster-snd;
#X connect 0 0 2 0;
#X connect 0 1 2 0;
#X connect 2 0 3 0;
#X connect 3 1 1 0;
#X connect 4 0 0 0;
#X restore 154 18 pd apmaster_symbol;
#X symbolatom 12 35 0 0 0 0 - - -;
#X msg 63 231 savein;
#X obj 38 104 bng 15 250 50 0 empty empty reload 17 7 1 10 -4034 -1
-1;
#X msg 10 231 loadin;
#X obj 34 203 apmaster SONGS;
#X obj 63 254 s SONGS-apmaster-rcv;
#X obj 193 48 r NumSet;
#X obj 205 77 sel 1 2 3 4 5 6 7 8 9;
#X floatatom 152 98 5 0 0 0 - - -, f 5;
#X msg 181 128 Gabber;
#X msg 232 136 JeMeSouviens;
#X msg 242 115 LeMur;
#X msg 290 160 RienAdire;
#X msg 361 190 Triste;
#X msg 359 143 TestSetSamples;
#X msg 385 164 TestSetSamples2;
#X msg 311 124 KEPsong1;
#X symbolatom 145 207 10 0 0 0 - - -, f 10;
#N canvas 2422 319 450 490 getSong 0;
#X obj 76 54 r SYNCER/r;
#X obj 76 98 list split 1;
#X obj 116 121 list trim;
#X obj 76 76 route state;
#X obj 116 165 symbol;
#X symbolatom 51 190 10 0 0 0 - - -, f 10;
#X obj 115 209 outlet;
#X obj 116 144 route /SONG /UNLOCKSNAP;
#X obj 273 241 outlet;
#X obj 273 50 r Shift-rcv;
#X obj 273 157 count 5;
#X msg 300 133 reset;
#X obj 273 93 t b b;
#X obj 300 113 del 200;
#X obj 273 178 sel 4;
#X obj 273 72 sel 1;
#X obj 273 221 spigot;
#X obj 183 167 t f f;
#X obj 183 197 sel 0 1;
#X msg 202 218 1, f 1;
#X obj 181 335 i;
#X obj 213 337 + 1;
#X obj 181 359 mod 2;
#X msg 154 256 0, f 1;
#X obj 154 235 t b b;
#X msg 181 256 0, f 1;
#X obj 181 380 s Led9-rcv;
#X obj 181 312 metro 100;
#X connect 0 0 3 0;
#X connect 1 1 2 0;
#X connect 2 0 7 0;
#X connect 3 0 1 0;
#X connect 4 0 5 0;
#X connect 4 0 6 0;
#X connect 7 0 4 0;
#X connect 7 1 17 0;
#X connect 9 0 15 0;
#X connect 10 0 14 0;
#X connect 11 0 10 0;
#X connect 12 0 10 0;
#X connect 12 1 13 0;
#X connect 13 0 11 0;
#X connect 14 0 16 0;
#X connect 15 0 12 0;
#X connect 16 0 8 0;
#X connect 17 0 18 0;
#X connect 17 1 16 1;
#X connect 18 0 24 0;
#X connect 18 1 19 0;
#X connect 19 0 27 0;
#X connect 20 0 21 0;
#X connect 20 0 22 0;
#X connect 21 0 20 1;
#X connect 22 0 26 0;
#X connect 23 0 20 0;
#X connect 24 0 23 0;
#X connect 24 1 25 0;
#X connect 25 0 27 0;
#X connect 27 0 20 0;
#X restore 153 159 pd getSong;
#X connect 1 0 7 0;
#X connect 2 0 10 0;
#X connect 3 0 10 1;
#X connect 5 0 6 0;
#X connect 7 0 11 0;
#X connect 8 0 9 0;
#X connect 9 0 11 0;
#X connect 12 0 13 0;
#X connect 12 0 14 0;
#X connect 13 0 15 0;
#X connect 13 1 16 0;
#X connect 13 2 17 0;
#X connect 13 3 18 0;
#X connect 13 4 19 0;
#X connect 13 5 22 0;
#X connect 13 6 20 0;
#X connect 13 7 21 0;
#X connect 15 0 4 0;
#X connect 16 0 4 0;
#X connect 17 0 4 0;
#X connect 18 0 4 0;
#X connect 19 0 4 0;
#X connect 20 0 4 0;
#X connect 21 0 4 0;
#X connect 22 0 4 0;
#X connect 24 0 23 0;
#X connect 24 0 4 0;
#X connect 24 1 1 0;
#X coords 0 -1 1 1 100 180 1 10 10;
