#N canvas 2064 227 790 871 10;
#X obj 19 317 lop~ 3000;
#X obj 22 804 outlet~;
#X obj 174 30 inlet;
#X obj 18 429 +~;
#X obj 19 455 *~ 2;
#X obj 21 783 hip~ 10;
#X obj 368 386 apjuno \$1 FX juno1;
#X obj 201 588 *~ 20;
#X obj 277 640 ac;
#X obj 116 446 r \$1-Reverb;
#X msg 714 397 0;
#X msg 747 397 100;
#X obj 330 376 pack;
#N canvas 562 1202 465 435 gam-pitch 0;
#X obj 198 62 inlet;
#X obj 230 349 outlet;
#X obj 230 147 pack f f;
#X obj 251 124 t b f;
#X obj 252 47 pow 3;
#X obj 251 68 * 100;
#X obj 31 67 r \$0-pitch-snd;
#X obj 113 26 r \$0-gamprepost-snd;
#X obj 97 227 demux;
#X obj 211 112 +;
#X obj 211 90 t b f;
#X obj 230 322 +;
#X obj 216 298 t b f;
#X obj 31 89 * 49;
#X obj 31 110 - 25;
#X obj 31 153 sel -25;
#X msg 31 174 0;
#X obj 97 204 f;
#X obj 113 47 t b f;
#X obj 144 215 demux;
#X msg 144 195 0;
#X floatatom 49 243 5 0 0 0 - - -, f 5;
#X obj 31 129 i;
#X obj 251 103 m 1;
#X obj 280 103 != 0;
#X obj 230 275 +;
#X obj 281 300 t b f;
#X floatatom 311 323 5 0 0 0 - - -, f 5;
#X obj 281 269 r \$0-transgam;
#X obj 281 82 r \$0-ongam;
#X obj 337 39 inlet;
#X msg 364 13 1;
#X floatatom 348 111 5 0 0 0 - - -, f 5;
#X obj 241 7 r \$1-Note_adjust;
#X obj 230 175 gammeRound GAMME1;
#X connect 0 0 9 0;
#X connect 2 0 34 0;
#X connect 3 0 2 0;
#X connect 3 1 2 1;
#X connect 4 0 5 0;
#X connect 5 0 23 0;
#X connect 6 0 13 0;
#X connect 7 0 18 0;
#X connect 8 0 10 0;
#X connect 8 1 12 0;
#X connect 9 0 2 0;
#X connect 10 0 9 0;
#X connect 10 1 9 1;
#X connect 11 0 1 0;
#X connect 12 0 11 0;
#X connect 12 1 11 1;
#X connect 13 0 14 0;
#X connect 14 0 22 0;
#X connect 15 0 16 0;
#X connect 15 1 17 0;
#X connect 16 0 17 0;
#X connect 17 0 8 0;
#X connect 17 0 21 0;
#X connect 18 0 17 0;
#X connect 18 0 20 0;
#X connect 18 1 8 1;
#X connect 18 1 19 1;
#X connect 19 0 12 0;
#X connect 19 1 10 0;
#X connect 20 0 19 0;
#X connect 22 0 15 0;
#X connect 23 0 3 0;
#X connect 24 0 23 1;
#X connect 25 0 11 0;
#X connect 26 0 25 0;
#X connect 26 1 25 1;
#X connect 26 1 27 0;
#X connect 28 0 26 0;
#X connect 29 0 24 0;
#X connect 29 0 32 0;
#X connect 30 0 24 0;
#X connect 31 0 4 0;
#X connect 33 0 4 0;
#X connect 34 0 25 0;
#X restore 158 193 pd gam-pitch;
#X floatatom 349 163 5 0 0 0 - - -, f 5;
#X obj 338 53 * 80;
#X obj 266 12 r \$1-Key;
#X obj 714 352 r \$1-Key;
#X obj 609 33 cnv 15 72 20 empty empty gam 0 4 1 12 -260818 -1 0;
#X obj 640 33 mknob 12 100 0 1 0 0 \$0-adj-snd \$0-adj-rcv adj -2 16
1 8 -44926 -1 -1 0 1;
#X obj 619 45 tgl 8 0 \$0-gamprepost-snd \$0-gamprepost-rcv empty 0
-6 0 8 -44926 -1 -1 0 1;
#X obj 657 33 mknob 12 100 0 1 0 0 \$0-gamnum-snd \$0-gamnum-rcv gam2
-2 16 1 8 -62784 -1 -1 0 1;
#X obj 610 9 cnv 15 35 20 empty empty pitch 0 5 1 10 -24198 -258699
0;
#X obj 617 16 mknob 15 100 0 1 0 0 \$0-pitch-snd \$0-pitch-rcv empty
-2 -6 0 8 -241291 -1 -262144 0 1;
#X floatatom 376 95 5 0 0 0 - - -, f 5;
#N canvas 20 775 450 456 keyboardmono 0;
#X obj 73 129 tgl 15 0 empty empty empty 17 7 0 10 -262144 -1 -1 0
1;
#X obj 91 130 tgl 15 0 empty empty empty 17 7 0 10 -262144 -1 -1 0
1;
#X obj 109 130 tgl 15 0 empty empty empty 17 7 0 10 -262144 -1 -1 0
1;
#X obj 129 130 tgl 15 0 empty empty empty 17 7 0 10 -262144 -1 -1 0
1;
#X obj 100 155 * 2;
#X obj 72 155 * 1;
#X obj 164 176 t b f;
#X obj 159 198 +;
#X obj 116 204 t b f;
#X obj 111 226 +;
#X obj 71 223 t b f;
#X obj 55 246 +;
#X obj 135 155 * 4;
#X obj 170 155 * 8;
#X obj 55 267 sel 0;
#X obj 82 288 t b f;
#X obj 82 329 f;
#X msg 48 290 stop;
#X obj 82 309 del 25;
#X msg 23 310 -1;
#X obj 82 370 s \$1-keyboardmono;
#X obj 73 47 r \$1-N1;
#X obj 91 67 r \$1-N2;
#X obj 153 247 r \$1-keyboardmono;
#X obj 153 309 s \$1-Key;
#X obj 153 275 MR_table \$1 table5 \$1 \$2 \$3MR5 1 -1;
#X obj 360 249 r \$1-Rec;
#X floatatom 270 195 5 0 0 0 - - -, f 5;
#X obj 109 86 r \$1-N4;
#X obj 129 106 r \$1-N8;
#X floatatom 124 352 5 0 0 0 - - -, f 5;
#X connect 0 0 5 0;
#X connect 1 0 4 0;
#X connect 2 0 12 0;
#X connect 3 0 13 0;
#X connect 4 0 9 0;
#X connect 5 0 11 0;
#X connect 6 0 7 0;
#X connect 6 1 7 1;
#X connect 7 0 8 0;
#X connect 8 0 9 0;
#X connect 8 1 9 1;
#X connect 9 0 10 0;
#X connect 10 0 11 0;
#X connect 10 1 11 1;
#X connect 11 0 14 0;
#X connect 12 0 7 0;
#X connect 13 0 6 0;
#X connect 14 0 17 0;
#X connect 14 0 19 0;
#X connect 14 1 15 0;
#X connect 15 0 18 0;
#X connect 15 1 16 1;
#X connect 16 0 20 0;
#X connect 16 0 30 0;
#X connect 17 0 18 0;
#X connect 18 0 16 0;
#X connect 19 0 16 0;
#X connect 21 0 0 0;
#X connect 22 0 1 0;
#X connect 23 0 25 0;
#X connect 25 0 24 0;
#X connect 25 0 27 0;
#X connect 26 0 25 1;
#X connect 28 0 2 0;
#X connect 29 0 3 0;
#X restore 217 148 pd keyboardmono;
#N canvas 1726 485 450 300 env&juste 0;
#X obj 232 141 > 0.95;
#X obj 232 164 change;
#X obj 232 187 + 2;
#X obj 233 208 / 3;
#X obj 235 235 s \$1-gamnum-rcv;
#X obj 232 120 r \$1-juste-snd;
#X obj 41 135 r Gammes;
#X obj 40 177 del 1;
#X obj 41 157 b;
#X obj 40 198 s \$1-juste-rcv;
#X obj 63 43 mknob 25 100 0 1 0 0 \$1-juste-snd \$1-juste-rcv juste
-2 -6 1 8 -262144 -1 -1 8700 1;
#X obj 115 30 r \$1-setap-snd;
#X obj 117 56 route _loaded_;
#X obj 118 78 b;
#X obj 117 98 init 1;
#X obj 25 43 mknob 25 100 0 1 0 0 \$1-env-snd \$1-env-rcv env -2 -6
1 8 -262144 -1 -1 7900 1;
#X obj 29 77 init 0;
#X obj 236 25 param \$1 SETTING env;
#X obj 237 49 param \$1 SETTING juste;
#X connect 0 0 1 0;
#X connect 1 0 2 0;
#X connect 2 0 3 0;
#X connect 3 0 4 0;
#X connect 5 0 0 0;
#X connect 6 0 8 0;
#X connect 7 0 9 0;
#X connect 8 0 7 0;
#X connect 11 0 12 0;
#X connect 12 0 13 0;
#X connect 13 0 14 0;
#X connect 14 0 10 0;
#X connect 16 0 15 0;
#X coords 0 -1 1 1 85 60 1 10 10;
#X restore 210 368 pd env&juste;
#N canvas 249 388 991 295 MRTABLES 0;
#X floatatom 40 183 5 0 0 0 - - -, f 5;
#X obj 105 191 hsl 128 15 0 1 0 0 empty empty empty -2 -6 0 8 -262144
-1 -1 0 1;
#X obj 459 95 r \$1-Reverb-snd;
#X obj 678 92 r \$1-Select-snd;
#X obj 894 100 r \$1-Vol-snd;
#X obj 894 126 s \$1-Vol;
#X obj 678 154 s \$1-Select;
#X obj 460 155 s \$1-Reverb;
#X obj 17 44 r \$1-Play-snd;
#X obj 15 150 s \$1-Play;
#X obj 239 36 r \$1-Note-snd;
#X obj 304 169 s \$1-Note;
#N canvas 109 389 382 377 keybd 0;
#X obj 19 23 inlet;
#X obj 146 19 r \$0-keyboardmono;
#X obj 146 43 != -1;
#X obj 189 238 tgl 15 0 empty empty empty 0 -6 0 8 -262144 -1 -1 0
1;
#X obj 189 289 f;
#X obj 44 336 outlet;
#X obj 44 295 line;
#X msg 233 139 stop;
#X msg 217 290 1;
#X obj 146 67 t f f;
#X obj 63 204 f;
#X obj 176 91 sel 1 0;
#X msg 189 140 set 0;
#X obj 189 261 sel 0 1;
#X obj 282 72 r \$1-clock;
#X obj 231 235 spigot;
#X obj 109 87 tgl 15 0 empty empty empty 0 -6 0 8 -262144 -1 -1 0 1
;
#X obj 231 213 b;
#X msg 63 226 \$1 \, 1 100;
#X obj 281 200 unpack f f;
#X obj 189 314 pack f 125;
#X obj 317 226 / 4;
#X obj 231 169 ndmetro 2 8;
#X obj 231 190 sel 1;
#X connect 0 0 4 1;
#X connect 0 0 6 0;
#X connect 0 0 10 1;
#X connect 1 0 2 0;
#X connect 2 0 9 0;
#X connect 3 0 13 0;
#X connect 4 0 20 0;
#X connect 6 0 5 0;
#X connect 7 0 6 0;
#X connect 8 0 20 0;
#X connect 9 0 15 1;
#X connect 9 0 16 0;
#X connect 9 1 11 0;
#X connect 10 0 18 0;
#X connect 11 0 10 0;
#X connect 11 1 7 0;
#X connect 11 1 12 0;
#X connect 12 0 3 0;
#X connect 13 0 4 0;
#X connect 13 1 8 0;
#X connect 14 0 19 0;
#X connect 14 0 22 0;
#X connect 15 0 3 0;
#X connect 17 0 15 0;
#X connect 18 0 6 0;
#X connect 19 1 21 0;
#X connect 20 0 6 0;
#X connect 21 0 20 1;
#X connect 22 0 23 0;
#X connect 23 0 17 0;
#X restore 17 75 pd keybd;
#N canvas 1 1220 239 239 keyb 0;
#X obj 84 18 r \$0-keyboardmono;
#X obj 20 18 inlet;
#X obj 84 201 outlet;
#X obj 132 53 sel -1;
#X obj 169 75 / 28;
#X obj 169 97 - 0.25;
#X obj 84 60 != -1;
#X obj 84 80 metro 125;
#X obj 84 39 t f f;
#X obj 84 103 t b b;
#X msg 114 124 -2;
#X obj 84 170 + 0.5;
#X connect 0 0 8 0;
#X connect 1 0 2 0;
#X connect 1 0 11 1;
#X connect 3 1 4 0;
#X connect 4 0 5 0;
#X connect 5 0 11 0;
#X connect 6 0 7 0;
#X connect 7 0 9 0;
#X connect 8 0 6 0;
#X connect 8 1 3 0;
#X connect 9 0 11 0;
#X connect 9 1 10 0;
#X connect 10 0 2 0;
#X connect 11 0 2 0;
#X restore 239 65 pd keyb;
#X obj 239 146 moses -0.5;
#X obj 589 206 r \$1-keyboardmono;
#X obj 589 268 s \$1-Key;
#X obj 460 121 MR_table \$1 table3 \$1 \$2 \$3MR3;
#X obj 589 234 MR_table \$1 table5 \$1 \$2 \$3MR5 1 -1;
#X obj 17 123 MR_table \$1 table1 \$1 \$2 \$3MR1 1;
#X obj 239 121 MR_table \$1 table2 \$1 \$2 \$3MR2 1;
#X obj 678 120 MR_table \$1 table4 \$1 \$2 \$3MR4 1;
#X obj 371 35 r \$1-Rec;
#X connect 0 0 1 0;
#X connect 2 0 17 0;
#X connect 3 0 21 0;
#X connect 4 0 5 0;
#X connect 8 0 12 0;
#X connect 10 0 13 0;
#X connect 12 0 19 0;
#X connect 13 0 20 0;
#X connect 14 1 11 0;
#X connect 15 0 18 0;
#X connect 17 0 7 0;
#X connect 18 0 16 0;
#X connect 19 0 9 0;
#X connect 20 0 14 0;
#X connect 21 0 6 0;
#X connect 22 0 17 1;
#X connect 22 0 18 1;
#X connect 22 0 19 1;
#X connect 22 0 20 1;
#X connect 22 0 21 1;
#X restore 140 759 pd MRTABLES;
#X floatatom 471 95 5 0 0 0 - - -, f 5;
#X obj 338 137 ++;
#X obj 359 323 f;
#N canvas 1 1259 381 330 Gamme 0;
#N canvas 495 74 450 382 i2l 0;
#X obj 221 41 inlet;
#X obj 221 243 outlet;
#X obj 221 90 for++ 0 11;
#X obj 221 62 t b f;
#X obj 251 133 f;
#X obj 251 156 & 1;
#X obj 280 133 >> 1;
#X obj 221 111 t f b;
#X obj 221 184 pack f f;
#X obj 145 243 print;
#X msg 167 71 1625;
#X msg 221 213 set \$1 \$2;
#X connect 0 0 3 0;
#X connect 2 0 7 0;
#X connect 3 0 2 0;
#X connect 3 1 4 1;
#X connect 4 0 5 0;
#X connect 4 0 6 0;
#X connect 5 0 8 1;
#X connect 6 0 4 1;
#X connect 7 0 8 0;
#X connect 7 1 4 0;
#X connect 8 0 11 0;
#X connect 10 0 3 0;
#X connect 11 0 1 0;
#X restore 19 177 pd i2l;
#X obj 19 56 r Gammes;
#X obj 19 154 unpack f f;
#X obj 177 16 r \$0-gamnum-snd;
#X obj 177 36 * 3.9;
#X obj 177 57 i;
#X msg 221 196 label \$1;
#X obj 221 218 s \$0-gamnum-rcv;
#X obj 177 76 change -1;
#X obj 221 175 makesymbol gam%s;
#X obj 177 96 sel 0 1;
#X obj 221 155 - 1;
#X msg 177 115 label off;
#X msg 199 135 label semi;
#X obj 80 222 tabread Gammestab;
#X obj 152 155 * 2;
#X obj 98 262 tabread Gammestab;
#X obj 98 242 + 1;
#X msg 99 154 4095 0;
#X obj 19 90 unwonk f;
#X obj 19 133 l;
#X floatatom 166 190 5 0 0 0 - - -, f 5;
#X msg 83 115 -1;
#X obj 122 114 sel 0 1;
#X obj 152 135 - 2;
#X obj 19 111 sel 0;
#X obj 19 198 s \$0-setgam;
#X obj 84 299 s \$0-transgam;
#X obj 256 95 s \$0-ongam;
#X connect 0 0 26 0;
#X connect 1 0 19 0;
#X connect 2 0 0 0;
#X connect 2 1 27 0;
#X connect 3 0 4 0;
#X connect 4 0 5 0;
#X connect 5 0 8 0;
#X connect 6 0 7 0;
#X connect 8 0 10 0;
#X connect 8 0 23 0;
#X connect 8 0 28 0;
#X connect 9 0 6 0;
#X connect 10 0 12 0;
#X connect 10 1 13 0;
#X connect 10 2 11 0;
#X connect 11 0 9 0;
#X connect 12 0 7 0;
#X connect 13 0 7 0;
#X connect 14 0 0 0;
#X connect 15 0 14 0;
#X connect 15 0 17 0;
#X connect 16 0 27 0;
#X connect 17 0 16 0;
#X connect 18 0 2 0;
#X connect 19 0 25 0;
#X connect 19 1 20 1;
#X connect 20 0 2 0;
#X connect 22 0 25 1;
#X connect 23 0 18 0;
#X connect 23 0 22 0;
#X connect 23 1 18 0;
#X connect 23 1 22 0;
#X connect 23 2 24 0;
#X connect 24 0 15 0;
#X connect 24 0 21 0;
#X connect 24 0 25 1;
#X connect 25 0 20 0;
#X restore 679 21 pd Gamme;
#X obj 240 115 s \$1-lvert;
#X obj 369 115 notemodrcvphrase \$0 \$1;
#X obj 543 157 l notemodrcv \$0 \$1;
#X obj 19 478 mull~ 1 10;
#X floatatom 204 324 5 0 0 0 - - -, f 5;
#X obj 55 614 mull~ 1 10;
#X obj 19 587 +~;
#X obj 21 720 +~;
#X obj 67 506 mull~ 1 10;
#X obj 566 301 l param \$1 SETTING gamnum;
#X obj 564 193 l param \$1 FX volnoise;
#X obj 566 256 l param \$1 FX f;
#X obj 566 278 l param \$1 FX env2f;
#N canvas 324 899 450 300 env 0;
#X obj 38 16 inlet~;
#X obj 36 279 outlet~;
#X obj 80 188 ead~ 1 100;
#X obj 154 128 mknob 25 100 0 1 0 0 \$1-r-snd \$1-r-rcv r -2 -6 1 8
-262144 -1 -1 9900 1;
#X obj 109 131 mknob 25 100 0 1 0 0 \$1-a-snd \$1-a-rcv a -2 -6 1 8
-262144 -1 -1 0 1;
#N canvas 2047 495 294 218 shiftcon 0;
#X obj 30 40 inlet;
#X obj 135 32 inlet;
#X text 136 15 shift;
#X obj 135 53 t f f;
#X obj 30 106 f;
#X obj 128 98 spigot;
#X obj 67 109 == 0;
#X obj 30 132 spigot;
#X obj 165 75 != 0;
#X obj 45 180 outlet;
#X obj 79 79 sel 0;
#X text 25 22 normal;
#X obj 128 122 maxlib/scale 0 1 0.01 1;
#X connect 0 0 4 0;
#X connect 1 0 3 0;
#X connect 3 0 5 0;
#X connect 3 0 10 0;
#X connect 3 1 8 0;
#X connect 3 1 6 0;
#X connect 4 0 7 0;
#X connect 5 0 12 0;
#X connect 6 0 7 1;
#X connect 7 0 9 0;
#X connect 8 0 5 1;
#X connect 10 0 4 0;
#X connect 12 0 9 0;
#X restore 187 172 pd shiftcon;
#X floatatom 245 199 5 0 0 0 - - -, f 5;
#X obj 57 231 *~;
#X obj 226 36 inlet;
#X obj 84 29 inlet;
#X floatatom 192 240 5 0 0 0 - - -, f 5;
#X obj 187 201 * 10000;
#X obj 266 95 param \$1 SETTING a;
#X obj 267 116 param \$1 SETTING r;
#X obj 111 68 init 0;
#X obj 311 166 r \$1-setap-snd;
#X obj 313 192 route _loaded_;
#X obj 314 214 b;
#X obj 313 234 init 1;
#X obj 103 163 * 500;
#X connect 0 0 7 0;
#X connect 2 0 7 1;
#X connect 3 0 5 0;
#X connect 4 0 19 0;
#X connect 5 0 6 0;
#X connect 5 0 11 0;
#X connect 7 0 1 0;
#X connect 8 0 5 1;
#X connect 9 0 2 0;
#X connect 11 0 2 2;
#X connect 11 0 10 0;
#X connect 14 0 4 0;
#X connect 15 0 16 0;
#X connect 16 0 17 0;
#X connect 17 0 18 0;
#X connect 18 0 3 0;
#X connect 19 0 2 1;
#X coords 0 -1 1 1 85 60 1 100 100;
#X restore 365 708 pd env;
#X obj 366 651 sel 1;
#X obj 566 214 l param \$1 FX a;
#X obj 565 235 l param \$1 FX r;
#X obj 492 350 l MeloGamme \$0 20 77 15;
#X obj 270 719 ac;
#X obj 18 175 apdisto \$1 FX disto1;
#X obj 18 235 orfilter \$1 FX ortho1;
#X obj 67 527 apecho \$1 FX echo1;
#X obj 57 644 aprev \$1 FX rev1;
#X floatatom 475 235 5 0 0 0 - - -, f 5;
#X floatatom 213 254 5 0 0 0 - - -, f 5;
#N canvas 67 682 450 507 Defile 0;
#X obj 162 25 inlet trig;
#X obj 264 9 inlet seq;
#X obj 104 160 pack f f f;
#X obj 129 252 print;
#X obj 75 286 s \$1-DefileSeq;
#X obj 264 102 change;
#X obj 264 59 + 0.5;
#X obj 264 81 i;
#X floatatom 264 125 5 0 0 0 - - -, f 5;
#X floatatom 212 62 5 0 0 0 - - -, f 5;
#X floatatom 29 98 5 0 0 0 - - -, f 5;
#X obj 69 37 inlet tic;
#X obj 133 212 print;
#X obj 140 130 f;
#X obj 175 127 f;
#X obj 89 79 t f b b;
#X obj 264 34 * 8;
#X connect 0 0 9 0;
#X connect 0 0 13 1;
#X connect 1 0 16 0;
#X connect 2 0 4 0;
#X connect 5 0 8 0;
#X connect 5 0 14 1;
#X connect 6 0 7 0;
#X connect 7 0 5 0;
#X connect 11 0 10 0;
#X connect 11 0 15 0;
#X connect 13 0 2 1;
#X connect 14 0 2 2;
#X connect 15 0 2 0;
#X connect 15 1 13 0;
#X connect 15 2 14 0;
#X connect 16 0 6 0;
#X restore 410 183 pd Defile;
#X floatatom 471 153 5 0 0 0 - - -, f 5;
#X floatatom 567 121 5 0 0 0 - - -, f 5;
#N canvas 1366 900 450 300 apfs 1;
#X obj 36 50 param \$1 FX Note;
#X obj 33 159 param \$1 FX Note_adjust;
#X obj 37 125 param \$1 FX Phrases_vitesse;
#X obj 33 191 param \$1 FX Decay;
#X obj 37 104 l param \$1 FX Phrases;
#X restore 680 94 pd apfs;
#X obj 52 29 mknob 30 100 0 1 0 0 \$1-Phrases-snd \$1-Phrases-rcv Phrases
-2 -6 0 8 -258113 -1 -4160 5280 1;
#X obj 95 50 mknob 30 100 0.2 0.8 0 0 \$1-Note-snd \$1-Note-rcv Note
-2 -6 1 8 -203904 -1 -1 3228 1;
#X obj 338 27 r \$1-Note-snd;
#X obj 171 63 s \$1-Key;
#X obj 369 74 r \$1-Phrases-snd;
#X obj 407 205 r \$1-Note_adjust-snd;
#X obj 36 92 mknob 30 100 0 1 0 0 \$1-Note_adjust-snd \$1-Note_adjust-rcv
Note_adjust -2 -6 0 8 -4160 -1 -4160 9900 1;
#X floatatom 486 225 5 0 0 0 - - -, f 5;
#X obj 514 76 r \$1-Phrases_vitesse-snd;
#X obj 109 118 mknob 30 100 0 1 0 0 \$1-Phrases_vitesse-snd \$1-Phrases_vitesse-rcv
Phrases_vitesse -2 -6 0 8 -159808 -1 -4160 0 1;
#X obj 405 229 * 40;
#X obj 279 228 gammeRound /GAMME;
#X floatatom 285 334 5 0 0 0 - - -, f 5;
#X obj 434 646 r \$1-Decay-snd;
#X obj 110 18 mknob 30 100 0 1 0 0 \$1-Decay-snd \$1-Decay-rcv Decay
-2 -6 0 8 -241291 -1 -4160 6384 1;
#X floatatom 467 733 5 0 0 0 - - -, f 5;
#X obj 714 377 sel 0;
#X floatatom 23 52 5 0 0 0 - - -, f 5;
#X obj 24 2 r Sel\$2-snd;
#X obj 312 253 t b f;
#X msg 375 292 100;
#X msg 408 289 0;
#X floatatom 416 335 5 0 0 0 - - -, f 5;
#X obj 304 307 f;
#X obj 340 350 t b f;
#X obj 80 758 ac;
#X obj 233 771 ac;
#X obj 401 262 del 50;
#X obj 438 293 r \$1-Decay-snd;
#X obj 436 318 maxlib/scale 0 1 30 2000;
#X obj 20 759 *~ 0.1;
#X obj 155 87 ../Ax \$1 x 0 1;
#X obj 22 125 ../Ax \$1 z 0 1;
#X floatatom 170 149 5 0 0 0 - - -, f 5;
#X obj 16 151 ../Ax \$1 y 0 0.5;
#X obj 339 76 ++;
#X connect 0 0 3 0;
#X connect 2 0 64 0;
#X connect 3 0 4 0;
#X connect 4 0 35 0;
#X connect 5 0 1 0;
#X connect 6 0 45 0;
#X connect 6 0 50 0;
#X connect 6 0 51 0;
#X connect 9 0 40 1;
#X connect 9 0 37 1;
#X connect 12 0 6 0;
#X connect 13 0 56 0;
#X connect 15 0 96 0;
#X connect 16 0 32 0;
#X connect 16 0 96 1;
#X connect 17 0 77 0;
#X connect 29 0 14 0;
#X connect 29 0 72 0;
#X connect 30 0 83 0;
#X connect 30 0 85 0;
#X connect 33 0 29 1;
#X connect 33 1 35 1;
#X connect 33 1 58 0;
#X connect 33 1 57 1;
#X connect 33 2 57 0;
#X connect 33 2 59 0;
#X connect 35 0 38 0;
#X connect 35 0 40 0;
#X connect 35 0 37 0;
#X connect 37 0 54 0;
#X connect 38 0 39 0;
#X connect 39 0 86 0;
#X connect 39 0 91 0;
#X connect 40 0 53 0;
#X connect 46 0 45 1;
#X connect 51 0 52 0;
#X connect 52 0 0 0;
#X connect 53 0 38 1;
#X connect 54 0 39 1;
#X connect 62 0 92 0;
#X connect 63 0 15 0;
#X connect 65 0 24 0;
#X connect 65 0 33 0;
#X connect 65 0 57 2;
#X connect 66 0 68 0;
#X connect 66 0 71 0;
#X connect 67 0 93 0;
#X connect 69 0 28 0;
#X connect 69 0 33 1;
#X connect 70 0 95 0;
#X connect 71 0 72 1;
#X connect 72 0 73 0;
#X connect 72 0 80 0;
#X connect 74 0 76 0;
#X connect 77 0 10 0;
#X connect 77 1 11 0;
#X connect 79 0 61 0;
#X connect 79 0 78 0;
#X connect 80 0 81 0;
#X connect 80 0 88 0;
#X connect 80 1 84 1;
#X connect 81 0 30 0;
#X connect 82 0 30 0;
#X connect 84 0 12 0;
#X connect 85 0 84 0;
#X connect 85 1 12 1;
#X connect 88 0 82 0;
#X connect 89 0 90 0;
#X connect 90 0 88 1;
#X connect 91 0 5 0;
#X connect 92 0 62 0;
#X connect 92 0 94 0;
#X connect 93 0 67 0;
#X connect 95 0 70 0;
#X connect 96 0 29 0;
