#N canvas 620 79 716 391 10;
#N canvas 2792 83 411 676 ALLSOUND 0;
#X obj 19 317 lop~ 3000;
#X obj 20 586 outlet~;
#X obj 165 232 s \$0-caninstru;
#X obj 166 189 r \$0-visu;
#X msg 166 211 vis 1;
#X obj 18 131 inlet;
#X obj 19 517 +~;
#N canvas 1429 506 770 575 synth 0;
#X obj 181 487 outlet~;
#X obj 182 376 *~;
#X obj 184 105 ead~ 1 100;
#X obj 244 20 mknob 25 100 0 1 0 0 \$1-r-snd \$1-r-rcv r -2 -6 1 8
-262144 -1 -1 659 1;
#X obj 249 85 * 1000;
#X obj 204 53 mknob 25 100 0 1 0 0 \$1-a-snd \$1-a-rcv a -2 -6 1 8
-262144 -1 -1 561 1;
#X obj 204 82 * 100;
#X obj 228 293 osc~ 80;
#X msg 133 85 0;
#X obj 228 271 *~ 120;
#X obj 342 150 mknob 25 100 0 1 0 0 \$1-f-snd \$1-f-rcv f -2 -6 1 8
-262144 -1 -1 3455 1;
#X obj 341 311 mtof;
#X obj 269 139 mknob 25 100 0 1 0 0 \$1-env2f-snd \$1-env2f-rcv env2f
-2 -6 1 8 -262144 -1 -1 3955 1;
#X obj 260 185 *~;
#X msg 287 185 1 \$1;
#X obj 287 204 -;
#X obj 260 206 +~;
#X obj 110 160 mknob 25 100 0 1 0 0 \$1-volnoise-snd \$1-volnoise-rcv
volnoise -2 -6 1 8 -262144 -1 -1 205 1;
#X obj 66 208 mull~ 0 10;
#X obj 58 187 noise~;
#X obj 132 32 inlet;
#X floatatom 337 347 5 0 0 0 - - -, f 5;
#N canvas 2051 417 294 218 shiftcon 0;
#X obj 30 40 inlet;
#X obj 135 32 inlet;
#X text 136 15 shift;
#X obj 135 53 t f f;
#X obj 30 106 f;
#X obj 128 98 spigot;
#X obj 67 109 == 0;
#X obj 30 132 spigot;
#X obj 165 75 != 0;
#X obj 45 180 outlet;
#X obj 79 79 sel 0;
#X text 25 22 normal;
#X obj 128 122 maxlib/scale 0 1 0.01 1;
#X connect 0 0 4 0;
#X connect 1 0 3 0;
#X connect 3 0 5 0;
#X connect 3 0 10 0;
#X connect 3 1 8 0;
#X connect 3 1 6 0;
#X connect 4 0 7 0;
#X connect 5 0 12 0;
#X connect 6 0 7 1;
#X connect 7 0 9 0;
#X connect 8 0 5 1;
#X connect 10 0 4 0;
#X connect 12 0 9 0;
#X restore 249 56 pd shiftcon;
#X floatatom 307 83 5 0 0 0 - - -, f 5;
#X obj 96 21 bng 15 250 50 0 empty empty empty 17 7 0 10 -262144 -1
-1;
#X obj 316 20 r \$1-Decay;
#X floatatom 275 246 5 0 0 0 - - -, f 5;
#X obj 132 60 t b b;
#X floatatom 507 318 5 0 0 0 - - -, f 5;
#X obj 182 411 apcheb \$1 FX cheb1;
#X obj 91 95 bng 15 250 50 0 empty empty empty 17 7 0 10 -262144 -1
-1;
#X obj 394 37 r \$1-Decay-snd;
#X obj 463 225 r \$1-Note_adjust-snd;
#X obj 336 284 gammeRound /CHORD;
#X obj 463 247 * 40;
#X floatatom 389 317 5 0 0 0 - - -, f 5;
#X obj 393 156 * 24;
#X obj 493 130 r \$1-NoteBass-snd;
#X floatatom 426 214 5 0 0 0 - - -, f 5;
#X obj 396 178 - 12;
#X obj 338 248 ++;
#X obj 341 221 * 130;
#X connect 1 0 29 0;
#X connect 2 0 1 1;
#X connect 2 0 13 1;
#X connect 3 0 22 0;
#X connect 4 0 2 2;
#X connect 5 0 6 0;
#X connect 6 0 2 1;
#X connect 7 0 1 0;
#X connect 8 0 7 1;
#X connect 9 0 7 0;
#X connect 10 0 41 0;
#X connect 11 0 9 1;
#X connect 11 0 21 0;
#X connect 12 0 13 0;
#X connect 12 0 14 0;
#X connect 13 0 16 0;
#X connect 14 0 15 0;
#X connect 15 0 16 1;
#X connect 16 0 9 0;
#X connect 17 0 18 1;
#X connect 18 0 1 0;
#X connect 19 0 18 0;
#X connect 20 0 27 0;
#X connect 22 0 4 0;
#X connect 22 0 23 0;
#X connect 24 0 27 0;
#X connect 25 0 22 1;
#X connect 27 0 8 0;
#X connect 27 0 30 0;
#X connect 27 1 2 0;
#X connect 29 0 0 0;
#X connect 31 0 22 1;
#X connect 32 0 28 0;
#X connect 32 0 34 0;
#X connect 33 0 11 0;
#X connect 33 0 35 0;
#X connect 34 0 33 1;
#X connect 36 0 39 0;
#X connect 37 0 36 0;
#X connect 39 0 38 0;
#X connect 39 0 40 1;
#X connect 40 0 33 0;
#X connect 41 0 26 0;
#X connect 41 0 40 0;
#X restore 18 153 pd synth;
#X obj 20 543 *~ 2;
#X obj 19 565 hip~ 10;
#X obj 197 333 mull~ 1 10;
#X obj 223 26 param \$1 FX volnoise;
#X obj 224 52 param \$1 FX a;
#X obj 225 78 param \$1 FX r;
#X obj 225 104 param \$1 FX f;
#X obj 228 131 param \$1 FX env2f;
#X obj 25 176 apdisto \$1 FX disto1;
#X obj 19 237 orfilter \$1 FX ortho1;
#X obj 196 370 aprev \$1 FX rev1;
#X obj 35 15 namecanvas \$0-caninstru;
#X obj 225 294 m 1;
#X obj 225 253 r \$1-Reverb;
#X obj 240 273 r \$1-Reverb_max;
#X obj 33 401 apecho \$1 FX echo1;
#X obj 18 491 +~;
#X obj 290 197 r \$1-Reverb-snd;
#X connect 0 0 10 0;
#X connect 0 0 24 0;
#X connect 3 0 4 0;
#X connect 4 0 2 0;
#X connect 5 0 7 0;
#X connect 6 0 8 0;
#X connect 7 0 16 0;
#X connect 8 0 9 0;
#X connect 9 0 1 0;
#X connect 10 0 18 0;
#X connect 10 0 23 0;
#X connect 16 0 17 0;
#X connect 17 0 0 0;
#X connect 18 0 6 1;
#X connect 20 0 10 1;
#X connect 21 0 20 0;
#X connect 22 0 20 1;
#X connect 23 0 24 1;
#X connect 24 0 6 0;
#X connect 25 0 10 1;
#X restore 108 120 pd ALLSOUND;
#X obj 97 292 Vmull~ 0 10;
#X obj 42 321 outlet~;
#N canvas 491 1119 242 392 touches 0;
#X obj 51 46 ++;
#X obj 51 94 ++;
#X obj 51 70 ++;
#X obj 51 118 sel 0;
#X msg 51 144 -1;
#X obj 24 173 inlet;
#X obj 24 282 outlet;
#X obj 24 237 spigot;
#X obj 78 204 != -1;
#X obj 32 259 bng 15 250 50 0 empty empty empty 17 7 0 10 -262144 -1
-1;
#X obj 78 176 pipe 1;
#X obj 78 230 change;
#X obj 78 253 sel 1;
#X obj 78 286 bng 15 250 50 0 empty empty empty 17 7 0 10 -262144 -1
-1;
#X obj 51 2 r \$1-1/1-lock;
#X obj 66 24 r \$1-1/2-lock;
#X obj 82 48 r \$1-1/3-lock;
#X obj 80 73 r \$1-1/4-lock;
#N canvas 2022 473 377 382 play 0;
#X msg 252 67 0;
#X obj 156 221 ||;
#X obj 173 196 t b f;
#X obj 152 244 tgl 15 0 empty empty empty 17 7 0 10 -262144 -1 -1 0
1;
#X obj 177 167 tgl 15 0 empty empty empty 17 7 0 10 -262144 -1 -1 0
1;
#X obj 193 290 outlet on-off;
#X obj 134 85 sel 0 1;
#X obj 103 63 t f f;
#X obj 169 112 del 250;
#X obj 64 188 spigot;
#X obj 110 167 tgl 15 0 empty empty empty 17 7 0 10 -262144 -1 -1 0
1;
#X msg 166 139 0;
#X msg 135 121 1;
#X floatatom 53 74 5 0 0 0 - - -, f 5;
#X obj 62 31 r Play\$2-snd;
#X obj 97 324 s Led\$2-rcv;
#X connect 1 0 3 0;
#X connect 2 0 1 0;
#X connect 2 1 1 1;
#X connect 3 0 5 0;
#X connect 4 0 2 0;
#X connect 6 0 9 0;
#X connect 6 1 8 0;
#X connect 6 1 12 0;
#X connect 7 0 1 0;
#X connect 7 1 6 0;
#X connect 8 0 11 0;
#X connect 9 0 4 0;
#X connect 10 0 9 1;
#X connect 11 0 10 0;
#X connect 12 0 10 0;
#X connect 14 0 7 0;
#X connect 14 0 13 0;
#X restore 143 191 pd play;
#X floatatom 143 234 5 0 0 0 - - -, f 5;
#X connect 0 0 2 0;
#X connect 1 0 3 0;
#X connect 2 0 1 0;
#X connect 3 0 4 0;
#X connect 3 1 10 0;
#X connect 4 0 10 0;
#X connect 5 0 7 0;
#X connect 7 0 6 0;
#X connect 7 0 9 0;
#X connect 8 0 7 1;
#X connect 8 0 11 0;
#X connect 10 0 8 0;
#X connect 11 0 12 0;
#X connect 12 0 6 0;
#X connect 12 0 13 0;
#X connect 14 0 0 0;
#X connect 15 0 0 1;
#X connect 16 0 2 1;
#X connect 17 0 1 1;
#X connect 18 0 7 1;
#X connect 18 0 19 0;
#X restore 96 83 pd touches;
#N canvas 652 1061 708 443 Vitesse 0;
#X obj 140 365 outlet;
#X obj 102 96 i;
#X obj 150 324 t a;
#X obj 99 131 change -1;
#X obj 408 54 i;
#X obj 376 295 t a;
#X obj 408 85 change -1;
#X obj 66 319 bng 15 250 50 0 empty empty empty 17 7 0 10 -262144 -1
-1;
#X obj 102 42 * 7.9;
#X msg 48 185 1;
#X msg 81 205 2;
#X msg 111 221 3;
#X msg 133 198 4;
#X msg 153 228 6;
#X msg 169 196 8;
#X msg 183 221 12;
#X msg 215 235 16;
#X obj 102 70 + 0;
#X obj 99 154 sel 0 1 2 3 4 5 6 7;
#X obj 407 113 sel 0 1 2 3 4 5 6 7;
#X msg 357 147 1;
#X msg 390 167 2;
#X msg 420 183 3;
#X msg 439 161 4;
#X msg 459 194 6;
#X msg 478 159 8;
#X msg 492 183 12;
#X msg 518 198 16;
#X obj 408 32 * 7.9;
#X msg 376 340 label \$1;
#X floatatom 221 74 5 0 0 0 - - -, f 5;
#X obj 373 315 makesymbol tempo_%s;
#X obj 102 16 r \$1-Tempo-snd;
#X obj 408 6 r \$1-Tempo-snd;
#X obj 376 361 s \$1-Tempo-rcv;
#X connect 1 0 3 0;
#X connect 1 0 30 0;
#X connect 2 0 0 0;
#X connect 3 0 18 0;
#X connect 4 0 6 0;
#X connect 5 0 31 0;
#X connect 6 0 19 0;
#X connect 8 0 17 0;
#X connect 9 0 2 0;
#X connect 10 0 2 0;
#X connect 11 0 2 0;
#X connect 12 0 2 0;
#X connect 13 0 2 0;
#X connect 14 0 2 0;
#X connect 15 0 2 0;
#X connect 16 0 2 0;
#X connect 17 0 1 0;
#X connect 18 0 9 0;
#X connect 18 1 10 0;
#X connect 18 2 11 0;
#X connect 18 3 12 0;
#X connect 18 4 13 0;
#X connect 18 5 14 0;
#X connect 18 6 15 0;
#X connect 18 7 16 0;
#X connect 19 0 20 0;
#X connect 19 1 21 0;
#X connect 19 2 22 0;
#X connect 19 3 23 0;
#X connect 19 4 24 0;
#X connect 19 5 25 0;
#X connect 19 6 26 0;
#X connect 19 7 27 0;
#X connect 20 0 5 0;
#X connect 21 0 5 0;
#X connect 22 0 5 0;
#X connect 23 0 5 0;
#X connect 24 0 5 0;
#X connect 25 0 5 0;
#X connect 26 0 5 0;
#X connect 27 0 5 0;
#X connect 28 0 4 0;
#X connect 29 0 34 0;
#X connect 31 0 29 0;
#X connect 32 0 8 0;
#X connect 33 0 28 0;
#X restore 97 10 pd Vitesse;
#N canvas 562 261 804 507 trig 0;
#X obj 160 387 outlet;
#X obj 160 223 NDmetro;
#X obj 160 364 sel 0;
#X obj 147 113 spigot;
#X msg 264 137 -1;
#X obj 265 75 t f f;
#X obj 264 114 sel 0;
#X msg 216 111 \$2 \$1;
#X obj 216 135 /;
#X obj 205 192 pack 1 1;
#X obj 216 158 t b f;
#X obj 161 329 tabread \$0-tt;
#X obj 399 139 s \$0-tt;
#X msg 371 72 8 0 1 0 1 0 0 1 0;
#X obj 161 269 + 1;
#X obj 279 277 tabread \$0-tt;
#X msg 279 255 0;
#X obj 371 97 t b a;
#X obj 192 34 inlet ND;
#X obj 109 381 bng 15 250 50 0 empty empty empty 17 7 0 10 -262144
-1 -1;
#X obj 80 165 bng 15 250 50 0 empty empty empty 17 7 0 10 -262144 -1
-1;
#X obj 341 112 tgl 15 0 empty empty empty 17 7 0 10 -262144 -1 -1 1
1;
#X floatatom 308 315 5 0 0 0 - - -, f 5;
#X floatatom 95 342 5 0 0 0 - - -, f 5;
#X msg 306 221 set \$1;
#X symbolatom 510 277 0 0 0 0 - - -;
#X obj 499 205 change;
#X obj 506 137 + 0.5;
#X obj 499 184 i;
#X obj 515 109 * 8;
#X floatatom 499 228 5 0 0 0 - - -, f 5;
#X obj 279 199 t b s;
#X obj 371 160 symbol \$0-tt;
#X obj 374 192 table \$0-tt 64;
#X obj 147 81 r SYNCHRO-clock;
#X floatatom 89 255 5 0 0 0 - - -, f 5;
#X floatatom 283 169 5 0 0 0 - - -, f 5;
#X obj 265 54 r \$0-onoff;
#X floatatom 116 425 5 0 0 0 - - -, f 5;
#X floatatom 49 293 5 0 0 0 - - -, f 5;
#X obj 398 118 list prepend O;
#X obj 500 251 makesymbol \$1-STEP-seq%s;
#X obj 506 307 table \$1-STEP-seq0 64;
#X obj 506 327 table \$1-STEP-seq1 64;
#X obj 505 347 table \$1-STEP-seq2 64;
#X obj 505 367 table \$1-STEP-seq3 64;
#X obj 505 387 table \$1-STEP-seq4 64;
#X obj 505 407 table \$1-STEP-seq5 64;
#X obj 504 427 table \$1-STEP-seq6 64;
#X obj 504 447 table \$1-STEP-seq7 64;
#X obj 504 469 table \$1-STEP-seq8 64;
#X obj 131 235 bng 15 250 50 0 empty empty empty 17 7 0 10 -262144
-1 -1;
#X obj 597 214 s \$1-STEP-seq0;
#X obj 597 158 loadbang;
#X msg 597 183 const 1 \, 0 64 \, 1 0;
#X obj 251 444 s \$1-toNet;
#X obj 166 294 t f f;
#X obj 221 375 pack f f;
#X obj 219 354 == 0;
#X msg 215 403 step \$2 \$1;
#X msg 291 401 nd \$2 \$1;
#X obj 160 247 spigot;
#X obj 219 222 unpack f f;
#X obj 218 243 != 0;
#N canvas 684 128 460 394 calctab 0;
#X obj 154 5 inlet;
#X obj 178 131 tabread \$0-tt;
#X msg 188 52 set \$1;
#X msg 171 81 1 \, 2 \, 3 \, 4 \, 5 \, 6 \, 7 \, 8 \, 9 \, 10;
#X obj 153 26 t b b s b;
#X obj 171 104 t f f;
#X obj 193 153 - 1;
#X obj 178 173 <<;
#X obj 179 198 +;
#X obj 208 198 f;
#X msg 222 174 0;
#X obj 167 223 f;
#X obj 167 246 outlet;
#X connect 0 0 4 0;
#X connect 1 0 7 0;
#X connect 2 0 1 0;
#X connect 3 0 5 0;
#X connect 4 0 11 0;
#X connect 4 1 3 0;
#X connect 4 2 2 0;
#X connect 4 3 10 0;
#X connect 5 0 1 0;
#X connect 5 1 6 0;
#X connect 6 0 7 1;
#X connect 7 0 8 0;
#X connect 8 0 9 0;
#X connect 8 0 11 1;
#X connect 9 0 8 1;
#X connect 10 0 9 0;
#X connect 11 0 12 0;
#X restore 367 388 pd calctab;
#X msg 367 409 tab \$1;
#X obj 66 408 bng 15 250 50 0 empty empty empty 17 7 0 10 -262144 -1
-1;
#N canvas 196 960 450 507 Defile 0;
#X obj 65 39 inlet tic;
#X obj 162 25 inlet trig;
#X obj 264 57 inlet seq;
#X obj 104 160 pack f f f;
#X obj 162 60 t b f;
#X obj 65 70 t b f;
#X obj 129 252 print;
#X obj 75 286 s \$1-DefileSeq;
#X connect 0 0 5 0;
#X connect 1 0 4 0;
#X connect 2 0 3 0;
#X connect 3 0 7 0;
#X connect 4 0 3 0;
#X connect 4 1 3 2;
#X connect 5 0 3 0;
#X connect 5 1 3 1;
#X restore 291 477 pd Defile;
#X obj 46 13 r CLOCK;
#X obj 637 67 i;
#X obj 637 27 * 7.9;
#X obj 637 47 + 0;
#X obj 607 5 r \$1-PhraseNum-snd;
#X obj 48 55 route list;
#X obj 657 137 s INDICATOR;
#X obj 581 98 intPos 8;
#X connect 1 0 61 0;
#X connect 2 0 0 0;
#X connect 3 0 1 0;
#X connect 3 0 35 0;
#X connect 4 0 1 0;
#X connect 5 0 6 0;
#X connect 5 1 3 1;
#X connect 5 1 21 0;
#X connect 6 0 4 0;
#X connect 7 0 8 0;
#X connect 8 0 10 0;
#X connect 9 0 1 1;
#X connect 10 0 9 0;
#X connect 10 1 9 1;
#X connect 10 1 36 0;
#X connect 11 0 2 0;
#X connect 11 0 38 0;
#X connect 11 0 58 0;
#X connect 11 0 19 0;
#X connect 11 0 67 1;
#X connect 13 0 17 0;
#X connect 14 0 23 0;
#X connect 14 0 56 0;
#X connect 14 0 67 0;
#X connect 15 0 22 0;
#X connect 16 0 15 0;
#X connect 17 0 32 0;
#X connect 17 1 40 0;
#X connect 18 0 1 1;
#X connect 18 0 60 0;
#X connect 18 0 62 0;
#X connect 24 0 15 0;
#X connect 24 0 11 0;
#X connect 26 0 30 0;
#X connect 26 0 67 2;
#X connect 28 0 26 0;
#X connect 29 0 27 0;
#X connect 30 0 41 0;
#X connect 31 0 16 0;
#X connect 31 1 24 0;
#X connect 34 0 3 0;
#X connect 37 0 5 0;
#X connect 40 0 12 0;
#X connect 41 0 25 0;
#X connect 41 0 31 0;
#X connect 41 0 64 0;
#X connect 53 0 54 0;
#X connect 54 0 52 0;
#X connect 56 0 11 0;
#X connect 56 1 57 1;
#X connect 57 0 59 0;
#X connect 58 0 57 0;
#X connect 59 0 55 0;
#X connect 60 0 55 0;
#X connect 61 0 14 0;
#X connect 62 0 63 0;
#X connect 63 0 61 1;
#X connect 64 0 65 0;
#X connect 65 0 55 0;
#X connect 68 0 73 0;
#X connect 70 0 71 0;
#X connect 71 0 69 0;
#X connect 72 0 75 0;
#X connect 73 0 3 0;
#X connect 75 0 28 0;
#X connect 75 1 28 0;
#X connect 75 1 74 0;
#X restore 93 61 pd trig;
#N canvas 2077 719 313 459 vitesse_push 0;
#X obj 56 278 outlet;
#X obj 74 11 inlet;
#X obj 132 93 ++;
#X obj 147 66 * 2;
#X obj 132 160 ++;
#X obj 147 139 * 3;
#X obj 147 206 * 4;
#X obj 132 230 ++;
#X obj 74 221 t b f;
#X obj 56 253 pack f 1;
#X floatatom 132 265 5 0 0 0 - - -, f 5;
#X obj 133 379 s \$1-STEPnum;
#X obj 132 11 r \$1-1/1-lock;
#X obj 147 43 r \$1-1/2-lock;
#X obj 147 114 r \$1-1/3-lock;
#X obj 147 182 r \$1-1/4-lock;
#X obj 108 58 tgl 15 0 empty empty empty 17 7 0 10 -262144 -1 -1 0
1;
#X obj 198 74 tgl 15 0 empty empty empty 17 7 0 10 -262144 -1 -1 0
1;
#X obj 223 90 tgl 15 0 empty empty empty 17 7 0 10 -262144 -1 -1 0
1;
#X obj 240 156 tgl 15 0 empty empty empty 17 7 0 10 -262144 -1 -1 0
1;
#X obj 180 234 * 10.9;
#X obj 181 255 i;
#X floatatom 207 282 5 0 0 0 - - -, f 5;
#X obj 179 209 r \$1-STEPnumCtl-snd;
#X msg 180 326 label \$1;
#X obj 180 301 makesymbol step_%s;
#X obj 167 351 s \$1-STEPnumCtl-rcv;
#X connect 1 0 8 0;
#X connect 2 0 4 0;
#X connect 3 0 2 1;
#X connect 4 0 7 0;
#X connect 5 0 4 1;
#X connect 6 0 7 1;
#X connect 7 0 10 0;
#X connect 7 0 9 0;
#X connect 7 0 11 0;
#X connect 8 0 9 0;
#X connect 8 1 9 1;
#X connect 9 0 0 0;
#X connect 12 0 2 0;
#X connect 13 0 3 0;
#X connect 14 0 5 0;
#X connect 15 0 6 0;
#X connect 16 0 2 0;
#X connect 17 0 3 0;
#X connect 18 0 5 0;
#X connect 19 0 6 0;
#X connect 20 0 21 0;
#X connect 21 0 22 0;
#X connect 21 0 11 0;
#X connect 21 0 9 0;
#X connect 21 0 25 0;
#X connect 23 0 20 0;
#X connect 24 0 26 0;
#X connect 25 0 24 0;
#X restore 92 34 pd vitesse_push;
#X obj 128 188 m 1;
#X obj 30 182 s \$0-onoff;
#X obj 30 165 tgl 15 1 empty empty empty 17 7 0 10 -262144 -1 -1 1
1;
#X obj 128 145 r \$1-Volume;
#X obj 143 167 r \$1-Volume_max;
#X obj 128 271 m 1;
#X obj 143 208 r modsmuteck;
#X obj 143 250 != 1;
#X obj 176 229 tgl 15 0 \$1-mute-reverse-snd \$1-mute-reverse-rcv mute-reverse
17 7 0 10 -262144 -1 -1 1 1;
#X obj 203 279 param \$1 SETTING mute-reverse;
#X obj 8 141 s \$1-lvert;
#N canvas 1615 174 381 330 Gamme 0;
#N canvas 493 1192 450 382 i2l 0;
#X obj 221 41 inlet;
#X obj 221 243 outlet;
#X obj 221 90 for++ 0 11;
#X obj 221 62 t b f;
#X obj 251 133 f;
#X obj 251 156 & 1;
#X obj 280 133 >> 1;
#X obj 221 111 t f b;
#X obj 221 184 pack f f;
#X obj 145 243 print;
#X msg 167 71 1625;
#X msg 221 213 set \$1 \$2;
#X connect 0 0 3 0;
#X connect 2 0 7 0;
#X connect 3 0 2 0;
#X connect 3 1 4 1;
#X connect 4 0 5 0;
#X connect 4 0 6 0;
#X connect 5 0 8 1;
#X connect 6 0 4 1;
#X connect 7 0 8 0;
#X connect 7 1 4 0;
#X connect 8 0 11 0;
#X connect 10 0 3 0;
#X connect 11 0 1 0;
#X restore 19 177 pd i2l;
#X obj 19 56 r Gammes;
#X obj 19 154 unpack f f;
#X obj 177 16 r \$0-gamnum-snd;
#X obj 177 36 * 3.9;
#X obj 177 57 i;
#X msg 221 196 label \$1;
#X obj 221 218 s \$0-gamnum-rcv;
#X obj 177 76 change -1;
#X obj 221 175 makesymbol gam%s;
#X obj 177 96 sel 0 1;
#X obj 221 155 - 1;
#X msg 177 115 label off;
#X msg 199 135 label semi;
#X obj 80 222 tabread Gammestab;
#X obj 152 155 * 2;
#X obj 98 262 tabread Gammestab;
#X obj 98 242 + 1;
#X msg 99 154 4095 0;
#X obj 19 90 unwonk f;
#X obj 19 133 l;
#X floatatom 166 190 5 0 0 0 - - -, f 5;
#X msg 83 115 -1;
#X obj 122 114 sel 0 1;
#X obj 152 135 - 2;
#X obj 19 111 sel 0;
#X obj 19 198 s \$0-setgam;
#X obj 84 299 s \$0-transgam;
#X obj 256 95 s \$0-ongam;
#X floatatom 288 58 5 0 0 0 - - -, f 5;
#X connect 0 0 26 0;
#X connect 1 0 19 0;
#X connect 2 0 0 0;
#X connect 2 1 27 0;
#X connect 3 0 4 0;
#X connect 4 0 5 0;
#X connect 5 0 8 0;
#X connect 5 0 29 0;
#X connect 6 0 7 0;
#X connect 8 0 10 0;
#X connect 8 0 23 0;
#X connect 8 0 28 0;
#X connect 9 0 6 0;
#X connect 10 0 12 0;
#X connect 10 1 13 0;
#X connect 10 2 11 0;
#X connect 11 0 9 0;
#X connect 12 0 7 0;
#X connect 13 0 7 0;
#X connect 14 0 0 0;
#X connect 15 0 14 0;
#X connect 15 0 17 0;
#X connect 16 0 27 0;
#X connect 17 0 16 0;
#X connect 18 0 2 0;
#X connect 19 0 25 0;
#X connect 19 1 20 1;
#X connect 20 0 2 0;
#X connect 22 0 25 1;
#X connect 23 0 18 0;
#X connect 23 0 22 0;
#X connect 23 1 18 0;
#X connect 23 1 22 0;
#X connect 23 2 24 0;
#X connect 24 0 15 0;
#X connect 24 0 21 0;
#X connect 24 0 25 1;
#X connect 25 0 20 0;
#X restore 485 271 pd Gamme;
#X obj 420 305 cnv 15 72 20 empty empty gam 0 4 1 12 -260818 -1 0;
#X obj 452 302 mknob 12 100 0 1 0 0 \$0-adj-snd \$0-adj-rcv adj -2
16 1 8 -44926 -1 -1 0 1;
#X obj 430 317 tgl 8 0 \$0-gamprepost-snd \$0-gamprepost-rcv empty
0 -6 0 8 -44926 -1 -1 0 1;
#X obj 469 302 mknob 12 100 0 1 0 0 \$0-gamnum-snd \$0-gamnum-rcv gam1
-2 16 1 8 -62784 -1 -1 0 1;
#X obj 421 281 cnv 15 35 20 empty empty pitch 0 5 1 10 -24198 -258699
0;
#X obj 429 285 mknob 15 100 0 1 0 0 \$0-pitch-snd \$0-pitch-rcv empty
-2 -6 0 8 -241291 -1 -262144 0 1;
#X obj 203 300 param \$1 SETTING gamnum;
#X msg 427 248 0.5;
#X msg 462 248 0.5;
#X obj 413 89 mknob 30 100 0 1 0 0 \$1-Tempo-snd \$1-Tempo-rcv tempo_8
-2 -6 0 8 -241291 -1 -4160 6662 1;
#X obj 372 117 mknob 30 100 0 1 0 0 \$1-STEPnumCtl-snd \$1-STEPnumCtl-rcv
step_4 -2 -6 0 8 -159808 -1 -4034 3922 1;
#X obj 337 89 mknob 30 100 0 1 0 0 \$1-PhraseNum-snd \$1-PhraseNum-rcv
Phrase -2 -6 0 8 -45076 -1 -4034 10 1;
#X obj 305 116 mknob 30 100 0 1 0 0 \$1-Reverb-snd \$1-Reverb-rcv Reverb
-2 -6 0 8 -4034 -1 -258113 0 1;
#N canvas 2494 770 285 327 apfs 0;
#X obj 34 49 param \$1 FX STEPnumCtl;
#X obj 39 133 param \$1 FX Reverb;
#X obj 47 175 param \$1 FX Decay;
#X obj 44 220 param \$1 FX Note_adjust;
#X obj 34 79 l param \$1 FX Tempo;
#X obj 49 247 param \$1 FX NoteBass;
#X obj 36 104 l param \$1 FX PhraseNum;
#X obj 38 24 paramI \$1 FX Tempo;
#X restore 221 15 pd apfs;
#X obj 207 49 r Sel\$2-snd;
#X obj 453 117 mknob 30 100 0 1 0 0 \$1-Decay-snd \$1-Decay-rcv Decay
-2 -6 0 8 -241291 -1 -4160 2500 1;
#X obj 453 65 mknob 30 100 0 1 0 0 \$1-Note_adjust-snd \$1-Note_adjust-rcv
Note_adjust -2 -6 0 8 -258113 -1 -4160 9900 1;
#X obj 509 78 mknob 30 100 0 1 0 0 \$1-NoteBass-snd \$1-NoteBass-rcv
NoteBass -2 -6 1 8 -203904 -1 -1 2994 1;
#X msg 487 23 0.5;
#X obj 504 128 bng 15 250 50 0 empty empty empty 17 7 0 10 -191407
-1 -1;
#X floatatom 445 204 5 0 0 0 - - -, f 5;
#X floatatom 324 201 5 0 0 0 - - -, f 5;
#X floatatom 568 195 5 0 0 0 - - -, f 5;
#X obj 543 169 ../Ax \$1 y 0 1;
#X obj 422 179 ../Ax \$1 x 0 1;
#X obj 299 169 ../Ax \$1 z 0 1;
#X connect 0 0 2 0;
#X connect 3 0 0 0;
#X connect 3 0 17 0;
#X connect 4 0 6 0;
#X connect 5 0 3 0;
#X connect 6 0 5 0;
#X connect 7 0 12 0;
#X connect 9 0 8 0;
#X connect 10 0 7 0;
#X connect 11 0 7 1;
#X connect 12 0 1 1;
#X connect 13 0 14 0;
#X connect 14 0 12 1;
#X connect 15 0 14 1;
#X connect 26 0 24 0;
#X connect 27 0 20 0;
#X connect 28 0 44 0;
#X connect 33 0 30 0;
#X connect 34 0 43 0;
#X connect 36 0 42 0;
#X connect 37 0 36 0;
#X connect 38 0 37 0;
#X connect 42 0 41 0;
#X connect 42 0 36 0;
#X connect 43 0 34 0;
#X connect 43 0 39 0;
#X connect 44 0 40 0;
#X connect 44 0 28 0;
#X coords 0 -1 1 1 250 100 1 300 50;
