#N canvas 2266 514 899 636 10;
#X obj 616 298 throw~ OUT-1;
#X obj 709 297 throw~ OUT-2;
#N canvas 546 1195 542 366 masterMain 0;
#X obj 184 42 mull~ 1 10;
#X obj 349 33 mull~ 1 10;
#X obj 91 34 mull~ 1 10;
#X obj 122 133 lim~;
#X obj 158 133 lim~;
#X obj 170 133 lim~;
#X obj 105 135 vsl 15 80 0 1 0 1 empty empty IN 0 -9 0 10 -262130 -1
-1 7900 1;
#X obj 105 222 pow 2;
#X obj 105 244 * 4;
#X obj 141 135 vsl 15 80 0 1 0 1 empty empty OUT 0 -9 0 10 -262130
-1 -1 7893 1;
#X obj 141 222 pow 2;
#X obj 141 244 * 4;
#X obj 312 126 loadbang;
#X msg 312 148 \; pd dsp 1;
#X obj 73 1 inlet~;
#X obj 173 288 outlet~;
#X obj 288 300 outlet~;
#X obj 82 306 s~ \$0-Main-in1;
#X obj 181 17 catch~ \$0-Main-out1;
#X obj 326 8 catch~ \$0-Main-out2;
#X obj 172 -3 catch~ \$0-Main;
#X obj 452 36 catch~ \$0-Main;
#X obj 140 67 inlet;
#X connect 0 0 4 0;
#X connect 1 0 5 0;
#X connect 2 0 3 0;
#X connect 3 0 17 0;
#X connect 4 0 15 0;
#X connect 5 0 16 0;
#X connect 6 0 7 0;
#X connect 7 0 8 0;
#X connect 8 0 2 1;
#X connect 9 0 10 0;
#X connect 10 0 11 0;
#X connect 11 0 0 1;
#X connect 11 0 1 1;
#X connect 12 0 13 0;
#X connect 14 0 2 0;
#X connect 18 0 0 0;
#X connect 19 0 1 0;
#X connect 22 0 9 0;
#X coords 0 -1 1 1 85 120 1 100 100;
#X restore 621 170 pd masterMain;
#X obj 622 146 inlet~ in;
#N canvas 684 990 609 443 Mode 0;
#X obj 131 87 i;
#X obj 131 109 change;
#X obj 131 131 t f f f;
#X obj 131 381 min 3;
#X floatatom 73 159 5 0 0 0 - - -, f 5;
#X obj 131 65 * 7.9;
#X obj 131 45 r \$1-Mode;
#X obj 314 59 route label;
#X symbolatom 356 235 15 0 0 0 - - -, f 15;
#X obj 314 81 symbol;
#X obj 154 333 + 1;
#X obj 217 168 change;
#X obj 217 147 max 0;
#X obj 217 190 + 0;
#X floatatom 430 131 5 0 0 0 - - -, f 5;
#X obj 446 58 == 2;
#X obj 314 103 pack s f f;
#X obj 314 147 route 0 1;
#X msg 345 189 symbol \$1;
#X msg 413 188 symbol \$1/\$2;
#X msg 314 125 \$2 list \$1 \$3;
#X msg 358 266 label \$1;
#X obj 217 212 s \$1-fs1-fragdenum-rcv;
#X obj 154 355 s \$1-fs1-timemode-rcv;
#X obj 131 403 s \$1-fs1-mode-rcv;
#X obj 314 37 r \$1-fs1-mode-rcv;
#X obj 446 36 r \$1-fs1-timemode-snd;
#X obj 397 100 r \$1-fs1-fragdenum;
#X obj 344 293 s \$1-b2-info;
#X floatatom 275 179 5 0 0 0 - - -, f 5;
#X floatatom 86 230 5 0 0 0 - - -, f 5;
#X obj 204 241 moses 7;
#X msg 203 262 1;
#X msg 154 265 0;
#X obj 154 288 f;
#X obj 154 241 moses 3;
#X obj 217 125 - 3;
#X obj 154 311 change -1;
#X connect 0 0 1 0;
#X connect 1 0 2 0;
#X connect 1 0 4 0;
#X connect 2 0 3 0;
#X connect 2 1 35 0;
#X connect 2 2 36 0;
#X connect 3 0 24 0;
#X connect 5 0 0 0;
#X connect 6 0 5 0;
#X connect 7 0 9 0;
#X connect 8 0 21 0;
#X connect 9 0 16 0;
#X connect 10 0 23 0;
#X connect 11 0 13 0;
#X connect 12 0 11 0;
#X connect 13 0 22 0;
#X connect 13 0 29 0;
#X connect 15 0 16 1;
#X connect 16 0 20 0;
#X connect 17 0 18 0;
#X connect 17 1 19 0;
#X connect 18 0 8 0;
#X connect 19 0 8 0;
#X connect 20 0 17 0;
#X connect 21 0 28 0;
#X connect 25 0 7 0;
#X connect 26 0 15 0;
#X connect 27 0 14 0;
#X connect 27 0 16 2;
#X connect 31 0 32 0;
#X connect 31 1 33 0;
#X connect 32 0 34 0;
#X connect 33 0 34 0;
#X connect 34 0 37 0;
#X connect 35 0 33 0;
#X connect 35 1 31 0;
#X connect 36 0 12 0;
#X connect 37 0 10 0;
#X restore 743 201 pd Mode;
#X obj 239 10 r Sel\$2-snd;
#X obj 253 51 i;
#X obj 253 31 * 16;
#X obj 709 146 r Vol\$2-snd;
#N canvas 2019 445 541 432 play 0;
#X obj 260 378 s Led\$2-rcv;
#X obj 156 221 ||;
#X obj 61 31 r Play\$2-snd;
#X obj 173 196 t b f;
#X obj 152 244 tgl 15 0 empty empty empty 17 7 0 10 -262144 -1 -1 0
1;
#X obj 177 167 tgl 15 0 empty empty empty 17 7 0 10 -262144 -1 -1 0
1;
#X obj 128 334 outlet on-off;
#X obj 134 85 sel 0 1;
#X obj 103 63 t f f;
#X obj 169 112 del 250;
#X obj 64 188 spigot;
#X obj 110 167 tgl 15 0 empty empty empty 17 7 0 10 -262144 -1 -1 0
1;
#X msg 166 139 0;
#X msg 135 121 1;
#X obj 307 97 r CLOCK;
#X obj 262 347 change;
#X obj 262 303 ndmetro 4 4;
#X obj 338 191 change;
#X obj 338 169 == 0;
#X obj 297 243 mux 0 1;
#X obj 339 147 ndmetro 2 4;
#X obj 289 272 tgl 15 0 empty empty empty 17 7 0 10 -262144 -1 -1 0
1;
#X obj 262 325 < 1;
#X obj 160 272 sel 0 1;
#X msg 161 295 1, f 1;
#X msg 182 294 2, f 1;
#X connect 1 0 4 0;
#X connect 2 0 8 0;
#X connect 3 0 1 0;
#X connect 3 1 1 1;
#X connect 4 0 6 0;
#X connect 4 0 23 0;
#X connect 5 0 3 0;
#X connect 7 0 10 0;
#X connect 7 1 9 0;
#X connect 7 1 13 0;
#X connect 8 0 1 0;
#X connect 8 1 7 0;
#X connect 9 0 12 0;
#X connect 10 0 5 0;
#X connect 11 0 10 1;
#X connect 12 0 11 0;
#X connect 13 0 11 0;
#X connect 14 0 16 0;
#X connect 14 0 20 0;
#X connect 15 0 0 0;
#X connect 16 0 22 0;
#X connect 17 0 19 1;
#X connect 18 0 17 0;
#X connect 19 0 21 0;
#X connect 20 0 18 0;
#X connect 22 0 15 0;
#X connect 23 0 24 0;
#X connect 23 1 25 0;
#X connect 24 0 22 1;
#X connect 25 0 22 1;
#X restore 13 8 pd play;
#X floatatom 32 503 5 0 0 0 - - -, f 5;
#X obj 33 544 MORPHgroup \$1-\$2 FX;
#X obj 32 519 r FX\$2-snd;
#X obj 630 345 KEPCommon \$1-\$2 \$0 \$1 \$2;
#X obj 591 28 PhraseMelo \$1-\$2;
#X obj 591 94 NoteModulator \$1-\$2;
#X obj 559 126 r~ IN-1;
#X obj 13 49 switch~;
#X obj 13 30 tgl 15 0 empty empty empty 17 7 0 10 -262144 -1 -1 0 1
;
#X obj 144 57 r~ \$0-Main-in1;
#X obj 43 108 apshifter \$1-\$2 FX shifter1;
#X obj 252 232 apecho \$1-\$2 FX echo1;
#X obj 25 220 apssb \$1-\$2 FX ssb1;
#X obj 143 315 aprev \$1-\$2 FX rev1;
#X obj 414 457 l apflange \$1-\$2 FX flange1;
#X obj 455 215 apflang \$1-\$2 FX flang1;
#X obj 461 337 apdiv \$1-\$2 FX div1;
#X obj 389 23 apgap \$1-\$2 FX gap1;
#X obj 210 463 out \$0-Main;
#X obj 355 513 noisegate~;
#X obj 214 430 noisegate~ 53 10 10;
#X obj 120 502 intPos 16;
#X obj 120 522 s INDICATOR;
#X connect 2 0 0 0;
#X connect 2 1 1 0;
#X connect 3 0 2 0;
#X connect 5 0 7 0;
#X connect 7 0 6 0;
#X connect 8 0 2 1;
#X connect 9 0 18 0;
#X connect 12 0 10 0;
#X connect 12 0 11 0;
#X connect 12 0 31 0;
#X connect 16 0 2 0;
#X connect 18 0 17 0;
#X connect 19 0 20 0;
#X connect 19 0 22 0;
#X connect 19 0 25 0;
#X connect 19 0 26 0;
#X connect 19 0 27 0;
#X connect 20 0 30 0;
#X connect 21 0 30 0;
#X connect 22 0 30 0;
#X connect 23 0 30 0;
#X connect 25 0 30 0;
#X connect 26 0 30 0;
#X connect 27 0 21 0;
#X connect 27 0 23 0;
#X connect 27 0 30 0;
#X connect 30 0 28 0;
#X connect 30 0 28 1;
#X connect 31 0 32 0;
