#N canvas 283 231 640 507 10;
#X declare -path absGAMME -path ../absGAMME;
#X declare -stdpath SyncJams/pure-data -stdpath moonlib;
#X obj 39 66 syncjams \$0/syncer \, bpm 180 \, namespace syncjams \,
port 23232;
#X obj 236 139 linkSJ \$0/syncer /GAMME;
#X obj 236 117 linkSJ \$0/syncer /BPM;
#X obj 471 77 r /BPM;
#X floatatom 471 99 5 0 0 0 - - -, f 5;
#X obj 205 287 s /BPM;
#X floatatom 187 255 5 0 0 0 - - -, f 5;
#X msg 237 256 120;
#X msg 271 257 150;
#X obj 39 96 route tick;
#X obj 129 96 r /BPM;
#X msg 129 118 60000 \$1;
#X obj 129 140 /;
#X floatatom 21 247 5 0 0 0 - - -, f 5;
#X obj 257 351 r /GAMME;
#X floatatom 257 373 5 0 0 0 - - -, f 5;
#X obj 39 148 mod 64;
#X obj 39 170 pack f f;
#X obj 39 192 s CLOCK;
#X obj 299 318 s /GAMME;
#X msg 305 294 145;
#X msg 339 296 2741;
#X obj 436 181 GAMMEKBV /BASS 1;
#X obj 436 117 GAMMEKBV /GAMME;
#X obj 236 159 linkSJ \$0/syncer /BASS;
#X obj 236 180 linkSJ \$0/syncer /CHORD;
#X obj 436 244 GAMMEKBV /CHORD;
#X obj 441 333 GAMMEKBV /CHORD;
#X obj 326 402 GAMMEKBV /GAMME;
#X obj 341 345 s /CHORD;
#X obj 249 427 r /CHORD;
#X msg 378 317 145;
#X floatatom 249 449 5 0 0 0 - - -, f 5;
#X obj 38 15 declare -path absGAMME -path ../absGAMME;
#X obj 38 35 declare -stdpath SyncJams/pure-data -stdpath moonlib;
#X connect 0 0 9 0;
#X connect 3 0 4 0;
#X connect 6 0 5 0;
#X connect 7 0 5 0;
#X connect 8 0 5 0;
#X connect 9 0 16 0;
#X connect 10 0 11 0;
#X connect 11 0 12 0;
#X connect 12 0 17 1;
#X connect 14 0 15 0;
#X connect 16 0 17 0;
#X connect 16 0 13 0;
#X connect 17 0 18 0;
#X connect 20 0 19 0;
#X connect 21 0 19 0;
#X connect 30 0 32 0;
#X connect 31 0 29 0;
