#N canvas 683 242 640 455 10;
#X declare -path absGAMME -path ../absGAMME;
#X declare -stdpath SyncJams/pure-data -stdpath moonlib;
#X obj 229 137 linkSJ \$0/syncer /GAMME;
#X obj 260 293 r /BPM;
#X floatatom 260 315 5 0 0 0 - - -, f 5;
#X obj 263 264 s /BPM;
#X floatatom 245 232 5 0 0 0 - - -, f 5;
#X msg 295 233 120;
#X msg 329 234 150;
#X obj 39 87 route tick;
#X obj 112 269 r /BPM;
#X obj 112 313 /;
#X obj 375 177 r /GAMME;
#X floatatom 375 199 5 0 0 0 - - -, f 5;
#X obj 39 337 pack f f;
#X obj 375 159 s /GAMME;
#X msg 381 135 145;
#X msg 415 137 2741;
#X obj 436 181 GAMMEKBV /BASS 1;
#X obj 436 117 GAMMEKBV /GAMME;
#X obj 229 157 linkSJ \$0/syncer /BASS;
#X obj 229 178 linkSJ \$0/syncer /CHORD;
#X obj 436 244 GAMMEKBV /CHORD;
#X obj 441 333 GAMMEKBV /CHORD;
#X obj 376 262 s /CHORD;
#X obj 376 281 r /CHORD;
#X msg 376 244 145;
#X floatatom 376 305 5 0 0 0 - - -, f 5;
#X obj 38 15 declare -path absGAMME -path ../absGAMME;
#X obj 38 35 declare -stdpath SyncJams/pure-data -stdpath moonlib;
#X floatatom 120 87 5 0 0 0 - - -, f 5;
#X msg 112 338 tempo \$1 \, bang;
#X obj 39 171 Carabiner/Carabiner;
#X obj 96 247 s /BPM;
#X msg 112 291 60000 \$1;
#X obj 39 197 unpack f f;
#X obj 39 429 s CLOCK;
#X obj 39 367 ndmetro 128 1;
#X obj 39 404 pack f f;
#X msg 6 382 -1;
#X floatatom 48 249 7 0 0 0 - - -, f 7;
#X obj 39 129 r /BPM;
#X obj 39 150 change;
#X obj 229 115 linkSJ \$0/syncer /BPM-;
#X obj 39 66 l syncjams \$0/syncer \, bpm 10 \, namespace syncjams
\, port 23232;
#N canvas 63 518 559 300 SYNC 1;
#X obj 155 24 r \$0/syncer;
#X obj 155 50 route set-state;
#X obj 128 178 spigot 0;
#X obj 117 227 t f f;
#X obj 118 205 netsend -u;
#X obj 117 251 tgl 15 0 empty empty empty 17 7 0 10 -262144 -1 -1 1
1;
#X msg 118 157 disconnect;
#X obj 155 71 list prepend send;
#X obj 155 92 list trim;
#X msg 105 139 connect 255.255.255.255 17010;
#X obj 253 247 print;
#X obj 332 121 netreceive -u 17010;
#X obj 332 164 list trim;
#X obj 332 143 list prepend state;
#X obj 332 186 s \$0/syncer/r;
#X obj 105 117 loadbang;
#X connect 0 0 1 0;
#X connect 1 0 7 0;
#X connect 2 0 4 0;
#X connect 3 0 5 0;
#X connect 3 1 2 1;
#X connect 4 0 3 0;
#X connect 6 0 4 0;
#X connect 7 0 8 0;
#X connect 8 0 2 0;
#X connect 9 0 4 0;
#X connect 11 0 13 0;
#X connect 12 0 14 0;
#X connect 13 0 12 0;
#X connect 15 0 9 0;
#X restore 229 93 pd SYNC;
#X obj 166 366 loadbang;
#X msg 166 387 0 500;
#N canvas 1 135 342 271 change 0;
#X obj 71 30 inlet;
#X obj 71 52 t f f;
#X obj 98 78 -;
#X obj 98 99 abs;
#X obj 98 120 > 0.01;
#X obj 71 150 list prepend;
#X obj 71 171 route 1;
#X obj 71 192 t f f;
#X obj 71 213 outlet;
#X connect 0 0 1 0;
#X connect 1 0 5 0;
#X connect 1 1 2 0;
#X connect 2 0 3 0;
#X connect 3 0 4 0;
#X connect 4 0 5 1;
#X connect 5 0 6 0;
#X connect 6 0 7 0;
#X connect 7 0 8 0;
#X connect 7 1 2 1;
#X restore 96 218 pd change;
#X connect 1 0 2 0;
#X connect 4 0 3 0;
#X connect 5 0 3 0;
#X connect 6 0 3 0;
#X connect 7 0 28 0;
#X connect 8 0 32 0;
#X connect 9 0 12 1;
#X connect 9 0 29 0;
#X connect 9 0 36 1;
#X connect 10 0 11 0;
#X connect 12 0 35 0;
#X connect 14 0 13 0;
#X connect 15 0 13 0;
#X connect 23 0 25 0;
#X connect 24 0 22 0;
#X connect 29 0 35 0;
#X connect 30 0 33 0;
#X connect 32 0 9 0;
#X connect 33 0 12 0;
#X connect 33 0 38 0;
#X connect 33 1 46 0;
#X connect 35 0 36 0;
#X connect 35 1 36 0;
#X connect 36 0 34 0;
#X connect 37 0 34 0;
#X connect 39 0 40 0;
#X connect 40 0 30 0;
#X connect 42 0 7 0;
#X connect 44 0 45 0;
#X connect 45 0 34 0;
#X connect 46 0 31 0;
