#N canvas 255 157 640 507 10;
#X declare -stdpath SyncJams/pure-data;
#X declare -path absGAMME -path ../absGAMME;
#X declare -path absGAMME;
#X declare -stdpath moonlib;
#X obj 38 35 declare -stdpath SyncJams/pure-data;
#X obj 38 15 declare -path absGAMME -path ../absGAMME;
#X obj 236 117 linkSJ \$0/syncer /BPM;
#X obj 205 287 s /BPM;
#X floatatom 187 255 5 0 0 0 - - -, f 5;
#X msg 237 256 120;
#X msg 271 257 150;
#X obj 39 96 route tick;
#X obj 129 96 r /BPM;
#X msg 129 118 60000 \$1;
#X obj 129 140 /;
#X floatatom 21 247 5 0 0 0 - - -, f 5;
#X obj 257 351 r /GAMME;
#X floatatom 257 373 5 0 0 0 - - -, f 5;
#X obj 39 148 mod 64;
#X obj 39 170 pack f f;
#X obj 39 192 s CLOCK;
#X obj 299 318 s /GAMME;
#X msg 305 294 145;
#X msg 339 296 2741;
#X msg 395 365 145;
#X obj 389 389 s /CHORD;
#X obj 371 14 declare -path absGAMME;
#X obj 471 77 r /BPM;
#X floatatom 471 99 5 0 0 0 - - -, f 5;
#X obj 371 33 declare -stdpath moonlib;
#X obj 236 139 linkSJ \$0/syncer /GAMME;
#X obj 236 159 linkSJ \$0/syncer /BASS;
#X obj 236 180 linkSJ \$0/syncer /CHORD;
#X obj 117 398 v /BPM;
#X floatatom 117 420 5 0 0 0 - - -, f 5;
#X obj 117 370 bng 15 250 50 0 empty empty empty 17 7 0 10 -262144
-1 -1;
#X obj 436 181 GAMMEKBV /BASS 1;
#X obj 436 244 GAMMEKBV /CHORD;
#X obj 436 117 GAMMEKBV /GAMME;
#X msg 186 426 get-node-list;
#X obj 278 422 r \$0/syncer/r;
#X obj 186 448 s \$0/syncer;
#X obj 278 444 route node-list;
#X obj 278 466 print nodes;
#X floatatom 68 127 5 0 0 0 - - -, f 5;
#X obj 35 328 line~;
#X obj 32 377 osc~;
#X obj 32 399 hip~ 30;
#X obj 25 429 dac~;
#X msg 42 304 100 \, 0 50;
#X obj 39 66 syncjams \$0/syncer \, bpm 10 \, namespace syncjams \,
port 23232;
#X msg 133 217 get-state /BPM;
#X connect 4 0 3 0;
#X connect 5 0 3 0;
#X connect 6 0 3 0;
#X connect 7 0 14 0;
#X connect 7 0 40 0;
#X connect 8 0 9 0;
#X connect 9 0 10 0;
#X connect 10 0 15 1;
#X connect 12 0 13 0;
#X connect 14 0 15 0;
#X connect 14 0 11 0;
#X connect 14 0 45 0;
#X connect 15 0 16 0;
#X connect 18 0 17 0;
#X connect 19 0 17 0;
#X connect 19 0 21 0;
#X connect 20 0 21 0;
#X connect 23 0 24 0;
#X connect 29 0 30 0;
#X connect 31 0 29 0;
#X connect 35 0 37 0;
#X connect 36 0 38 0;
#X connect 38 0 39 0;
#X connect 41 0 42 0;
#X connect 42 0 43 0;
#X connect 43 0 44 0;
#X connect 43 0 44 1;
#X connect 45 0 41 0;
#X connect 46 0 7 0;
#X connect 47 0 46 0;
