#N canvas 1949 89 972 1042 10;
#X declare -path AutoPreset -stdpath moonlib -stdpath iemlib -lib zexy
;
#N canvas 0 81 450 300 declares 0;
#X obj 38 16 declare -path AutoPreset -stdpath moonlib -stdpath iemlib
-lib zexy;
#X restore 20 21 pd declares;
#N canvas 555 1198 542 366 masterMain 0;
#X obj 184 42 mull~ 1 10;
#X obj 349 33 mull~ 1 10;
#X obj 91 34 mull~ 1 10;
#X obj 122 133 lim~;
#X obj 158 133 lim~;
#X obj 170 133 lim~;
#X obj 105 135 vsl 15 80 0 1 0 1 empty empty IN 0 -9 0 10 -262130 -1
-1 800 1;
#X obj 105 222 pow 2;
#X obj 105 244 * 4;
#X obj 141 135 vsl 15 80 0 1 0 1 empty empty OUT 0 -9 0 10 -262130
-1 -1 7900 1;
#X obj 141 222 pow 2;
#X obj 141 244 * 4;
#X obj 312 126 loadbang;
#X msg 312 148 \; pd dsp 1;
#X obj 73 1 inlet~;
#X obj 173 288 outlet~;
#X obj 288 300 outlet~;
#X obj 82 306 s~ \$0-Main-in1;
#X obj 181 17 catch~ \$0-Main-out1;
#X obj 326 8 catch~ \$0-Main-out2;
#X obj 172 -3 catch~ \$0-Main;
#X obj 452 36 catch~ \$0-Main;
#X connect 0 0 4 0;
#X connect 1 0 5 0;
#X connect 2 0 3 0;
#X connect 3 0 17 0;
#X connect 4 0 15 0;
#X connect 5 0 16 0;
#X connect 6 0 7 0;
#X connect 7 0 8 0;
#X connect 8 0 2 1;
#X connect 9 0 10 0;
#X connect 10 0 11 0;
#X connect 11 0 0 1;
#X connect 11 0 1 1;
#X connect 12 0 13 0;
#X connect 14 0 2 0;
#X connect 18 0 0 0;
#X connect 19 0 1 0;
#X coords 0 -1 1 1 85 120 1 100 100;
#X restore 109 722 pd masterMain;
#X obj 69 859 outlet~ l;
#X obj 110 698 inlet~ in;
#X obj 341 978 out \$0-Main;
#X obj 346 932 out \$0-Main;
#X obj 464 709 out \$0-Main;
#X obj 348 909 l fragseq fs2 \$1-sample \$1;
#X obj 345 955 l stretcher str1 \$1-sample;
#X obj 393 607 fragseq \$1-fs1 \$1-sample \$1;
#X obj 17 506 *~ 0.2;
#X obj 18 541 out \$0-Main;
#N canvas 690 990 609 443 Mode 0;
#X obj 131 87 i;
#X obj 131 109 change;
#X obj 131 131 t f f f;
#X obj 131 381 min 3;
#X floatatom 73 159 5 0 0 0 - - -, f 5;
#X obj 131 65 * 7.9;
#X obj 131 45 r \$1-Mode;
#X obj 314 59 route label;
#X symbolatom 356 235 15 0 0 0 - - -, f 15;
#X obj 314 81 symbol;
#X obj 154 333 + 1;
#X obj 217 168 change;
#X obj 217 147 max 0;
#X obj 217 190 + 0;
#X floatatom 430 131 5 0 0 0 - - -, f 5;
#X obj 446 58 == 2;
#X obj 314 103 pack s f f;
#X obj 314 147 route 0 1;
#X msg 345 189 symbol \$1;
#X msg 413 188 symbol \$1/\$2;
#X msg 314 125 \$2 list \$1 \$3;
#X msg 358 266 label \$1;
#X obj 217 212 s \$1-fs1-fragdenum-rcv;
#X obj 154 355 s \$1-fs1-timemode-rcv;
#X obj 131 403 s \$1-fs1-mode-rcv;
#X obj 314 37 r \$1-fs1-mode-rcv;
#X obj 446 36 r \$1-fs1-timemode-snd;
#X obj 397 100 r \$1-fs1-fragdenum;
#X obj 344 293 s \$1-b2-info;
#X floatatom 275 179 5 0 0 0 - - -, f 5;
#X floatatom 86 230 5 0 0 0 - - -, f 5;
#X obj 204 241 moses 7;
#X msg 203 262 1;
#X msg 154 265 0;
#X obj 154 288 f;
#X obj 154 241 moses 3;
#X obj 217 125 - 3;
#X obj 154 311 change -1;
#X connect 0 0 1 0;
#X connect 1 0 2 0;
#X connect 1 0 4 0;
#X connect 2 0 3 0;
#X connect 2 1 35 0;
#X connect 2 2 36 0;
#X connect 3 0 24 0;
#X connect 5 0 0 0;
#X connect 6 0 5 0;
#X connect 7 0 9 0;
#X connect 8 0 21 0;
#X connect 9 0 16 0;
#X connect 10 0 23 0;
#X connect 11 0 13 0;
#X connect 12 0 11 0;
#X connect 13 0 22 0;
#X connect 13 0 29 0;
#X connect 15 0 16 1;
#X connect 16 0 20 0;
#X connect 17 0 18 0;
#X connect 17 1 19 0;
#X connect 18 0 8 0;
#X connect 19 0 8 0;
#X connect 20 0 17 0;
#X connect 21 0 28 0;
#X connect 25 0 7 0;
#X connect 26 0 15 0;
#X connect 27 0 14 0;
#X connect 27 0 16 2;
#X connect 31 0 32 0;
#X connect 31 1 33 0;
#X connect 32 0 34 0;
#X connect 33 0 34 0;
#X connect 34 0 37 0;
#X connect 35 0 33 0;
#X connect 35 1 31 0;
#X connect 36 0 12 0;
#X connect 37 0 10 0;
#X restore 713 864 pd Mode;
#X obj 290 899 bng 15 250 50 0 empty empty empty 17 7 0 10 -262144
-1 -1;
#X obj 32 932 l autorec \$1-config \$1-arec1 \$1-sample \$1;
#X obj 610 59 decoupeur_ctl \$1-config \$1-dctl \$1;
#N canvas 0 990 450 300 vu 0;
#X obj 161 83 inlet~;
#X obj 189 127 rms~;
#X floatatom 106 125 5 0 0 0 - - -, f 5;
#X connect 0 0 1 0;
#X connect 1 0 2 0;
#X coords 0 -1 1 1 50 50 1 100 100;
#X restore 106 544 pd vu;
#N canvas 0 990 450 300 vu 0;
#X obj 161 83 inlet~;
#X obj 189 127 rms~;
#X floatatom 106 125 5 0 0 0 - - -, f 5;
#X connect 0 0 1 0;
#X connect 1 0 2 0;
#X coords 0 -1 1 1 50 50 1 100 100;
#X restore 104 878 pd vu;
#X floatatom 220 756 5 0 0 0 - - -, f 5;
#X obj 232 801 *~ 0.3;
#X obj 277 800 *~ 0.3;
#X obj 220 711 key;
#X obj 220 733 spigot;
#X obj 253 712 tgl 15 0 empty empty empty 17 7 0 10 -262144 -1 -1 0
1;
#X msg 301 736 smooth \$1;
#X floatatom 301 716 5 1 200 0 - - -, f 5;
#X obj 172 888 outlet~ r;
#X obj 218 852 out \$0-Main;
#X obj 224 774 player \$1-sample-1;
#N canvas 0 990 450 300 vu 0;
#X obj 161 83 inlet~;
#X obj 189 127 rms~;
#X floatatom 106 125 5 0 0 0 - - -, f 5;
#X connect 0 0 1 0;
#X connect 1 0 2 0;
#X coords 0 -1 1 1 50 50 1 100 100;
#X restore 340 822 pd vu;
#X obj 18 52 sample \$1-sample 1 60 \$1;
#X obj 18 80 sample \$1-sample 2 60 \$1;
#X obj 18 108 sample \$1-sample 3 60 \$1;
#X obj 18 136 sample \$1-sample 4 60 \$1;
#X obj 18 164 sample \$1-sample 5 60 \$1;
#X obj 18 192 sample \$1-sample 6 60 \$1;
#X obj 18 220 sample \$1-sample 7 60 \$1;
#X obj 18 248 sample \$1-sample 8 60 \$1;
#X obj 18 276 sample \$1-sample 9 60 \$1;
#X obj 18 304 sample \$1-sample 10 60 \$1;
#X obj 18 332 sample \$1-sample 11 60 \$1;
#X obj 18 360 sample \$1-sample 12 60 \$1;
#X obj 18 388 sample \$1-sample 13 60 \$1;
#X obj 18 416 sample \$1-sample 14 60 \$1;
#X obj 18 444 sample \$1-sample 15 60 \$1;
#X obj 18 472 sample \$1-sample 16 60 \$1;
#X obj 271 52 decoupeur \$1-sample-1 \$1-dctl;
#X obj 271 80 decoupeur \$1-sample-2 \$1-dctl;
#X obj 272 108 decoupeur \$1-sample-3 \$1-dctl;
#X obj 272 136 decoupeur \$1-sample-4 \$1-dctl;
#X obj 272 164 decoupeur \$1-sample-5 \$1-dctl;
#X obj 272 192 decoupeur \$1-sample-6 \$1-dctl;
#X obj 272 220 decoupeur \$1-sample-7 \$1-dctl;
#X obj 272 248 decoupeur \$1-sample-8 \$1-dctl;
#X obj 272 276 decoupeur \$1-sample-9 \$1-dctl;
#X obj 272 304 decoupeur \$1-sample-10 \$1-dctl;
#X obj 272 360 decoupeur \$1-sample-12 \$1-dctl;
#X obj 272 388 decoupeur \$1-sample-13 \$1-dctl;
#X obj 272 416 decoupeur \$1-sample-14 \$1-dctl;
#X obj 272 444 decoupeur \$1-sample-15 \$1-dctl;
#X obj 272 472 decoupeur \$1-sample-16 \$1-dctl;
#X obj 272 332 decoupeur \$1-sample-11 \$1-dctl;
#X obj 393 544 r Sel\$2-snd;
#X floatatom 799 517 5 0 0 0 - - -, f 5;
#X obj 393 585 i;
#X obj 393 565 * 16;
#X connect 1 0 2 0;
#X connect 1 0 17 0;
#X connect 1 1 26 0;
#X connect 3 0 1 0;
#X connect 9 0 6 0;
#X connect 9 1 6 1;
#X connect 10 0 11 0;
#X connect 10 0 11 1;
#X connect 10 0 16 0;
#X connect 18 0 28 0;
#X connect 19 0 27 1;
#X connect 20 0 27 0;
#X connect 21 0 22 0;
#X connect 22 0 18 0;
#X connect 23 0 22 1;
#X connect 24 0 28 1;
#X connect 25 0 24 0;
#X connect 28 0 19 0;
#X connect 28 0 27 0;
#X connect 28 0 29 0;
#X connect 28 1 20 0;
#X connect 28 1 27 1;
#X connect 30 0 10 0;
#X connect 31 0 10 0;
#X connect 32 0 10 0;
#X connect 33 0 10 0;
#X connect 34 0 10 0;
#X connect 35 0 10 0;
#X connect 36 0 10 0;
#X connect 37 0 10 0;
#X connect 38 0 10 0;
#X connect 39 0 10 0;
#X connect 40 0 10 0;
#X connect 41 0 10 0;
#X connect 42 0 10 0;
#X connect 43 0 10 0;
#X connect 44 0 10 0;
#X connect 45 0 10 0;
#X connect 62 0 65 0;
#X connect 64 0 9 0;
#X connect 65 0 64 0;
