#N canvas 345 1046 880 502 10;
#X obj 289 2 loadbang;
#X obj 303 56 * 44100;
#X msg 302 79 resize \$1;
#X obj 120 109 bng 15 250 50 0 empty empty load 17 7 0 10 -4034 -1
-1;
#X obj 137 156 bng 15 250 50 0 empty empty save 17 7 0 10 -258113 -1
-1;
#X obj 217 109 tgl 15 0 empty empty play 17 7 0 10 -257985 -1 -1 0
1;
#X obj 356 150 sel 1 0;
#X msg 353 212 0 \$1;
#X msg 387 212 stop;
#X msg 467 245 0;
#X obj 451 211 del;
#X obj 489 192 / 44.1;
#X msg 353 171 0;
#X obj 11 114 cnv 10 100 10 empty \$0-time sec:9 5 5 0 10 -233017 -66577
0;
#X obj 577 133 / 4410;
#X obj 577 156 i;
#X obj 577 178 / 10;
#X msg 595 202 label sec:\$1;
#X obj 595 224 s \$0-time;
#X msg 481 5 50000;
#X obj 13 294 soundfiler;
#X obj 13 249 pack s s;
#X obj 195 206 symbol \$1;
#X obj 13 201 openpanel;
#X obj 168 161 savepanel;
#X obj 168 278 soundfiler;
#X obj 168 231 pack s s f;
#X msg 168 256 write -wave -nframes \$3 \$1 \$2;
#X obj 168 185 t s b;
#X obj 13 225 t s b;
#X floatatom 335 308 8 0 0 0 - - -, f 8;
#X obj 360 283 outlet~;
#X msg 656 173 label;
#X obj 656 147 loadbang;
#X obj 596 21 loadbang;
#X obj 596 110 s \$0-dir;
#X obj 60 174 r \$0-dir;
#X obj 13 175 symbol;
#X obj 654 21 bng 15 250 50 0 empty empty empty 17 7 0 10 -262144 -1
-1;
#X obj 84 57 pack s s;
#X obj 110 32 r \$0-dir;
#X obj 443 314 split_path;
#X obj 215 137 r \$0-dir;
#X obj 168 138 symbol;
#X obj 112 307 split_path;
#X obj 16 34 split_path;
#X obj 169 327 sel _;
#X obj 596 46 getdir 5;
#X obj 368 3 bng 15 250 50 0 empty empty empty 17 7 0 10 -262144 -1
-1;
#X obj 440 130 bng 15 250 50 0 empty empty empty 17 7 0 10 -262144
-1 -1;
#X obj 176 10 table \$1-\$2;
#X obj 176 32 table \$1-\$2-len 1;
#X obj 481 27 s \$1-\$2-setlen;
#X obj 58 224 symbol \$1-\$2;
#X obj 13 317 s \$1-\$2-setlen;
#X obj 353 238 tabplay~ \$1-\$2;
#X obj 303 34 f \$3;
#X obj 16 12 r \$1-\$2-file-snd;
#X obj 196 350 s \$1-\$2-file-rcv;
#X obj 353 190 tabread \$1-\$2-len;
#X obj 217 185 r \$1-\$2-setlen;
#X floatatom 416 7 5 0 0 0 - - -, f 5;
#X obj 303 101 s \$1-\$2;
#X obj 116 198 bng 15 250 50 0 empty empty empty 17 7 0 10 -262144
-1 -1;
#X msg 378 63 0 \$1;
#X obj 378 41 r \$1-\$2-setlen;
#X msg 84 78 symbol \$3/\$1;
#X obj 378 90 s \$1-\$2-len;
#X obj 196 305 r \$1-\$2-file-snd;
#X floatatom 364 126 0 0 0 0 - - -;
#X msg 689 49 symbol \$1/DATAS/SAMPLES;
#X msg 596 88 symbol \$1/;
#X symbolatom 533 376 0 0 0 0 - - -;
#X obj 635 257 makesymbol %s\$4/\$2.wav;
#X obj 635 282 s \$0-opensample;
#X obj 23 134 r \$0-opensample;
#X msg 13 271 read -resize \$1 \$2;
#X connect 1 0 2 0;
#X connect 1 0 69 0;
#X connect 2 0 62 0;
#X connect 3 0 37 0;
#X connect 4 0 43 0;
#X connect 5 0 6 0;
#X connect 6 0 12 0;
#X connect 6 1 8 0;
#X connect 7 0 55 0;
#X connect 8 0 55 0;
#X connect 9 0 5 0;
#X connect 10 0 9 0;
#X connect 11 0 10 0;
#X connect 12 0 59 0;
#X connect 14 0 15 0;
#X connect 15 0 16 0;
#X connect 16 0 17 0;
#X connect 17 0 18 0;
#X connect 19 0 52 0;
#X connect 20 0 54 0;
#X connect 21 0 76 0;
#X connect 22 0 26 1;
#X connect 23 0 29 0;
#X connect 24 0 28 0;
#X connect 26 0 27 0;
#X connect 27 0 25 0;
#X connect 28 0 26 0;
#X connect 28 1 22 0;
#X connect 29 0 21 0;
#X connect 29 0 44 0;
#X connect 29 1 53 0;
#X connect 32 0 18 0;
#X connect 33 0 32 0;
#X connect 34 0 47 0;
#X connect 36 0 37 1;
#X connect 37 0 23 0;
#X connect 38 0 47 0;
#X connect 39 0 66 0;
#X connect 40 0 39 1;
#X connect 42 0 43 1;
#X connect 43 0 24 0;
#X connect 44 1 46 0;
#X connect 45 1 39 0;
#X connect 46 1 58 0;
#X connect 47 0 71 0;
#X connect 48 0 56 0;
#X connect 53 0 21 1;
#X connect 55 0 31 0;
#X connect 55 1 9 0;
#X connect 56 0 1 0;
#X connect 57 0 45 0;
#X connect 59 0 7 0;
#X connect 59 0 11 0;
#X connect 59 0 30 0;
#X connect 60 0 26 2;
#X connect 63 0 53 0;
#X connect 64 0 67 0;
#X connect 65 0 64 0;
#X connect 65 0 14 0;
#X connect 66 0 29 0;
#X connect 68 0 46 1;
#X connect 71 0 35 0;
#X connect 71 0 73 0;
#X connect 73 0 74 0;
#X connect 75 0 29 0;
#X connect 76 0 20 0;
#X coords 0 -1 1 1 250 25 1 10 100;
