#N canvas 226 309 540 258 10;
#X obj 31 48 inlet;
#X obj 31 117 +;
#X obj 57 115 t b f;
#X obj 31 81 * 128;
#X obj 96 48 inlet;
#X obj 96 117 +;
#X obj 122 115 t b f;
#X obj 162 49 inlet;
#X obj 162 118 +;
#X obj 188 116 t b f;
#X obj 227 49 inlet;
#X obj 227 118 +;
#X obj 253 116 t b f;
#X obj 294 52 inlet;
#X obj 294 121 +;
#X obj 320 119 t b f;
#X obj 359 52 inlet;
#X obj 359 121 +;
#X obj 385 119 t b f;
#X obj 425 53 inlet;
#X obj 425 122 +;
#X obj 451 120 t b f;
#X obj 490 53 inlet;
#X obj 96 81 * 64;
#X obj 162 82 * 32;
#X obj 227 82 * 16;
#X obj 294 85 * 8;
#X obj 359 85 * 4;
#X obj 425 86 * 2;
#X obj 490 86 * 1;
#X obj 31 191 outlet;
#X connect 0 0 3 0;
#X connect 1 0 30 0;
#X connect 2 0 1 0;
#X connect 2 1 1 1;
#X connect 3 0 1 0;
#X connect 4 0 23 0;
#X connect 5 0 2 0;
#X connect 6 0 5 0;
#X connect 6 1 5 1;
#X connect 7 0 24 0;
#X connect 8 0 6 0;
#X connect 9 0 8 0;
#X connect 9 1 8 1;
#X connect 10 0 25 0;
#X connect 11 0 9 0;
#X connect 12 0 11 0;
#X connect 12 1 11 1;
#X connect 13 0 26 0;
#X connect 14 0 12 0;
#X connect 15 0 14 0;
#X connect 15 1 14 1;
#X connect 16 0 27 0;
#X connect 17 0 15 0;
#X connect 18 0 17 0;
#X connect 18 1 17 1;
#X connect 19 0 28 0;
#X connect 20 0 18 0;
#X connect 21 0 20 0;
#X connect 21 1 20 1;
#X connect 22 0 29 0;
#X connect 23 0 5 0;
#X connect 24 0 8 0;
#X connect 25 0 11 0;
#X connect 26 0 14 0;
#X connect 27 0 17 0;
#X connect 28 0 20 0;
#X connect 29 0 21 0;
