#N canvas 6 74 450 300 10;
#X obj 84 46 inlet;
#X obj 84 118 outlet;
#X obj 130 46 inlet;
#X obj 130 68 t b f;
#X obj 84 96 + \$1;
#X connect 0 0 4 0;
#X connect 2 0 3 0;
#X connect 3 0 4 0;
#X connect 3 1 4 1;
#X connect 4 0 1 0;
