#N canvas 773 81 643 424 10;
#X declare -path ../absGAMME;
#X declare -stdpath iemlib -lib iemlib1 -stdpath moonlib -lib zexy
-stdpath cyclone -lib cyclone;
#X declare -path ../seqGAMME;
#X obj 122 35 fraise_interface;
#X obj 42 11 loadbang;
#X msg 42 33 \; pd dsp 1;
#X obj 41 105 Archet 1;
#X obj 41 72 declare -path ../absGAMME;
#X obj 258 80 ../domoNet;
#N canvas 38 98 870 605 MASTERaudio 0;
#X obj 83 119 catch~ MASTER;
#X obj 83 491 z~ 64;
#X obj 83 523 *~;
#X obj 84 418 *~;
#X obj 83 562 dac~;
#X obj 291 25 vsl 15 128 0 1 0 0 empty empty empty 0 -9 0 10 -262144
-1 -1 0 1;
#X obj 291 161 pow 2;
#X msg 291 183 \$1 50;
#X obj 291 205 line~;
#X obj 335 67 r AMPLIpots;
#X obj 335 89 route volume;
#X floatatom 335 111 5 0 0 0 - - -, f 5;
#X obj 118 367 rev1~;
#X obj 145 322 loadbang;
#X msg 145 344 50;
#X obj 119 252 lop~ 600;
#X obj 441 69 r AMPLIpots;
#X obj 724 49 r AMPLIswitchs;
#X obj 724 93 == 1;
#X obj 118 302 mull~ 0.4 50;
#X obj 586 249 * 0.7;
#X obj 286 255 mull~ 0.4 50;
#X obj 287 308 delwrite~ \$0-del 4000;
#X obj 301 380 vd~ \$0-del;
#X floatatom 325 340 5 0 0 0 - - -, f 5;
#X obj 393 340 mull~ 0 50;
#X obj 119 278 hip~ 100;
#X obj 724 116 s fx-ctl;
#X obj 441 91 spigot 1;
#X obj 375 141 crossPot fx-ctl;
#X obj 501 137 crossPot fx-ctl;
#X obj 586 161 crossPot fx-ctl;
#X obj 286 278 hip~ 20;
#N canvas 591 194 547 494 time 0;
#X obj 108 150 i;
#X obj 108 172 change;
#X msg 142 230 2 1;
#X msg 176 229 3 2;
#X msg 273 229 2 3;
#X msg 305 229 2 4;
#X msg 371 231 2 8;
#X obj 108 126 * 8.5;
#X msg 338 231 2 6;
#X obj 108 200 sel 0 1 2 3 4 5 6 7 8, f 36;
#X msg 108 286 \$1 \$2;
#X obj 51 51 inlet;
#X obj 415 178 r CLOCK;
#X obj 415 228 unpack f f;
#X obj 178 54 inlet;
#X obj 51 77 list prepend 0;
#X obj 51 99 route 0 1;
#X obj 51 128 pow 2;
#X msg 51 173 \$1 200;
#X obj 51 421 line~;
#X obj 51 150 * 2000;
#X obj 108 308 /;
#X obj 108 330 pack f f;
#X obj 146 307 t b f;
#X msg 108 231 4 1;
#X obj 108 351 *;
#X msg 209 229 1 1;
#X msg 240 229 3 4;
#X obj 108 373 spigot;
#X obj 51 443 outlet~;
#X floatatom 191 385 5 0 0 0 - - -, f 5;
#X obj 415 200 route list;
#X connect 0 0 1 0;
#X connect 1 0 9 0;
#X connect 2 0 10 0;
#X connect 3 0 10 0;
#X connect 4 0 10 0;
#X connect 5 0 10 0;
#X connect 6 0 10 0;
#X connect 7 0 0 0;
#X connect 8 0 10 0;
#X connect 9 0 24 0;
#X connect 9 1 2 0;
#X connect 9 2 3 0;
#X connect 9 3 26 0;
#X connect 9 4 27 0;
#X connect 9 5 4 0;
#X connect 9 6 5 0;
#X connect 9 7 8 0;
#X connect 9 8 6 0;
#X connect 10 0 21 0;
#X connect 11 0 15 0;
#X connect 12 0 31 0;
#X connect 13 1 23 0;
#X connect 14 0 15 1;
#X connect 14 0 28 1;
#X connect 15 0 16 0;
#X connect 16 0 17 0;
#X connect 16 1 7 0;
#X connect 17 0 20 0;
#X connect 18 0 19 0;
#X connect 19 0 29 0;
#X connect 20 0 18 0;
#X connect 21 0 22 0;
#X connect 21 0 30 0;
#X connect 22 0 25 0;
#X connect 23 0 22 0;
#X connect 23 1 22 1;
#X connect 24 0 10 0;
#X connect 25 0 28 0;
#X connect 26 0 10 0;
#X connect 27 0 10 0;
#X connect 28 0 19 0;
#X connect 31 0 13 0;
#X restore 375 215 pd time;
#X obj 421 167 r AMPLIswitchs;
#X obj 421 193 route phono;
#X obj 724 71 route main;
#X obj 441 115 route rec input balance treble;
#X obj 415 10 declare -stdpath iemlib -lib iemlib1 -stdpath moonlib
-lib zexy -stdpath cyclone -lib cyclone;
#X obj 83 164 atan~;
#X obj 242 6 vsl 15 128 0 1 0 0 empty empty empty 0 -9 0 10 -262144
-1 -1 4804 1;
#X obj 242 142 pow 3;
#X obj 242 164 * 100;
#X msg 133 154 \$1 50;
#X obj 133 176 line~;
#X obj 242 186 + 1;
#X obj 615 136 crossPot fx-ctl;
#N canvas 4 101 286 275 crossfade 0;
#X obj 44 73 moses 1;
#X obj 90 98 moses 1.75;
#X obj 90 120 min 1;
#X obj 157 120 - 1.75;
#X obj 157 142 * -4;
#X obj 157 164 + 1;
#X obj 44 95 - 0.5;
#X obj 44 117 * 2;
#X obj 44 139 pow 2;
#X obj 44 28 inlet;
#X obj 44 50 * 2;
#X obj 44 209 outlet;
#X connect 0 0 6 0;
#X connect 0 1 1 0;
#X connect 1 0 2 0;
#X connect 1 1 3 0;
#X connect 2 0 11 0;
#X connect 3 0 4 0;
#X connect 4 0 5 0;
#X connect 5 0 11 0;
#X connect 6 0 7 0;
#X connect 7 0 8 0;
#X connect 8 0 11 0;
#X connect 9 0 10 0;
#X connect 10 0 0 0;
#X restore 586 229 pd crossfade;
#X obj 586 186 * -1;
#X obj 586 208 + 1;
#N canvas 4 101 286 275 crossfade 0;
#X obj 44 73 moses 1;
#X obj 90 98 moses 1.75;
#X obj 90 120 min 1;
#X obj 157 120 - 1.75;
#X obj 157 142 * -4;
#X obj 157 164 + 1;
#X obj 44 95 - 0.5;
#X obj 44 117 * 2;
#X obj 44 139 pow 2;
#X obj 44 28 inlet;
#X obj 44 50 * 2;
#X obj 44 209 outlet;
#X connect 0 0 6 0;
#X connect 0 1 1 0;
#X connect 1 0 2 0;
#X connect 1 1 3 0;
#X connect 2 0 11 0;
#X connect 3 0 4 0;
#X connect 4 0 5 0;
#X connect 5 0 11 0;
#X connect 6 0 7 0;
#X connect 7 0 8 0;
#X connect 8 0 11 0;
#X connect 9 0 10 0;
#X connect 10 0 0 0;
#X restore 637 191 pd crossfade;
#X obj 375 165 * -1;
#X obj 375 187 + 1;
#X obj 83 142 *~;
#X obj 181 49 loadbang;
#X msg 181 71 0;
#X obj 140 492 limiter~ 5 1;
#X obj 83 186 *~ 0.7;
#X obj 84 441 hip~ 10;
#X connect 0 0 53 0;
#X connect 1 0 2 0;
#X connect 2 0 4 0;
#X connect 3 0 58 0;
#X connect 5 0 6 0;
#X connect 6 0 7 0;
#X connect 7 0 8 0;
#X connect 8 0 3 1;
#X connect 9 0 10 0;
#X connect 10 0 11 0;
#X connect 10 0 5 0;
#X connect 12 0 3 0;
#X connect 13 0 14 0;
#X connect 14 0 12 1;
#X connect 15 0 21 0;
#X connect 15 0 26 0;
#X connect 16 0 28 0;
#X connect 17 0 36 0;
#X connect 18 0 27 0;
#X connect 19 0 12 0;
#X connect 20 0 19 1;
#X connect 21 0 32 0;
#X connect 23 0 3 0;
#X connect 23 0 19 0;
#X connect 23 0 25 0;
#X connect 24 0 23 0;
#X connect 25 0 32 0;
#X connect 26 0 19 0;
#X connect 28 0 37 0;
#X connect 29 0 51 0;
#X connect 30 0 25 1;
#X connect 31 0 48 0;
#X connect 31 0 50 0;
#X connect 32 0 22 0;
#X connect 33 0 23 0;
#X connect 34 0 35 0;
#X connect 35 0 33 1;
#X connect 36 0 18 0;
#X connect 37 0 29 0;
#X connect 37 1 30 0;
#X connect 37 2 31 0;
#X connect 37 3 40 0;
#X connect 39 0 57 0;
#X connect 40 0 41 0;
#X connect 41 0 42 0;
#X connect 42 0 45 0;
#X connect 43 0 44 0;
#X connect 44 0 53 1;
#X connect 45 0 43 0;
#X connect 47 0 20 0;
#X connect 48 0 49 0;
#X connect 49 0 47 0;
#X connect 50 0 21 1;
#X connect 51 0 52 0;
#X connect 52 0 33 0;
#X connect 53 0 39 0;
#X connect 54 0 55 0;
#X connect 55 0 40 0;
#X connect 56 0 2 1;
#X connect 57 0 15 0;
#X connect 57 0 3 0;
#X connect 58 0 1 0;
#X connect 58 0 56 0;
#X restore 121 11 pd MASTERaudio;
#X obj 42 134 Orgue 2;
#X obj 512 44 r /BPM;
#X floatatom 512 66 5 0 0 0 - - -, f 5;
#X obj 477 148 GAMMEKBV /BASS 1;
#X obj 477 84 GAMMEKBV /GAMME;
#X obj 477 211 GAMMEKBV /CHORD;
#X obj 503 322 s /BPM;
#X floatatom 485 290 5 0 0 0 - - -, f 5;
#X msg 535 291 120;
#X msg 569 292 150;
#N canvas 379 269 846 556 PHONEnotes 0;
#X obj 40 254 r PHONEkeys;
#X msg 215 156 -1;
#X msg 250 155 1;
#X obj 215 186 +;
#X obj 215 127 sel 1;
#X obj 259 127 sel 1;
#X msg 304 128 0;
#X obj 215 230 * 12;
#X obj 215 279 + 60;
#X obj 340 128 t a a;
#X obj 340 199 spigot;
#X msg 372 151 \$1;
#X obj 372 173 < 10;
#X obj 215 98 route 10 11 0;
#X obj 372 383 + 60;
#X obj 372 251 lastKeyOn;
#X obj 499 376 + 60;
#X obj 477 28 r AMPLIswitchs;
#X obj 477 70 tgl 15 0 empty empty empty 17 7 0 10 -262144 -1 -1 0
1;
#X obj 494 93 sel 0 1;
#X msg 494 115 set /GAMME;
#X msg 517 138 set /CHORD;
#X obj 477 167 sel 0 1;
#X obj 499 340 * 1.51;
#X obj 477 213 f;
#X obj 340 221 t a a;
#X obj 37 70 route 13 14 15;
#X obj 37 126 lastKeyOn;
#X msg 37 96 0 \$1;
#X msg 73 96 1 \$1;
#X msg 110 96 2 \$1;
#X obj 37 148 + 1;
#X obj 37 194 list prepend 0;
#X obj 37 218 s PHONEkeysPage;
#X obj 215 51 r PHONEkeysPage;
#X obj 215 73 route 0;
#X obj 340 436 s PHONEnotes;
#X obj 499 406 s PHONEnote;
#X obj 460 307 sel -1;
#X msg 460 329 -1;
#X floatatom 484 464 5 0 0 0 - - -, f 5;
#X obj 525 431 r PHONEnote;
#X floatatom 374 274 5 0 0 0 - - -, f 5;
#X obj 460 285 f;
#X obj 215 252 change;
#X obj 215 208 clip -3 2;
#X obj 340 293 unpack f f;
#X obj 340 412 pack f f f;
#X obj 340 340 t f f;
#X obj 372 361 * 1.51;
#X obj 340 315 - 1;
#X obj 620 33 r AMPLIpots;
#X obj 477 49 route range phono;
#X obj 620 55 route treble;
#X obj 571 80 tgl 15 0 empty empty empty 17 7 0 10 -262144 -1 -1 0
1;
#X obj 620 104 spigot 1;
#X obj 673 81 == 0;
#X obj 669 189 accord;
#X obj 40 275 route 13 14 15;
#X obj 71 296 * 2;
#X obj 103 296 * 4;
#X obj 39 432 list prepend 0;
#X obj 39 456 s PHONEkeysPage;
#X obj 71 342 +;
#X obj 103 318 t b f;
#X obj 40 387 +;
#X obj 71 363 t b f;
#X floatatom 372 476 8 0 0 0 - - -, f 8;
#X floatatom 298 415 5 0 0 0 - - -, f 5;
#X msg 548 191 3.14159;
#X msg 477 191 1.5708;
#X connect 0 0 58 0;
#X connect 1 0 3 0;
#X connect 2 0 3 0;
#X connect 3 0 45 0;
#X connect 4 0 1 0;
#X connect 5 0 2 0;
#X connect 6 0 45 0;
#X connect 7 0 44 0;
#X connect 8 0 14 1;
#X connect 8 0 16 1;
#X connect 9 0 10 0;
#X connect 9 1 11 0;
#X connect 10 0 25 0;
#X connect 11 0 12 0;
#X connect 12 0 10 1;
#X connect 13 0 4 0;
#X connect 13 1 5 0;
#X connect 13 2 6 0;
#X connect 13 3 9 0;
#X connect 14 0 47 2;
#X connect 14 0 67 0;
#X connect 15 0 42 0;
#X connect 15 0 43 0;
#X connect 16 0 37 0;
#X connect 17 0 52 0;
#X connect 18 0 19 0;
#X connect 18 0 22 0;
#X connect 19 0 20 0;
#X connect 19 1 21 0;
#X connect 22 0 70 0;
#X connect 22 1 69 0;
#X connect 23 0 16 0;
#X connect 24 0 23 1;
#X connect 24 0 49 1;
#X connect 25 0 46 0;
#X connect 25 1 15 0;
#X connect 26 0 28 0;
#X connect 26 1 29 0;
#X connect 26 2 30 0;
#X connect 26 3 32 0;
#X connect 27 0 31 0;
#X connect 28 0 27 0;
#X connect 29 0 27 0;
#X connect 30 0 27 0;
#X connect 31 0 32 1;
#X connect 32 0 33 0;
#X connect 34 0 35 0;
#X connect 35 0 13 0;
#X connect 38 0 39 0;
#X connect 38 1 23 0;
#X connect 39 0 37 0;
#X connect 41 0 40 0;
#X connect 43 0 38 0;
#X connect 44 0 8 0;
#X connect 45 0 3 1;
#X connect 45 0 7 0;
#X connect 46 0 50 0;
#X connect 46 1 47 1;
#X connect 47 0 36 0;
#X connect 48 0 47 0;
#X connect 48 1 49 0;
#X connect 49 0 14 0;
#X connect 49 0 68 0;
#X connect 50 0 48 0;
#X connect 51 0 53 0;
#X connect 52 0 18 0;
#X connect 52 1 54 0;
#X connect 53 0 55 0;
#X connect 56 0 55 1;
#X connect 58 0 65 0;
#X connect 58 1 59 0;
#X connect 58 2 60 0;
#X connect 58 3 61 0;
#X connect 59 0 63 0;
#X connect 60 0 64 0;
#X connect 61 0 62 0;
#X connect 63 0 66 0;
#X connect 64 0 63 0;
#X connect 64 1 63 1;
#X connect 65 0 61 1;
#X connect 66 0 65 0;
#X connect 66 1 65 1;
#X connect 69 0 24 0;
#X connect 70 0 24 0;
#X restore 258 34 pd PHONEnotes;
#N canvas 170 196 841 316 PHONEgamme 1;
#X obj 6 11 seq8 GAMMESEQ;
#N canvas 37 527 847 329 keys 1;
#X obj 50 25 declare -path ../seqGAMME;
#X obj 51 58 r PHONEkeysPage;
#X obj 51 102 unpack f f;
#X obj 51 124 spigot;
#X obj 51 145 - 1;
#X obj 153 107 unpack f f;
#X obj 153 129 spigot;
#X obj 153 149 - 1;
#X floatatom 182 149 5 0 0 0 - - -, f 5;
#X obj 84 214 s GAMMESEQ-recall;
#X obj 157 193 s GAMMESEQ-load;
#X obj 51 165 t f f;
#X obj 78 186 moses 0;
#X obj 51 214 >= 0;
#X obj 51 234 s GAMMESEQ-play;
#X obj 153 169 moses 0;
#X obj 256 104 sel 1 2;
#X msg 256 126 -1;
#X msg 285 126 1;
#X obj 312 126 r /BPM;
#X obj 256 149 +, f 9;
#X obj 256 171 s /BPM;
#X obj 745 48 loadbang;
#X msg 739 108 0;
#X obj 739 82 del 4000;
#X obj 739 130 s GAMMESEQ-load;
#X obj 710 152 del 1000;
#X msg 710 174 0;
#X obj 710 196 s GAMMESEQ-recall;
#X obj 671 241 s GAMMESEQ-play;
#X msg 670 219 1;
#X obj 358 108 unpack f f;
#X obj 358 130 spigot;
#X obj 358 150 - 1;
#X floatatom 387 150 5 0 0 0 - - -, f 5;
#X obj 358 170 moses 0;
#X obj 398 240 s SYNCER;
#X msg 361 199 set-state /LOADSONG \$1;
#X msg 446 171 1;
#X msg 413 170 0;
#X obj 505 110 unpack f f;
#X obj 505 132 spigot;
#X obj 505 153 - 1;
#X obj 533 282 s GAMMESEQ-recall;
#X obj 505 173 t f f;
#X obj 500 222 moses 0;
#X obj 504 244 >= 0;
#X obj 504 264 s GAMMESEQ-play;
#X msg 505 201 set-state /RECALLPART \$1;
#X obj 583 119 hradio 15 1 0 8 empty empty empty 0 -8 0 10 -262144
-1 -1 0;
#X obj 51 80 route -1 -3 2 3 1, f 86;
#X connect 1 0 50 0;
#X connect 2 0 3 0;
#X connect 2 1 3 1;
#X connect 3 0 4 0;
#X connect 4 0 11 0;
#X connect 5 0 6 0;
#X connect 5 1 6 1;
#X connect 6 0 7 0;
#X connect 7 0 8 0;
#X connect 7 0 15 0;
#X connect 11 0 13 0;
#X connect 11 1 12 0;
#X connect 12 1 9 0;
#X connect 13 0 14 0;
#X connect 15 1 10 0;
#X connect 16 0 17 0;
#X connect 16 1 18 0;
#X connect 17 0 20 0;
#X connect 18 0 20 0;
#X connect 19 0 20 1;
#X connect 20 0 21 0;
#X connect 23 0 25 0;
#X connect 24 0 23 0;
#X connect 24 0 26 0;
#X connect 26 0 27 0;
#X connect 26 0 30 0;
#X connect 27 0 28 0;
#X connect 30 0 29 0;
#X connect 31 0 32 0;
#X connect 31 1 32 1;
#X connect 32 0 33 0;
#X connect 33 0 34 0;
#X connect 33 0 35 0;
#X connect 35 1 37 0;
#X connect 37 0 36 0;
#X connect 38 0 37 0;
#X connect 39 0 37 0;
#X connect 40 0 41 0;
#X connect 40 1 41 1;
#X connect 41 0 42 0;
#X connect 42 0 44 0;
#X connect 44 0 48 0;
#X connect 46 0 47 0;
#X connect 48 0 36 0;
#X connect 49 0 42 0;
#X connect 50 0 2 0;
#X connect 50 1 5 0;
#X connect 50 2 16 0;
#X connect 50 3 31 0;
#X connect 50 4 40 0;
#X restore 8 284 pd keys;
#X restore 258 57 pd PHONEgamme;
#X msg 433 289 1;
#X connect 1 0 2 0;
#X connect 8 0 9 0;
#X connect 14 0 13 0;
#X connect 15 0 13 0;
#X connect 16 0 13 0;
#X connect 19 0 13 0;
