#N canvas 769 74 643 424 10;
#X declare -path ../absGAMME;
#X declare -stdpath iemlib -lib iemlib1 -stdpath moonlib -lib zexy
-stdpath cyclone -lib cyclone;
#X declare -stdpath iemmatrix -stdlib iemmatrix -lib iemmatrix;
#X declare -path ../seqGAMME;
#X obj 122 35 fraise_interface;
#X obj 42 11 loadbang;
#X msg 42 33 \; pd dsp 1;
#X obj 41 105 Archet 1;
#X obj 41 72 declare -path ../absGAMME;
#X obj 282 338 ../domoNet;
#N canvas 31 119 1132 545 MASTERaudio 1;
#X obj 84 164 catch~ MASTER;
#X obj 81 445 z~ 64;
#X obj 81 477 *~;
#X obj 84 418 *~;
#X obj 76 504 dac~;
#X obj 291 25 vsl 15 128 0 1 0 0 empty empty empty 0 -9 0 10 -262144
-1 -1 9102 1;
#X obj 291 161 pow 2;
#X msg 291 183 \$1 50;
#X obj 291 205 line~;
#X obj 335 67 r AMPLIpots;
#X obj 335 89 route volume;
#X floatatom 335 111 5 0 0 0 - - -, f 5;
#X obj 122 445 limiter~ 50 1;
#X obj 118 367 rev1~;
#X obj 145 322 loadbang;
#X msg 145 344 50;
#X obj 119 252 lop~ 600;
#X obj 441 69 r AMPLIpots;
#X obj 724 49 r AMPLIswitchs;
#X obj 724 93 == 1;
#X obj 732 658 clip 0 1;
#X floatatom 816 658 5 0 0 0 - - -, f 5;
#X obj 799 633 + 1;
#X obj 732 516 * -2.25;
#X obj 883 673 clip 0 1;
#X floatatom 883 703 5 0 0 0 - - -, f 5;
#X obj 948 632 + 1;
#X floatatom 964 666 5 0 0 0 - - -, f 5;
#X obj 883 514 * 2.25;
#X obj 732 538 + 2.25;
#X obj 732 566 moses 2.15;
#X obj 799 589 - 2.15;
#X obj 799 611 * -12;
#X obj 883 564 moses 2.15;
#X obj 948 588 - 2.15;
#X obj 948 610 * -12;
#X obj 118 302 mull~ 0.4 50;
#X obj 586 249 * 0.7;
#X obj 286 255 mull~ 0.4 50;
#X obj 287 308 delwrite~ \$0-del 4000;
#X obj 301 380 vd~ \$0-del;
#X floatatom 325 340 5 0 0 0 - - -, f 5;
#X obj 378 442 pow 2;
#X msg 378 487 \$1 200;
#X obj 378 509 line~;
#X obj 393 340 mull~ 0 50;
#X obj 378 464 * 2000;
#X obj 119 278 hip~ 100;
#X obj 724 116 s fx-ctl;
#X obj 441 91 spigot 1;
#X obj 375 141 crossPot fx-ctl;
#X obj 501 137 crossPot fx-ctl;
#X obj 586 161 crossPot fx-ctl;
#X obj 286 278 hip~ 20;
#N canvas 591 194 547 494 time 0;
#X obj 108 150 i;
#X obj 108 172 change;
#X msg 142 230 2 1;
#X msg 176 229 3 2;
#X msg 273 229 2 3;
#X msg 305 229 2 4;
#X msg 371 231 2 8;
#X obj 108 126 * 8.5;
#X msg 338 231 2 6;
#X obj 108 200 sel 0 1 2 3 4 5 6 7 8, f 36;
#X msg 108 286 \$1 \$2;
#X obj 51 51 inlet;
#X obj 415 178 r CLOCK;
#X obj 415 228 unpack f f;
#X obj 178 54 inlet;
#X obj 51 77 list prepend 0;
#X obj 51 99 route 0 1;
#X obj 51 128 pow 2;
#X msg 51 173 \$1 200;
#X obj 51 421 line~;
#X obj 51 150 * 2000;
#X obj 108 308 /;
#X obj 108 330 pack f f;
#X obj 146 307 t b f;
#X msg 108 231 4 1;
#X obj 108 351 *;
#X msg 209 229 1 1;
#X msg 240 229 3 4;
#X obj 108 373 spigot;
#X obj 51 443 outlet~;
#X floatatom 191 385 5 0 0 0 - - -, f 5;
#X obj 415 200 route list;
#X connect 0 0 1 0;
#X connect 1 0 9 0;
#X connect 2 0 10 0;
#X connect 3 0 10 0;
#X connect 4 0 10 0;
#X connect 5 0 10 0;
#X connect 6 0 10 0;
#X connect 7 0 0 0;
#X connect 8 0 10 0;
#X connect 9 0 24 0;
#X connect 9 1 2 0;
#X connect 9 2 3 0;
#X connect 9 3 26 0;
#X connect 9 4 27 0;
#X connect 9 5 4 0;
#X connect 9 6 5 0;
#X connect 9 7 8 0;
#X connect 9 8 6 0;
#X connect 10 0 21 0;
#X connect 11 0 15 0;
#X connect 12 0 31 0;
#X connect 13 1 23 0;
#X connect 14 0 15 1;
#X connect 14 0 28 1;
#X connect 15 0 16 0;
#X connect 16 0 17 0;
#X connect 16 1 7 0;
#X connect 17 0 20 0;
#X connect 18 0 19 0;
#X connect 19 0 29 0;
#X connect 20 0 18 0;
#X connect 21 0 22 0;
#X connect 21 0 30 0;
#X connect 22 0 25 0;
#X connect 23 0 22 0;
#X connect 23 1 22 1;
#X connect 24 0 10 0;
#X connect 25 0 28 0;
#X connect 26 0 10 0;
#X connect 27 0 10 0;
#X connect 28 0 19 0;
#X connect 31 0 13 0;
#X restore 375 215 pd time;
#X obj 421 167 r AMPLIswitchs;
#X obj 421 193 route phono;
#X obj 724 71 route main;
#X obj 441 115 route rec input balance treble;
#X obj 415 10 declare -stdpath iemlib -lib iemlib1 -stdpath moonlib
-lib zexy -stdpath cyclone -lib cyclone;
#X obj 84 209 atan~;
#X obj 242 6 vsl 15 128 0 1 0 0 empty empty empty 0 -9 0 10 -262144
-1 -1 1712 1;
#X obj 242 142 pow 3;
#X obj 242 164 * 100;
#X obj 84 187 *~;
#X msg 134 199 \$1 50;
#X obj 134 221 line~;
#X obj 242 186 + 1;
#X obj 615 136 crossPot fx-ctl;
#X obj 879 148 * -2;
#X obj 882 111 hsl 128 15 0 1 0 0 empty empty empty -2 -8 0 10 -262144
-1 -1 6200 1;
#X obj 879 170 + 2;
#X obj 897 403 hsl 128 15 0 1 0 0 empty empty empty -2 -8 0 10 -262144
-1 -1 12700 1;
#X floatatom 894 479 5 0 0 0 - - -, f 5;
#X obj 879 197 moses 1;
#X floatatom 985 495 5 0 0 0 - - -, f 5;
#X obj 952 473 - 1;
#X obj 952 495;
#X obj 925 222 moses 1.75;
#X obj 925 244 min 1;
#X obj 992 244 - 1.75;
#X obj 992 266 * -4;
#X obj 992 288 + 1;
#X obj 879 219 - 0.5;
#X obj 879 241 * 2;
#X obj 879 263 pow 2;
#N canvas 4 101 286 275 crossfade 0;
#X obj 44 73 moses 1;
#X obj 90 98 moses 1.75;
#X obj 90 120 min 1;
#X obj 157 120 - 1.75;
#X obj 157 142 * -4;
#X obj 157 164 + 1;
#X obj 44 95 - 0.5;
#X obj 44 117 * 2;
#X obj 44 139 pow 2;
#X obj 44 28 inlet;
#X obj 44 50 * 2;
#X obj 44 209 outlet;
#X connect 0 0 6 0;
#X connect 0 1 1 0;
#X connect 1 0 2 0;
#X connect 1 1 3 0;
#X connect 2 0 11 0;
#X connect 3 0 4 0;
#X connect 4 0 5 0;
#X connect 5 0 11 0;
#X connect 6 0 7 0;
#X connect 7 0 8 0;
#X connect 8 0 11 0;
#X connect 9 0 10 0;
#X connect 10 0 0 0;
#X restore 586 229 pd crossfade;
#X obj 586 186 * -1;
#X obj 586 208 + 1;
#N canvas 4 101 286 275 crossfade 0;
#X obj 44 73 moses 1;
#X obj 90 98 moses 1.75;
#X obj 90 120 min 1;
#X obj 157 120 - 1.75;
#X obj 157 142 * -4;
#X obj 157 164 + 1;
#X obj 44 95 - 0.5;
#X obj 44 117 * 2;
#X obj 44 139 pow 2;
#X obj 44 28 inlet;
#X obj 44 50 * 2;
#X obj 44 209 outlet;
#X connect 0 0 6 0;
#X connect 0 1 1 0;
#X connect 1 0 2 0;
#X connect 1 1 3 0;
#X connect 2 0 11 0;
#X connect 3 0 4 0;
#X connect 4 0 5 0;
#X connect 5 0 11 0;
#X connect 6 0 7 0;
#X connect 7 0 8 0;
#X connect 8 0 11 0;
#X connect 9 0 10 0;
#X connect 10 0 0 0;
#X restore 637 191 pd crossfade;
#X obj 375 165 * -1;
#X obj 375 187 + 1;
#X connect 0 0 64 0;
#X connect 1 0 2 0;
#X connect 2 0 4 0;
#X connect 2 0 4 1;
#X connect 3 0 1 0;
#X connect 3 0 12 0;
#X connect 5 0 6 0;
#X connect 6 0 7 0;
#X connect 7 0 8 0;
#X connect 8 0 3 1;
#X connect 9 0 10 0;
#X connect 10 0 11 0;
#X connect 10 0 5 0;
#X connect 12 0 2 1;
#X connect 13 0 3 0;
#X connect 14 0 15 0;
#X connect 15 0 13 1;
#X connect 16 0 38 0;
#X connect 16 0 47 0;
#X connect 17 0 49 0;
#X connect 18 0 57 0;
#X connect 19 0 48 0;
#X connect 20 0 21 0;
#X connect 22 0 20 0;
#X connect 23 0 29 0;
#X connect 24 0 25 0;
#X connect 24 0 38 1;
#X connect 26 0 27 0;
#X connect 26 0 24 0;
#X connect 28 0 33 0;
#X connect 29 0 30 0;
#X connect 30 0 20 0;
#X connect 30 1 31 0;
#X connect 31 0 32 0;
#X connect 32 0 22 0;
#X connect 33 0 24 0;
#X connect 33 0 27 0;
#X connect 33 1 34 0;
#X connect 34 0 35 0;
#X connect 35 0 26 0;
#X connect 36 0 13 0;
#X connect 37 0 36 1;
#X connect 38 0 53 0;
#X connect 40 0 3 0;
#X connect 40 0 36 0;
#X connect 40 0 45 0;
#X connect 41 0 40 0;
#X connect 42 0 46 0;
#X connect 43 0 44 0;
#X connect 45 0 53 0;
#X connect 46 0 43 0;
#X connect 47 0 36 0;
#X connect 49 0 58 0;
#X connect 50 0 90 0;
#X connect 51 0 45 1;
#X connect 52 0 87 0;
#X connect 52 0 89 0;
#X connect 53 0 39 0;
#X connect 54 0 40 0;
#X connect 55 0 56 0;
#X connect 56 0 54 1;
#X connect 57 0 19 0;
#X connect 58 0 50 0;
#X connect 58 1 51 0;
#X connect 58 2 52 0;
#X connect 58 3 61 0;
#X connect 60 0 16 0;
#X connect 60 0 3 0;
#X connect 61 0 62 0;
#X connect 62 0 63 0;
#X connect 63 0 67 0;
#X connect 64 0 60 0;
#X connect 65 0 66 0;
#X connect 66 0 64 1;
#X connect 67 0 65 0;
#X connect 69 0 71 0;
#X connect 70 0 69 0;
#X connect 71 0 74 0;
#X connect 74 0 83 0;
#X connect 74 1 78 0;
#X connect 76 0 77 0;
#X connect 76 0 75 0;
#X connect 78 0 79 0;
#X connect 78 1 80 0;
#X connect 79 0 72 0;
#X connect 80 0 81 0;
#X connect 81 0 82 0;
#X connect 82 0 72 0;
#X connect 83 0 84 0;
#X connect 84 0 85 0;
#X connect 85 0 72 0;
#X connect 86 0 37 0;
#X connect 87 0 88 0;
#X connect 88 0 86 0;
#X connect 89 0 38 1;
#X connect 90 0 91 0;
#X connect 91 0 54 0;
#X restore 121 11 pd MASTERaudio;
#N canvas 9 74 624 613 testmtx 0;
#X obj 72 78 hsl 128 15 0 360 0 0 empty empty empty -2 -8 0 10 -262144
-1 -1 0 1;
#X floatatom 69 98 5 0 0 0 - - -, f 5;
#X obj 69 115 *;
#X obj 225 105 atan;
#X msg 225 85 1;
#X obj 225 65 loadbang;
#X obj 225 124 / 45;
#X text 58 23 2 dimensional cartesian rotation matrix;
#X msg 33 51 0;
#X msg 64 51 90;
#X msg 94 51 180;
#X msg 126 51 270;
#X obj 23 258 declare -stdpath iemmatrix -stdlib iemmatrix -lib iemmatrix
;
#X obj 69 174 mtx_print R;
#X obj 69 136 mtx_rot;
#X text 344 437 M*V = (0 \, 0 \, x);
#X text 354 468 M = (0 \, 0 \, l)/V;
#X floatatom 403 537 5 0 0 0 - - -, f 5;
#X obj 157 372 mtx_print R;
#X obj 126 520 mtx_./;
#X msg 125 466 0 0 1;
#X obj 222 431 loadbang;
#X obj 93 571 mtx_print M;
#X obj 125 488 mtx_diag;
#X obj 122 345 mtx_diag;
#X obj 122 401 mtx_inverse;
#X msg 121 324 0 -1 0;
#X connect 0 0 1 0;
#X connect 1 0 2 0;
#X connect 2 0 14 0;
#X connect 3 0 6 0;
#X connect 4 0 3 0;
#X connect 5 0 4 0;
#X connect 6 0 2 1;
#X connect 8 0 1 0;
#X connect 9 0 1 0;
#X connect 10 0 1 0;
#X connect 11 0 1 0;
#X connect 14 0 13 0;
#X connect 19 0 22 0;
#X connect 20 0 23 0;
#X connect 23 0 19 0;
#X connect 24 0 18 0;
#X connect 24 0 25 0;
#X connect 25 0 22 0;
#X connect 26 0 24 0;
#X restore 362 253 pd testmtx;
#X obj 42 134 Orgue 2;
#X obj 512 44 r /BPM;
#X floatatom 512 66 5 0 0 0 - - -, f 5;
#X obj 477 148 GAMMEKBV /BASS 1;
#X obj 477 84 GAMMEKBV /GAMME;
#X obj 477 211 GAMMEKBV /CHORD;
#X obj 503 322 s /BPM;
#X floatatom 485 290 5 0 0 0 - - -, f 5;
#X msg 535 291 120;
#X msg 569 292 150;
#N canvas 379 269 846 556 PHONEnotes 0;
#X obj 40 254 r PHONEkeys;
#X msg 215 156 -1;
#X msg 250 155 1;
#X obj 215 186 +;
#X obj 215 127 sel 1;
#X obj 259 127 sel 1;
#X msg 304 128 0;
#X obj 215 230 * 12;
#X obj 215 279 + 60;
#X obj 340 128 t a a;
#X obj 340 199 spigot;
#X msg 372 151 \$1;
#X obj 372 173 < 10;
#X obj 215 98 route 10 11 0;
#X obj 372 383 + 60;
#X obj 372 251 lastKeyOn;
#X obj 499 376 + 60;
#X obj 477 28 r AMPLIswitchs;
#X obj 477 70 tgl 15 0 empty empty empty 17 7 0 10 -262144 -1 -1 0
1;
#X obj 494 93 sel 0 1;
#X msg 494 115 set /GAMME;
#X msg 517 138 set /CHORD;
#X obj 477 167 sel 0 1;
#X obj 499 340 * 1.51;
#X obj 477 213 f;
#X obj 340 221 t a a;
#X obj 37 70 route 13 14 15;
#X obj 37 126 lastKeyOn;
#X msg 37 96 0 \$1;
#X msg 73 96 1 \$1;
#X msg 110 96 2 \$1;
#X obj 37 148 + 1;
#X obj 37 194 list prepend 0;
#X obj 37 218 s PHONEkeysPage;
#X obj 215 51 r PHONEkeysPage;
#X obj 215 73 route 0;
#X obj 340 436 s PHONEnotes;
#X obj 499 406 s PHONEnote;
#X obj 460 307 sel -1;
#X msg 460 329 -1;
#X floatatom 484 464 5 0 0 0 - - -, f 5;
#X obj 525 431 r PHONEnote;
#X floatatom 374 274 5 0 0 0 - - -, f 5;
#X obj 460 285 f;
#X obj 215 252 change;
#X obj 215 208 clip -3 2;
#X obj 340 293 unpack f f;
#X obj 340 412 pack f f f;
#X obj 340 340 t f f;
#X obj 372 361 * 1.51;
#X obj 340 315 - 1;
#X obj 620 33 r AMPLIpots;
#X obj 477 49 route range phono;
#X obj 620 55 route treble;
#X obj 571 80 tgl 15 0 empty empty empty 17 7 0 10 -262144 -1 -1 1
1;
#X obj 620 104 spigot 1;
#X obj 673 81 == 0;
#X obj 669 189 accord;
#X obj 40 275 route 13 14 15;
#X obj 71 296 * 2;
#X obj 103 296 * 4;
#X obj 39 432 list prepend 0;
#X obj 39 456 s PHONEkeysPage;
#X obj 71 342 +;
#X obj 103 318 t b f;
#X obj 40 387 +;
#X obj 71 363 t b f;
#X floatatom 372 476 8 0 0 0 - - -, f 8;
#X floatatom 298 415 5 0 0 0 - - -, f 5;
#X msg 548 191 3.14159;
#X msg 477 191 1.5708;
#X connect 0 0 58 0;
#X connect 1 0 3 0;
#X connect 2 0 3 0;
#X connect 3 0 45 0;
#X connect 4 0 1 0;
#X connect 5 0 2 0;
#X connect 6 0 45 0;
#X connect 7 0 44 0;
#X connect 8 0 14 1;
#X connect 8 0 16 1;
#X connect 9 0 10 0;
#X connect 9 1 11 0;
#X connect 10 0 25 0;
#X connect 11 0 12 0;
#X connect 12 0 10 1;
#X connect 13 0 4 0;
#X connect 13 1 5 0;
#X connect 13 2 6 0;
#X connect 13 3 9 0;
#X connect 14 0 47 2;
#X connect 14 0 67 0;
#X connect 15 0 42 0;
#X connect 15 0 43 0;
#X connect 16 0 37 0;
#X connect 17 0 52 0;
#X connect 18 0 19 0;
#X connect 18 0 22 0;
#X connect 19 0 20 0;
#X connect 19 1 21 0;
#X connect 22 0 70 0;
#X connect 22 1 69 0;
#X connect 23 0 16 0;
#X connect 24 0 23 1;
#X connect 24 0 49 1;
#X connect 25 0 46 0;
#X connect 25 1 15 0;
#X connect 26 0 28 0;
#X connect 26 1 29 0;
#X connect 26 2 30 0;
#X connect 26 3 32 0;
#X connect 27 0 31 0;
#X connect 28 0 27 0;
#X connect 29 0 27 0;
#X connect 30 0 27 0;
#X connect 31 0 32 1;
#X connect 32 0 33 0;
#X connect 34 0 35 0;
#X connect 35 0 13 0;
#X connect 38 0 39 0;
#X connect 38 1 23 0;
#X connect 39 0 37 0;
#X connect 41 0 40 0;
#X connect 43 0 38 0;
#X connect 44 0 8 0;
#X connect 45 0 3 1;
#X connect 45 0 7 0;
#X connect 46 0 50 0;
#X connect 46 1 47 1;
#X connect 47 0 36 0;
#X connect 48 0 47 0;
#X connect 48 1 49 0;
#X connect 49 0 14 0;
#X connect 49 0 68 0;
#X connect 50 0 48 0;
#X connect 51 0 53 0;
#X connect 52 0 18 0;
#X connect 52 1 54 0;
#X connect 53 0 55 0;
#X connect 56 0 55 1;
#X connect 58 0 65 0;
#X connect 58 1 59 0;
#X connect 58 2 60 0;
#X connect 58 3 61 0;
#X connect 59 0 63 0;
#X connect 60 0 64 0;
#X connect 61 0 62 0;
#X connect 63 0 66 0;
#X connect 64 0 63 0;
#X connect 64 1 63 1;
#X connect 65 0 61 1;
#X connect 66 0 65 0;
#X connect 66 1 65 1;
#X connect 69 0 24 0;
#X connect 70 0 24 0;
#X restore 258 34 pd PHONEnotes;
#N canvas 355 271 841 316 PHONEgamme 0;
#X obj 6 11 seq8 GAMMESEQ;
#N canvas 6 74 679 299 keys 0;
#X obj 50 25 declare -path ../seqGAMME;
#X obj 51 58 r PHONEkeysPage;
#X obj 51 102 unpack f f;
#X obj 51 124 spigot;
#X obj 51 145 - 1;
#X obj 183 118 unpack f f;
#X obj 183 140 spigot;
#X obj 183 162 - 1;
#X floatatom 230 162 5 0 0 0 - - -, f 5;
#X floatatom 139 158 5 0 0 0 - - -, f 5;
#X obj 88 217 s GAMMESEQ-recall;
#X obj 229 205 s GAMMESEQ-load;
#X obj 51 165 t f f;
#X obj 83 186 moses 0;
#X obj 51 218 >= 0;
#X obj 51 241 s GAMMESEQ-play;
#X obj 183 183 moses 0;
#X obj 51 80 route 1 3 2;
#X obj 335 116 sel 1 2;
#X msg 335 148 -1;
#X msg 372 147 1;
#X obj 419 150 r /BPM;
#X obj 365 177 +;
#X obj 365 202 s /BPM;
#X connect 1 0 17 0;
#X connect 2 0 3 0;
#X connect 2 1 3 1;
#X connect 3 0 4 0;
#X connect 4 0 12 0;
#X connect 5 0 6 0;
#X connect 5 1 6 1;
#X connect 6 0 7 0;
#X connect 7 0 8 0;
#X connect 7 0 16 0;
#X connect 12 0 14 0;
#X connect 12 1 13 0;
#X connect 13 1 10 0;
#X connect 14 0 15 0;
#X connect 16 1 11 0;
#X connect 17 0 2 0;
#X connect 17 1 5 0;
#X connect 17 2 18 0;
#X connect 18 0 19 0;
#X connect 18 1 20 0;
#X connect 19 0 22 0;
#X connect 20 0 22 0;
#X connect 21 0 22 1;
#X connect 22 0 23 0;
#X restore 8 284 pd keys;
#X restore 258 57 pd PHONEgamme;
#X msg 433 289 1;
#X connect 1 0 2 0;
#X connect 9 0 10 0;
#X connect 15 0 14 0;
#X connect 16 0 14 0;
#X connect 17 0 14 0;
#X connect 20 0 14 0;
