#N canvas 366 497 450 300 10;
#X declare -path ../absGAMME;
#X obj 105 47 r AMPLIswitchs;
#X obj 105 89 tgl 15 0 empty empty empty 17 7 0 10 -262144 -1 -1 0
1;
#X obj 105 109 sel 0 1;
#X msg 105 131 set /GAMME;
#X msg 128 160 set /CHORD;
#X obj 210 109 r AMPLIpots;
#X obj 210 134 route bass;
#X obj 232 47 declare -path ../absGAMME;
#X obj 80 204 gammeRound /CHORD 5;
#X obj 80 14 inlet;
#X obj 80 226 outlet;
#X obj 105 68 route range phono;
#X floatatom 262 227 5 0 0 0 - - -, f 5;
#X floatatom 287 184 5 0 0 0 - - -, f 5;
#X obj 210 156 pow 3;
#X obj 210 180 * 400;
#X connect 0 0 11 0;
#X connect 1 0 2 0;
#X connect 2 0 3 0;
#X connect 2 1 4 0;
#X connect 3 0 8 0;
#X connect 4 0 8 0;
#X connect 5 0 6 0;
#X connect 6 0 14 0;
#X connect 8 0 10 0;
#X connect 9 0 8 0;
#X connect 11 0 1 0;
#X connect 13 0 8 1;
#X connect 14 0 15 0;
#X connect 15 0 8 1;
#X connect 15 0 12 0;
