#N canvas 555 93 811 737 10;
#X declare -stdpath cyclone -stdlib cyclone -lib cyclone;
#X declare -stdpath creb -stdlib creb -lib creb;
#X declare -stdpath iemlib -stdlib iemlib1 -stdlib iemlib2;
#X obj 44 320 * 100;
#X obj 44 340 + 18;
#X obj 18 201 tgl 30 0 empty empty empty 8 -8 0 10 -260818 -1 -1 0
1;
#X obj 18 239 switch~;
#X obj 169 502 mull~ 0 50;
#X msg 311 432 1000;
#X msg 310 451 3000;
#X msg 310 470 5000;
#X msg 310 489 8000;
#X obj 170 476 lop~ 5000;
#X obj 27 522 hsl 128 15 0.08 8 1 0 empty empty empty -2 -6 0 8 -262144
-1 -1 0 1;
#X obj 73 495 *~ 8;
#X floatatom 19 379 5 0 0 0 - - -, f 5;
#N canvas 126 256 681 509 violon-dsp 0;
#X obj 156 479 outlet~;
#X obj 135 310 pow;
#X obj 239 470 outlet~;
#X msg 55 224 1000 \$1;
#X obj 55 300 /;
#X obj 137 171 max 1;
#X obj 137 194 t b f;
#X obj 135 266 /;
#X msg 135 288 0.01 \$1;
#X obj 18 155 init 440;
#N canvas 600 74 799 643 corde 0;
#X obj 56 442 outlet~;
#X obj 129 392 delwrite~ \$0-corde 100;
#X obj 127 229 *~ 0;
#X obj 141 13 inlet;
#X obj 366 51 inlet~;
#X floatatom 261 219 5 0 0 0 - - -, f 5;
#X obj 264 314 outlet~;
#X msg 467 138 1;
#X floatatom 349 116 5 0 0 0 - - -, f 5;
#X floatatom 467 165 5 0 0 0 - - -, f 5;
#X floatatom 248 129 5 0 0 0 - - -, f 5;
#X floatatom 307 225 5 0 0 0 - - -, f 5;
#X obj 535 53 inlet;
#X obj 79 99 vd~ \$0-corde 100;
#X floatatom 109 53 5 0 0 0 - - -, f 5;
#X obj 210 91 vd~ \$0-corde 100;
#X obj 210 151 lop~ 8000;
#X obj 210 47 / 3;
#X obj 238 6 inlet;
#X obj 192 13 t b f;
#X obj 35 66 line~;
#X msg 35 46 \$1 5;
#X obj 210 123 *~ 4;
#X obj 209 219 *~ 1;
#X floatatom 541 168 5 0 0 0 - - -, f 5;
#X msg 513 198 0;
#X obj 345 605 delwrite~ \$0-caisse 100;
#X obj 209 247 lop~ 20000;
#X msg 289 142 8000;
#X obj 246 600 hip~ 1000;
#X obj 365 467 delread~ \$0-caisse 3.21211;
#X obj 377 491 delread~ \$0-caisse 0.53143;
#X obj 246 577 lop~ 4000;
#X obj 55 420 lp4_butt~ 18000;
#X obj 356 562 *~ 0.3;
#X obj 396 513 delread~ \$0-caisse 11.743;
#X obj 400 444 unpack f f f f;
#X msg 423 537 0.1;
#X msg 454 538 0.2;
#X msg 486 537 0.3;
#X msg 516 537 0.33;
#X msg 395 538 0;
#X msg 307 243 20000;
#X msg 340 243 5000;
#X msg 400 365 3.21121 0.53143 0.757 0.2;
#X obj 128 358 lop~ 12000;
#X obj 24 155 /;
#X floatatom 17 238 5 0 0 0 - - -, f 5;
#X obj 24 176 min 20000;
#X msg 24 135 30000 \$1;
#X obj 403 317 line~;
#X obj 247 548 *~;
#X obj 247 522 +~ 0;
#X msg 403 298 \$1 20;
#X obj 54 391 hip~ 15;
#X obj 193 337 f;
#X obj 430 337 loadbang;
#X obj 131 157 lop~ 100;
#X msg 409 387 5.21121 0.63143 7.757 0.1;
#X floatatom 578 516 5 0 0 0 - - -, f 5;
#X floatatom 564 495 5 0 0 0 - - -, f 5;
#X floatatom 552 470 5 0 0 0 - - -, f 5;
#X obj 602 464 bng 15 250 50 0 empty empty empty 0 -6 0 8 -262144 -1
-1;
#X msg 419 409 7.21121 0.93143 14.757 0.1;
#N canvas 66 125 283 224 caisse 0;
#X obj 52 113 maxlib/scale 0 1 0.53143 0.93143;
#X obj 78 23 hsl 128 15 0 1 0 0 empty empty empty -2 -6 0 8 -262144
-1 -1 0 1;
#X obj 78 93 maxlib/scale 0 1 0.757 14.757 1;
#X obj 26 136 maxlib/scale 0 1 3.2113 7.211 1;
#X obj 26 53 t f f;
#X obj 105 69 maxlib/scale 0 1 0.2 0.1;
#X obj 26 23 inlet;
#X obj 26 166 pack f f f f;
#X obj 26 190 outlet;
#X connect 0 0 7 1;
#X connect 1 0 4 0;
#X connect 2 0 7 2;
#X connect 3 0 7 0;
#X connect 4 0 3 0;
#X connect 4 1 0 0;
#X connect 4 1 2 0;
#X connect 4 1 5 0;
#X connect 5 0 7 3;
#X connect 6 0 4 0;
#X connect 7 0 8 0;
#X restore 522 310 pd caisse;
#X obj 590 55 inlet caisee;
#X obj 37 531 clip~ -10 10;
#X obj 128 310 clip~ -10 10;
#X obj 310 272 bp~ 800 0.25;
#X obj 209 273 bp~ 800 0.1;
#X obj 251 60 line~;
#X floatatom 460 102 5 0 0 0 - - -, f 5;
#X msg 251 40 \$1 5;
#X obj 210 195 fexpr~ if ( abs($y+$x) >= $f3 \, 0 \, $y+$x2 );
#X obj 479 53 inlet~;
#X obj 503 25 block~ 8 1 2;
#X obj 80 12 inlet;
#X obj 692 54 inlet~ vibra;
#X connect 2 0 67 0;
#X connect 3 0 2 1;
#X connect 4 0 26 0;
#X connect 4 0 22 0;
#X connect 4 0 67 0;
#X connect 5 0 23 1;
#X connect 7 0 9 0;
#X connect 9 0 73 2;
#X connect 10 0 22 1;
#X connect 11 0 27 1;
#X connect 12 0 53 0;
#X connect 12 0 73 2;
#X connect 13 0 2 0;
#X connect 13 0 54 0;
#X connect 15 0 22 0;
#X connect 16 0 73 0;
#X connect 17 0 72 0;
#X connect 18 0 19 0;
#X connect 19 0 17 0;
#X connect 19 1 17 1;
#X connect 20 0 13 0;
#X connect 21 0 20 0;
#X connect 22 0 16 0;
#X connect 22 0 57 0;
#X connect 23 0 27 0;
#X connect 25 0 73 2;
#X connect 27 0 6 0;
#X connect 27 0 69 0;
#X connect 28 0 16 1;
#X connect 29 0 22 0;
#X connect 29 0 54 0;
#X connect 30 0 52 0;
#X connect 31 0 52 0;
#X connect 32 0 29 0;
#X connect 33 0 0 0;
#X connect 34 0 26 0;
#X connect 35 0 52 0;
#X connect 36 0 30 0;
#X connect 36 1 31 0;
#X connect 36 2 35 0;
#X connect 36 3 34 1;
#X connect 37 0 34 1;
#X connect 38 0 34 1;
#X connect 39 0 34 1;
#X connect 40 0 34 1;
#X connect 41 0 34 1;
#X connect 42 0 11 0;
#X connect 43 0 11 0;
#X connect 44 0 36 0;
#X connect 45 0 1 0;
#X connect 45 0 26 0;
#X connect 46 0 48 0;
#X connect 48 0 55 0;
#X connect 48 0 27 1;
#X connect 49 0 46 0;
#X connect 50 0 51 1;
#X connect 51 0 32 0;
#X connect 52 0 34 0;
#X connect 52 0 51 0;
#X connect 53 0 50 0;
#X connect 54 0 33 0;
#X connect 55 0 45 1;
#X connect 55 0 32 1;
#X connect 56 0 44 0;
#X connect 57 0 73 0;
#X connect 58 0 36 0;
#X connect 59 0 35 0;
#X connect 60 0 31 0;
#X connect 61 0 30 0;
#X connect 62 0 61 0;
#X connect 62 0 60 0;
#X connect 62 0 59 0;
#X connect 63 0 36 0;
#X connect 64 0 36 0;
#X connect 65 0 64 0;
#X connect 67 0 45 0;
#X connect 69 0 26 0;
#X connect 69 0 67 0;
#X connect 70 0 15 0;
#X connect 72 0 70 0;
#X connect 73 0 23 0;
#X connect 74 0 73 1;
#X connect 76 0 17 0;
#X connect 76 0 21 0;
#X connect 76 0 49 0;
#X restore 189 441 pd corde;
#X obj 135 361 m 1;
#X obj 236 256 b;
#X obj 236 227 bng 15 250 50 0 empty empty empty 0 -6 0 8 -262144 -1
-1;
#X obj 18 137 bng 15 250 50 0 empty empty empty 0 -6 0 8 -262144 -1
-1;
#X floatatom 114 98 5 0 0 0 - - -, f 5;
#X obj 308 71 f;
#X obj 308 31 tgl 15 1 empty empty empty 0 -6 0 8 -262144 -1 -1 1 1
;
#X obj 308 164 t f f;
#X obj 465 50 hsl 128 15 0 127 0 0 empty empty empty -2 -6 0 8 -262144
-1 -1 0 1;
#X obj 308 191 -;
#X obj 345 350 change;
#X obj 469 10 inlet;
#X obj 308 50 metro 8;
#X obj 233 27 inlet;
#X obj 308 93 mavg 3;
#X obj 308 213 mavg 3;
#X obj 308 136 mavg 3;
#X obj 308 239 mavg 4;
#X obj 112 75 init 15;
#X obj 179 60 pow 4;
#X obj 381 203 pow 2;
#X obj 382 239 * 10;
#X obj 233 129 pow 3;
#X obj 233 169 + 1;
#X obj 233 148 * 30;
#X obj 308 266 +;
#X floatatom 140 137 5 0 0 0 - - -, f 5;
#X obj 179 132 * 10;
#X obj 178 82 * -12;
#X obj 179 102 + 15;
#X floatatom 348 415 5 0 0 0 - - -, f 5;
#X obj 28 38 inlet note;
#X obj 422 85 hsl 128 15 0 1 0 0 empty empty empty -2 -6 0 8 -262144
-1 -1 0 1;
#X obj 438 124 hsl 128 15 0 1 0 0 empty empty empty -2 -6 0 8 -262144
-1 -1 0 1;
#X obj 430 145 pow 4;
#X obj 435 174 hsl 128 15 0 1 0 0 empty empty empty -2 -6 0 8 -262144
-1 -1 0 1;
#X obj 433 198 pow 2;
#X obj 367 5 inlet bow_pos;
#X obj 610 16 inlet caisse;
#X floatatom 250 198 5 0 0 0 - - -, f 5;
#X obj 236 280 ead~ 1 1;
#X obj 476 302 tgl 15 0 empty empty empty 17 7 0 10 -262144 -1 -1 0
1;
#X obj 466 338 metro 600;
#X floatatom 91 252 5 0 0 0 - - -, f 5;
#X obj 120 30 inlet sustain;
#X obj 430 416 print;
#X obj 247 333 / 1000;
#X obj 247 373 line~;
#X msg 247 353 \$1 5;
#X obj 30 357;
#X connect 1 0 11 0;
#X connect 3 0 4 0;
#X connect 4 0 7 0;
#X connect 4 0 10 0;
#X connect 5 0 6 0;
#X connect 6 0 7 0;
#X connect 6 1 7 1;
#X connect 7 0 8 0;
#X connect 8 0 1 0;
#X connect 9 0 3 0;
#X connect 10 0 0 0;
#X connect 10 1 2 0;
#X connect 11 0 10 1;
#X connect 12 0 51 0;
#X connect 13 0 12 0;
#X connect 14 0 9 0;
#X connect 15 0 38 0;
#X connect 16 0 25 0;
#X connect 17 0 23 0;
#X connect 18 0 20 1;
#X connect 18 1 20 0;
#X connect 19 0 16 1;
#X connect 20 0 26 0;
#X connect 22 0 31 0;
#X connect 23 0 16 0;
#X connect 24 0 33 0;
#X connect 25 0 27 0;
#X connect 26 0 28 0;
#X connect 27 0 18 0;
#X connect 28 0 36 0;
#X connect 29 0 15 0;
#X connect 30 0 39 0;
#X connect 31 0 32 0;
#X connect 32 0 10 5;
#X connect 33 0 35 0;
#X connect 34 0 10 2;
#X connect 34 0 50 0;
#X connect 35 0 34 0;
#X connect 36 0 21 0;
#X connect 36 0 57 0;
#X connect 38 0 5 0;
#X connect 39 0 40 0;
#X connect 40 0 37 0;
#X connect 40 0 38 0;
#X connect 41 0 21 0;
#X connect 42 0 3 0;
#X connect 43 0 33 0;
#X connect 44 0 45 0;
#X connect 45 0 39 0;
#X connect 46 0 47 0;
#X connect 47 0 32 0;
#X connect 48 0 16 1;
#X connect 49 0 10 6;
#X connect 51 0 10 3;
#X connect 52 0 53 0;
#X connect 53 0 13 0;
#X connect 54 0 5 0;
#X connect 55 0 5 0;
#X connect 57 0 59 0;
#X connect 58 0 10 4;
#X connect 59 0 58 0;
#X restore 170 351 pd violon-dsp;
#X obj 170 322 mtof;
#X obj 170 296 ++;
#X obj 169 402 mull~ 1;
#X obj 384 439 hsl 128 15 0 1 0 1 empty empty empty -2 -8 0 10 -262144
-1 -1 8600 1;
#X obj 382 459 pow 2;
#X obj 170 533 hip~ 100;
#X obj 60 88 r micNote;
#X obj 60 110 unpack;
#X obj 60 135 + 12;
#X obj 14 179 r ArchetOn;
#X obj 278 238 hsl 128 15 0 127 0 0 empty empty bow_pos -2 -8 0 10
-262144 -1 -1 0 1;
#X msg 126 109 69;
#X floatatom 211 229 5 0 0 0 - - -, f 5;
#X obj 417 144 tgl 15 0 empty empty empty 17 7 0 10 -262144 -1 -1 1
1;
#X obj 217 204 hsl 128 15 0 1 0 0 empty empty string_pos -2 -8 0 10
-262144 -1 -1 0 1;
#X obj 466 283 hsl 128 15 0 1 0 0 empty empty force -2 -8 0 10 -262144
-1 -1 9087 1;
#X floatatom 21 103 5 0 0 0 - - -, f 5;
#X obj 416 373 hsl 128 15 0 1 0 1 empty empty caisee -2 -8 0 10 -262144
-1 -1 6363 1;
#X obj 415 208 * 80;
#X obj 341 559 declare -stdpath cyclone -stdlib cyclone -lib cyclone
;
#X obj 343 588 declare -stdpath creb -stdlib creb -lib creb;
#X obj 20 277 hsl 128 15 10 1000 1 1 empty empty sustain -2 -8 0 10
-262144 -1 -1 7400 1;
#X obj 618 339 i;
#X msg 618 385 1 \$1;
#X obj 618 408 <<;
#X obj 714 133 r CLOCK;
#X obj 714 209 ndmetro 2 1;
#X floatatom 713 252 5 0 0 0 - - -, f 5;
#X msg 618 435 nd 2 \$1;
#X obj 618 360 change;
#X obj 618 316 clip 0 3;
#X obj 417 162 pack f 100;
#X obj 726 177 unpack f f;
#X obj 576 437 /;
#X obj 415 186 line;
#X obj 576 482 max 100;
#X obj 73 473 lop~ 600;
#X obj 417 97 spigot;
#X obj 422 9 r PHONEkeys;
#X obj 422 34 route 12;
#X obj 618 294 maxlib/scale 0.7 0.9 0 3;
#X obj 340 619 GAMMEKBV /CHORD;
#X obj 340 533 declare -stdpath iemlib -stdlib iemlib1 -stdlib iemlib2
;
#X obj 417 119 b;
#X obj 60 157 spigot;
#X obj 456 71 f;
#X obj 476 114 b;
#X obj 463 227 maxlib/scale 0.6 0.75 0.05 0.75;
#X obj 463 252 clip 0.15 0.75;
#X obj 576 460 * 0.4;
#X obj 618 270 mavg 10;
#X obj 714 231 change;
#X obj 169 571 throw~ MASTER;
#X obj 164 430 z~ 64;
#X obj 169 453 *~;
#X obj 170 373 hip~ 30;
#X obj 220 425 limiter~ 5;
#N canvas 233 166 450 300 lfo 0;
#X obj 145 79 metro 150;
#X obj 145 100 tgl 15 0 empty empty empty 17 7 0 10 -262144 -1 -1 1
1;
#X obj 145 48 tgl 15 0 empty empty empty 17 7 0 10 -262144 -1 -1 1
1;
#X obj 145 120 * 2;
#X obj 145 142 - 1;
#X obj 145 164 * 0.5;
#X obj 145 186 pack f 150;
#X obj 145 208 line;
#X obj 145 230 outlet;
#X obj 234 74 f;
#X obj 301 77 hsl 128 15 0 1 0 1 empty empty empty -2 -8 0 10 -262144
-1 -1 3800 1;
#X obj 230 24 hsl 128 15 0 127 0 1 empty empty empty -2 -8 0 10 -262144
-1 -1 9300 1;
#X obj 145 12 loadbang;
#X connect 0 0 1 0;
#X connect 1 0 3 0;
#X connect 2 0 0 0;
#X connect 3 0 4 0;
#X connect 4 0 5 0;
#X connect 5 0 6 0;
#X connect 6 0 7 0;
#X connect 7 0 8 0;
#X connect 9 0 0 1;
#X connect 9 0 6 1;
#X connect 10 0 5 1;
#X connect 11 0 9 0;
#X connect 12 0 2 0;
#X restore 291 310 pd lfo;
#X obj 471 338 mavg 10;
#N canvas 4 74 530 358 ASSIETTE 0;
#X obj 56 26 r ASSIETTE1;
#X obj 124 187 mknob 25 -1 0 1 0 0 empty empty empty -2 -6 0 8 -262144
-1 -1 0 1;
#X obj 164 187 mknob 25 -1 0 1 0 0 empty empty empty -2 -6 0 8 -262144
-1 -1 0 1;
#X obj 124 87 unpack f f f;
#X obj 204 187 mknob 25 -1 0 1 0 0 empty empty empty -2 -6 0 8 -262144
-1 -1 0 1;
#X floatatom 204 214 5 0 0 0 - - -, f 5;
#X obj 204 148 speedlim 80;
#X obj 164 129 speedlim 80;
#X obj 124 109 speedlim 80;
#X floatatom 124 214 5 0 0 0 - - -, f 5;
#X floatatom 164 214 5 0 0 0 - - -, f 5;
#X obj 124 63 spigot;
#X obj 106 192 tgl 15 0 empty empty empty 17 7 0 10 -262144 -1 -1 0
1;
#X obj 56 240 unpack f f f;
#X obj 56 262 outlet;
#X obj 96 284 outlet;
#X obj 137 261 outlet;
#X connect 0 0 11 0;
#X connect 0 0 13 0;
#X connect 1 0 9 0;
#X connect 2 0 10 0;
#X connect 3 0 8 0;
#X connect 3 1 7 0;
#X connect 3 2 6 0;
#X connect 4 0 5 0;
#X connect 6 0 4 0;
#X connect 7 0 2 0;
#X connect 8 0 1 0;
#X connect 11 0 3 0;
#X connect 12 0 11 1;
#X connect 13 0 14 0;
#X connect 13 1 15 0;
#X connect 13 2 16 0;
#X coords 0 -1 1 1 150 60 1 100 170;
#X restore 560 61 pd ASSIETTE;
#X obj 144 236 accord;
#X obj 243 37 r PHONEnote;
#X obj 191 72 moses 0;
#X obj 256 72 >= 0;
#X obj 717 400 print;
#X obj 726 156 route list;
#X connect 0 0 1 0;
#X connect 2 0 3 0;
#X connect 4 0 19 0;
#X connect 5 0 9 1;
#X connect 6 0 9 1;
#X connect 7 0 9 1;
#X connect 8 0 9 1;
#X connect 9 0 4 0;
#X connect 10 0 11 1;
#X connect 11 0 4 0;
#X connect 12 0 50 1;
#X connect 13 0 69 0;
#X connect 14 0 13 0;
#X connect 15 0 14 0;
#X connect 16 0 67 0;
#X connect 16 0 70 0;
#X connect 17 0 18 0;
#X connect 18 0 4 1;
#X connect 19 0 66 0;
#X connect 20 0 21 0;
#X connect 21 0 22 0;
#X connect 22 0 58 0;
#X connect 23 0 2 0;
#X connect 24 0 13 3;
#X connect 25 0 22 0;
#X connect 26 0 13 2;
#X connect 27 0 45 0;
#X connect 28 0 26 0;
#X connect 29 0 13 4;
#X connect 30 0 22 0;
#X connect 31 0 13 5;
#X connect 32 0 13 3;
#X connect 35 0 13 1;
#X connect 36 0 43 0;
#X connect 37 0 38 0;
#X connect 38 0 47 1;
#X connect 38 0 42 0;
#X connect 39 0 40 0;
#X connect 39 0 79 0;
#X connect 40 0 65 0;
#X connect 42 0 40 0;
#X connect 43 0 37 0;
#X connect 44 0 36 0;
#X connect 45 0 48 0;
#X connect 46 1 47 0;
#X connect 47 0 63 0;
#X connect 48 0 32 0;
#X connect 49 0 13 1;
#X connect 50 0 11 0;
#X connect 51 0 57 0;
#X connect 52 0 53 0;
#X connect 53 0 58 1;
#X connect 53 0 59 0;
#X connect 54 0 44 0;
#X connect 57 0 27 0;
#X connect 58 0 74 0;
#X connect 59 0 51 1;
#X connect 59 0 60 0;
#X connect 60 0 27 0;
#X connect 61 0 62 0;
#X connect 62 0 29 0;
#X connect 63 0 45 1;
#X connect 63 0 49 0;
#X connect 64 0 54 0;
#X connect 65 0 51 0;
#X connect 65 0 41 0;
#X connect 67 0 68 0;
#X connect 68 0 9 0;
#X connect 68 0 50 0;
#X connect 69 0 16 0;
#X connect 70 0 68 1;
#X connect 71 0 15 1;
#X connect 72 0 31 0;
#X connect 73 0 64 0;
#X connect 73 1 61 0;
#X connect 73 2 72 0;
#X connect 74 0 15 0;
#X connect 75 0 76 0;
#X connect 75 0 77 0;
#X connect 76 1 74 0;
#X connect 77 0 59 0;
#X connect 79 0 46 0;
