#N canvas 292 74 1108 796 10;
#X declare -path Fraise -stdpath Fraise;
#X declare -stdpath iemlib -lib iemlib1 -stdpath moonlib;
#X obj 22 237 analog/parse;
#X msg 236 514 L\$1;
#X obj 236 491 tgl 15 0 empty empty set_LED 18 7 0 10 -4034 -1 -1 0
1;
#X obj 21 16 declare -path Fraise -stdpath Fraise;
#X obj 19 141 fruit/fruit 1 radio1 10 radio;
#X obj 22 207 fruit/receive radio1;
#X obj 118 549 fruit/send2 radio1;
#X obj 22 343 route 0 1 2 3 4 5;
#X obj 267 234 route s;
#X obj 267 256 route 0 1 2 3 4 5 6 7 8, f 31;
#X obj 267 283 tgl 15 0 empty empty empty 17 7 0 10 -262144 -1 -1 0
1;
#X obj 287 283 tgl 15 0 empty empty empty 17 7 0 10 -262144 -1 -1 0
1;
#X obj 307 283 tgl 15 0 empty empty empty 17 7 0 10 -262144 -1 -1 1
1;
#X obj 328 283 tgl 15 0 empty empty empty 17 7 0 10 -262144 -1 -1 0
1;
#X obj 348 283 tgl 15 0 empty empty empty 17 7 0 10 -262144 -1 -1 0
1;
#X obj 368 283 tgl 15 0 empty empty empty 17 7 0 10 -262144 -1 -1 1
1;
#X obj 389 283 tgl 15 0 empty empty empty 17 7 0 10 -262144 -1 -1 1
1;
#X obj 409 283 tgl 15 0 empty empty empty 17 7 0 10 -262144 -1 -1 0
1;
#X obj 429 283 tgl 15 0 empty empty empty 17 7 0 10 -262144 -1 -1 1
1;
#X obj 25 487 hsl 128 15 0 1 0 0 empty empty empty -2 -8 0 10 -262144
-1 -1 7489 1;
#X obj 7 527 hsl 128 15 0 1 0 0 empty empty empty -2 -8 0 10 -262144
-1 -1 9707 1;
#X obj 89 450 test1;
#X obj 22 259 unpack f f;
#X obj 22 306 pack f f;
#X obj 79 281 / 16384;
#X msg 106 404 a 0 \$1;
#X msg 161 351 s 0 \$1;
#X msg 61 395 a 1 \$1;
#X msg 40 415 a 2 \$1;
#X msg 10 426 b 0 \$1;
#X msg 17 448 a 3 \$1;
#X msg 41 466 a 4 \$1;
#X obj 309 167 phonekeys;
#X obj 511 180 route 1;
#X obj 411 509 unpack f f f;
#X floatatom 407 541 5 0 0 0 - - -, f 5;
#X floatatom 449 544 5 0 0 0 - - -, f 5;
#X floatatom 482 536 5 0 0 0 - - -, f 5;
#X obj 21 38 pied/pied 0 41424;
#X obj 257 39 fruit/fruit 1 phone1 11 phone;
#X obj 309 143 fruit/receive phone1;
#X obj 511 205 axlprocess 1;
#X obj 451 468 r AXLSLOW1;
#X obj 531 511 unpack f f f;
#X floatatom 531 533 5 0 0 0 - - -, f 5;
#X floatatom 565 536 5 0 0 0 - - -, f 5;
#X floatatom 605 536 5 0 0 0 - - -, f 5;
#X obj 789 154 adc~;
#X msg 560 664 \$1 10;
#X obj 560 686 line~;
#X obj 560 752 osc~;
#X obj 560 730 +~ 0;
#X obj 516 617 +;
#X floatatom 502 694 5 0 0 0 - - -, f 5;
#X obj 509 652 / 10;
#X obj 534 468 r AXLFAST1;
#X obj 560 708 *~ 2000;
#X obj 521 562 * 1;
#X obj 509 674 max 0;
#X obj 551 616 clip -200 200;
#X obj 551 638 * 0.999;
#X obj 417 182 route s;
#X obj 417 204 route 0;
#X obj 419 225 tgl 15 0 empty empty empty 17 7 0 10 -262144 -1 -1 1
1;
#X obj 187 653 fruit/send phone1;
#X msg 242 631 L\$1;
#X obj 243 604 +;
#X obj 267 558 * 2;
#X obj 267 580 t b f;
#X obj 242 574 tgl 15 0 empty empty empty 17 7 0 10 -262144 -1 -1 0
1;
#X obj 268 539 tgl 15 0 empty empty empty 17 7 0 10 -262144 -1 -1 1
1;
#X obj 297 482 == 0;
#X floatatom 74 593 5 0 0 0 - - -, f 5;
#X floatatom 832 446 0 0 0 0 - - -;
#X obj 788 176 hp10_butt~ 100;
#X obj 788 202 fiddle~ 2048;
#X obj 643 444 unpack f f f;
#X obj 642 468 atan2;
#X obj 713 471 atan2;
#X obj 654 68 declare -stdpath iemlib -lib iemlib1 -stdpath moonlib
;
#X obj 656 615 mknob 25 -1 0 1 0 0 empty empty empty -2 -6 0 8 -262144
-1 -1 0 1;
#X obj 783 473 atan2;
#X obj 991 652 vsl 15 128 -1 1 0 0 empty empty empty 0 -9 0 10 -262144
-1 -1 6612 1;
#X obj 354 604 vsl 15 128 -1 1 0 0 empty empty empty 0 -9 0 10 -262144
-1 -1 0 1;
#X obj 382 606 vsl 15 128 -1 1 0 0 empty empty empty 0 -9 0 10 -262144
-1 -1 0 1;
#X obj 417 612 vsl 15 128 -1 1 0 0 empty empty empty 0 -9 0 10 -262144
-1 -1 0 1;
#X obj 616 648 vsl 15 128 -1 1 0 0 empty empty empty 0 -9 0 10 -262144
-1 -1 0 1;
#X obj 644 650 vsl 15 128 -1 1 0 0 empty empty empty 0 -9 0 10 -262144
-1 -1 0 1;
#X obj 679 656 vsl 15 128 -1 1 0 0 empty empty empty 0 -9 0 10 -262144
-1 -1 0 1;
#X obj 891 719 r AXLFAST1;
#X obj 642 495 / 6.28318;
#X obj 642 548 -;
#X obj 660 526 f;
#X obj 836 531 bng 15 250 50 0 empty empty empty 17 7 0 10 -262144
-1 -1;
#X obj 642 594 fmod 1;
#X obj 764 641 mknob 25 -1 0 1 0 0 empty empty empty -2 -6 0 8 -262144
-1 -1 0 1;
#X obj 714 495 / 6.28318;
#X obj 714 572 -;
#X obj 732 548 f;
#X obj 733 620 fmod 1;
#X obj 800 627 mknob 25 -1 0 1 0 0 empty empty empty -2 -6 0 8 -262144
-1 -1 0 1;
#X obj 786 496 / 6.28318;
#X obj 786 558 -;
#X obj 804 538 f;
#X obj 786 606 fmod 1;
#X obj 694 530 bng 15 250 50 0 empty empty empty 17 7 0 10 -262144
-1 -1;
#X obj 762 553 bng 15 250 50 0 empty empty empty 17 7 0 10 -262144
-1 -1;
#X obj 775 403 t a;
#X msg 773 366 0;
#X obj 814 371 bng 15 250 50 0 empty empty empty 17 7 0 10 -262144
-1 -1;
#N canvas 4 74 450 300 length 0;
#X obj 94 90 unpack f f f;
#X obj 94 112 t f f;
#X obj 94 134 *;
#X obj 136 111 t f f;
#X obj 136 133 *;
#X obj 177 111 t f f;
#X obj 177 133 *;
#X obj 94 156 +;
#X obj 136 156 +;
#X obj 94 178 sqrt;
#X obj 94 67 inlet;
#X obj 94 199 outlet;
#X connect 0 0 1 0;
#X connect 0 1 3 0;
#X connect 0 2 5 0;
#X connect 1 0 2 0;
#X connect 1 1 2 1;
#X connect 2 0 7 0;
#X connect 3 0 4 0;
#X connect 3 1 4 1;
#X connect 4 0 8 0;
#X connect 5 0 6 0;
#X connect 5 1 6 1;
#X connect 6 0 8 1;
#X connect 7 0 9 0;
#X connect 8 0 7 1;
#X connect 9 0 11 0;
#X connect 10 0 0 0;
#X restore 891 742 pd length;
#X obj 894 766 hsl 128 15 0 3 0 0 empty empty empty -2 -8 0 10 -262144
-1 -1 37 1;
#N canvas 4 74 450 300 length 0;
#X obj 94 90 unpack f f f;
#X obj 94 112 t f f;
#X obj 94 134 *;
#X obj 136 111 t f f;
#X obj 136 133 *;
#X obj 177 111 t f f;
#X obj 177 133 *;
#X obj 94 156 +;
#X obj 136 156 +;
#X obj 94 178 sqrt;
#X obj 94 67 inlet;
#X obj 94 199 outlet;
#X connect 0 0 1 0;
#X connect 0 1 3 0;
#X connect 0 2 5 0;
#X connect 1 0 2 0;
#X connect 1 1 2 1;
#X connect 2 0 7 0;
#X connect 3 0 4 0;
#X connect 3 1 4 1;
#X connect 4 0 8 0;
#X connect 5 0 6 0;
#X connect 5 1 6 1;
#X connect 6 0 8 1;
#X connect 7 0 9 0;
#X connect 8 0 7 1;
#X connect 9 0 11 0;
#X connect 10 0 0 0;
#X restore 991 603 pd length;
#X obj 991 580 r AXLSLOW1;
#X obj 991 625 - 1;
#X obj 661 419 r AXLRAW1;
#X obj 733 594 + 0.5;
#X obj 786 578 + 0.5;
#X obj 821 515 mavg 20;
#X obj 746 521 mavg 20;
#X obj 841 585 * 4;
#X obj 841 607 + 0.5;
#X obj 841 629 i;
#X floatatom 841 723 5 0 0 0 - - -, f 5;
#X obj 731 652 * 4;
#X obj 731 674 + 0.5;
#X obj 731 696 i;
#X obj 841 678 mod 4;
#X obj 842 652 - 2;
#X obj 730 739 mod 4;
#X obj 731 718 - 2;
#X obj 841 700 change;
#X floatatom 730 781 5 0 0 0 - - -, f 5;
#X obj 730 758 change;
#X obj 786 39 switch~;
#X obj 784 18 tgl 15 1 empty empty empty 17 7 0 10 -262144 -1 -1 1
1;
#X obj 842 227 s micNote;
#X obj 428 400 s ArchetOn;
#N canvas 7 74 695 505 Ampli 0;
#X obj 65 29 inlet;
#X obj 65 98 analog/parse;
#X obj 65 204 route 0 1 2 3 4 5;
#X obj 310 95 route s;
#X obj 438 119 route 0 1 2 3 4 5 6 7 8, f 31;
#X obj 438 146 tgl 15 0 empty empty empty 17 7 0 10 -262144 -1 -1 0
1;
#X obj 458 146 tgl 15 0 empty empty empty 17 7 0 10 -262144 -1 -1 0
1;
#X obj 478 146 tgl 15 0 empty empty empty 17 7 0 10 -262144 -1 -1 1
1;
#X obj 499 146 tgl 15 0 empty empty empty 17 7 0 10 -262144 -1 -1 0
1;
#X obj 519 146 tgl 15 0 empty empty empty 17 7 0 10 -262144 -1 -1 0
1;
#X obj 539 146 tgl 15 0 empty empty empty 17 7 0 10 -262144 -1 -1 1
1;
#X obj 560 146 tgl 15 0 empty empty empty 17 7 0 10 -262144 -1 -1 1
1;
#X obj 580 146 tgl 15 0 empty empty empty 17 7 0 10 -262144 -1 -1 0
1;
#X obj 600 146 tgl 15 0 empty empty empty 17 7 0 10 -262144 -1 -1 1
1;
#X obj 65 120 unpack f f;
#X obj 65 167 pack f f;
#X obj 122 142 / 16384;
#X msg 65 367 balance \$1;
#X msg 84 347 bass \$1;
#X msg 103 328 treble \$1;
#X msg 142 288 rec \$1;
#X msg 123 308 input \$1;
#X msg 161 269 volume \$1;
#X obj 103 401 s AMPLIpots;
#X obj 421 411 s AMPLIswitchs;
#X msg 271 366 main \$1;
#X obj 310 178 route 0 1 2 3 4 5 6 7 8, f 31;
#X msg 290 346 power \$1;
#X msg 309 327 range \$1;
#X msg 329 307 straight \$1;
#X obj 385 233 == 0;
#X msg 348 287 7kHz \$1;
#X msg 415 347 phono \$1;
#X msg 431 328 30Hz \$1;
#X msg 452 309 remote \$1;
#X msg 472 289 loudness \$1;
#X connect 0 0 1 0;
#X connect 1 0 14 0;
#X connect 1 1 3 0;
#X connect 2 0 17 0;
#X connect 2 1 18 0;
#X connect 2 2 19 0;
#X connect 2 3 21 0;
#X connect 2 4 20 0;
#X connect 2 5 22 0;
#X connect 3 0 4 0;
#X connect 3 0 26 0;
#X connect 4 0 5 0;
#X connect 4 1 6 0;
#X connect 4 2 7 0;
#X connect 4 3 8 0;
#X connect 4 4 9 0;
#X connect 4 5 10 0;
#X connect 4 6 11 0;
#X connect 4 7 12 0;
#X connect 4 8 13 0;
#X connect 14 0 15 0;
#X connect 14 1 16 0;
#X connect 15 0 2 0;
#X connect 16 0 15 1;
#X connect 17 0 23 0;
#X connect 18 0 23 0;
#X connect 19 0 23 0;
#X connect 20 0 23 0;
#X connect 21 0 23 0;
#X connect 22 0 23 0;
#X connect 25 0 24 0;
#X connect 26 0 25 0;
#X connect 26 1 27 0;
#X connect 26 2 28 0;
#X connect 26 3 29 0;
#X connect 26 4 30 0;
#X connect 26 5 32 0;
#X connect 26 6 33 0;
#X connect 26 7 34 0;
#X connect 26 8 35 0;
#X connect 27 0 24 0;
#X connect 28 0 24 0;
#X connect 29 0 24 0;
#X connect 30 0 31 0;
#X connect 31 0 24 0;
#X connect 32 0 24 0;
#X connect 33 0 24 0;
#X connect 34 0 24 0;
#X connect 35 0 24 0;
#X restore 125 234 pd Ampli;
#X obj 309 191 s PHONEkeys;
#X msg 274 686 R;
#X obj 537 284 s AXL_SEPARATION;
#X msg 544 250 20;
#X msg 583 250 80;
#X msg 511 249 5;
#X msg 618 249 200;
#X obj 428 333 r AMPLIswitchs;
#X obj 428 355 route straight 30Hz 7kHz;
#X obj 483 378 s OrgueOn;
#X obj 309 353 s PHONEhome;
#X obj 355 454 r CLOCK;
#X obj 355 476 ndmetro 4 4;
#X obj 355 498 == 0;
#X connect 0 0 22 0;
#X connect 0 1 8 0;
#X connect 1 0 6 1;
#X connect 2 0 1 0;
#X connect 5 0 0 0;
#X connect 5 0 138 0;
#X connect 7 0 29 0;
#X connect 7 1 30 0;
#X connect 7 1 20 0;
#X connect 7 2 31 0;
#X connect 7 2 19 0;
#X connect 7 3 28 0;
#X connect 7 4 27 0;
#X connect 7 4 72 0;
#X connect 7 5 25 0;
#X connect 8 0 9 0;
#X connect 9 0 10 0;
#X connect 9 1 11 0;
#X connect 9 2 12 0;
#X connect 9 3 13 0;
#X connect 9 4 14 0;
#X connect 9 5 15 0;
#X connect 9 6 16 0;
#X connect 9 7 17 0;
#X connect 9 8 18 0;
#X connect 11 0 26 0;
#X connect 11 0 2 0;
#X connect 22 0 23 0;
#X connect 22 1 24 0;
#X connect 23 0 7 0;
#X connect 24 0 23 1;
#X connect 25 0 21 0;
#X connect 26 0 21 0;
#X connect 27 0 21 0;
#X connect 28 0 21 0;
#X connect 29 0 21 0;
#X connect 30 0 21 0;
#X connect 31 0 21 0;
#X connect 32 0 139 0;
#X connect 33 0 41 0;
#X connect 34 0 83 0;
#X connect 34 0 35 0;
#X connect 34 1 84 0;
#X connect 34 2 85 0;
#X connect 34 2 37 0;
#X connect 37 0 85 0;
#X connect 40 0 32 0;
#X connect 40 0 33 0;
#X connect 40 0 61 0;
#X connect 43 0 44 0;
#X connect 43 1 45 0;
#X connect 43 2 46 0;
#X connect 44 0 57 0;
#X connect 44 0 86 0;
#X connect 45 0 87 0;
#X connect 46 0 88 0;
#X connect 47 0 74 0;
#X connect 48 0 49 0;
#X connect 49 0 56 0;
#X connect 51 0 50 0;
#X connect 52 0 54 0;
#X connect 52 0 59 0;
#X connect 54 0 58 0;
#X connect 56 0 51 0;
#X connect 57 0 52 0;
#X connect 58 0 48 0;
#X connect 59 0 60 0;
#X connect 60 0 52 1;
#X connect 61 0 62 0;
#X connect 62 0 63 0;
#X connect 63 0 71 0;
#X connect 63 0 149 0;
#X connect 65 0 64 1;
#X connect 66 0 65 0;
#X connect 67 0 68 0;
#X connect 68 0 66 0;
#X connect 68 1 66 1;
#X connect 69 0 66 0;
#X connect 70 0 67 0;
#X connect 71 0 69 0;
#X connect 74 0 75 0;
#X connect 75 2 136 0;
#X connect 76 0 81 0;
#X connect 76 0 77 0;
#X connect 76 1 77 1;
#X connect 76 1 78 0;
#X connect 76 2 78 1;
#X connect 76 2 81 1;
#X connect 77 0 90 0;
#X connect 78 0 96 0;
#X connect 81 0 101 0;
#X connect 89 0 110 0;
#X connect 90 0 91 0;
#X connect 90 0 92 1;
#X connect 91 0 94 0;
#X connect 92 0 91 1;
#X connect 93 0 103 0;
#X connect 94 0 80 0;
#X connect 96 0 97 0;
#X connect 96 0 119 0;
#X connect 97 0 116 0;
#X connect 98 0 97 1;
#X connect 99 0 95 0;
#X connect 99 0 124 0;
#X connect 101 0 102 0;
#X connect 101 0 118 0;
#X connect 102 0 117 0;
#X connect 103 0 102 1;
#X connect 104 0 100 0;
#X connect 104 0 120 0;
#X connect 105 0 92 0;
#X connect 106 0 98 0;
#X connect 107 0 92 0;
#X connect 107 0 98 0;
#X connect 107 0 103 0;
#X connect 108 0 107 0;
#X connect 109 0 107 0;
#X connect 110 0 111 0;
#X connect 112 0 114 0;
#X connect 113 0 112 0;
#X connect 114 0 82 0;
#X connect 116 0 99 0;
#X connect 117 0 104 0;
#X connect 118 0 103 1;
#X connect 119 0 98 1;
#X connect 120 0 121 0;
#X connect 121 0 122 0;
#X connect 122 0 128 0;
#X connect 124 0 125 0;
#X connect 125 0 126 0;
#X connect 126 0 130 0;
#X connect 127 0 131 0;
#X connect 128 0 127 0;
#X connect 129 0 133 0;
#X connect 130 0 129 0;
#X connect 131 0 123 0;
#X connect 133 0 132 0;
#X connect 135 0 134 0;
#X connect 140 0 64 1;
#X connect 142 0 141 0;
#X connect 143 0 141 0;
#X connect 144 0 141 0;
#X connect 145 0 141 0;
#X connect 146 0 147 0;
#X connect 147 0 137 0;
#X connect 147 1 148 0;
#X connect 150 0 151 0;
#X connect 151 0 152 0;
#X connect 152 0 70 0;
