#N canvas 719 104 686 726 10;
#X declare -path Fraise -stdpath Fraise;
#X obj 22 237 analog/parse;
#X msg 236 514 L\$1;
#X obj 236 491 tgl 15 0 empty empty set_LED 18 7 0 10 -4034 -1 -1 0
1;
#X obj 327 455 tgl 15 0 empty empty empty 17 7 0 10 -262144 -1 -1 0
1;
#X msg 378 430 20;
#X floatatom 378 452 5 2 1000 0 - - -, f 5;
#X msg 408 429 100;
#X obj 327 474 metro 100;
#X obj 21 16 declare -path Fraise -stdpath Fraise;
#X obj 19 141 fruit/fruit 1 radio1 10 radio;
#X obj 22 207 fruit/receive radio1;
#X obj 131 540 fruit/send2 radio1;
#X obj 22 343 route 0 1 2 3 4 5;
#X obj 267 234 route s;
#X obj 267 256 route 0 1 2 3 4 5 6 7 8, f 31;
#X obj 267 283 tgl 15 0 empty empty empty 17 7 0 10 -262144 -1 -1 0
1;
#X obj 287 283 tgl 15 0 empty empty empty 17 7 0 10 -262144 -1 -1 0
1;
#X obj 307 283 tgl 15 0 empty empty empty 17 7 0 10 -262144 -1 -1 0
1;
#X obj 328 283 tgl 15 0 empty empty empty 17 7 0 10 -262144 -1 -1 0
1;
#X obj 348 283 tgl 15 0 empty empty empty 17 7 0 10 -262144 -1 -1 0
1;
#X obj 368 283 tgl 15 0 empty empty empty 17 7 0 10 -262144 -1 -1 0
1;
#X obj 389 283 tgl 15 0 empty empty empty 17 7 0 10 -262144 -1 -1 0
1;
#X obj 409 283 tgl 15 0 empty empty empty 17 7 0 10 -262144 -1 -1 0
1;
#X obj 429 283 tgl 15 0 empty empty empty 17 7 0 10 -262144 -1 -1 0
1;
#X obj 184 388 * 500;
#X obj 184 410 + 10;
#X obj 314 383 sel 0;
#X msg 314 405 0;
#X obj 25 487 hsl 128 15 0 1 0 0 empty empty empty -2 -8 0 10 -262144
-1 -1 0 1;
#X obj 7 527 hsl 128 15 0 1 0 0 empty empty empty -2 -8 0 10 -262144
-1 -1 0 1;
#X obj 89 450 test1;
#X obj 22 259 unpack f f;
#X obj 22 306 pack f f;
#X obj 79 281 / 16384;
#X msg 106 404 a 0 \$1;
#X msg 362 351 s 0 \$1;
#X msg 61 395 a 1 \$1;
#X msg 40 415 a 2 \$1;
#X msg 10 426 b 0 \$1;
#X msg 17 448 a 3 \$1;
#X msg 41 466 a 4 \$1;
#X obj 309 167 phonekeys;
#X obj 309 189 print;
#X obj 511 286 *~;
#X obj 507 331 dac~;
#X obj 512 174 unpack f f;
#X obj 549 250 mtof;
#X obj 547 274 osc~;
#X obj 550 207 * -1;
#X obj 549 228 + 80;
#X obj 511 223 * 0.2;
#X obj 222 173 route 1;
#X obj 411 509 unpack f f f;
#X floatatom 411 531 5 0 0 0 - - -, f 5;
#X floatatom 445 534 5 0 0 0 - - -, f 5;
#X floatatom 485 534 5 0 0 0 - - -, f 5;
#X obj 21 38 pied/pied 0 41424;
#X obj 257 39 fruit/fruit 1 phone1 11 phone;
#X obj 309 143 fruit/receive phone1;
#X obj 492 413 axlprocess 1;
#X obj 451 468 r AXLSLOW1;
#X obj 531 511 unpack f f f;
#X floatatom 531 533 5 0 0 0 - - -, f 5;
#X floatatom 565 536 5 0 0 0 - - -, f 5;
#X floatatom 605 536 5 0 0 0 - - -, f 5;
#X obj 555 36 adc~;
#X obj 555 76 *~;
#X obj 544 108 dac~;
#X obj 611 13 vsl 15 128 0 1 0 0 empty empty empty 0 -9 0 10 -262144
-1 -1 0 1;
#X msg 397 578 \$1 10;
#X obj 397 600 line~;
#X obj 397 666 osc~;
#X obj 397 644 +~ 0;
#X obj 590 289 metro 600;
#X obj 590 333 line~;
#X obj 620 239 tgl 15 0 empty empty empty 17 7 0 10 -262144 -1 -1 0
1;
#X obj 593 415 osc~;
#X obj 593 386 +~ 30;
#X obj 603 571 t f f;
#X obj 516 617 +;
#X floatatom 502 694 5 0 0 0 - - -, f 5;
#X obj 509 652 / 10;
#X obj 593 364 *~ 500;
#X obj 534 468 r AXLFAST1;
#X msg 641 261 500;
#X obj 397 622 *~ 2000;
#X msg 590 311 1 \, 0 100;
#X obj 521 562 * 1;
#X obj 509 674 max 0;
#X obj 551 616 clip -200 200;
#X obj 551 638 * 0.999;
#X obj 379 190 route s;
#X obj 379 212 route 0;
#X obj 381 233 tgl 15 0 empty empty empty 17 7 0 10 -262144 -1 -1 1
1;
#X obj 187 653 fruit/send phone1;
#X msg 242 631 L\$1;
#X obj 243 604 +;
#X obj 267 558 * 2;
#X obj 267 580 t b f;
#X obj 242 574 tgl 15 0 empty empty empty 17 7 0 10 -262144 -1 -1 0
1;
#X obj 268 539 tgl 15 0 empty empty empty 17 7 0 10 -262144 -1 -1 0
1;
#X obj 325 528 == 0;
#X obj 466 94 lastKeyOn;
#X obj 466 116 != -1;
#X connect 0 0 31 0;
#X connect 0 1 13 0;
#X connect 1 0 11 1;
#X connect 2 0 1 0;
#X connect 3 0 7 0;
#X connect 4 0 5 0;
#X connect 5 0 7 1;
#X connect 6 0 5 0;
#X connect 10 0 0 0;
#X connect 12 0 38 0;
#X connect 12 1 39 0;
#X connect 12 1 29 0;
#X connect 12 2 40 0;
#X connect 12 2 28 0;
#X connect 12 3 37 0;
#X connect 12 4 36 0;
#X connect 12 5 34 0;
#X connect 13 0 14 0;
#X connect 14 0 15 0;
#X connect 14 1 16 0;
#X connect 14 2 17 0;
#X connect 14 3 18 0;
#X connect 14 4 19 0;
#X connect 14 5 20 0;
#X connect 14 6 21 0;
#X connect 14 7 22 0;
#X connect 14 8 23 0;
#X connect 15 0 3 0;
#X connect 15 0 26 0;
#X connect 16 0 35 0;
#X connect 16 0 2 0;
#X connect 24 0 25 0;
#X connect 25 0 5 0;
#X connect 26 0 27 0;
#X connect 31 0 32 0;
#X connect 31 1 33 0;
#X connect 32 0 12 0;
#X connect 33 0 32 1;
#X connect 34 0 30 0;
#X connect 35 0 30 0;
#X connect 36 0 30 0;
#X connect 37 0 30 0;
#X connect 38 0 30 0;
#X connect 39 0 30 0;
#X connect 40 0 30 0;
#X connect 41 0 45 0;
#X connect 41 0 102 0;
#X connect 43 0 44 0;
#X connect 43 0 44 1;
#X connect 46 0 47 0;
#X connect 47 0 43 1;
#X connect 48 0 49 0;
#X connect 49 0 46 0;
#X connect 50 0 43 0;
#X connect 51 0 59 0;
#X connect 52 0 53 0;
#X connect 52 1 54 0;
#X connect 52 2 55 0;
#X connect 58 0 41 0;
#X connect 58 0 51 0;
#X connect 58 0 91 0;
#X connect 60 0 52 0;
#X connect 61 0 62 0;
#X connect 61 1 63 0;
#X connect 61 2 64 0;
#X connect 62 0 87 0;
#X connect 65 0 66 0;
#X connect 66 0 67 0;
#X connect 66 0 67 1;
#X connect 68 0 66 1;
#X connect 69 0 70 0;
#X connect 70 0 85 0;
#X connect 72 0 71 0;
#X connect 73 0 86 0;
#X connect 74 0 82 0;
#X connect 75 0 73 0;
#X connect 77 0 76 0;
#X connect 79 0 81 0;
#X connect 79 0 89 0;
#X connect 81 0 88 0;
#X connect 82 0 77 0;
#X connect 83 0 61 0;
#X connect 84 0 73 1;
#X connect 85 0 72 0;
#X connect 86 0 74 0;
#X connect 87 0 79 0;
#X connect 88 0 69 0;
#X connect 89 0 90 0;
#X connect 90 0 79 1;
#X connect 91 0 92 0;
#X connect 92 0 93 0;
#X connect 93 0 101 0;
#X connect 95 0 94 1;
#X connect 96 0 95 0;
#X connect 97 0 98 0;
#X connect 98 0 96 0;
#X connect 98 1 96 1;
#X connect 99 0 96 0;
#X connect 100 0 97 0;
#X connect 101 0 100 0;
#X connect 102 0 103 0;
#X connect 102 0 48 0;
#X connect 103 0 50 0;
