#N canvas 4 74 450 300 10;
#X obj 84 46 inlet;
#X obj 84 118 outlet;
#X obj 84 96 * \$1;
#X obj 130 46 inlet;
#X obj 130 68 t b f;
#X connect 0 0 2 0;
#X connect 2 0 1 0;
#X connect 3 0 4 0;
#X connect 4 0 2 0;
#X connect 4 1 2 1;
