#N canvas 195 199 549 462 10;
#X obj 35 334 ssaw~;
#X obj 35 24 osc~ 4;
#X obj 91 261 accord;
#X obj 35 386 outlet~;
#X obj 61 54 loadbang;
#X obj 61 80 random 10000;
#X obj 61 102 / 10000;
#X obj 127 55 bng 15 250 50 0 empty empty empty 17 7 0 10 -262144 -1
-1;
#X obj 160 79 t b f;
#X obj 223 105 r orgueNotes;
#X obj 223 127 route \$1;
#X obj 223 149 unpack f f;
#X obj 35 361 *~;
#X obj 289 251 sel 0 1;
#X msg 329 276 start;
#X msg 289 275 stop;
#X floatatom 170 161 5 0 0 0 - - -, f 5;
#X obj 289 301 eadsr~ 20 1000 0.5 250;
#X obj 36 309 mtof~;
#X obj 36 197 *~ 0;
#X obj 61 149 + 1;
#X obj 61 172 * 0.2;
#X floatatom 126 145 5 0 0 0 - - -, f 5;
#X obj 61 124 * 0.1;
#X obj 160 57 r orgueLFO;
#X obj 145 218 r orgueNoteOffset;
#X obj 91 239 +;
#X obj 145 242 t b f;
#X obj 310 152 r orgueNoteOn;
#X obj 310 174 t b f;
#X obj 310 196 * 1;
#X obj 310 218 change;
#X obj 36 287 +~ 0;
#X obj 110 304 print;
#X connect 0 0 12 0;
#X connect 1 0 19 0;
#X connect 2 0 32 1;
#X connect 4 0 5 0;
#X connect 5 0 6 0;
#X connect 6 0 23 0;
#X connect 7 0 5 0;
#X connect 8 0 21 0;
#X connect 8 1 21 1;
#X connect 9 0 10 0;
#X connect 10 0 11 0;
#X connect 11 0 13 0;
#X connect 11 0 16 0;
#X connect 11 0 30 0;
#X connect 11 1 26 0;
#X connect 12 0 3 0;
#X connect 13 0 15 0;
#X connect 13 1 14 0;
#X connect 14 0 17 0;
#X connect 15 0 17 0;
#X connect 17 0 12 1;
#X connect 18 0 0 0;
#X connect 19 0 32 0;
#X connect 20 0 21 0;
#X connect 20 0 22 0;
#X connect 21 0 19 1;
#X connect 23 0 20 0;
#X connect 24 0 8 0;
#X connect 25 0 27 0;
#X connect 26 0 2 0;
#X connect 27 0 26 0;
#X connect 27 1 26 1;
#X connect 28 0 29 0;
#X connect 29 0 30 0;
#X connect 29 1 30 1;
#X connect 30 0 31 0;
#X connect 31 0 13 0;
#X connect 32 0 18 0;
