#N canvas 442 74 908 737 10;
#X declare -stdpath cyclone -stdlib cyclone -lib cyclone;
#X declare -stdpath creb -stdlib creb -lib creb;
#X declare -stdpath iemlib -stdlib iemlib1 -stdlib iemlib2;
#X obj 18 201 tgl 30 0 empty empty empty 8 -8 0 10 -260818 -1 -1 1
1;
#X obj 18 239 switch~;
#X obj 599 522 r micNote;
#X obj 599 544 unpack;
#X obj 599 569 + 12;
#X msg 665 543 69;
#X floatatom 560 537 5 0 0 0 - - -, f 5;
#X obj 29 548 declare -stdpath cyclone -stdlib cyclone -lib cyclone
;
#X obj 29 575 declare -stdpath creb -stdlib creb -lib creb;
#X obj 20 277 hsl 128 15 10 1000 1 1 empty empty sustain -2 -8 0 10
-262144 -1 -1 7400 1;
#X obj 679 253 r CLOCK;
#X obj 679 313 ndmetro 2 1;
#X obj 691 281 unpack f f;
#X obj 28 522 declare -stdpath iemlib -stdlib iemlib1 -stdlib iemlib2
;
#X obj 599 591 spigot;
#X obj 749 482 change;
#N canvas 4 74 530 358 ASSIETTE 0;
#X obj 56 26 r ASSIETTE1;
#X obj 124 187 mknob 25 -1 0 1 0 0 empty empty empty -2 -6 0 8 -262144
-1 -1 0 1;
#X obj 164 187 mknob 25 -1 0 1 0 0 empty empty empty -2 -6 0 8 -262144
-1 -1 0 1;
#X obj 124 87 unpack f f f;
#X obj 204 187 mknob 25 -1 0 1 0 0 empty empty empty -2 -6 0 8 -262144
-1 -1 0 1;
#X floatatom 204 214 5 0 0 0 - - -, f 5;
#X obj 204 148 speedlim 80;
#X obj 164 129 speedlim 80;
#X obj 124 109 speedlim 80;
#X floatatom 124 214 5 0 0 0 - - -, f 5;
#X floatatom 164 214 5 0 0 0 - - -, f 5;
#X obj 124 63 spigot;
#X obj 106 192 tgl 15 0 empty empty empty 17 7 0 10 -262144 -1 -1 0
1;
#X obj 56 240 unpack f f f;
#X obj 56 262 outlet;
#X obj 96 284 outlet;
#X obj 137 261 outlet;
#X connect 0 0 11 0;
#X connect 0 0 13 0;
#X connect 1 0 9 0;
#X connect 2 0 10 0;
#X connect 3 0 8 0;
#X connect 3 1 7 0;
#X connect 3 2 6 0;
#X connect 4 0 5 0;
#X connect 6 0 4 0;
#X connect 7 0 2 0;
#X connect 8 0 1 0;
#X connect 11 0 3 0;
#X connect 12 0 11 1;
#X connect 13 0 14 0;
#X connect 13 1 15 0;
#X connect 13 2 16 0;
#X coords 0 -1 1 1 150 60 1 100 170;
#X restore 500 36 pd ASSIETTE;
#X obj 18 177 r OrgueOn;
#X obj 257 377 bob~;
#X obj 256 430 *~;
#X obj 411 172 vsl 15 128 0 1 0 1 empty empty empty 0 -9 0 10 -262144
-1 -1 11900 1;
#X obj 411 308 pow 2;
#X msg 411 330 \$1 50;
#X obj 411 352 line~;
#X obj 269 289 mtof;
#X obj 272 219 hsl 128 15 0 127 0 0 empty empty empty -2 -8 0 10 -262144
-1 -1 8386 1;
#X obj 269 335 line~;
#X obj 281 355 sig~ 2;
#X obj 257 399 hip~ 5;
#X obj 255 454 throw~ MASTER;
#X obj 97 252 s orgueNotes;
#X obj 97 206 r PHONEnotes;
#X obj 182 158 s orgueLFO;
#X obj 182 17 r AMPLIpots;
#X obj 97 228 spigot;
#X obj 182 135 * 0.5;
#X obj 269 138 * 100;
#X obj 269 160 + 28;
#X msg 269 313 \$1 20;
#X obj 690 83 r PHONEhome;
#X obj 581 164 spigot;
#X obj 634 163 sel 1;
#X obj 581 186 - 0.5;
#X obj 581 230 s orgueNoteOffset;
#X msg 634 185 0;
#X obj 685 168 tgl 15 0 empty empty empty 17 7 0 10 -262144 -1 -1 1
1;
#X obj 620 139 == 0;
#X obj 500 104 mavg 10;
#X obj 581 109 mavg 10;
#X obj 460 189 spigot;
#X obj 513 188 sel 1;
#X obj 460 211 - 0.5;
#X msg 513 210 0;
#X obj 499 164 == 0;
#X obj 460 255 f;
#X obj 269 239 +;
#X obj 300 238 t b f;
#X floatatom 467 299 5 0 0 0 - - -, f 5;
#X obj 460 233 * 200;
#X obj 269 261 clip 5 129;
#X obj 581 208 * 72;
#X obj 474 356 i;
#X obj 474 378 change;
#X obj 632 289 bng 15 250 50 0 empty empty empty 17 7 0 10 -262144
-1 -1;
#X floatatom 772 278 5 0 0 0 - - -, f 5;
#X obj 679 408 s orgueNoteOn;
#X obj 679 369 spigot;
#X obj 729 356 sel 0;
#X msg 729 377 1;
#X obj 679 335 == 0;
#X obj 729 336 tgl 15 0 empty empty empty 17 7 0 10 -262144 -1 -1 1
1;
#X obj 762 192 r AMPLIswitchs;
#X obj 762 214 route loudness;
#X obj 182 112 pow 2;
#X msg 466 503 nd \$1 \$2;
#X msg 442 451 2 1;
#X msg 509 450 2 2;
#X msg 408 452 4 2;
#X msg 476 450 3 2;
#X msg 540 450 4 4;
#X msg 573 450 2 3;
#X msg 605 450 2 4;
#X msg 671 452 2 8;
#X obj 474 332 * 8.5;
#X msg 638 452 2 6;
#X obj 408 421 sel 0 1 2 3 4 5 6 7 8, f 36;
#X msg 706 487 2 12;
#X obj 256 181 clone orgueVoice 9;
#X obj 182 63 route rec input balance;
#X obj 399 13 r AMPLIswitchs;
#X obj 399 35 route phono;
#X obj 399 57 == 0;
#X obj 399 82 s OrgueCtl;
#X obj 182 87 crossPot OrgueCtl;
#X obj 269 117 crossPot OrgueCtl;
#X obj 357 141 crossPot OrgueCtl;
#X obj 444 594 hsl 128 15 0 127 0 0 empty empty empty -2 -8 0 10 -262144
-1 -1 0 1;
#X obj 456 668 hsl 128 15 0 127 0 0 empty empty empty -2 -8 0 10 -262144
-1 -1 0 1;
#X obj 444 629 crossPot;
#X obj 532 626 tgl 15 0 empty empty empty 17 7 0 10 -262144 -1 -1 0
1;
#X obj 364 86 tgl 15 0 empty empty empty 17 7 0 10 -262144 -1 -1 1
1;
#X obj 182 39 spigot 1;
#X obj 316 13 loadbang;
#X msg 316 34 0;
#X connect 0 0 1 0;
#X connect 2 0 3 0;
#X connect 3 0 4 0;
#X connect 4 0 14 0;
#X connect 5 0 4 0;
#X connect 6 0 4 0;
#X connect 10 0 11 0;
#X connect 10 0 12 0;
#X connect 10 0 63 0;
#X connect 11 0 69 0;
#X connect 12 1 64 0;
#X connect 16 0 47 0;
#X connect 16 2 48 0;
#X connect 17 0 0 0;
#X connect 17 0 34 1;
#X connect 18 0 28 0;
#X connect 19 0 29 0;
#X connect 20 0 21 0;
#X connect 21 0 22 0;
#X connect 22 0 23 0;
#X connect 23 0 19 1;
#X connect 24 0 38 0;
#X connect 25 0 55 0;
#X connect 26 0 18 1;
#X connect 27 0 18 2;
#X connect 28 0 19 0;
#X connect 31 0 34 0;
#X connect 33 0 101 0;
#X connect 34 0 30 0;
#X connect 35 0 32 0;
#X connect 36 0 37 0;
#X connect 37 0 25 0;
#X connect 38 0 26 0;
#X connect 39 0 41 0;
#X connect 39 0 45 0;
#X connect 39 0 46 0;
#X connect 39 0 53 0;
#X connect 39 0 50 0;
#X connect 40 0 42 0;
#X connect 41 0 44 0;
#X connect 42 0 60 0;
#X connect 44 0 43 0;
#X connect 46 0 40 1;
#X connect 47 0 49 0;
#X connect 48 0 40 0;
#X connect 49 0 51 0;
#X connect 50 0 52 0;
#X connect 51 0 58 0;
#X connect 52 0 54 0;
#X connect 53 0 49 1;
#X connect 54 0 56 0;
#X connect 54 0 57 0;
#X connect 55 0 59 0;
#X connect 56 0 55 0;
#X connect 56 1 55 1;
#X connect 58 0 54 0;
#X connect 59 0 24 0;
#X connect 60 0 43 0;
#X connect 61 0 62 0;
#X connect 62 0 85 0;
#X connect 66 0 65 0;
#X connect 67 0 68 0;
#X connect 68 0 65 0;
#X connect 69 0 66 0;
#X connect 70 0 67 0;
#X connect 70 0 66 1;
#X connect 71 0 72 0;
#X connect 72 0 70 0;
#X connect 73 0 35 0;
#X connect 74 0 11 0;
#X connect 75 0 74 0;
#X connect 76 0 74 0;
#X connect 77 0 74 0;
#X connect 78 0 74 0;
#X connect 79 0 74 0;
#X connect 80 0 74 0;
#X connect 81 0 74 0;
#X connect 82 0 74 0;
#X connect 83 0 61 0;
#X connect 84 0 74 0;
#X connect 85 0 77 0;
#X connect 85 1 75 0;
#X connect 85 2 78 0;
#X connect 85 3 76 0;
#X connect 85 4 79 0;
#X connect 85 5 80 0;
#X connect 85 6 81 0;
#X connect 85 7 84 0;
#X connect 85 8 82 0;
#X connect 86 0 74 0;
#X connect 87 0 18 0;
#X connect 88 0 93 0;
#X connect 88 1 94 0;
#X connect 88 2 95 0;
#X connect 89 0 90 0;
#X connect 90 0 91 0;
#X connect 91 0 92 0;
#X connect 91 0 100 0;
#X connect 93 0 73 0;
#X connect 94 0 36 0;
#X connect 95 0 83 0;
#X connect 96 0 98 0;
#X connect 98 0 97 0;
#X connect 99 0 98 1;
#X connect 101 0 88 0;
#X connect 102 0 103 0;
#X connect 103 0 90 0;
