#N canvas 201 177 661 462 10;
#X obj 35 334 ssaw~;
#X obj 35 24 osc~ 4;
#X obj 91 261 accord;
#X obj 35 386 outlet~;
#X obj 61 54 loadbang;
#X obj 61 80 random 10000;
#X obj 61 102 / 10000;
#X obj 127 55 bng 15 250 50 0 empty empty empty 17 7 0 10 -262144 -1
-1;
#X obj 160 79 t b f;
#X obj 223 105 r orgueNotes;
#X obj 223 127 route \$1;
#X obj 223 149 unpack f f;
#X obj 35 361 *~;
#X obj 289 251 sel 0 1;
#X msg 329 276 start;
#X msg 289 275 stop;
#X obj 36 309 mtof~;
#X obj 36 197 *~ 0;
#X obj 61 149 + 1;
#X obj 61 172 * 0.2;
#X obj 61 124 * 0.1;
#X obj 160 57 r orgueLFO;
#X obj 145 218 r orgueNoteOffset;
#X obj 91 239 +;
#X obj 145 242 t b f;
#X obj 310 152 r orgueNoteOn;
#X obj 310 174 t b f;
#X obj 310 196 * 1;
#X obj 310 218 change;
#X obj 36 287 +~ 0;
#X obj 110 304 print;
#X obj 289 332 eadsr~ 20 1000 0.5 10;
#X obj 207 388 blosc~;
#X obj 402 95 r AMPLIswitchs;
#X obj 395 230 sel 0 1;
#X msg 377 283 20 1000 0.5 10;
#X obj 334 307 unpack f f f f;
#X obj 402 117 route remote loudness;
#X obj 475 139 == 0;
#X obj 475 161 t b f;
#X obj 475 183 && 1;
#X obj 497 225 tgl 15 0 empty empty empty 17 7 0 10 -262144 -1 -1 1
1;
#X msg 411 257 500 6000 0.7 100;
#X connect 0 0 12 0;
#X connect 1 0 17 0;
#X connect 2 0 29 1;
#X connect 4 0 5 0;
#X connect 5 0 6 0;
#X connect 6 0 20 0;
#X connect 7 0 5 0;
#X connect 8 0 19 0;
#X connect 8 1 19 1;
#X connect 9 0 10 0;
#X connect 10 0 11 0;
#X connect 11 0 13 0;
#X connect 11 0 27 0;
#X connect 11 1 23 0;
#X connect 12 0 3 0;
#X connect 13 0 15 0;
#X connect 13 1 14 0;
#X connect 14 0 31 0;
#X connect 15 0 31 0;
#X connect 16 0 0 0;
#X connect 17 0 29 0;
#X connect 18 0 19 0;
#X connect 19 0 17 1;
#X connect 20 0 18 0;
#X connect 21 0 8 0;
#X connect 22 0 24 0;
#X connect 23 0 2 0;
#X connect 24 0 23 0;
#X connect 24 1 23 1;
#X connect 25 0 26 0;
#X connect 26 0 27 0;
#X connect 26 1 27 1;
#X connect 27 0 28 0;
#X connect 28 0 13 0;
#X connect 29 0 16 0;
#X connect 31 0 12 1;
#X connect 33 0 37 0;
#X connect 34 0 35 0;
#X connect 34 1 42 0;
#X connect 35 0 36 0;
#X connect 36 0 31 1;
#X connect 36 1 31 2;
#X connect 36 2 31 3;
#X connect 36 3 31 4;
#X connect 37 0 40 0;
#X connect 37 1 38 0;
#X connect 38 0 39 0;
#X connect 39 0 40 0;
#X connect 39 1 40 1;
#X connect 40 0 34 0;
#X connect 40 0 41 0;
#X connect 42 0 36 0;
