#N canvas 554 98 800 752 10;
#X declare -stdpath moonlib;
#X declare -path ../absGAMME;
#X declare -stdpath AutoPreset;
#X obj 154 135 osc~ 800;
#X obj 151 247 dac~;
#X obj 153 69 osc~ 760;
#X obj 153 91 *~ 10;
#X obj 153 113 +~ 800;
#X obj 163 175 *~;
#X obj 279 103 vsl 15 128 0 1 0 0 empty empty empty 0 -9 0 10 -262144
-1 -1 3063 1;
#X obj 279 239 pow 2;
#X msg 279 261 \$1 50;
#X obj 279 283 line~;
#X floatatom 229 90 5 0 0 0 - - -, f 5;
#X obj 149 45 mtof;
#X obj 152 23 hsl 128 15 0 127 0 0 empty empty empty -2 -8 0 10 -262144
-1 -1 6439 1;
#X obj 21 121 mtof;
#X obj 24 57 hsl 128 15 0 127 0 0 empty empty empty -2 -8 0 10 -262144
-1 -1 7597 1;
#X obj 293 78 mtof;
#X obj 235 57 hsl 128 15 0 127 0 0 empty empty empty -2 -8 0 10 -262144
-1 -1 9153 1;
#X obj 453 30 declare -stdpath moonlib;
#X msg 449 90 0 500;
#X floatatom 695 204 5 0 0 0 - - -, f 5;
#X obj 441 122 ndmetro 64 8;
#X floatatom 472 250 5 0 0 0 - - -, f 5;
#X obj 429 260 *;
#X obj 434 150 t f f;
#X obj 388 199 random 200;
#X obj 390 178 b;
#X floatatom 466 330 5 0 0 0 - - -, f 5;
#X obj 332 165 t f f;
#X floatatom 332 267 5 0 0 0 - - -, f 5;
#X floatatom 367 272 5 0 0 0 - - -, f 5;
#X obj 342 343 tgl 15 0 empty empty empty 17 7 0 10 -262144 -1 -1 0
1;
#X obj 373 321 * -2;
#X obj 373 343 +;
#X obj 373 365 + 70;
#X obj 373 421 mtof;
#X obj 429 282 * 0.05;
#X obj 418 376 hsl 128 15 0 127 0 0 empty empty empty -2 -8 0 10 -262144
-1 -1 0 1;
#X obj 497 290 hsl 128 15 0 1 0 0 empty empty empty -2 -8 0 10 -262144
-1 -1 5209 1;
#X obj 499 308 pow 2;
#X obj 453 56 declare -path ../absGAMME;
#X obj 456 5 declare -stdpath AutoPreset;
#X obj 640 247 GAMMEKB GAMME;
#X obj 21 85 gammeRound GAMME 10;
#X obj 20 168 hsl 128 15 0 1 0 0 empty empty empty -2 -8 0 10 -262144
-1 -1 0 1;
#X obj 17 188 pow 2;
#X floatatom 80 276 5 0 0 0 - - -, f 5;
#X floatatom 417 459 5 0 0 0 - - -, f 5;
#X obj 120 528 ssaw~;
#X obj 161 528 ssaw~;
#X obj 209 529 ssaw~;
#X obj 120 440 mtof;
#X obj 120 414 gammeRound GAMME 10;
#X obj 161 459 mtof;
#X obj 161 433 gammeRound GAMME 10;
#X obj 209 482 mtof;
#X obj 209 456 gammeRound GAMME 10;
#X obj 183 610 bob~;
#X obj 118 496 +~;
#X obj 160 497 +~;
#X obj 206 507 +~;
#X obj 175 692 dac~;
#X obj 183 663 *~;
#X obj 544 524 vsl 15 128 0 1 0 0 empty empty empty 0 -9 0 10 -262144
-1 -1 6 1;
#X obj 544 660 pow 2;
#X msg 544 682 \$1 50;
#X obj 544 704 line~;
#X obj 120 366 t f f f;
#X obj 138 392 + 4;
#X obj 173 390 + 7;
#X floatatom 127 332 5 0 0 0 - - -, f 5;
#X obj 399 565 mtof;
#X obj 402 543 hsl 128 15 0 127 0 0 empty empty empty -2 -8 0 10 -262144
-1 -1 9153 1;
#X obj 401 605 line~;
#X msg 401 583 \$1 150;
#X obj 57 425 osc~ 4;
#X obj 299 526 mtof;
#X obj 299 500 gammeRound GAMME 10;
#X obj 296 551 +~;
#X obj 292 407 + 21;
#X obj 296 572 ssaw~;
#X obj 417 657 sig~ 2;
#X obj 606 465 rev1~;
#X floatatom 626 414 5 0 0 0 - - -, f 5;
#X obj 679 447 bng 15 250 50 0 empty empty empty 17 7 0 10 -262144
-1 -1;
#X obj 183 632 hip~ 5;
#X obj 31 313 hsl 128 15 0 8 0 0 empty empty empty -2 -8 0 10 -262144
-1 -1 0 1;
#X obj 56 447 *~ 2;
#X obj 208 315 hsl 128 15 0 1 0 0 empty empty empty -2 -8 0 10 -262144
-1 -1 0 1;
#X obj 205 335 pow 2;
#X obj 205 357 * 40;
#X obj 17 210 * 40;
#X obj 373 395 gammeRound GAMME 20;
#X obj 293 57 gammeRound GAMME 30;
#X obj 332 193 mod 32;
#X obj 461 194 mod 4;
#X obj 461 172 div 2;
#X msg 485 148 2;
#X msg 515 148 4;
#X msg 547 147 8;
#X obj 337 239 div 4;
#X msg 377 218 4;
#X msg 350 218 8;
#X msg 408 220 2;
#X msg 379 243 1;
#X msg 347 110 32;
#X msg 375 111 16;
#X msg 405 111 8;
#X obj 373 299 == 0;
#X obj 463 238 == 2;
#X obj 587 381 hip~ 2000;
#X obj 672 377 loadbang;
#X msg 672 399 63;
#X obj 673 16 inlet;
#X obj 656 66 route 0 1 2 3 4 5;
#X obj 726 120 route 0 1 2 3 4 5;
#X obj 726 153 switch~;
#X obj 153 5 * 130;
#X obj 699 153 tgl 15 0 empty empty empty 17 7 0 10 -262144 -1 -1 1
1;
#X floatatom 675 585 5 0 0 0 - - -, f 5;
#X obj 675 563 r GAMME;
#X msg 681 502 645;
#X obj 681 524 s GAMME;
#X obj 681 478 loadbang;
#X obj 673 38 route a s b;
#X obj 618 184 route 0 1 2 3 4 5;
#X obj 564 343 *;
#X obj 573 323 t b f;
#X obj 614 299 * 2;
#X obj 609 323 clip 0 1;
#X obj 535 257 *;
#X obj 544 237 t b f;
#X obj 544 214 clip 0 1;
#X obj 542 171 * -2;
#X obj 542 193 + 2;
#X obj 231 37 * 130;
#X obj 537 107 * 130;
#X obj 421 352 * 130;
#X connect 0 0 5 0;
#X connect 2 0 3 0;
#X connect 3 0 4 0;
#X connect 4 0 0 0;
#X connect 5 0 1 0;
#X connect 5 0 1 1;
#X connect 5 0 109 0;
#X connect 6 0 7 0;
#X connect 7 0 8 0;
#X connect 8 0 9 0;
#X connect 9 0 5 1;
#X connect 10 0 3 1;
#X connect 11 0 2 0;
#X connect 12 0 11 0;
#X connect 13 0 4 1;
#X connect 14 0 42 0;
#X connect 15 0 3 1;
#X connect 16 0 92 0;
#X connect 18 0 20 0;
#X connect 20 0 23 0;
#X connect 22 0 35 0;
#X connect 23 0 27 0;
#X connect 23 1 95 0;
#X connect 24 0 22 0;
#X connect 25 0 24 0;
#X connect 27 0 93 0;
#X connect 27 1 25 0;
#X connect 31 0 32 0;
#X connect 32 0 33 0;
#X connect 33 0 91 0;
#X connect 34 0 2 0;
#X connect 35 0 26 0;
#X connect 35 0 32 1;
#X connect 36 0 33 1;
#X connect 37 0 38 0;
#X connect 38 0 35 1;
#X connect 42 0 13 0;
#X connect 42 0 45 0;
#X connect 43 0 44 0;
#X connect 44 0 90 0;
#X connect 47 0 56 0;
#X connect 48 0 56 0;
#X connect 49 0 56 0;
#X connect 50 0 57 1;
#X connect 51 0 50 0;
#X connect 52 0 58 1;
#X connect 53 0 52 0;
#X connect 54 0 59 1;
#X connect 55 0 54 0;
#X connect 56 0 84 0;
#X connect 57 0 47 0;
#X connect 58 0 48 0;
#X connect 59 0 49 0;
#X connect 61 0 60 0;
#X connect 61 0 60 1;
#X connect 61 0 81 0;
#X connect 62 0 63 0;
#X connect 63 0 64 0;
#X connect 64 0 65 0;
#X connect 65 0 61 1;
#X connect 66 0 51 0;
#X connect 66 1 67 0;
#X connect 66 2 68 0;
#X connect 66 2 78 0;
#X connect 67 0 53 0;
#X connect 68 0 55 0;
#X connect 69 0 66 0;
#X connect 70 0 73 0;
#X connect 71 0 70 0;
#X connect 72 0 56 1;
#X connect 73 0 72 0;
#X connect 74 0 86 0;
#X connect 75 0 77 1;
#X connect 76 0 75 0;
#X connect 77 0 79 0;
#X connect 78 0 76 0;
#X connect 79 0 56 0;
#X connect 80 0 56 2;
#X connect 81 0 60 1;
#X connect 82 0 81 1;
#X connect 83 0 81 2;
#X connect 84 0 61 0;
#X connect 85 0 74 0;
#X connect 86 0 57 0;
#X connect 86 0 58 0;
#X connect 86 0 59 0;
#X connect 86 0 77 0;
#X connect 87 0 88 0;
#X connect 88 0 89 0;
#X connect 89 0 51 1;
#X connect 89 0 53 1;
#X connect 89 0 55 1;
#X connect 89 0 76 1;
#X connect 90 0 42 1;
#X connect 91 0 34 0;
#X connect 92 0 15 0;
#X connect 93 0 28 0;
#X connect 93 0 99 0;
#X connect 94 0 21 0;
#X connect 94 0 108 0;
#X connect 95 0 94 0;
#X connect 96 0 95 1;
#X connect 97 0 95 1;
#X connect 98 0 95 1;
#X connect 99 0 29 0;
#X connect 99 0 107 0;
#X connect 100 0 99 1;
#X connect 101 0 99 1;
#X connect 102 0 99 1;
#X connect 103 0 99 1;
#X connect 104 0 93 1;
#X connect 105 0 93 1;
#X connect 106 0 93 1;
#X connect 107 0 30 0;
#X connect 107 0 31 0;
#X connect 108 0 22 1;
#X connect 109 0 81 0;
#X connect 110 0 111 0;
#X connect 111 0 82 0;
#X connect 112 0 123 0;
#X connect 113 0 125 0;
#X connect 113 0 129 0;
#X connect 113 1 116 0;
#X connect 113 2 134 0;
#X connect 113 3 37 0;
#X connect 113 4 135 0;
#X connect 113 5 136 0;
#X connect 114 0 115 0;
#X connect 114 0 117 0;
#X connect 116 0 12 0;
#X connect 116 0 69 0;
#X connect 119 0 118 0;
#X connect 120 0 121 0;
#X connect 122 0 120 0;
#X connect 123 0 113 0;
#X connect 123 1 114 0;
#X connect 123 2 124 0;
#X connect 124 0 127 0;
#X connect 124 0 132 0;
#X connect 125 0 62 0;
#X connect 126 0 125 0;
#X connect 126 1 125 1;
#X connect 127 0 128 0;
#X connect 128 0 126 0;
#X connect 129 0 6 0;
#X connect 130 0 129 0;
#X connect 130 1 129 1;
#X connect 131 0 130 0;
#X connect 132 0 133 0;
#X connect 133 0 131 0;
#X connect 134 0 16 0;
#X connect 134 0 71 0;
#X connect 135 0 14 0;
#X connect 136 0 36 0;
