#N canvas 242 79 855 689 10;
#X declare -stdpath moonlib;
#X declare -path ../absGAMME;
#X declare -stdpath AutoPreset;
#X obj 154 135 osc~ 800;
#X obj 153 69 osc~ 760;
#X obj 153 91 *~ 10;
#X obj 153 113 +~ 800;
#X obj 163 175 *~;
#X obj 279 103 vsl 15 128 0 1 0 0 empty empty empty 0 -9 0 10 -262144
-1 -1 0 1;
#X obj 279 239 pow 2;
#X msg 279 261 \$1 50;
#X obj 279 283 line~;
#X floatatom 229 90 5 0 0 0 - - -, f 5;
#X obj 149 45 mtof;
#X obj 152 23 hsl 128 15 0 127 0 0 empty empty empty -2 -8 0 10 -262144
-1 -1 0 1;
#X obj 21 121 mtof;
#X obj 24 57 hsl 128 15 0 127 0 0 empty empty empty -2 -8 0 10 -262144
-1 -1 0 1;
#X obj 293 78 mtof;
#X obj 235 57 hsl 128 15 0 127 0 0 empty empty empty -2 -8 0 10 -262144
-1 -1 8101 1;
#X obj 453 30 declare -stdpath moonlib;
#X msg 449 90 0 500;
#X obj 441 122 ndmetro 64 8;
#X floatatom 472 250 5 0 0 0 - - -, f 5;
#X obj 429 260 *;
#X obj 434 150 t f f;
#X obj 388 199 random 200;
#X obj 390 178 b;
#X floatatom 466 330 5 0 0 0 - - -, f 5;
#X obj 332 165 t f f;
#X floatatom 332 267 5 0 0 0 - - -, f 5;
#X floatatom 367 272 5 0 0 0 - - -, f 5;
#X obj 342 343 tgl 15 0 empty empty empty 17 7 0 10 -262144 -1 -1 0
1;
#X obj 373 321 * -2;
#X obj 373 343 +;
#X obj 373 365 + 70;
#X obj 373 421 mtof;
#X obj 429 282 * 0.05;
#X obj 418 376 hsl 128 15 0 127 0 0 empty empty empty -2 -8 0 10 -262144
-1 -1 0 1;
#X obj 497 290 hsl 128 15 0 1 0 0 empty empty empty -2 -8 0 10 -262144
-1 -1 0 1;
#X obj 499 308 pow 2;
#X obj 453 56 declare -path ../absGAMME;
#X obj 456 5 declare -stdpath AutoPreset;
#X obj 20 168 hsl 128 15 0 1 0 0 empty empty empty -2 -8 0 10 -262144
-1 -1 0 1;
#X obj 17 188 pow 2;
#X floatatom 80 276 5 0 0 0 - - -, f 5;
#X floatatom 417 459 5 0 0 0 - - -, f 5;
#X obj 120 528 ssaw~;
#X obj 161 528 ssaw~;
#X obj 209 529 ssaw~;
#X obj 120 440 mtof;
#X obj 161 459 mtof;
#X obj 209 482 mtof;
#X obj 183 610 bob~;
#X obj 118 496 +~;
#X obj 160 497 +~;
#X obj 206 507 +~;
#X obj 182 663 *~;
#X obj 544 524 vsl 15 128 0 1 0 0 empty empty empty 0 -9 0 10 -262144
-1 -1 0 1;
#X obj 544 660 pow 2;
#X msg 544 682 \$1 50;
#X obj 544 704 line~;
#X obj 120 366 t f f f;
#X obj 138 392 + 4;
#X obj 173 390 + 7;
#X floatatom 127 332 5 0 0 0 - - -, f 5;
#X obj 399 565 mtof;
#X obj 402 543 hsl 128 15 0 127 0 0 empty empty empty -2 -8 0 10 -262144
-1 -1 8101 1;
#X obj 401 605 line~;
#X obj 57 425 osc~ 4;
#X obj 299 526 mtof;
#X obj 296 551 +~;
#X obj 292 407 + 21;
#X obj 296 572 ssaw~;
#X obj 385 646 sig~ 2;
#X obj 606 465 rev1~;
#X floatatom 626 414 5 0 0 0 - - -, f 5;
#X obj 679 447 bng 15 250 50 0 empty empty empty 17 7 0 10 -262144
-1 -1;
#X obj 183 632 hip~ 5;
#X obj 31 313 hsl 128 15 0 8 0 0 empty empty empty -2 -8 0 10 -262144
-1 -1 0 1;
#X obj 56 447 *~ 2;
#X obj 208 315 hsl 128 15 0 1 0 0 empty empty empty -2 -8 0 10 -262144
-1 -1 0 1;
#X obj 205 335 pow 2;
#X obj 205 357 * 40;
#X obj 17 210 * 40;
#X obj 332 193 mod 32;
#X obj 461 194 mod 4;
#X obj 461 172 div 2;
#X msg 485 148 2;
#X msg 515 148 4;
#X msg 547 147 8;
#X obj 337 239 div 4;
#X msg 377 218 4;
#X msg 350 218 8;
#X msg 408 220 2;
#X msg 379 243 1;
#X msg 347 110 32;
#X msg 375 111 16;
#X msg 405 111 8;
#X obj 373 299 == 0;
#X obj 463 238 == 2;
#X obj 587 381 hip~ 2000;
#X obj 672 377 loadbang;
#X msg 672 399 63;
#X obj 673 16 inlet;
#X obj 656 66 route 0 1 2 3 4 5;
#X obj 726 120 route 0 1 2 3 4 5;
#X obj 726 153 switch~;
#X obj 153 5 * 130;
#X obj 699 153 tgl 15 0 empty empty empty 17 7 0 10 -262144 -1 -1 0
1;
#X floatatom 675 585 5 0 0 0 - - -, f 5;
#X obj 675 563 r GAMME;
#X msg 681 502 645;
#X obj 681 524 s GAMME;
#X obj 681 478 loadbang;
#X obj 673 38 route a s b;
#X obj 564 343 *;
#X obj 573 323 t b f;
#X obj 647 291 * 2, f 4;
#X obj 642 315 clip 0 1;
#X obj 544 214 clip 0 1;
#X obj 542 171 * -2;
#X obj 542 193 + 2;
#X obj 231 37 * 130;
#X obj 537 107 * 130;
#X obj 421 352 * 130;
#X obj 73 712 throw~ MASTER;
#X obj 748 265 r AMPLIpots;
#X obj 748 287 route balance;
#X msg 401 583 \$1 50;
#X obj 22 85 gammeRound /GAMME 10;
#X obj 293 57 gammeRound GAMME 30;
#X obj 183 273 r AMPLIpots;
#X obj 183 298 route bass treble;
#X obj 120 414 gammeRound /CHORD 10;
#X obj 161 433 gammeRound /CHORD 10;
#X obj 209 456 gammeRound /CHORD 10;
#X obj 299 500 gammeRound /CHORD 10;
#X obj 373 395 gammeRound /CHORD 20;
#X connect 0 0 4 0;
#X connect 1 0 2 0;
#X connect 2 0 3 0;
#X connect 3 0 0 0;
#X connect 4 0 97 0;
#X connect 5 0 6 0;
#X connect 6 0 7 0;
#X connect 7 0 8 0;
#X connect 8 0 4 1;
#X connect 9 0 2 1;
#X connect 10 0 1 0;
#X connect 11 0 10 0;
#X connect 12 0 3 1;
#X connect 13 0 126 0;
#X connect 14 0 2 1;
#X connect 15 0 127 0;
#X connect 17 0 18 0;
#X connect 18 0 21 0;
#X connect 20 0 33 0;
#X connect 21 0 25 0;
#X connect 21 1 83 0;
#X connect 22 0 20 0;
#X connect 23 0 22 0;
#X connect 25 0 81 0;
#X connect 25 1 23 0;
#X connect 29 0 30 0;
#X connect 30 0 31 0;
#X connect 31 0 134 0;
#X connect 32 0 1 0;
#X connect 33 0 24 0;
#X connect 33 0 30 1;
#X connect 34 0 31 1;
#X connect 35 0 36 0;
#X connect 36 0 33 1;
#X connect 39 0 40 0;
#X connect 40 0 80 0;
#X connect 43 0 49 0;
#X connect 44 0 49 0;
#X connect 45 0 49 0;
#X connect 46 0 50 1;
#X connect 47 0 51 1;
#X connect 48 0 52 1;
#X connect 49 0 74 0;
#X connect 50 0 43 0;
#X connect 51 0 44 0;
#X connect 52 0 45 0;
#X connect 53 0 71 0;
#X connect 53 0 122 0;
#X connect 54 0 55 0;
#X connect 55 0 56 0;
#X connect 56 0 57 0;
#X connect 57 0 53 1;
#X connect 58 0 130 0;
#X connect 58 1 59 0;
#X connect 58 2 60 0;
#X connect 58 2 68 0;
#X connect 59 0 131 0;
#X connect 60 0 132 0;
#X connect 61 0 58 0;
#X connect 62 0 125 0;
#X connect 63 0 62 0;
#X connect 64 0 49 1;
#X connect 65 0 76 0;
#X connect 66 0 67 1;
#X connect 67 0 69 0;
#X connect 68 0 133 0;
#X connect 69 0 49 0;
#X connect 70 0 49 2;
#X connect 72 0 71 1;
#X connect 73 0 71 2;
#X connect 74 0 53 0;
#X connect 75 0 65 0;
#X connect 76 0 50 0;
#X connect 76 0 51 0;
#X connect 76 0 52 0;
#X connect 76 0 67 0;
#X connect 77 0 78 0;
#X connect 78 0 79 0;
#X connect 79 0 130 1;
#X connect 79 0 131 1;
#X connect 79 0 132 1;
#X connect 79 0 133 1;
#X connect 80 0 126 1;
#X connect 81 0 26 0;
#X connect 81 0 87 0;
#X connect 82 0 19 0;
#X connect 82 0 96 0;
#X connect 83 0 82 0;
#X connect 84 0 83 1;
#X connect 85 0 83 1;
#X connect 86 0 83 1;
#X connect 87 0 27 0;
#X connect 87 0 95 0;
#X connect 88 0 87 1;
#X connect 89 0 87 1;
#X connect 90 0 87 1;
#X connect 91 0 87 1;
#X connect 92 0 81 1;
#X connect 93 0 81 1;
#X connect 94 0 81 1;
#X connect 95 0 28 0;
#X connect 95 0 29 0;
#X connect 96 0 20 1;
#X connect 97 0 71 0;
#X connect 98 0 99 0;
#X connect 99 0 72 0;
#X connect 100 0 111 0;
#X connect 101 0 112 0;
#X connect 101 1 104 0;
#X connect 101 2 119 0;
#X connect 101 3 35 0;
#X connect 101 4 120 0;
#X connect 101 5 121 0;
#X connect 102 0 105 0;
#X connect 104 0 11 0;
#X connect 104 0 61 0;
#X connect 107 0 106 0;
#X connect 108 0 109 0;
#X connect 110 0 108 0;
#X connect 111 0 101 0;
#X connect 111 1 102 0;
#X connect 113 0 112 0;
#X connect 113 1 112 1;
#X connect 114 0 115 0;
#X connect 115 0 113 0;
#X connect 115 0 54 0;
#X connect 116 0 5 0;
#X connect 117 0 118 0;
#X connect 118 0 116 0;
#X connect 119 0 15 0;
#X connect 119 0 63 0;
#X connect 120 0 13 0;
#X connect 121 0 34 0;
#X connect 123 0 124 0;
#X connect 124 0 114 0;
#X connect 124 0 117 0;
#X connect 125 0 64 0;
#X connect 126 0 12 0;
#X connect 126 0 41 0;
#X connect 127 0 14 0;
#X connect 128 0 129 0;
#X connect 129 0 78 0;
#X connect 130 0 46 0;
#X connect 131 0 47 0;
#X connect 132 0 48 0;
#X connect 133 0 66 0;
#X connect 134 0 32 0;
