#N canvas 1 81 751 469 10;
#X obj 84 418 *~;
#X obj 118 367 rev1~;
#X obj 145 322 loadbang;
#X msg 145 344 50;
#X obj 119 252 lop~ 600;
#X obj 118 302 mull~ 0.4 50;
#X obj 557 264 * 0.7;
#X obj 286 255 mull~ 0.4 50;
#X obj 287 308 delwrite~ \$0-del 4000;
#X obj 301 380 vd~ \$0-del;
#X obj 393 340 mull~ 0 50;
#X obj 119 278 hip~ 100;
#X obj 286 278 hip~ 20;
#N canvas 591 194 547 494 time 0;
#X obj 108 150 i;
#X obj 108 172 change;
#X msg 142 230 2 1;
#X msg 176 229 3 2;
#X msg 273 229 2 3;
#X msg 305 229 2 4;
#X msg 371 231 2 8;
#X obj 108 126 * 8.5;
#X msg 338 231 2 6;
#X obj 108 200 sel 0 1 2 3 4 5 6 7 8, f 36;
#X msg 108 286 \$1 \$2;
#X obj 51 51 inlet;
#X obj 415 178 r CLOCK;
#X obj 415 228 unpack f f;
#X obj 178 54 inlet;
#X obj 51 77 list prepend 0;
#X obj 51 99 route 0 1;
#X obj 51 128 pow 2;
#X msg 51 173 \$1 200;
#X obj 51 421 line~;
#X obj 51 150 * 2000;
#X obj 108 308 /;
#X obj 108 330 pack f f;
#X obj 146 307 t b f;
#X msg 108 231 4 1;
#X obj 108 351 *;
#X msg 209 229 1 1;
#X msg 240 229 3 4;
#X obj 108 373 spigot;
#X obj 51 443 outlet~;
#X floatatom 191 385 5 0 0 0 - - -, f 5;
#X obj 415 200 route list;
#X connect 0 0 1 0;
#X connect 1 0 9 0;
#X connect 2 0 10 0;
#X connect 3 0 10 0;
#X connect 4 0 10 0;
#X connect 5 0 10 0;
#X connect 6 0 10 0;
#X connect 7 0 0 0;
#X connect 8 0 10 0;
#X connect 9 0 24 0;
#X connect 9 1 2 0;
#X connect 9 2 3 0;
#X connect 9 3 26 0;
#X connect 9 4 27 0;
#X connect 9 5 4 0;
#X connect 9 6 5 0;
#X connect 9 7 8 0;
#X connect 9 8 6 0;
#X connect 10 0 21 0;
#X connect 11 0 15 0;
#X connect 12 0 31 0;
#X connect 13 1 23 0;
#X connect 14 0 15 1;
#X connect 14 0 28 1;
#X connect 15 0 16 0;
#X connect 16 0 17 0;
#X connect 16 1 7 0;
#X connect 17 0 20 0;
#X connect 18 0 19 0;
#X connect 19 0 29 0;
#X connect 20 0 18 0;
#X connect 21 0 22 0;
#X connect 21 0 30 0;
#X connect 22 0 25 0;
#X connect 23 0 22 0;
#X connect 23 1 22 1;
#X connect 24 0 10 0;
#X connect 25 0 28 0;
#X connect 26 0 10 0;
#X connect 27 0 10 0;
#X connect 28 0 19 0;
#X connect 31 0 13 0;
#X restore 356 227 pd time;
#N canvas 4 101 286 275 crossfade 0;
#X obj 44 73 moses 1;
#X obj 90 98 moses 1.75;
#X obj 90 120 min 1;
#X obj 157 120 - 1.75;
#X obj 157 142 * -4;
#X obj 157 164 + 1;
#X obj 44 95 - 0.5;
#X obj 44 117 * 2;
#X obj 44 139 pow 2;
#X obj 44 28 inlet;
#X obj 44 50 * 2;
#X obj 44 209 outlet;
#X connect 0 0 6 0;
#X connect 0 1 1 0;
#X connect 1 0 2 0;
#X connect 1 1 3 0;
#X connect 2 0 11 0;
#X connect 3 0 4 0;
#X connect 4 0 5 0;
#X connect 5 0 11 0;
#X connect 6 0 7 0;
#X connect 7 0 8 0;
#X connect 8 0 11 0;
#X connect 9 0 10 0;
#X connect 10 0 0 0;
#X restore 557 244 pd crossfade;
#X obj 557 201 * -1;
#X obj 557 223 + 1;
#N canvas 4 101 286 275 crossfade 0;
#X obj 44 73 moses 1;
#X obj 90 98 moses 1.75;
#X obj 90 120 min 1;
#X obj 157 120 - 1.75;
#X obj 157 142 * -4;
#X obj 157 164 + 1;
#X obj 44 95 - 0.5;
#X obj 44 117 * 2;
#X obj 44 139 pow 2;
#X obj 44 28 inlet;
#X obj 44 50 * 2;
#X obj 44 209 outlet;
#X connect 0 0 6 0;
#X connect 0 1 1 0;
#X connect 1 0 2 0;
#X connect 1 1 3 0;
#X connect 2 0 11 0;
#X connect 3 0 4 0;
#X connect 4 0 5 0;
#X connect 5 0 11 0;
#X connect 6 0 7 0;
#X connect 7 0 8 0;
#X connect 8 0 11 0;
#X connect 9 0 10 0;
#X connect 10 0 0 0;
#X restore 608 206 pd crossfade;
#X obj 356 165 * -1;
#X obj 356 187 + 1;
#X obj 83 186 *~ 0.7;
#X obj 557 177 songParam SONGS fx-cross 0.1;
#X obj 356 142 songParam SONGS fx-time 0.1;
#X obj 388 204 songParam SONGS fx-type 0.1;
#X connect 1 0 0 0;
#X connect 2 0 3 0;
#X connect 3 0 1 1;
#X connect 4 0 7 0;
#X connect 4 0 11 0;
#X connect 5 0 1 0;
#X connect 6 0 5 1;
#X connect 7 0 12 0;
#X connect 9 0 0 0;
#X connect 9 0 5 0;
#X connect 9 0 10 0;
#X connect 10 0 12 0;
#X connect 11 0 5 0;
#X connect 12 0 8 0;
#X connect 13 0 9 0;
#X connect 14 0 6 0;
#X connect 15 0 16 0;
#X connect 16 0 14 0;
#X connect 17 0 7 1;
#X connect 18 0 19 0;
#X connect 19 0 13 0;
#X connect 20 0 4 0;
#X connect 20 0 0 0;
#X connect 21 0 15 0;
#X connect 21 0 17 0;
#X connect 22 0 18 0;
#X connect 23 0 13 1;
