#N canvas 769 333 534 479 10;
#X declare -path notebank;
#X declare -stdpath motex -path motex -lib motex;
#X declare -stdpath iemlib -lib iemlib1;
#X declare -stdpath ggee;
#X declare -stdpath cyclone -lib cyclone;
#X declare -stdpath iemlib -stdlib iemlib;
#X declare -path absGAMME -path ../absGAMME -path ../RecallSong;
#X obj 28 113 fraise_interface;
#X obj 386 8 r CLOCK;
#X obj 386 51 unpack f f;
#X floatatom 386 73 5 0 0 0 - - -, f 5;
#X floatatom 443 73 5 0 0 0 - - -, f 5;
#X obj 386 98 bng 50 50 50 0 empty empty empty 17 7 0 10 -262144 -1
-1;
#X obj 463 105 r /BPM;
#X floatatom 463 127 5 0 0 0 - - -, f 5;
#X obj 386 29 route list;
#X obj 365 154 GAMMEKBV /GAMME;
#N canvas 70 396 522 372 notebanks 0;
#X obj 27 9 declare -path notebank;
#X obj 246 20 accorder;
#X obj 25 63 notebank 1 8 RTWOS/Epinette 4.23 1.467;
#X restore 28 154 pd notebanks;
#X obj 15 28 declare -stdpath motex -path motex -lib motex;
#X obj 148 137 getenv HOME;
#X obj 148 118 bng 15 250 50 0 empty empty empty 17 7 0 10 -262144
-1 -1;
#X symbolatom 148 158 10 0 0 0 - - -, f 10;
#X obj 148 199 s DATASDIR;
#X obj 148 97 loadbang;
#X obj 124 225 del 100;
#X obj 124 246 s LOADTABLES;
#X obj 232 116 bng 15 250 50 0 empty empty empty 17 7 0 10 -262144
-1 -1;
#N canvas 250 299 450 300 MASTER 0;
#X obj 175 202 limiter~;
#X obj 135 203 z~ 64;
#X obj 134 19 catch~ master;
#X obj 135 224 *~;
#X obj 130 271 dac~;
#X obj 294 23 r CONTROL;
#X obj 294 149 pow 2;
#X msg 294 170 \$1 20;
#X obj 294 191 line~;
#X obj 134 166 *~;
#X obj 188 79 pow 2;
#X obj 148 103 mull~ 0 50;
#X obj 294 44 route fx vol;
#X obj 148 126 rev3~ 100 90 2000 30;
#X obj 10 39 catch~ master-norev;
#X connect 0 0 3 1;
#X connect 1 0 3 0;
#X connect 2 0 9 0;
#X connect 2 0 11 0;
#X connect 3 0 4 0;
#X connect 3 0 4 1;
#X connect 5 0 12 0;
#X connect 6 0 7 0;
#X connect 7 0 8 0;
#X connect 8 0 9 1;
#X connect 9 0 0 0;
#X connect 9 0 1 0;
#X connect 10 0 11 1;
#X connect 11 0 13 0;
#X connect 12 0 10 0;
#X connect 12 1 6 0;
#X connect 13 0 9 0;
#X connect 14 0 9 0;
#X restore 42 321 pd MASTER;
#X obj 273 263 loadbang;
#X msg 273 284 \; pd dsp 1;
#X obj 365 218 GAMMEKBV /CHORD;
#X obj 15 47 declare -stdpath iemlib -lib iemlib1;
#X obj 441 412 s /GAMME;
#X msg 441 392 2741;
#X obj 378 412 s /CHORD;
#X msg 378 394 145;
#X obj 387 341 loadbang;
#X obj 29 93 ../domoNet Harpiro;
#N canvas 580 105 829 557 Basse 0;
#X obj 115 32 r ASSIETTE1;
#X obj 208 27 r CONTROL;
#X obj 231 142 tgl 15 0 empty empty empty 17 7 0 10 -262144 -1 -1 0
1;
#X obj 33 250 basseCorde 1;
#X obj 231 183 s BASSE_TRIG;
#X msg 231 162 1 \$1;
#X obj 32 457 *~;
#X obj 47 437 line~;
#X msg 47 417 \$1 10;
#X obj 151 414 hsl 128 15 0 1 0 1 empty empty empty -2 -8 0 10 -262144
-1 -1 4400 1;
#X obj 148 433 pow 2;
#X obj 33 319 hip~ 20;
#X obj 42 6 declare -stdpath ggee;
#X obj 205 6 declare -stdpath cyclone -lib cyclone;
#X obj 33 360 atan~;
#X obj 33 340 *~ 6;
#X obj 208 48 route push swC;
#X obj 208 92 list prepend;
#X obj 208 112 route -1 0 1;
#X obj 402 31 r BASSE_KB;
#X obj 402 96 unpack;
#X obj 402 74 lastKeyOn;
#X obj 570 191 sel 0 1;
#X obj 570 237 f;
#X msg 641 215 3.14159;
#X obj 668 166 loadbang;
#X msg 668 188 0;
#X obj 402 122 sel -1;
#X msg 402 144 8;
#X obj 524 239 * 1.57;
#X obj 402 169 * -1;
#X obj 524 300 s BASSE_NOTE;
#X obj 402 212 list prepend;
#X obj 402 233 route -1 0 1;
#X obj 312 409 r CLOCK;
#X obj 312 451 spigot;
#X obj 336 348 sel 1;
#X msg 363 368 0;
#X msg 265 162 1 0;
#X obj 312 512 s BASSE_TRIG;
#X obj 312 430 ndmetro 2 4;
#X obj 312 472 == 0;
#X msg 312 493 1 \$1;
#X obj 359 451 f;
#X obj 359 472 sel 0;
#X msg 359 493 0;
#X floatatom 512 326 5 0 0 0 - - -, f 5;
#X obj 524 260 + 20;
#X obj 402 191 + 8;
#X obj 444 167 t b f;
#X obj 408 413 t a;
#X msg 408 436 nd \$1 \$2;
#X msg 408 373 2 0.5;
#X msg 451 373 2 1;
#X msg 539 371 2 2;
#X msg 671 373 2 8;
#X msg 715 373 1 4;
#X msg 759 372 1 8;
#X msg 583 373 2 4;
#X obj 115 53 unpack f f;
#X floatatom 62 126 5 0 0 0 - - -, f 5;
#X obj 115 100 * 200;
#X obj 115 74 - 0.75;
#X obj 115 179 spigot;
#X obj 166 158 == 1;
#X obj 114 139 mavg 20;
#X obj 114 160 mavg 20;
#X obj 31 65 unpack f f f;
#X floatatom 24 162 5 0 0 0 - - -, f 5;
#X obj 31 94 + 1;
#X obj 115 121 + 0;
#X obj 31 44 r AXLRAW1;
#X obj 132 295 hsl 128 15 0 1 0 1 empty empty empty -2 -8 0 10 -262144
-1 -1 5324 1;
#X obj 163 187 r CONTROL;
#X obj 163 208 route fx2;
#X obj 47 396 *;
#X obj 77 395 t b f;
#X obj 115 314 pow 4;
#X obj 115 335 * 200;
#X obj 181 369 + 1;
#X floatatom 231 392 5 0 0 0 - - -, f 5;
#X floatatom 146 359 5 0 0 0 - - -, f 5;
#X obj 62 146 mtof;
#X floatatom 62 167 5 0 0 0 - - -, f 5;
#X obj 60 297 *~ 20;
#X obj 181 327 pow 1.5;
#X obj 181 348 * -0.5;
#X obj 60 276 bp~ 180 10;
#X obj 524 279 gammeRound /GAMME 50;
#X obj 408 352 sel -1 0 1 2 3 4 5 6 7, f 66;
#X obj 278 371 tgl 15 0 empty empty empty 17 7 0 10 -262144 -1 -1 1
1;
#X floatatom 262 301 5 0 0 0 - - -, f 5;
#X msg 495 372 3 2;
#X msg 627 373 1 3;
#X obj 524 147 moses 8;
#X obj 115 356 + 1;
#X obj 363 54 route 0;
#X obj 311 122 >= 0;
#X floatatom 173 273 5 0 0 0 - - -, f 5;
#X obj 117 243 songParam SONGS bassDisto 0.1;
#X obj 595 32 r BASSE_KB;
#X obj 653 51 tgl 15 0 empty empty empty 17 7 0 10 -262144 -1 -1 0
1;
#X obj 595 76 s BASSE_LEDS;
#X obj 595 53 spigot 0;
#X msg 504 78;
#X obj 504 59 t b f;
#X obj 512 509 s GammeSymbol;
#X obj 570 165 r Gamme;
#X obj 642 233 r GammeSym;
#X msg 642 254 set \$1;
#X msg 570 215 1.61;
#X obj 322 145 r microOn;
#X obj 322 166 == 0;
#X obj 322 187 t b f;
#X obj 322 208 && 1;
#X obj 33 501 throw~ master-norev;
#X connect 0 0 59 0;
#X connect 1 0 16 0;
#X connect 2 0 5 0;
#X connect 3 0 11 0;
#X connect 3 0 87 0;
#X connect 5 0 4 0;
#X connect 6 0 115 0;
#X connect 7 0 6 1;
#X connect 8 0 7 0;
#X connect 9 0 10 0;
#X connect 10 0 75 0;
#X connect 11 0 15 0;
#X connect 14 0 6 0;
#X connect 15 0 14 0;
#X connect 16 0 17 0;
#X connect 16 1 17 1;
#X connect 16 1 36 0;
#X connect 16 1 49 0;
#X connect 16 1 64 0;
#X connect 16 1 97 0;
#X connect 17 0 18 0;
#X connect 18 1 2 0;
#X connect 18 2 43 0;
#X connect 18 2 2 0;
#X connect 19 0 96 0;
#X connect 20 0 27 0;
#X connect 21 0 20 0;
#X connect 22 0 110 0;
#X connect 22 1 24 0;
#X connect 23 0 29 1;
#X connect 24 0 23 0;
#X connect 25 0 26 0;
#X connect 26 0 22 0;
#X connect 27 0 28 0;
#X connect 27 1 30 0;
#X connect 28 0 30 0;
#X connect 29 0 47 0;
#X connect 30 0 48 0;
#X connect 32 0 33 0;
#X connect 33 1 94 0;
#X connect 33 2 46 0;
#X connect 33 2 89 0;
#X connect 34 0 40 0;
#X connect 35 0 41 0;
#X connect 36 1 37 0;
#X connect 37 0 43 0;
#X connect 38 0 4 0;
#X connect 40 0 35 0;
#X connect 40 0 91 0;
#X connect 41 0 42 0;
#X connect 41 0 90 0;
#X connect 42 0 39 0;
#X connect 43 0 35 1;
#X connect 43 0 44 0;
#X connect 44 0 45 0;
#X connect 45 0 42 0;
#X connect 47 0 88 0;
#X connect 48 0 32 0;
#X connect 49 0 48 0;
#X connect 49 1 32 1;
#X connect 50 0 51 0;
#X connect 51 0 40 0;
#X connect 52 0 50 0;
#X connect 53 0 50 0;
#X connect 54 0 50 0;
#X connect 55 0 50 0;
#X connect 56 0 50 0;
#X connect 57 0 50 0;
#X connect 58 0 50 0;
#X connect 59 0 62 0;
#X connect 60 0 82 0;
#X connect 61 0 70 0;
#X connect 63 0 88 0;
#X connect 64 0 63 1;
#X connect 65 0 66 0;
#X connect 66 0 63 0;
#X connect 67 0 69 0;
#X connect 69 0 61 0;
#X connect 70 0 65 0;
#X connect 71 0 67 0;
#X connect 72 0 77 0;
#X connect 72 0 85 0;
#X connect 73 0 74 0;
#X connect 74 0 99 0;
#X connect 75 0 8 0;
#X connect 76 0 75 0;
#X connect 76 1 75 1;
#X connect 77 0 78 0;
#X connect 78 0 95 0;
#X connect 79 0 76 0;
#X connect 82 0 83 0;
#X connect 83 0 87 1;
#X connect 84 0 11 0;
#X connect 85 0 86 0;
#X connect 86 0 79 0;
#X connect 87 0 84 0;
#X connect 88 0 31 0;
#X connect 89 0 52 0;
#X connect 89 1 53 0;
#X connect 89 2 92 0;
#X connect 89 3 54 0;
#X connect 89 4 58 0;
#X connect 89 5 93 0;
#X connect 89 6 55 0;
#X connect 89 7 56 0;
#X connect 89 8 57 0;
#X connect 92 0 50 0;
#X connect 93 0 50 0;
#X connect 94 0 29 0;
#X connect 95 0 15 1;
#X connect 96 1 21 0;
#X connect 97 0 103 1;
#X connect 97 0 114 0;
#X connect 99 0 77 0;
#X connect 99 0 98 0;
#X connect 100 0 103 0;
#X connect 101 0 103 1;
#X connect 103 0 102 0;
#X connect 105 0 104 0;
#X connect 107 0 22 0;
#X connect 108 0 109 0;
#X connect 109 0 88 0;
#X connect 110 0 23 0;
#X connect 111 0 112 0;
#X connect 112 0 113 0;
#X connect 113 0 114 0;
#X connect 113 1 114 1;
#X connect 114 0 99 1;
#X restore 40 285 pd Basse;
#N canvas 60 330 843 545 Harpe 0;
#X obj 36 385 throw~ master;
#X obj 35 341 *~;
#X obj 50 321 line~;
#X msg 50 301 \$1 10;
#X obj 126 301 hsl 128 15 0 1 0 1 empty empty empty -2 -8 0 10 -262144
-1 -1 4400 1;
#X obj 123 320 pow 2;
#X obj 34 40 t a b;
#X obj 34 96 list prepend;
#X obj 87 63 mod 16;
#X obj 87 45 + 1;
#X obj 61 62 f;
#X msg 34 117 play \$1 \$2 \$3;
#X obj 34 19 r Harpe-play;
#X obj 34 143 s Harpe-notes;
#X floatatom 177 27 5 0 0 0 - - -, f 5;
#X msg 135 118 transpose \$1;
#X obj 135 98 * 1.5706;
#X obj 270 75 t f f, f 11;
#X obj 333 117 tabread;
#X msg 333 97 set notelength-\$1 \, 0;
#X obj 333 138 t b f;
#X obj 333 159 random;
#X obj 270 202 list append;
#X obj 333 180 + 1;
#X obj 270 222 s Harpe-play;
#X floatatom 400 146 5 0 0 0 - - -, f 5;
#X msg 270 55 1;
#X obj 585 12 r CONTROL;
#X obj 585 33 route push swC;
#X obj 494 173 * 200;
#X obj 494 252 spigot;
#X obj 493 212 mavg 20;
#X obj 493 233 mavg 20;
#X obj 495 130 unpack f f f;
#X obj 494 152 + 1;
#X obj 494 194 + 0;
#X obj 495 109 r AXLRAW1;
#X obj 625 52 == -1;
#X obj 614 76 t b f;
#X obj 606 102 &&;
#X obj 494 294 i;
#X obj 494 315 change;
#X obj 494 273 - 40;
#X obj 565 56 t f f;
#X obj 565 77 spigot;
#X obj 597 176 declare -stdpath iemlib -stdlib iemlib;
#X obj 203 254 hip~ 100;
#X obj 201 373 rev1~ 95;
#X obj 223 331 loadbang;
#X msg 290 346 85;
#X obj 35 273 hip~ 50;
#X obj 35 209 clone noteplayer 16 Harpe-notes;
#X msg 223 351 85;
#X obj 137 269 *~ 0.25;
#X obj 314 241 r CONTROL;
#X obj 314 262 route fx2;
#X obj 314 306 pow 2;
#X obj 314 369 line~;
#X obj 203 275 *~;
#X floatatom 275 315 5 0 0 0 - - -, f 5;
#X obj 314 285 songParam SONGS harpAir 0.1;
#X obj 314 327 * 1;
#X msg 314 348 \$1 500;
#X obj 588 218 r BASSE_KB;
#X obj 626 280 lastKeyOn;
#X obj 587 260 route 0;
#X obj 629 360 songParam SONGS Gamme 0.1;
#X msg 618 327 0;
#X msg 645 327 1;
#X obj 626 301 sel 7 6;
#X obj 629 381 s Gamme;
#X obj 642 408 r Gamme;
#X obj 641 451 == 0;
#X obj 641 496 s BASSE_LEDS;
#X obj 588 239 spigot;
#X msg 641 472 7 \$1;
#X msg 682 453 6 \$1;
#X obj 642 429 f;
#X obj 719 400 sel 1;
#X obj 473 400 r Gamme;
#X obj 473 421 sel 0 1;
#X msg 473 442 symbol /GAMME;
#X msg 492 465 symbol /CHORD;
#X obj 473 491 s GammeSymbol;
#X obj 220 125 r GammeSymbol;
#X msg 164 155 gamme \$1;
#X obj 425 177 r microOn;
#X obj 425 198 == 0;
#X obj 425 219 t b f;
#X obj 425 240 && 1;
#X connect 1 0 0 0;
#X connect 2 0 1 1;
#X connect 3 0 2 0;
#X connect 4 0 5 0;
#X connect 5 0 3 0;
#X connect 6 0 7 0;
#X connect 6 1 10 0;
#X connect 7 0 11 0;
#X connect 8 0 10 1;
#X connect 9 0 8 0;
#X connect 10 0 9 0;
#X connect 10 0 7 1;
#X connect 11 0 13 0;
#X connect 12 0 6 0;
#X connect 14 0 16 0;
#X connect 14 0 26 0;
#X connect 15 0 13 0;
#X connect 16 0 15 0;
#X connect 17 0 22 0;
#X connect 17 1 19 0;
#X connect 18 0 20 0;
#X connect 18 0 25 0;
#X connect 19 0 18 0;
#X connect 20 0 21 0;
#X connect 20 1 21 1;
#X connect 21 0 23 0;
#X connect 22 0 24 0;
#X connect 23 0 22 1;
#X connect 26 0 17 0;
#X connect 27 0 28 0;
#X connect 28 0 43 0;
#X connect 28 1 37 0;
#X connect 29 0 35 0;
#X connect 30 0 42 0;
#X connect 31 0 32 0;
#X connect 32 0 30 0;
#X connect 33 0 34 0;
#X connect 34 0 29 0;
#X connect 35 0 31 0;
#X connect 36 0 33 0;
#X connect 37 0 38 0;
#X connect 37 0 44 1;
#X connect 37 0 66 1;
#X connect 37 0 74 1;
#X connect 37 0 78 0;
#X connect 37 0 89 0;
#X connect 38 0 39 0;
#X connect 38 1 39 1;
#X connect 39 0 30 1;
#X connect 40 0 41 0;
#X connect 41 0 14 0;
#X connect 42 0 40 0;
#X connect 43 0 44 0;
#X connect 43 1 39 0;
#X connect 44 0 26 0;
#X connect 46 0 58 0;
#X connect 47 0 50 0;
#X connect 48 0 52 0;
#X connect 49 0 47 1;
#X connect 50 0 1 0;
#X connect 51 0 50 0;
#X connect 51 0 53 0;
#X connect 51 1 46 0;
#X connect 52 0 47 1;
#X connect 53 0 47 0;
#X connect 54 0 55 0;
#X connect 55 0 60 0;
#X connect 56 0 61 0;
#X connect 57 0 58 1;
#X connect 58 0 47 0;
#X connect 60 0 56 0;
#X connect 61 0 62 0;
#X connect 62 0 57 0;
#X connect 63 0 74 0;
#X connect 64 0 69 0;
#X connect 65 1 64 0;
#X connect 66 0 70 0;
#X connect 67 0 66 0;
#X connect 68 0 66 0;
#X connect 69 0 67 0;
#X connect 69 1 68 0;
#X connect 71 0 77 0;
#X connect 72 0 75 0;
#X connect 74 0 65 0;
#X connect 75 0 73 0;
#X connect 76 0 73 0;
#X connect 77 0 72 0;
#X connect 77 0 76 0;
#X connect 78 0 77 0;
#X connect 79 0 80 0;
#X connect 80 0 81 0;
#X connect 80 1 82 0;
#X connect 81 0 83 0;
#X connect 82 0 83 0;
#X connect 84 0 85 0;
#X connect 85 0 13 0;
#X connect 86 0 87 0;
#X connect 87 0 88 0;
#X connect 88 0 89 0;
#X connect 88 1 89 1;
#X connect 89 0 60 1;
#X restore 99 284 pd Harpe;
#X msg 148 178 symbol \$1/Datas/Domozic/Harpiro;
#N canvas 59 177 669 698 Micro 0;
#X obj 193 209 limiter~;
#X obj 153 210 z~ 64;
#X obj 153 231 *~;
#X obj 151 104 *~;
#X obj 234 29 env~;
#X obj 234 71 change;
#X msg 264 148 0 500;
#X obj 234 169 line~;
#X obj 153 581 throw~ master;
#X obj 152 537 *~, f 18;
#X obj 302 540 line~;
#X msg 302 520 \$1 10;
#X obj 305 482 hsl 128 15 0 1 0 1 empty empty empty -2 -8 0 10 -262144
-1 -1 5800 1;
#X obj 302 501 pow 2;
#X obj 234 120 sel 1 0;
#X obj 331 13 r BASSE_KB;
#X obj 315 62 tgl 15 0 empty empty empty 17 7 0 10 -262144 -1 -1 0
1;
#X obj 331 34 route 0;
#X obj 234 92 *;
#X obj 259 93 t b f;
#X obj 189 342 shifter;
#X floatatom 229 280 5 0 0 0 - - -, f 5;
#X obj 271 230 fiddle~ 2048;
#X obj 317 255 unpack f f;
#X obj 317 276 t f f;
#X obj 317 318 -;
#X obj 154 269 *~ 1;
#X obj 188 270 *~ 0;
#X obj 325 123 r CONTROL;
#X obj 325 171 tgl 15 0 empty empty empty 17 7 0 10 -262144 -1 -1 0
1;
#X obj 193 246 == 0;
#X obj 317 297 gammeRound /GAMME 5;
#X msg 234 148 1 1;
#X obj 234 50 > 57;
#X obj 152 14 adc~;
#X obj 151 61 hip~ 120;
#X obj 189 309 lp4_butt~ 5000;
#X obj 96 307 hp4_butt~ 5000;
#X obj 437 249 r gammeSym;
#X msg 437 270 set \$1;
#X obj 185 402 *~ 0;
#X obj 207 383 == 0;
#X obj 153 402 *~ 1;
#X obj 153 376 +~;
#X obj 179 381 f;
#X obj 185 490 atan~;
#X obj 325 144 route swA swB;
#X obj 376 192 tgl 15 0 empty empty empty 17 7 0 10 -262144 -1 -1 0
1;
#X obj 185 423 hip~ 200;
#X obj 185 448 bp~ 2000 5;
#X obj 261 449 hip~ 7000;
#X obj 185 469 *~ 16, f 12;
#X obj 152 173 *~ 16;
#X obj 185 511 *~ 0.5;
#X obj 6 372 hsl 128 15 0 1 0 0 empty empty empty -2 -8 0 10 -262144
-1 -1 0 1;
#X obj 430 396 hsl 128 15 0 1 0 0 empty empty empty -2 -8 0 10 -262144
-1 -1 4359 1;
#X obj 43 453 clocked_delay;
#X obj 26 268 r CONTROL;
#X obj 26 289 route fx;
#X obj 56 99 r ASSIETTE1;
#X obj 56 120 unpack f f f;
#X floatatom 30 227 5 0 0 0 - - -, f 5;
#X obj 84 150 - 0.75;
#X obj 92 210 * 8;
#X obj 87 268 clip 0 1;
#X obj 84 171 abs;
#X obj 87 240 - 0.2;
#X obj 428 328 r CONTROL;
#X obj 428 349 route fx2;
#X obj 428 373 songParam SONGS bassDisto 0.1;
#X obj 355 83 s microOn;
#X connect 0 0 2 1;
#X connect 1 0 2 0;
#X connect 2 0 22 0;
#X connect 2 0 26 0;
#X connect 2 0 27 0;
#X connect 3 0 52 0;
#X connect 4 0 33 0;
#X connect 5 0 18 0;
#X connect 6 0 7 0;
#X connect 7 0 3 1;
#X connect 9 0 8 0;
#X connect 10 0 9 1;
#X connect 11 0 10 0;
#X connect 12 0 13 0;
#X connect 13 0 11 0;
#X connect 14 0 32 0;
#X connect 14 1 6 0;
#X connect 15 0 17 0;
#X connect 16 0 19 0;
#X connect 16 0 69 1;
#X connect 16 0 70 0;
#X connect 17 0 16 0;
#X connect 18 0 14 0;
#X connect 19 0 18 0;
#X connect 19 1 18 1;
#X connect 20 0 43 0;
#X connect 21 0 20 1;
#X connect 22 2 23 0;
#X connect 23 0 24 0;
#X connect 24 0 31 0;
#X connect 24 1 25 1;
#X connect 25 0 20 1;
#X connect 26 0 43 0;
#X connect 27 0 36 0;
#X connect 27 0 37 0;
#X connect 28 0 46 0;
#X connect 29 0 30 0;
#X connect 29 0 27 1;
#X connect 30 0 26 1;
#X connect 31 0 25 0;
#X connect 32 0 7 0;
#X connect 33 0 5 0;
#X connect 34 0 35 0;
#X connect 35 0 3 0;
#X connect 35 0 4 0;
#X connect 36 0 20 0;
#X connect 37 0 43 0;
#X connect 38 0 39 0;
#X connect 39 0 31 0;
#X connect 40 0 48 0;
#X connect 41 0 40 1;
#X connect 42 0 9 0;
#X connect 42 0 56 0;
#X connect 43 0 42 0;
#X connect 43 0 40 0;
#X connect 44 0 42 1;
#X connect 44 0 41 0;
#X connect 45 0 53 0;
#X connect 46 0 29 0;
#X connect 46 1 44 0;
#X connect 46 1 47 0;
#X connect 48 0 49 0;
#X connect 48 0 50 0;
#X connect 49 0 51 0;
#X connect 50 0 51 0;
#X connect 51 0 45 0;
#X connect 52 0 0 0;
#X connect 52 0 1 0;
#X connect 53 0 9 0;
#X connect 53 0 56 0;
#X connect 55 0 56 2;
#X connect 56 0 9 0;
#X connect 57 0 58 0;
#X connect 59 0 60 0;
#X connect 60 1 62 0;
#X connect 62 0 65 0;
#X connect 63 0 66 0;
#X connect 64 0 56 1;
#X connect 64 0 54 0;
#X connect 65 0 63 0;
#X connect 66 0 64 0;
#X connect 67 0 68 0;
#X connect 68 0 69 0;
#X connect 69 0 55 0;
#X restore 42 349 pd Micro;
#X obj 174 317 r CONTROL;
#X obj 174 338 route mode;
#X obj 174 359 sel 1;
#X obj 15 9 declare -path absGAMME -path ../absGAMME -path ../RecallSong
;
#X obj 174 380 5clicks;
#X obj 174 400 RecallSongMaster SONGS;
#X connect 1 0 8 0;
#X connect 2 0 3 0;
#X connect 2 1 4 0;
#X connect 3 0 5 0;
#X connect 6 0 7 0;
#X connect 8 0 2 0;
#X connect 12 0 14 0;
#X connect 13 0 12 0;
#X connect 13 0 17 0;
#X connect 14 0 33 0;
#X connect 16 0 13 0;
#X connect 17 0 18 0;
#X connect 19 0 12 0;
#X connect 21 0 22 0;
#X connect 26 0 25 0;
#X connect 28 0 27 0;
#X connect 29 0 28 0;
#X connect 29 0 26 0;
#X connect 33 0 15 0;
#X connect 35 0 36 0;
#X connect 36 0 37 0;
#X connect 37 0 39 0;
#X connect 39 0 40 0;
