#N canvas 1 81 729 443 10;
#X obj 79 244 delwrite~ \$0-del 4000;
#X obj 229 291 vd~ \$0-del;
#X obj 78 214 hip~ 20;
#N canvas 591 194 547 494 time 1;
#X obj 108 150 i;
#X obj 108 172 change;
#X msg 142 230 2 1;
#X msg 176 229 3 2;
#X msg 273 229 2 3;
#X msg 305 229 2 4;
#X obj 108 126 * 8.5;
#X msg 338 231 2 6;
#X msg 108 286 \$1 \$2;
#X obj 51 51 inlet;
#X obj 469 260 r CLOCK;
#X obj 469 310 unpack f f;
#X obj 178 54 inlet;
#X obj 51 77 list prepend 0;
#X obj 51 99 route 0 1;
#X obj 51 128 pow 2;
#X msg 51 173 \$1 200;
#X obj 51 421 line~;
#X obj 51 150 * 2000;
#X obj 108 308 /;
#X obj 108 330 pack f f;
#X obj 146 307 t b f;
#X msg 108 231 4 1;
#X obj 108 351 *;
#X msg 209 229 1 1;
#X msg 240 229 3 4;
#X obj 108 373 spigot;
#X obj 51 443 outlet~;
#X floatatom 191 385 5 0 0 0 - - -, f 5;
#X obj 469 282 route list;
#X msg 371 231 3 8;
#X msg 406 232 2 8;
#X obj 108 200 sel -1 0 1 2 3 4 5 6 7 8, f 55;
#X connect 0 0 1 0;
#X connect 1 0 32 0;
#X connect 2 0 8 0;
#X connect 3 0 8 0;
#X connect 4 0 8 0;
#X connect 5 0 8 0;
#X connect 6 0 0 0;
#X connect 7 0 8 0;
#X connect 8 0 19 0;
#X connect 9 0 13 0;
#X connect 10 0 29 0;
#X connect 11 1 21 0;
#X connect 12 0 13 1;
#X connect 12 0 26 1;
#X connect 13 0 14 0;
#X connect 14 0 15 0;
#X connect 14 1 6 0;
#X connect 15 0 18 0;
#X connect 16 0 17 0;
#X connect 17 0 27 0;
#X connect 18 0 16 0;
#X connect 19 0 20 0;
#X connect 19 0 28 0;
#X connect 20 0 23 0;
#X connect 21 0 20 0;
#X connect 21 1 20 1;
#X connect 22 0 8 0;
#X connect 23 0 26 0;
#X connect 24 0 8 0;
#X connect 25 0 8 0;
#X connect 26 0 17 0;
#X connect 29 0 11 0;
#X connect 30 0 8 0;
#X connect 31 0 8 0;
#X connect 32 0 22 0;
#X connect 32 1 2 0;
#X connect 32 2 3 0;
#X connect 32 3 24 0;
#X connect 32 4 25 0;
#X connect 32 5 4 0;
#X connect 32 6 5 0;
#X connect 32 7 7 0;
#X connect 32 8 30 0;
#X connect 32 9 31 0;
#X restore 231 118 pd time;
#X obj 231 56 * -1;
#X obj 231 78 + 1;
#X obj 42 47 inlet~;
#X obj 42 379 outlet~;
#X obj 231 33 inlet time;
#X obj 278 72 loadbang;
#X msg 278 93 1;
#X obj 111 166 *~ 0.5;
#X obj 79 143 mull~ 0 50;
#X obj 158 38 inlet send;
#X connect 1 0 7 0;
#X connect 1 0 11 0;
#X connect 2 0 0 0;
#X connect 3 0 1 0;
#X connect 4 0 5 0;
#X connect 5 0 3 0;
#X connect 6 0 12 0;
#X connect 8 0 4 0;
#X connect 9 0 10 0;
#X connect 10 0 3 1;
#X connect 11 0 2 0;
#X connect 12 0 2 0;
#X connect 13 0 12 1;
