#N canvas 142 1043 311 330 10;
#X obj 131 29 r \$1;
#X obj 131 51 f;
#X obj 168 29 inlet on;
#X obj 45 30 inlet ctler;
#X obj 45 111 spigot;
#X obj 45 235 spigot;
#X obj 45 257 t f f;
#X msg 84 206 1;
#X msg 116 206 0;
#X obj 98 160 change;
#X obj 131 73 sel 1;
#X obj 45 279 outlet;
#X obj 45 52 t f f f;
#X obj 151 172 change;
#X obj 98 110 < 0;
#X obj 151 108 - 0;
#X obj 151 130 abs;
#X obj 151 152 < 0.005;
#X connect 0 0 1 0;
#X connect 1 0 4 1;
#X connect 1 0 10 0;
#X connect 2 0 1 0;
#X connect 3 0 12 0;
#X connect 4 0 5 0;
#X connect 5 0 6 0;
#X connect 6 0 11 0;
#X connect 6 1 14 1;
#X connect 6 1 15 1;
#X connect 7 0 5 1;
#X connect 8 0 5 1;
#X connect 9 0 7 0;
#X connect 10 0 8 0;
#X connect 12 0 4 0;
#X connect 12 1 14 0;
#X connect 12 2 15 0;
#X connect 13 0 7 0;
#X connect 14 0 9 0;
#X connect 15 0 16 0;
#X connect 16 0 17 0;
#X connect 17 0 13 0;
