#N canvas 219 93 981 724 10;
#X declare -path Fraise -path Fraise/pic;
#X obj 256 68 analog/parse;
#X obj 473 203 tgl 15 0 empty empty empty 17 7 0 10 #fcfcfc #000000 #000000 0 1;
#X obj 256 90 unpack f f;
#X obj 256 137 pack f f;
#X obj 313 112 / 16384;
#X obj 516 138 tgl 15 0 empty empty empty 17 7 0 10 #fcfcfc #000000 #000000 0 1;
#X obj 331 165 unpack f f;
#X floatatom 331 187 5 0 0 0 - - - 0;
#X floatatom 399 192 5 0 0 0 - - - 0;
#X obj 256 216 route 0 1 2;
#X msg 256 263 vol \$1;
#X msg 432 308 mode \$1;
#X msg 301 264 fx \$1;
#X msg 347 265 transpose \$1;
#X msg 624 385 l0\$1;
#X obj 624 365 tgl 15 0 empty empty empty 17 7 0 10 #fcfcfc #000000 #000000 0 1;
#X obj 473 95 route s M;
#X obj 390 402 s CONTROL;
#X obj 578 306 hsl 128 15 -1023 1023 0 0 empty empty empty -2 -8 0 10 #fcfcfc #000000 #000000 0 1;
#X msg 578 282 0;
#X msg 558 342 c 120 c 4 i \$1;
#X msg 696 389 SAVE;
#X msg 605 527 c 120 c 3 i \$1;
#X floatatom 622 493 8 0 0 0 - - - 0;
#X floatatom 490 335 5 0 0 0 - - - 0;
#X obj 490 355 / 1023;
#X obj 490 376 * 16;
#X floatatom 490 397 5 0 0 0 - - - 0;
#X floatatom 682 431 5 0 0 0 - - - 0;
#X obj 682 451 * 10;
#X floatatom 722 432 5 0 0 0 - - - 0;
#X obj 722 452 * 100;
#X obj 18 140 fruit/fruit 1 harpi1 10 fw;
#X text 17 188 #define VOLPOT K1 #define FXPOT K2 #define MODELED K4 #define MODESW K10 #define SWA K11 #define SWB K12, f 19;
#X obj 18 300 fruit/fruit 1 harpi2 11 fwAxl;
#X obj 519 408 fruit/send2 harpi1;
#X obj 256 43 fruit/receive harpi1;
#X floatatom 219 293 5 0 0 0 - - - 0;
#X floatatom 254 322 5 0 0 0 - - - 0;
#X obj 473 182 route 0 1 2;
#X obj 494 204 tgl 15 0 empty empty empty 17 7 0 10 #fcfcfc #000000 #000000 0 1;
#X obj 515 225 tgl 15 0 empty empty empty 17 7 0 10 #fcfcfc #000000 #000000 0 1;
#X obj 473 161 spigot 1;
#X obj 149 517 tgl 15 0 empty empty empty 17 7 0 10 #fcfcfc #000000 #000000 0 1;
#X obj 169 517 tgl 15 0 empty empty empty 17 7 0 10 #fcfcfc #000000 #000000 0 1;
#X obj 189 517 tgl 15 0 empty empty empty 17 7 0 10 #fcfcfc #000000 #000000 0 1;
#X obj 210 517 tgl 15 0 empty empty empty 17 7 0 10 #fcfcfc #000000 #000000 0 1;
#X obj 230 517 tgl 15 0 empty empty empty 17 7 0 10 #fcfcfc #000000 #000000 0 1;
#X obj 250 517 tgl 15 0 empty empty empty 17 7 0 10 #fcfcfc #000000 #000000 0 1;
#X obj 271 517 tgl 15 0 empty empty empty 17 7 0 10 #fcfcfc #000000 #000000 0 1;
#X obj 291 517 tgl 15 0 empty empty empty 17 7 0 10 #fcfcfc #000000 #000000 0 1;
#X obj 149 490 route 0 1 2 3 4 5 6 7, f 26;
#X obj 149 467 dec2bin;
#X obj 206 467 s BASSE_KB;
#X obj 17 355 fruit/receive harpi2;
#X obj 121 441 route 1 10;
#X msg 388 667 L\$1;
#X obj 388 644 tgl 15 0 empty empty set_LED 18 7 0 10 #00fc04 #000000 #000000 0 1;
#X obj 289 619 8leds ------------, f 23;
#X msg 289 641 c 10 c \$1;
#X obj 289 689 fruit/send2 harpi2;
#X obj 149 595 s AXL_SEPARATION;
#X msg 156 561 20;
#X msg 195 561 80;
#X msg 123 560 5;
#X msg 230 560 200;
#X obj 121 538 axlprocess 1;
#X obj 553 589 r AXLSLOW1;
#X obj 553 611 unpack f f f;
#X floatatom 521 639 8 0 0 0 - - - 0;
#X floatatom 587 634 5 0 0 0 - - - 0;
#X floatatom 628 638 5 0 0 0 - - - 0;
#X obj 17 412 route s, f 15;
#X obj 657 343 r TEMPOLED;
#X obj 17 433 route 0 1 2;
#X obj 17 456 tgl 15 0 empty empty empty 17 7 0 10 #fcfcfc #000000 #000000 0 1;
#X obj 38 458 tgl 15 0 empty empty empty 17 7 0 10 #fcfcfc #000000 #000000 0 1;
#X obj 59 458 tgl 15 0 empty empty empty 17 7 0 10 #fcfcfc #000000 #000000 0 1;
#X obj 330 428 analog/parse;
#X obj 330 448 route 0;
#X floatatom 331 517 5 0 0 0 - - - 0;
#X obj 333 479 / 8192;
#X msg 436 687 R;
#X obj 289 596 tgl 15 0 empty empty empty 17 7 0 10 #fcfcfc #000000 #000000 0 1;
#X obj 309 596 tgl 15 0 empty empty empty 17 7 0 10 #fcfcfc #000000 #000000 0 1;
#X obj 329 596 tgl 15 0 empty empty empty 17 7 0 10 #fcfcfc #000000 #000000 0 1;
#X obj 350 596 tgl 15 0 empty empty empty 17 7 0 10 #fcfcfc #000000 #000000 0 1;
#X obj 370 596 tgl 15 0 empty empty empty 17 7 0 10 #fcfcfc #000000 #000000 0 1;
#X obj 390 596 tgl 15 0 empty empty empty 17 7 0 10 #fcfcfc #000000 #000000 0 1;
#X obj 411 596 tgl 15 0 empty empty empty 17 7 0 10 #fcfcfc #000000 #000000 0 1;
#X obj 431 596 tgl 15 0 empty empty empty 17 7 0 10 #fcfcfc #000000 #000000 0 1;
#X msg 464 278 swA \$1;
#X msg 503 251 swB \$1;
#X obj 17 593 s CONTROL;
#X msg 17 569 push \$1;
#X msg 38 544 swC \$1;
#X obj 38 480 * -1;
#X obj 38 501 i;
#X obj 38 522 change;
#X obj 289 555 r BASSE_LEDS;
#X obj 466 505 r BASSE_KB;
#X obj 524 524 tgl 15 0 empty empty empty 17 7 0 10 #fcfcfc #000000 #000000 0 1;
#X obj 466 549 s BASSE_LEDS;
#X obj 289 575 route 7 6 5 4 3 2 1 0, f 26;
#X floatatom 85 543 5 0 0 0 - - - 0;
#X obj 719 612 unpack f f f;
#X floatatom 687 640 8 0 0 0 - - - 0;
#X floatatom 753 635 5 0 0 0 - - - 0;
#X floatatom 794 639 5 0 0 0 - - - 0;
#X obj 719 590 r ASSIETTE1;
#X msg 382 468 fx2 \$1;
#X obj 466 526 spigot 0;
#X obj 797 399 loadbang;
#X obj 797 423 tgl 15 0 empty empty empty 17 7 0 10 #fcfcfc #000000 #000000 0 1;
#X obj 797 496 bng 15 250 50 0 empty empty empty 17 7 0 10 #fcfcfc #000000 #000000;
#X msg 873 443 stop;
#X msg 830 533 666;
#X floatatom 830 554 5 0 0 0 - - - 0;
#X obj 83 652 s axlrcvd;
#X obj 874 423 r axlrcvd;
#X obj 797 446 metro 2000;
#X obj 797 467 del 1500;
#X obj 83 629 change;
#X obj 83 609 unpack f f;
#X obj 55 373 loadbang;
#X msg 55 393 1, f 1;
#X obj 515 204 == 0;
#X obj 21 38 pied/pied 1;
#X obj 21 16 declare -path Fraise -path Fraise/pic;
#X connect 0 0 2 0;
#X connect 0 1 16 0;
#X connect 1 0 11 0;
#X connect 2 0 3 0;
#X connect 2 1 4 0;
#X connect 3 0 9 0;
#X connect 4 0 3 1;
#X connect 5 0 42 1;
#X connect 6 0 7 0;
#X connect 6 1 8 0;
#X connect 9 0 10 0;
#X connect 9 0 37 0;
#X connect 9 1 12 0;
#X connect 9 1 38 0;
#X connect 9 2 13 0;
#X connect 10 0 17 0;
#X connect 11 0 17 0;
#X connect 12 0 17 0;
#X connect 13 0 17 0;
#X connect 14 0 35 1;
#X connect 15 0 14 0;
#X connect 16 0 42 0;
#X connect 18 0 20 0;
#X connect 18 0 24 0;
#X connect 19 0 18 0;
#X connect 20 0 35 0;
#X connect 21 0 35 1;
#X connect 22 0 35 0;
#X connect 23 0 22 0;
#X connect 24 0 25 0;
#X connect 25 0 26 0;
#X connect 26 0 27 0;
#X connect 28 0 29 0;
#X connect 29 0 23 0;
#X connect 30 0 31 0;
#X connect 31 0 23 0;
#X connect 36 0 0 0;
#X connect 39 0 1 0;
#X connect 39 1 40 0;
#X connect 39 2 126 0;
#X connect 40 0 91 0;
#X connect 41 0 92 0;
#X connect 42 0 39 0;
#X connect 51 0 43 0;
#X connect 51 1 44 0;
#X connect 51 2 45 0;
#X connect 51 3 46 0;
#X connect 51 4 47 0;
#X connect 51 5 48 0;
#X connect 51 6 49 0;
#X connect 51 7 50 0;
#X connect 52 0 51 0;
#X connect 52 0 53 0;
#X connect 54 0 72 0;
#X connect 55 0 66 0;
#X connect 55 0 123 0;
#X connect 55 1 52 0;
#X connect 55 2 78 0;
#X connect 56 0 60 1;
#X connect 57 0 56 0;
#X connect 58 0 59 0;
#X connect 59 0 60 0;
#X connect 62 0 61 0;
#X connect 63 0 61 0;
#X connect 64 0 61 0;
#X connect 65 0 61 0;
#X connect 68 0 69 0;
#X connect 68 1 70 0;
#X connect 68 2 71 0;
#X connect 72 0 74 0;
#X connect 72 1 55 0;
#X connect 73 0 15 0;
#X connect 73 0 90 0;
#X connect 74 0 75 0;
#X connect 74 1 76 0;
#X connect 74 2 77 0;
#X connect 75 0 94 0;
#X connect 76 0 96 0;
#X connect 77 0 97 0;
#X connect 78 0 79 0;
#X connect 79 0 81 0;
#X connect 81 0 110 0;
#X connect 82 0 60 1;
#X connect 83 0 58 0;
#X connect 84 0 58 1;
#X connect 85 0 58 2;
#X connect 86 0 58 3;
#X connect 87 0 58 4;
#X connect 88 0 58 5;
#X connect 89 0 58 6;
#X connect 90 0 58 7;
#X connect 91 0 17 0;
#X connect 92 0 17 0;
#X connect 94 0 93 0;
#X connect 95 0 93 0;
#X connect 96 0 97 0;
#X connect 97 0 98 0;
#X connect 98 0 95 0;
#X connect 98 0 104 0;
#X connect 99 0 103 0;
#X connect 100 0 111 0;
#X connect 101 0 111 1;
#X connect 103 0 83 0;
#X connect 103 1 84 0;
#X connect 103 2 85 0;
#X connect 103 3 86 0;
#X connect 103 4 87 0;
#X connect 103 5 88 0;
#X connect 103 6 89 0;
#X connect 103 7 90 0;
#X connect 105 0 106 0;
#X connect 105 1 107 0;
#X connect 105 2 108 0;
#X connect 110 0 17 0;
#X connect 111 0 102 0;
#X connect 112 0 113 0;
#X connect 113 0 120 0;
#X connect 114 0 82 0;
#X connect 114 0 116 0;
#X connect 115 0 121 0;
#X connect 116 0 117 0;
#X connect 119 0 115 0;
#X connect 120 0 121 0;
#X connect 121 0 114 0;
#X connect 122 0 118 0;
#X connect 123 0 122 0;
#X connect 124 0 125 0;
#X connect 125 0 76 0;
#X connect 126 0 41 0;
