#N canvas 401 113 981 697 10;
#X declare -path Fraise -stdpath Fraise;
#X obj 21 16 declare -path Fraise -stdpath Fraise;
#X obj 21 38 pied/pied 0 41424;
#X obj 256 68 analog/parse;
#X obj 473 203 tgl 15 0 empty empty empty 17 7 0 10 -262144 -1 -1 0
1;
#X obj 256 90 unpack f f;
#X obj 256 137 pack f f;
#X obj 313 112 / 16384;
#X obj 516 138 tgl 15 0 empty empty empty 17 7 0 10 -262144 -1 -1 0
1;
#X obj 331 165 unpack f f;
#X floatatom 331 187 5 0 0 0 - - -, f 5;
#X floatatom 399 192 5 0 0 0 - - -, f 5;
#X obj 256 216 route 0 1 2;
#X msg 256 263 vol \$1;
#X msg 473 307 mode \$1;
#X msg 301 264 fx \$1;
#X msg 347 265 transpose \$1;
#X msg 624 385 l0\$1;
#X obj 624 365 tgl 15 0 empty empty empty 17 7 0 10 -262144 -1 -1 1
1;
#X obj 473 95 route s M;
#X obj 390 402 s CONTROL;
#X floatatom 590 155 8 0 0 0 - - -, f 8;
#X obj 578 306 hsl 128 15 -1023 1023 0 0 empty empty empty -2 -8 0
10 -262144 -1 -1 0 1;
#X msg 578 282 0;
#X msg 558 342 c 120 c 4 i \$1;
#X msg 696 389 SAVE;
#X msg 605 527 c 120 c 3 i \$1;
#X floatatom 622 493 8 0 0 0 - - -, f 8;
#X floatatom 490 335 5 0 0 0 - - -, f 5;
#X obj 490 355 / 1023;
#X obj 490 376 * 16;
#X floatatom 490 397 5 0 0 0 - - -, f 5;
#X floatatom 682 431 5 0 0 0 - - -, f 5;
#X obj 682 451 * 10;
#X obj 638 73 f;
#X obj 638 94 t f f;
#X obj 640 123 -;
#X obj 638 210 +;
#X obj 667 209 * 0.9;
#X floatatom 638 231 8 0 0 0 - - -, f 8;
#X obj 637 2 tgl 15 0 empty empty empty 17 7 0 10 -262144 -1 -1 0 1
;
#X obj 641 253 mavg 20;
#X floatatom 641 274 8 0 0 0 - - -, f 8;
#X floatatom 684 173 5 0 0 0 - - -, f 5;
#X floatatom 726 281 8 0 0 0 - - -, f 8;
#X obj 726 260 mavg 200;
#X obj 697 102 + 32768;
#X obj 697 123 mod 65536;
#X obj 697 144 - 32768;
#X floatatom 722 432 5 0 0 0 - - -, f 5;
#X obj 722 452 * 100;
#X obj 839 254 lop~ 10;
#X obj 839 296 *~ 0.1;
#X obj 839 317 dac~;
#X obj 836 163 * 130;
#X obj 836 184 mtof;
#X obj 839 275 ssaw~;
#X obj 838 103 abs;
#X floatatom 880 180 5 0 0 0 - - -, f 5;
#X obj 836 205 - 8.175;
#X floatatom 727 45 5 0 0 0 - - -, f 5;
#X obj 638 34 metro 5;
#X obj 638 189 * 360;
#X obj 836 142 / 4000;
#X obj 18 140 fruit/fruit 1 harpi1 10 fw;
#X text 17 188 #define VOLPOT K1 #define FXPOT K2 #define MODELED K4
#define MODESW K10 #define SWA K11 #define SWB K12, f 19;
#X obj 18 300 fruit/fruit 1 harpi2 11 fwAxl;
#X obj 519 408 fruit/send2 harpi1;
#X obj 256 43 fruit/receive harpi1;
#X floatatom 219 293 5 0 0 0 - - -, f 5;
#X floatatom 254 322 5 0 0 0 - - -, f 5;
#X obj 473 182 route 0 1 2;
#X obj 494 204 tgl 15 0 empty empty empty 17 7 0 10 -262144 -1 -1 0
1;
#X obj 515 204 tgl 15 0 empty empty empty 17 7 0 10 -262144 -1 -1 0
1;
#X obj 473 161 spigot 1;
#X obj 132 510 tgl 15 0 empty empty empty 17 7 0 10 -262144 -1 -1 0
1;
#X obj 152 510 tgl 15 0 empty empty empty 17 7 0 10 -262144 -1 -1 0
1;
#X obj 172 510 tgl 15 0 empty empty empty 17 7 0 10 -262144 -1 -1 0
1;
#X obj 193 510 tgl 15 0 empty empty empty 17 7 0 10 -262144 -1 -1 0
1;
#X obj 213 510 tgl 15 0 empty empty empty 17 7 0 10 -262144 -1 -1 0
1;
#X obj 233 510 tgl 15 0 empty empty empty 17 7 0 10 -262144 -1 -1 0
1;
#X obj 254 510 tgl 15 0 empty empty empty 17 7 0 10 -262144 -1 -1 0
1;
#X obj 274 510 tgl 15 0 empty empty empty 17 7 0 10 -262144 -1 -1 0
1;
#X obj 132 483 route 0 1 2 3 4 5 6 7, f 26;
#X obj 132 460 dec2bin;
#X obj 189 460 s BASSE_KB;
#X obj 17 361 fruit/receive harpi2;
#X obj 104 434 route 1 10;
#X msg 371 652 L\$1;
#X obj 371 629 tgl 15 0 empty empty set_LED 18 7 0 10 -4034 -1 -1 0
1;
#X obj 272 604 8leds ------------, f 23;
#X msg 272 626 c 10 c \$1;
#X obj 272 674 fruit/send2 harpi2;
#X obj 132 588 s AXL_SEPARATION;
#X msg 139 554 20;
#X msg 178 554 80;
#X msg 106 553 5;
#X msg 213 553 200;
#X obj 104 531 axlprocess 1;
#X obj 100 613 r AXLSLOW1;
#X obj 100 635 unpack f f f;
#X floatatom 100 660 5 0 0 0 - - -, f 5;
#X floatatom 134 658 5 0 0 0 - - -, f 5;
#X floatatom 175 662 5 0 0 0 - - -, f 5;
#X obj 17 412 route s, f 15;
#X obj 19 479 s CORDE_SW;
#X obj 657 343 r TEMPOLED;
#X obj 17 433 route 0 1 2;
#X obj 17 456 tgl 15 0 empty empty empty 17 7 0 10 -262144 -1 -1 0
1;
#X obj 38 458 tgl 15 0 empty empty empty 17 7 0 10 -262144 -1 -1 0
1;
#X obj 59 458 tgl 15 0 empty empty empty 17 7 0 10 -262144 -1 -1 0
1;
#X obj 341 451 analog/parse;
#X obj 341 471 route 0;
#X floatatom 342 540 5 0 0 0 - - -, f 5;
#X obj 344 502 / 8192;
#X msg 419 673 R;
#X obj 269 576 tgl 15 0 empty empty empty 17 7 0 10 -262144 -1 -1 0
1;
#X obj 289 576 tgl 15 0 empty empty empty 17 7 0 10 -262144 -1 -1 0
1;
#X obj 309 576 tgl 15 0 empty empty empty 17 7 0 10 -262144 -1 -1 0
1;
#X obj 330 576 tgl 15 0 empty empty empty 17 7 0 10 -262144 -1 -1 0
1;
#X obj 350 576 tgl 15 0 empty empty empty 17 7 0 10 -262144 -1 -1 0
1;
#X obj 370 576 tgl 15 0 empty empty empty 17 7 0 10 -262144 -1 -1 0
1;
#X obj 391 576 tgl 15 0 empty empty empty 17 7 0 10 -262144 -1 -1 0
1;
#X obj 411 576 tgl 15 0 empty empty empty 17 7 0 10 -262144 -1 -1 0
1;
#X connect 2 0 4 0;
#X connect 2 1 18 0;
#X connect 3 0 13 0;
#X connect 4 0 5 0;
#X connect 4 1 6 0;
#X connect 5 0 11 0;
#X connect 6 0 5 1;
#X connect 7 0 73 1;
#X connect 8 0 9 0;
#X connect 8 1 10 0;
#X connect 11 0 12 0;
#X connect 11 0 68 0;
#X connect 11 1 14 0;
#X connect 11 1 69 0;
#X connect 11 2 15 0;
#X connect 12 0 19 0;
#X connect 13 0 19 0;
#X connect 14 0 19 0;
#X connect 15 0 19 0;
#X connect 16 0 66 1;
#X connect 17 0 16 0;
#X connect 18 0 73 0;
#X connect 18 1 33 1;
#X connect 18 1 20 0;
#X connect 21 0 23 0;
#X connect 21 0 27 0;
#X connect 22 0 21 0;
#X connect 23 0 66 0;
#X connect 24 0 66 1;
#X connect 25 0 66 0;
#X connect 26 0 25 0;
#X connect 27 0 28 0;
#X connect 28 0 29 0;
#X connect 29 0 30 0;
#X connect 31 0 32 0;
#X connect 32 0 26 0;
#X connect 33 0 34 0;
#X connect 34 0 35 1;
#X connect 34 1 35 0;
#X connect 35 0 45 0;
#X connect 36 0 37 0;
#X connect 36 0 38 0;
#X connect 37 0 36 1;
#X connect 38 0 40 0;
#X connect 38 0 56 0;
#X connect 39 0 60 0;
#X connect 40 0 41 0;
#X connect 41 0 44 0;
#X connect 42 0 61 1;
#X connect 44 0 43 0;
#X connect 45 0 46 0;
#X connect 46 0 47 0;
#X connect 47 0 61 0;
#X connect 48 0 49 0;
#X connect 49 0 26 0;
#X connect 50 0 55 0;
#X connect 51 0 52 0;
#X connect 51 0 52 1;
#X connect 53 0 54 0;
#X connect 54 0 57 0;
#X connect 54 0 58 0;
#X connect 55 0 51 0;
#X connect 56 0 62 0;
#X connect 58 0 50 0;
#X connect 60 0 33 0;
#X connect 61 0 36 0;
#X connect 62 0 53 0;
#X connect 67 0 2 0;
#X connect 70 0 3 0;
#X connect 70 1 71 0;
#X connect 70 2 72 0;
#X connect 73 0 70 0;
#X connect 82 0 74 0;
#X connect 82 1 75 0;
#X connect 82 2 76 0;
#X connect 82 3 77 0;
#X connect 82 4 78 0;
#X connect 82 5 79 0;
#X connect 82 6 80 0;
#X connect 82 7 81 0;
#X connect 83 0 82 0;
#X connect 83 0 84 0;
#X connect 85 0 103 0;
#X connect 86 0 97 0;
#X connect 86 1 83 0;
#X connect 86 2 110 0;
#X connect 87 0 91 1;
#X connect 88 0 87 0;
#X connect 89 0 90 0;
#X connect 90 0 91 0;
#X connect 93 0 92 0;
#X connect 94 0 92 0;
#X connect 95 0 92 0;
#X connect 96 0 92 0;
#X connect 99 0 100 0;
#X connect 99 1 101 0;
#X connect 99 2 102 0;
#X connect 103 0 106 0;
#X connect 103 1 86 0;
#X connect 105 0 17 0;
#X connect 106 0 107 0;
#X connect 106 1 108 0;
#X connect 106 2 109 0;
#X connect 110 0 111 0;
#X connect 111 0 113 0;
#X connect 113 0 112 0;
#X connect 114 0 91 1;
#X connect 115 0 89 0;
#X connect 116 0 89 1;
#X connect 117 0 89 2;
#X connect 118 0 89 3;
#X connect 119 0 89 4;
#X connect 120 0 89 5;
#X connect 121 0 89 6;
#X connect 122 0 89 7;
