#N canvas 108 92 593 627 10;
#X declare -path notebank;
#X declare -stdpath motex -path motex -lib motex;
#X declare -stdpath iemlib -lib iemlib1;
#X declare -path absGAMME -path ../absGAMME -path ../RecallSong;
#X obj 28 113 fraise_interface;
#X obj 402 10 r CLOCK;
#X obj 402 53 unpack f f;
#X floatatom 402 75 5 0 0 0 - - -, f 5;
#X floatatom 459 75 5 0 0 0 - - -, f 5;
#X obj 402 100 bng 50 50 50 0 empty empty empty 17 7 0 10 -262144 -1
-1;
#X obj 479 107 r /BPM;
#X floatatom 479 129 5 0 0 0 - - -, f 5;
#X obj 402 31 route list;
#N canvas 34 410 783 457 notebanks 0;
#X obj 27 9 declare -path notebank;
#X obj 246 20 accorder;
#X obj 25 63 notebank 1 7 Chants/ChantsAurore;
#X obj 24 81 notebank 2 8 Chants/ChantsBrigitte;
#X obj 24 100 notebank 3 2 Chants/ChantsCollectifs;
#X obj 24 118 notebank 4 5 Chants/ChantsCorine;
#X obj 24 136 notebank 5 8 Chants/ChantsHubert;
#X obj 24 154 notebank 6 7 Chants/ChantsJean;
#X obj 24 191 notebank 8 4 Chants/ChantsMichele;
#X obj 24 217 notebank 9 6 Chants/ChantsMoricette;
#X obj 24 235 notebank 10 5 Chants/ChantsNicole;
#X obj 24 253 notebank 11 5 Chants/ChantsPatricia;
#X obj 24 271 notebank 12 5 Chants/ChantsPierre;
#X obj 24 289 notebank 13 4 Chants/ChantsRoro;
#X obj 24 307 notebank 14 3 Chants/ChantsVirginie;
#X obj 24 172 notebank 7 6 Chants/ChantsMarie-Eve;
#X obj 23 329 notebank 15 8 RTWOS/ChantDenis 1.23 1.467;
#X obj 23 348 notebank 16 16 RTWOS/ChantNathalie 1.23 1.467;
#X obj 305 254 notebank 19 8 RTWOS/GtDidier 1.23 1.467;
#X obj 306 217 notebank 17 8 RTWOS/Epinette 4.23 1.467;
#X obj 305 235 notebank 18 8 RTWOS/BanjoSeb 2 1.467;
#X obj 306 272 notebank 20 8 RTWOS/PianoDenis 3 1.467;
#X obj 308 310 notebank 22 8 RTWOS/FluteB 2 1.467;
#X obj 308 328 notebank 23 8 RTWOS/GtElecClairSeb 2 1.467;
#X obj 309 346 notebank 24 8 RTWOS/ToyPiano 1.2 1.467;
#X obj 307 291 notebank 21 8 RTWOS/Cello 2 1.467;
#X obj 304 138 notebank 25 4 Gongs;
#X restore 28 154 pd notebanks;
#X obj 27 28 declare -stdpath motex -path motex -lib motex;
#X obj 148 137 getenv HOME;
#X obj 148 118 bng 15 250 50 0 empty empty empty 17 7 0 10 -262144
-1 -1;
#X symbolatom 148 158 10 0 0 0 - - -, f 10;
#X obj 148 199 s DATASDIR;
#X obj 148 97 loadbang;
#X obj 124 225 del 100;
#X obj 124 246 s LOADTABLES;
#X obj 125 140 bng 15 250 50 0 empty empty empty 17 7 0 10 -262144
-1 -1;
#N canvas 194 83 969 653 Repassage 0;
#X obj 332 468 throw~ master;
#X obj 306 165 r Repassage-play;
#X obj 306 186 t a b;
#X obj 306 242 list prepend;
#X obj 306 289 s Repassage-notes;
#X obj 359 209 mod 16;
#X obj 359 191 + 1;
#X obj 333 208 f;
#X obj 764 477 s Repassage-notes;
#X obj 331 412 *~;
#X obj 346 392 line~;
#X msg 346 372 \$1 10;
#X obj 425 373 hsl 128 15 0 1 0 1 empty empty empty -2 -8 0 10 -262144
-1 -1 10199 1;
#X obj 52 173 f;
#X obj 52 194 t f f, f 11;
#X obj 115 236 tabread;
#X msg 115 216 set notelength-\$1 \, 0;
#X obj 115 257 t b f;
#X obj 115 278 random;
#X obj 52 321 list append;
#X obj 52 366 s Repassage-play;
#X obj 79 172 + 1;
#X obj 85 127 bng 15 250 50 0 empty empty empty 17 7 0 10 -262144 -1
-1;
#X obj 115 299 + 1;
#X obj 331 445 hip~ 20;
#X obj 79 151 random 14;
#X obj 483 80 hradio 15 1 0 5 empty empty empty 0 -8 0 10 -262144 -1
-1 2;
#X obj 699 126 hradio 15 1 0 3 empty empty empty 0 -8 0 10 -262144
-1 -1 2;
#N canvas 1 81 450 300 mode->bank/gamme 0;
#X obj 140 30 r REPASSE;
#X obj 140 51 route play mode, f 23;
#X obj 140 137 route 1;
#X msg 140 72 \$2 \$1;
#X obj 140 93 route 1;
#X obj 140 158 moses 5, f 8;
#X obj 185 180 - 5;
#X obj 185 201 outlet;
#X obj 140 201 outlet;
#X floatatom 87 201 5 0 0 0 - - -, f 5;
#X floatatom 94 124 5 0 0 0 - - -, f 5;
#X obj 228 115 tgl 15 0 empty empty empty 17 7 0 10 -262144 -1 -1 0
1;
#X obj 140 116 list prepend, f 29;
#X connect 0 0 1 0;
#X connect 1 0 3 0;
#X connect 1 1 11 0;
#X connect 1 1 12 1;
#X connect 2 0 5 0;
#X connect 2 0 9 0;
#X connect 3 0 4 0;
#X connect 4 0 10 0;
#X connect 4 0 12 0;
#X connect 5 0 8 0;
#X connect 5 1 6 0;
#X connect 6 0 7 0;
#X connect 12 0 2 0;
#X restore 414 35 pd mode->bank/gamme;
#X obj 699 146 sel 0 1 2, f 39;
#X obj 699 209 s Repassage-notes;
#X msg 858 168 gamme /GAMME;
#X msg 776 169 gamme /CHORD;
#X msg 699 169 gamme /BASS;
#X msg 483 188 1 2 3 4 5 6 7 8;
#X obj 53 7 table Repasse-banks 10;
#X obj 483 254 list prepend 0;
#X obj 483 275 s Repasse-banks;
#X obj 490 160 loadbang;
#N canvas 1 297 263 224 play 0;
#X obj 53 25 r REPASSE;
#X obj 53 46 route play mode, f 23;
#X msg 53 67 \$2 \$1;
#X obj 93 190 route 1;
#X obj 53 157 outlet;
#X obj 53 132 route 0;
#X floatatom 128 161 5 0 0 0 - - -, f 5;
#X obj 53 111 list prepend 0;
#X connect 0 0 1 0;
#X connect 1 0 2 0;
#X connect 1 1 7 1;
#X connect 2 0 7 0;
#X connect 3 0 6 0;
#X connect 5 0 4 0;
#X connect 7 0 5 0;
#X restore 52 33 pd play;
#X obj 52 100 tabread Repasse-banks;
#X obj 790 125 loadbang;
#X msg 764 453 transpose \$1;
#N canvas 1 189 391 277 deadzone 0;
#X obj 163 42 hsl 128 15 0 1 0 0 empty empty empty -2 -8 0 10 -262144
-1 -1 0 1;
#X obj 115 79 * 7;
#X obj 115 100 - 3.5;
#X obj 115 121 moses -0.5;
#X obj 115 184 / 3;
#X obj 185 121 moses 0.5;
#X msg 185 183 0;
#X obj 167 238 hsl 128 15 -1 1 0 0 empty empty empty -2 -8 0 10 -262144
-1 -1 12678 1;
#X obj 115 205 f;
#X floatatom 81 122 5 0 0 0 - - -, f 5;
#X obj 115 142 + 0.5;
#X obj 236 141 - 0.5;
#X obj 115 41 inlet;
#X obj 115 226 outlet;
#X floatatom 52 81 5 0 0 0 - - -, f 5;
#X connect 1 0 2 0;
#X connect 2 0 3 0;
#X connect 2 0 9 0;
#X connect 3 0 10 0;
#X connect 3 1 5 0;
#X connect 4 0 8 0;
#X connect 5 0 6 0;
#X connect 5 1 11 0;
#X connect 6 0 8 0;
#X connect 8 0 13 0;
#X connect 8 0 7 0;
#X connect 10 0 4 0;
#X connect 11 0 4 0;
#X connect 12 0 1 0;
#X connect 12 0 14 0;
#X restore 764 409 pd deadzone;
#X obj 677 255 r REPASSE;
#X obj 764 430 * 24;
#X obj 677 277 route vol fx transpose;
#X obj 52 148 + 0;
#X obj 483 399 hsl 128 15 0 1 0 1 empty empty empty -2 -8 0 10 -262144
-1 -1 12 1;
#X msg 508 207 9 10 11 12 13 14 15 16;
#X msg 533 227 17 18 19 20 21 22 23 24;
#X obj 52 342 list append, f 23;
#X obj 52 54 route 1 0, f 24;
#X obj 52 75 t f f, f 23;
#X msg 271 140 stopkey \$1;
#X obj 271 98 spigot;
#X obj 271 119 pipe 150;
#X obj 483 140 sel 0 1 2, f 13;
#X obj 414 59 sel 3 4, f 12;
#X msg 414 82 0;
#X msg 448 82 1;
#X obj 414 106 tgl 15 0 empty empty empty 17 7 0 10 -262144 -1 -1 1
1;
#X msg 306 263 play \$1 \$2 \$3 \$4;
#X obj 483 120 hradio 15 1 0 5 empty empty empty 0 -8 0 10 -262144
-1 -1 2;
#X obj 699 82 hradio 15 1 0 3 empty empty empty 0 -8 0 10 -262144 -1
-1 2;
#X obj 304 77 tgl 15 0 empty empty empty 17 7 0 10 -262144 -1 -1 0
1;
#X obj 764 387 songParam SONGS repassTranspose 0.1;
#X obj 483 100 songParam SONGS repassBank;
#X obj 699 101 songParam SONGS repassGamme;
#X obj 304 12 songParam SONGS repassShort;
#N canvas 150 266 999 502 vibrato 0;
#X obj 115 8 r FER1;
#X obj 190 87 < -0.5;
#X obj 115 45 t a a, f 13;
#X obj 115 109 unpack f f;
#X msg 115 88 \$1 \$3;
#X msg 190 65 \$2;
#X obj 115 66 spigot;
#X obj 115 193 swap 1000;
#X obj 115 214 /;
#X obj 115 132 * 20;
#X obj 210 132 sel 0;
#X obj 52 217 tgl 15 0 empty empty empty 17 7 0 10 -262144 -1 -1 0
1;
#X obj 52 194 loadbang;
#X obj 52 237 metro 500, f 11;
#X obj 52 258 i;
#X obj 81 259 == 0;
#X obj 52 279 - 0.5;
#X obj 52 300 *;
#X obj 52 367 s Repassage-notes;
#X msg 52 343 vibrato \$1;
#X msg 210 165 0;
#X obj 115 153 + 8;
#X obj 172 130 * -2;
#X obj 115 174 clip 0.5 20;
#X obj 172 153 + 0;
#X obj 210 112 change;
#X obj 261 119 tgl 15 0 empty empty empty 17 7 0 10 -262144 -1 -1 0
1;
#X obj 52 321 change;
#X obj 423 88 < -0.5;
#X obj 348 46 t a a, f 13;
#X obj 348 110 unpack f f;
#X msg 348 89 \$1 \$3;
#X msg 423 66 \$2;
#X obj 348 67 spigot;
#X obj 348 194 swap 1000;
#X obj 348 215 /;
#X obj 348 133 * 20;
#X obj 443 133 sel 0;
#X obj 285 218 tgl 15 0 empty empty empty 17 7 0 10 -262144 -1 -1 0
1;
#X obj 285 195 loadbang;
#X obj 285 238 metro 500, f 11;
#X obj 285 259 i;
#X obj 314 260 == 0;
#X obj 285 280 - 0.5;
#X obj 285 301 *;
#X obj 285 368 s Repassage-notes;
#X msg 285 344 vibrato \$1;
#X msg 443 166 0;
#X obj 348 154 + 8;
#X obj 405 131 * -2;
#X obj 348 175 clip 0.5 20;
#X obj 405 154 + 0;
#X obj 443 113 change;
#X obj 494 120 tgl 15 0 empty empty empty 17 7 0 10 -262144 -1 -1 0
1;
#X obj 285 322 change;
#X obj 348 9 r FER2;
#X floatatom 234 331 5 0 0 0 - - -, f 5;
#X obj 564 51 r FER1;
#X obj 639 119 < -0.5;
#X obj 564 77 t a a, f 13;
#X obj 564 141 unpack f f;
#X msg 564 120 \$1 \$3;
#X msg 639 97 \$2;
#X obj 564 98 spigot;
#X obj 564 166 +;
#X obj 639 160 sel 0;
#X msg 639 181 0;
#X obj 639 140 change;
#X obj 700 146 tgl 15 0 empty empty empty 17 7 0 10 -262144 -1 -1 0
1;
#X obj 819 119 < -0.5;
#X obj 744 77 t a a, f 13;
#X obj 744 141 unpack f f;
#X msg 744 120 \$1 \$3;
#X msg 819 97 \$2;
#X obj 744 98 spigot;
#X obj 744 166 +;
#X obj 819 160 sel 0;
#X msg 819 181 0;
#X obj 819 140 change;
#X obj 880 146 tgl 15 0 empty empty empty 17 7 0 10 -262144 -1 -1 0
1;
#X obj 744 51 r FER2;
#X obj 564 236 +;
#X obj 564 288 +;
#X obj 573 261 t b f;
#X msg 564 333 vibrato \$1;
#X obj 564 354 s Repassage-notes;
#X msg 744 205 \$1;
#X msg 564 206 \$1;
#X obj 564 309 change;
#X obj 628 237 r repasseVibrato;
#X connect 1 0 6 1;
#X connect 1 0 25 0;
#X connect 1 0 26 0;
#X connect 2 0 6 0;
#X connect 2 1 5 0;
#X connect 3 0 9 0;
#X connect 3 1 22 0;
#X connect 4 0 3 0;
#X connect 5 0 1 0;
#X connect 6 0 4 0;
#X connect 7 0 8 0;
#X connect 7 1 8 1;
#X connect 8 0 13 1;
#X connect 9 0 21 0;
#X connect 10 0 20 0;
#X connect 11 0 13 0;
#X connect 13 0 14 0;
#X connect 14 0 15 0;
#X connect 14 0 16 0;
#X connect 15 0 14 1;
#X connect 16 0 17 0;
#X connect 17 0 27 0;
#X connect 19 0 18 0;
#X connect 20 0 17 1;
#X connect 21 0 23 0;
#X connect 22 0 24 0;
#X connect 23 0 7 0;
#X connect 24 0 17 1;
#X connect 25 0 10 0;
#X connect 27 0 19 0;
#X connect 28 0 33 1;
#X connect 28 0 52 0;
#X connect 28 0 53 0;
#X connect 29 0 33 0;
#X connect 29 1 32 0;
#X connect 30 0 36 0;
#X connect 30 1 49 0;
#X connect 31 0 30 0;
#X connect 32 0 28 0;
#X connect 33 0 31 0;
#X connect 34 0 35 0;
#X connect 34 1 35 1;
#X connect 35 0 40 1;
#X connect 36 0 48 0;
#X connect 37 0 47 0;
#X connect 38 0 40 0;
#X connect 40 0 41 0;
#X connect 41 0 42 0;
#X connect 41 0 43 0;
#X connect 42 0 41 1;
#X connect 43 0 44 0;
#X connect 44 0 54 0;
#X connect 44 0 56 0;
#X connect 46 0 45 0;
#X connect 47 0 44 1;
#X connect 48 0 50 0;
#X connect 49 0 51 0;
#X connect 50 0 34 0;
#X connect 51 0 44 1;
#X connect 52 0 37 0;
#X connect 54 0 46 0;
#X connect 57 0 59 0;
#X connect 58 0 63 1;
#X connect 58 0 67 0;
#X connect 59 0 63 0;
#X connect 59 1 62 0;
#X connect 60 0 64 0;
#X connect 60 1 64 1;
#X connect 61 0 60 0;
#X connect 62 0 58 0;
#X connect 63 0 61 0;
#X connect 64 0 87 0;
#X connect 65 0 66 0;
#X connect 66 0 87 0;
#X connect 67 0 65 0;
#X connect 69 0 74 1;
#X connect 69 0 78 0;
#X connect 70 0 74 0;
#X connect 70 1 73 0;
#X connect 71 0 75 0;
#X connect 71 1 75 1;
#X connect 72 0 71 0;
#X connect 73 0 69 0;
#X connect 74 0 72 0;
#X connect 75 0 86 0;
#X connect 76 0 77 0;
#X connect 77 0 86 0;
#X connect 78 0 76 0;
#X connect 80 0 70 0;
#X connect 81 0 82 0;
#X connect 82 0 88 0;
#X connect 83 0 82 0;
#X connect 83 1 82 1;
#X connect 84 0 85 0;
#X connect 86 0 81 1;
#X connect 87 0 81 0;
#X connect 88 0 84 0;
#X connect 89 0 83 0;
#X restore 161 422 pd vibrato;
#X obj 481 417 pow 2;
#X obj 481 458 line~;
#X msg 481 438 \$1 10;
#X obj 434 479 *~;
#X obj 434 500 hip~ 200;
#X obj 435 522 throw~ reverb;
#X obj 331 348 clone noteplayer 16 Repassage-notes;
#X obj 272 328 inlet~;
#X obj 422 395 pow 2;
#X obj 422 416 * 0.75;
#X obj 681 312 songParam SONGS RepasseReverb 0.1;
#X obj 678 352 songParam SONGS RepasseVibraot 0.1;
#X obj 884 251 r REPASSE;
#X obj 884 272 route mode;
#X obj 876 290 == 0;
#X obj 876 210 loadbang;
#X msg 876 231 0;
#X obj 606 620 s repasseVibrato;
#X obj 606 422 moses 0.1;
#X msg 606 448 0;
#X msg 667 488 1000 \$1;
#X obj 606 512 metro;
#X msg 638 447 1;
#X obj 606 469 change;
#X obj 606 533 i;
#X obj 636 533 == 0;
#X obj 606 554 pack f f;
#X obj 667 509 /;
#X obj 606 575 line;
#X obj 606 596 *;
#X obj 667 446 * 7;
#X obj 666 466 + 4;
#X obj 716 461 pow 1.5;
#X obj 765 537 nbx 5 40 -1e+37 1e+37 0 0 empty empty empty 0 -8 0 40
-262144 -1 -1 0.263294 256;
#X obj 736 592 nbx 5 40 -1e+37 1e+37 0 0 empty empty empty 0 -8 0 40
-262144 -1 -1 5.14117 256;
#X obj 717 486 * 4;
#X connect 1 0 2 0;
#X connect 2 0 3 0;
#X connect 2 1 7 0;
#X connect 3 0 62 0;
#X connect 5 0 7 1;
#X connect 6 0 5 0;
#X connect 7 0 6 0;
#X connect 7 0 3 1;
#X connect 9 0 24 0;
#X connect 10 0 9 1;
#X connect 11 0 10 0;
#X connect 12 0 79 0;
#X connect 13 0 14 0;
#X connect 14 0 19 0;
#X connect 14 1 16 0;
#X connect 15 0 17 0;
#X connect 16 0 15 0;
#X connect 17 0 18 0;
#X connect 17 1 18 1;
#X connect 18 0 23 0;
#X connect 19 0 51 0;
#X connect 21 0 13 0;
#X connect 22 0 25 0;
#X connect 23 0 19 1;
#X connect 24 0 0 0;
#X connect 24 0 74 0;
#X connect 25 0 21 0;
#X connect 26 0 67 0;
#X connect 27 0 29 0;
#X connect 28 0 58 0;
#X connect 28 1 64 0;
#X connect 29 0 33 0;
#X connect 29 1 32 0;
#X connect 29 2 31 0;
#X connect 31 0 30 0;
#X connect 32 0 30 0;
#X connect 33 0 30 0;
#X connect 34 0 36 0;
#X connect 36 0 37 0;
#X connect 38 0 34 0;
#X connect 39 0 52 0;
#X connect 40 0 47 0;
#X connect 41 0 32 0;
#X connect 42 0 8 0;
#X connect 43 0 45 0;
#X connect 44 0 46 0;
#X connect 45 0 42 0;
#X connect 46 0 79 0;
#X connect 46 1 81 0;
#X connect 46 1 82 0;
#X connect 46 2 66 0;
#X connect 47 0 13 0;
#X connect 48 0 71 0;
#X connect 49 0 36 0;
#X connect 50 0 36 0;
#X connect 51 0 20 0;
#X connect 52 0 53 0;
#X connect 52 1 55 0;
#X connect 53 0 40 0;
#X connect 53 1 51 1;
#X connect 54 0 4 0;
#X connect 55 0 56 0;
#X connect 56 0 54 0;
#X connect 57 0 34 0;
#X connect 57 1 49 0;
#X connect 57 2 50 0;
#X connect 58 0 59 0;
#X connect 58 1 60 0;
#X connect 58 2 26 0;
#X connect 59 0 61 0;
#X connect 60 0 61 0;
#X connect 61 0 69 0;
#X connect 62 0 4 0;
#X connect 63 0 57 0;
#X connect 64 0 68 0;
#X connect 65 0 55 1;
#X connect 66 0 43 0;
#X connect 67 0 63 0;
#X connect 69 0 65 0;
#X connect 71 0 73 0;
#X connect 72 0 74 1;
#X connect 73 0 72 0;
#X connect 74 0 75 0;
#X connect 75 0 76 0;
#X connect 77 0 9 0;
#X connect 78 0 9 0;
#X connect 79 0 80 0;
#X connect 80 0 11 0;
#X connect 81 0 48 0;
#X connect 82 0 89 0;
#X connect 83 0 84 0;
#X connect 84 0 82 1;
#X connect 84 0 85 0;
#X connect 85 0 81 1;
#X connect 86 0 87 0;
#X connect 87 0 85 0;
#X connect 87 0 82 1;
#X connect 89 0 90 0;
#X connect 89 1 93 0;
#X connect 89 1 101 0;
#X connect 89 1 103 0;
#X connect 90 0 94 0;
#X connect 91 0 98 0;
#X connect 92 0 95 0;
#X connect 93 0 94 0;
#X connect 94 0 92 0;
#X connect 95 0 96 0;
#X connect 95 0 97 0;
#X connect 96 0 95 1;
#X connect 97 0 99 0;
#X connect 98 0 92 1;
#X connect 98 0 97 1;
#X connect 99 0 100 0;
#X connect 100 0 88 0;
#X connect 101 0 102 0;
#X connect 102 0 91 0;
#X connect 102 0 105 0;
#X connect 103 0 106 0;
#X connect 106 0 100 1;
#X connect 106 0 104 0;
#X restore 31 208 pd Repassage;
#N canvas 1 81 450 300 MASTER 1;
#X obj 176 156 limiter~;
#X obj 136 157 z~ 64;
#X obj 134 19 catch~ master;
#X obj 136 178 *~;
#X obj 130 219 dac~;
#X obj 228 21 catch~ reverb;
#X obj 227 43 rev3~ 100 92 2000 20;
#X obj 135 121 *~ 0.2;
#X connect 0 0 3 1;
#X connect 1 0 3 0;
#X connect 2 0 7 0;
#X connect 3 0 4 0;
#X connect 3 0 4 1;
#X connect 5 0 6 0;
#X connect 6 0 7 0;
#X connect 7 0 0 0;
#X connect 7 0 1 0;
#X restore 31 283 pd MASTER;
#X obj 273 263 loadbang;
#X msg 273 284 \; pd dsp 1;
#N canvas 154 176 866 457 Chime 0;
#X obj 245 49 t a b;
#X obj 245 105 list prepend;
#X obj 298 72 mod 16;
#X obj 298 54 + 1;
#X obj 272 71 f;
#X obj 245 168 s cristal;
#X obj 53 329 throw~ master;
#X obj 53 232 *~;
#X obj 68 212 line~;
#X msg 68 192 \$1 10;
#X obj 157 200 hsl 128 15 0 1 0 1 empty empty empty -2 -8 0 10 -262144
-1 -1 15 1;
#X obj 154 220 pow 2;
#X msg 329 125 play 0;
#X obj 213 30 bng 15 250 50 0 empty empty empty 17 7 0 10 -262144 -1
-1;
#X msg 245 126 play \$1 \$2;
#X obj 52 283 hip~ 20;
#X floatatom 144 40 5 0 0 0 - - -, f 5;
#X obj 432 72 hradio 15 1 0 5 empty empty empty 0 -8 0 10 -262144 -1
-1 0;
#X obj 543 71 hradio 15 1 0 3 empty empty empty 0 -8 0 10 -262144 -1
-1 1;
#N canvas 1 81 450 300 mode->bank/gamme 0;
#X obj 140 51 route play mode, f 23;
#X obj 140 137 route 1;
#X obj 140 116 pack f f;
#X msg 140 72 \$2 \$1;
#X obj 140 93 route 1;
#X obj 140 158 moses 5, f 8;
#X obj 185 180 - 5;
#X obj 185 201 outlet;
#X obj 140 201 outlet;
#X obj 140 30 r PORTANT;
#X connect 0 0 3 0;
#X connect 0 1 2 1;
#X connect 1 0 5 0;
#X connect 2 0 1 0;
#X connect 3 0 4 0;
#X connect 4 0 2 0;
#X connect 5 0 8 0;
#X connect 5 1 6 0;
#X connect 6 0 7 0;
#X connect 9 0 0 0;
#X restore 432 51 pd mode->bank/gamme;
#X obj 588 140 sel 0 1 2, f 39;
#X msg 747 162 gamme /GAMME;
#X msg 665 163 gamme /CHORD;
#X msg 588 163 gamme /BASS;
#X obj 432 97 sel 0 1 2 3 4;
#X msg 432 155 1 2 3 4 5 6 7 8;
#X msg 453 184 9 10 11 12 13 14 7 8;
#X obj 452 217 list prepend 0;
#X obj 415 25 loadbang;
#N canvas 1 297 263 224 play 0;
#X obj 53 46 route play mode, f 23;
#X msg 53 67 \$2 \$1;
#X obj 53 88 route 1;
#X obj 53 157 outlet;
#X obj 53 132 route 0;
#X floatatom 128 161 5 0 0 0 - - -, f 5;
#X obj 53 111 list prepend 0;
#X obj 53 25 r PORTANT;
#X connect 0 0 1 0;
#X connect 0 1 6 1;
#X connect 1 0 2 0;
#X connect 2 0 5 0;
#X connect 2 0 6 0;
#X connect 4 0 3 0;
#X connect 6 0 4 0;
#X connect 7 0 0 0;
#X restore 246 21 pd play;
#X obj 689 121 loadbang;
#X obj 665 193 s cristal;
#X obj 452 238 s cristal-banks;
#N canvas 1 135 391 277 deadzone 0;
#X obj 163 42 hsl 128 15 0 1 0 0 empty empty empty -2 -8 0 10 -262144
-1 -1 0 1;
#X obj 115 79 * 7;
#X obj 115 100 - 3.5;
#X obj 115 121 moses -0.5;
#X obj 115 184 / 3;
#X obj 185 121 moses 0.5;
#X msg 185 183 0;
#X obj 167 238 hsl 128 15 -1 1 0 0 empty empty empty -2 -8 0 10 -262144
-1 -1 0 1;
#X obj 115 205 f;
#X floatatom 81 122 5 0 0 0 - - -, f 5;
#X obj 115 142 + 0.5;
#X obj 236 141 - 0.5;
#X obj 115 41 inlet;
#X obj 115 226 outlet;
#X connect 1 0 2 0;
#X connect 2 0 3 0;
#X connect 2 0 9 0;
#X connect 3 0 10 0;
#X connect 3 1 5 0;
#X connect 4 0 8 0;
#X connect 5 0 6 0;
#X connect 5 1 11 0;
#X connect 6 0 8 0;
#X connect 8 0 13 0;
#X connect 10 0 4 0;
#X connect 11 0 4 0;
#X connect 12 0 1 0;
#X restore 517 344 pd deadzone;
#X obj 517 365 * 24;
#X obj 431 301 route vol fx transpose;
#X msg 517 405 transpose \$1;
#X obj 517 426 s cristal;
#X obj 431 279 r PORTANT;
#X obj 517 386 + 75;
#X obj 517 322 songParam SONGS portantTranspose 0.1;
#X obj 588 100 songParam SONGS repassGamme;
#X obj 588 122 hradio 15 1 0 3 empty empty empty 0 -8 0 10 -262144
-1 -1 1;
#X obj 243 267 hsl 128 15 0 1 0 1 empty empty empty -2 -8 0 10 -262144
-1 -1 18 1;
#X obj 241 285 pow 2;
#X obj 241 326 line~;
#X msg 241 306 \$1 10;
#X obj 227 347 *~;
#X obj 227 368 hip~ 200;
#X obj 228 390 throw~ reverb;
#X obj 53 165 lop~ 600;
#X obj 154 241 * 1;
#X msg 428 377 vibrato \$1;
#X obj 351 356 * 4;
#X msg 351 377 vibrfreq \$1;
#X obj 428 356 * 40;
#X obj 351 337 * 8;
#X obj 53 144 clone cristal 16 cristal;
#X connect 0 0 1 0;
#X connect 0 1 4 0;
#X connect 1 0 14 0;
#X connect 2 0 4 1;
#X connect 3 0 2 0;
#X connect 4 0 3 0;
#X connect 4 0 1 1;
#X connect 7 0 15 0;
#X connect 8 0 7 1;
#X connect 9 0 8 0;
#X connect 10 0 11 0;
#X connect 11 0 51 0;
#X connect 12 0 5 0;
#X connect 13 0 0 0;
#X connect 14 0 5 0;
#X connect 15 0 6 0;
#X connect 15 0 47 0;
#X connect 16 0 0 0;
#X connect 17 0 24 0;
#X connect 19 0 17 0;
#X connect 19 1 18 0;
#X connect 20 0 23 0;
#X connect 20 1 22 0;
#X connect 20 2 21 0;
#X connect 21 0 31 0;
#X connect 22 0 31 0;
#X connect 23 0 31 0;
#X connect 24 0 25 0;
#X connect 24 1 26 0;
#X connect 25 0 27 0;
#X connect 26 0 27 0;
#X connect 27 0 32 0;
#X connect 28 0 25 0;
#X connect 29 0 0 0;
#X connect 30 0 22 0;
#X connect 33 0 34 0;
#X connect 34 0 39 0;
#X connect 35 0 10 0;
#X connect 35 1 44 0;
#X connect 35 1 55 0;
#X connect 35 1 56 0;
#X connect 35 2 40 0;
#X connect 36 0 37 0;
#X connect 38 0 35 0;
#X connect 39 0 36 0;
#X connect 40 0 33 0;
#X connect 42 0 20 0;
#X connect 43 0 44 0;
#X connect 44 0 46 0;
#X connect 45 0 47 1;
#X connect 46 0 45 0;
#X connect 47 0 48 0;
#X connect 48 0 49 0;
#X connect 50 0 7 0;
#X connect 51 0 9 0;
#X connect 52 0 37 0;
#X connect 53 0 54 0;
#X connect 54 0 37 0;
#X connect 55 0 52 0;
#X connect 56 0 53 0;
#X connect 57 0 50 0;
#X restore 31 233 pd Chime;
#X obj 28 47 declare -stdpath iemlib -lib iemlib1;
#X obj 441 412 s /GAMME;
#X msg 441 392 2741;
#X obj 378 412 s /CHORD;
#X msg 378 394 145;
#X obj 387 341 loadbang;
#X msg 148 178 symbol \$1/Datas/Domozic/Ferailleur;
#X obj 32 368 s REPASSEled;
#X obj 52 344 s PORTANTled;
#X obj 32 312 r TEMPOLED;
#X obj 29 93 ../domoNet Feraille;
#X msg 347 360 1;
#X obj 402 156 GAMMEKBV /GAMME;
#X obj 402 220 GAMMEKBV /CHORD;
#X obj 112 444 bng 15 250 50 0 empty empty empty 17 7 0 10 -258113
-1 -1;
#X obj 27 9 declare -path absGAMME -path ../absGAMME -path ../RecallSong
;
#X obj 112 466 RecallSongMaster SONGS;
#X msg 135 549 symbol test1;
#X obj 233 427 s /UNLOCKSNAP;
#X obj 233 408 tgl 15 0 empty empty empty 17 7 0 10 -262144 -1 -1 0
1;
#X msg 217 549 symbol test2;
#X obj 135 570 s /SONG;
#N canvas 1 81 450 300 snapRec 0;
#X obj 162 64 r REPASSE;
#X obj 162 85 route mode;
#X obj 162 106 sel 1 0;
#X msg 181 151 0;
#X obj 162 175 i;
#X obj 162 196 + 1;
#X obj 181 130 del 400;
#X obj 162 217 sel 5;
#X obj 162 238 outlet;
#X connect 0 0 1 0;
#X connect 1 0 2 0;
#X connect 2 0 4 0;
#X connect 2 1 6 0;
#X connect 3 0 4 1;
#X connect 4 0 5 0;
#X connect 5 0 4 1;
#X connect 5 0 7 0;
#X connect 6 0 3 0;
#X connect 7 0 8 0;
#X restore 112 414 pd snapRec;
#N canvas 141 79 577 689 Gong 0;
#X obj 39 39 unpack f f f;
#X obj 108 108 max;
#X obj 135 108 f;
#X msg 109 80 0;
#X obj 39 18 r AXLFAST1;
#X obj 193 41 unpack f f f;
#X obj 227 116 max;
#X obj 254 116 f;
#X msg 227 88 0;
#X obj 193 19 r AXLFAST2;
#X obj 109 59 moses 0.5;
#X obj 227 67 moses 0.5;
#X obj 108 139 t b f;
#X msg 108 181 0;
#X obj 227 142 t b f;
#X msg 227 184 0;
#X obj 108 202 f;
#X obj 227 204 f;
#X obj 153 233 t b f;
#X obj 168 304 t b f;
#X obj 195 388 max;
#X obj 222 388 f;
#X obj 141 282 sel 0;
#X obj 168 325 del 20;
#X obj 168 346 t b b, f 10;
#X obj 168 408 f;
#X msg 225 366 0;
#X obj 108 159 del 30;
#X obj 227 163 del 30;
#X obj 141 259 *;
#X obj 168 429 clip 0 2;
#X obj 76 610 clone noteplayer 4 Gong-notes;
#X obj 329 263 t f f, f 11;
#X obj 392 305 tabread;
#X obj 392 326 t b f;
#X obj 392 347 random;
#X obj 329 390 list append;
#X obj 392 368 + 1;
#X obj 329 411 list append, f 23;
#X msg 392 285 set notelength-\$1 \, 0;
#X msg 329 235 25;
#X obj 329 434 t a b;
#X obj 329 490 list prepend;
#X obj 382 439 + 1;
#X obj 356 456 f;
#X obj 382 457 mod 4;
#X obj 329 537 s Gong-notes;
#X obj 76 631 outlet~;
#X msg 329 511 play \$1 \$2 \$3 0;
#X connect 0 2 10 0;
#X connect 1 0 2 0;
#X connect 1 0 12 0;
#X connect 2 0 1 1;
#X connect 3 0 1 1;
#X connect 4 0 0 0;
#X connect 5 1 11 0;
#X connect 6 0 7 0;
#X connect 6 0 14 0;
#X connect 7 0 6 1;
#X connect 8 0 6 1;
#X connect 9 0 5 0;
#X connect 10 0 3 0;
#X connect 10 1 1 0;
#X connect 11 0 8 0;
#X connect 11 1 6 0;
#X connect 12 0 27 0;
#X connect 12 1 16 0;
#X connect 13 0 16 0;
#X connect 14 0 28 0;
#X connect 14 1 17 0;
#X connect 15 0 17 0;
#X connect 16 0 29 0;
#X connect 17 0 18 0;
#X connect 18 0 29 0;
#X connect 18 1 29 1;
#X connect 19 0 23 0;
#X connect 19 1 20 0;
#X connect 20 0 21 0;
#X connect 20 0 25 1;
#X connect 21 0 20 1;
#X connect 22 1 19 0;
#X connect 23 0 24 0;
#X connect 24 0 25 0;
#X connect 24 1 26 0;
#X connect 25 0 30 0;
#X connect 26 0 20 1;
#X connect 27 0 13 0;
#X connect 28 0 15 0;
#X connect 29 0 22 0;
#X connect 30 0 40 0;
#X connect 31 0 47 0;
#X connect 32 0 36 0;
#X connect 32 1 39 0;
#X connect 33 0 34 0;
#X connect 34 0 35 0;
#X connect 34 1 35 1;
#X connect 35 0 37 0;
#X connect 36 0 38 0;
#X connect 37 0 36 1;
#X connect 38 0 41 0;
#X connect 39 0 33 0;
#X connect 40 0 32 0;
#X connect 41 0 42 0;
#X connect 41 1 44 0;
#X connect 42 0 48 0;
#X connect 43 0 45 0;
#X connect 44 0 43 0;
#X connect 44 0 42 1;
#X connect 45 0 44 1;
#X connect 48 0 46 0;
#X restore 30 188 pd Gong;
#X connect 1 0 8 0;
#X connect 2 0 3 0;
#X connect 2 1 4 0;
#X connect 3 0 5 0;
#X connect 6 0 7 0;
#X connect 11 0 13 0;
#X connect 12 0 11 0;
#X connect 12 0 16 0;
#X connect 13 0 30 0;
#X connect 15 0 12 0;
#X connect 16 0 17 0;
#X connect 18 0 11 0;
#X connect 21 0 22 0;
#X connect 26 0 25 0;
#X connect 28 0 27 0;
#X connect 29 0 28 0;
#X connect 29 0 26 0;
#X connect 30 0 14 0;
#X connect 33 0 32 0;
#X connect 33 0 31 0;
#X connect 35 0 27 0;
#X connect 35 0 25 0;
#X connect 38 0 40 0;
#X connect 41 0 45 0;
#X connect 43 0 42 0;
#X connect 44 0 45 0;
#X connect 46 0 38 0;
#X connect 47 0 19 0;
