#N canvas 819 298 534 479 10;
#X declare -path notebank;
#X declare -path absGAMME -path ../absGAMME;
#X declare -stdpath motex -path motex -lib motex;
#X declare -stdpath iemlib -lib iemlib1;
#X obj 28 113 fraise_interface;
#X obj 365 8 r CLOCK;
#X obj 365 51 unpack f f;
#X floatatom 365 73 5 0 0 0 - - -, f 5;
#X floatatom 422 73 5 0 0 0 - - -, f 5;
#X obj 365 98 bng 50 50 50 0 empty empty empty 17 7 0 10 -262144 -1
-1;
#X obj 442 105 r /BPM;
#X floatatom 442 127 5 0 0 0 - - -, f 5;
#X obj 29 93 ../domoNet;
#X obj 365 29 route list;
#X obj 365 154 GAMMEKBV /GAMME;
#N canvas 70 492 522 372 notebanks 1;
#X obj 27 9 declare -path notebank;
#X obj 246 20 accorder;
#X obj 24 81 notebank 2 8 Chants/ChantsBrigitte;
#X obj 24 100 notebank 3 2 Chants/ChantsCollectifs;
#X obj 24 118 notebank 4 5 Chants/ChantsCorine;
#X obj 24 136 notebank 5 8 Chants/ChantsHubert;
#X obj 24 154 notebank 6 7 Chants/ChantsJean;
#X obj 24 191 notebank 8 4 Chants/ChantsMichele;
#X obj 24 209 notebank 9 6 Chants/ChantsMoricette;
#X obj 24 227 notebank 10 5 Chants/ChantsNicole;
#X obj 24 245 notebank 11 5 Chants/ChantsPatricia;
#X obj 24 263 notebank 12 5 Chants/ChantsPierre;
#X obj 24 281 notebank 13 4 Chants/ChantsRoro;
#X obj 24 299 notebank 14 3 Chants/ChantsVirginie;
#X obj 25 63 notebank 1 7 Chants/ChantsAurore;
#X obj 24 172 notebank 7 6 Chants/ChantsMarie-Eve;
#X restore 28 154 pd notebanks;
#X obj 27 9 declare -path absGAMME -path ../absGAMME;
#X obj 27 28 declare -stdpath motex -path motex -lib motex;
#X obj 148 137 getenv HOME;
#X obj 148 118 bng 15 250 50 0 empty empty empty 17 7 0 10 -262144
-1 -1;
#X symbolatom 148 158 10 0 0 0 - - -, f 10;
#X obj 148 199 s DATASDIR;
#X obj 148 97 loadbang;
#X obj 124 225 del 100;
#X obj 124 246 s LOADTABLES;
#X msg 148 178 symbol \$1/Datas/Domozic;
#X obj 232 116 bng 15 250 50 0 empty empty empty 17 7 0 10 -262144
-1 -1;
#N canvas 37 183 827 339 Repassage 0;
#X obj 54 295 throw~ master;
#X obj 327 210 s Repassage-play;
#X obj 53 13 r Repassage-play;
#X obj 53 34 t a b;
#X obj 53 90 list prepend;
#X obj 53 153 s Repassage-notes;
#X obj 106 57 mod 16;
#X obj 106 39 + 1;
#X obj 80 56 f;
#X obj 244 73 s Repassage-notes;
#X obj 53 251 *~;
#X obj 68 231 line~;
#X msg 68 211 \$1 10;
#X obj 157 219 hsl 128 15 0 1 0 1 empty empty empty -2 -8 0 10 -262144
-1 -1 7400 1;
#X obj 154 239 pow 2;
#X obj 327 128 random 8;
#X obj 327 149 + 1;
#X msg 327 172 1 \$1;
#X obj 327 105 bng 15 250 50 0 empty empty empty 17 7 0 10 -262144
-1 -1;
#X msg 372 33 gamme /GAMME;
#X msg 288 34 gamme /CHORD;
#X msg 209 34 play 0 1 1;
#X msg 53 111 play \$1 \$2 \$3;
#X obj 474 101 f;
#X obj 474 122 t f f, f 11;
#X obj 537 164 tabread;
#X msg 537 144 set notelength-\$1 \, 0;
#X obj 537 185 t b f;
#X obj 537 206 random;
#X obj 474 249 list append;
#X obj 474 269 s Repassage-play;
#X msg 474 60 1;
#X obj 514 46 random 14;
#X obj 514 67 + 1;
#X obj 520 22 bng 15 250 50 0 empty empty empty 17 7 0 10 -262144 -1
-1;
#X obj 537 227 + 1;
#X obj 53 187 clone noteplayer 16 Repassage-notes;
#X obj 612 29 spigot;
#X obj 661 34 tgl 15 0 empty empty empty 17 7 0 10 -262144 -1 -1 1
1;
#X obj 612 8 r play_repassage;
#X msg 612 56 \$2 \$1;
#X obj 612 77 route 1;
#X obj 682 168 s Repassage-play;
#X obj 724 11 r play_chime;
#X obj 724 32 spigot;
#X obj 773 37 tgl 15 0 empty empty empty 17 7 0 10 -262144 -1 -1 0
1;
#X obj 576 123 + 1;
#X obj 612 98 sel 2;
#X obj 53 272 hip~ 20;
#X connect 2 0 3 0;
#X connect 3 0 4 0;
#X connect 3 1 8 0;
#X connect 4 0 22 0;
#X connect 6 0 8 1;
#X connect 7 0 6 0;
#X connect 8 0 7 0;
#X connect 8 0 4 1;
#X connect 10 0 48 0;
#X connect 11 0 10 1;
#X connect 12 0 11 0;
#X connect 13 0 14 0;
#X connect 14 0 12 0;
#X connect 15 0 16 0;
#X connect 16 0 17 0;
#X connect 17 0 1 0;
#X connect 18 0 15 0;
#X connect 19 0 9 0;
#X connect 20 0 9 0;
#X connect 21 0 9 0;
#X connect 22 0 5 0;
#X connect 23 0 24 0;
#X connect 24 0 29 0;
#X connect 24 1 26 0;
#X connect 25 0 27 0;
#X connect 26 0 25 0;
#X connect 27 0 28 0;
#X connect 27 1 28 1;
#X connect 28 0 35 0;
#X connect 29 0 30 0;
#X connect 31 0 23 0;
#X connect 32 0 33 0;
#X connect 33 0 23 0;
#X connect 34 0 32 0;
#X connect 35 0 29 1;
#X connect 36 0 10 0;
#X connect 37 0 40 0;
#X connect 38 0 37 1;
#X connect 39 0 37 0;
#X connect 40 0 41 0;
#X connect 41 0 47 0;
#X connect 43 0 44 0;
#X connect 45 0 44 1;
#X connect 46 0 31 0;
#X connect 47 0 46 0;
#X connect 48 0 0 0;
#X restore 31 208 pd Repassage;
#N canvas 1 81 450 300 MASTER 0;
#X obj 176 130 limiter~;
#X obj 136 131 z~ 64;
#X obj 134 19 catch~ master;
#X obj 135 95 *~ 1;
#X obj 136 152 *~;
#X obj 130 193 dac~;
#X obj 162 53 rev3~ 95 95 3000 20;
#X connect 0 0 4 1;
#X connect 1 0 4 0;
#X connect 2 0 3 0;
#X connect 2 0 6 0;
#X connect 3 0 0 0;
#X connect 3 0 1 0;
#X connect 4 0 5 0;
#X connect 4 0 5 1;
#X connect 6 0 3 0;
#X restore 31 283 pd MASTER;
#X obj 273 263 loadbang;
#X msg 273 284 \; pd dsp 1;
#X obj 365 218 GAMMEKBV /CHORD;
#N canvas 330 543 652 300 Chime 0;
#X obj 245 49 t a b;
#X obj 245 105 list prepend;
#X obj 298 72 mod 16;
#X obj 298 54 + 1;
#X obj 272 71 f;
#X obj 245 28 r cristal-play;
#X obj 245 168 s cristal;
#X obj 53 278 throw~ master;
#X obj 53 232 *~;
#X obj 68 212 line~;
#X msg 68 192 \$1 10;
#X obj 157 200 hsl 128 15 0 1 0 1 empty empty empty -2 -8 0 10 -262144
-1 -1 4300 1;
#X obj 154 220 pow 2;
#X msg 386 127 play 0;
#X msg 525 45 gamme /GAMME;
#X msg 441 46 gamme /CHORD;
#X obj 397 85 s cristal;
#X obj 53 165 lop~ 2000;
#X obj 213 30 bng 15 250 50 0 empty empty empty 17 7 0 10 -262144 -1
-1;
#X obj 462 276 s cristal-play;
#X obj 510 157 r play_chime;
#X msg 245 126 play \$1 \$2;
#X obj 510 178 spigot;
#X obj 559 183 tgl 15 0 empty empty empty 17 7 0 10 -262144 -1 -1 1
1;
#X obj 409 180 spigot;
#X obj 458 185 tgl 15 0 empty empty empty 17 7 0 10 -262144 -1 -1 0
1;
#X obj 409 159 r play_repassage;
#X msg 462 219 \$2 \$1;
#X obj 462 240 route 1;
#X obj 53 144 clone cristal 16 cristal;
#X obj 53 258 hip~ 20;
#X connect 0 0 1 0;
#X connect 0 1 4 0;
#X connect 1 0 21 0;
#X connect 2 0 4 1;
#X connect 3 0 2 0;
#X connect 4 0 3 0;
#X connect 4 0 1 1;
#X connect 5 0 0 0;
#X connect 8 0 30 0;
#X connect 9 0 8 1;
#X connect 10 0 9 0;
#X connect 11 0 12 0;
#X connect 12 0 10 0;
#X connect 13 0 6 0;
#X connect 14 0 16 0;
#X connect 15 0 16 0;
#X connect 17 0 8 0;
#X connect 18 0 0 0;
#X connect 20 0 22 0;
#X connect 21 0 6 0;
#X connect 22 0 27 0;
#X connect 23 0 22 1;
#X connect 24 0 27 0;
#X connect 25 0 24 1;
#X connect 26 0 24 0;
#X connect 27 0 28 0;
#X connect 28 0 19 0;
#X connect 29 0 17 0;
#X connect 30 0 7 0;
#X restore 31 233 pd Chime;
#X obj 28 47 declare -stdpath iemlib -lib iemlib1;
#X connect 1 0 9 0;
#X connect 2 0 3 0;
#X connect 2 1 4 0;
#X connect 3 0 5 0;
#X connect 6 0 7 0;
#X connect 9 0 2 0;
#X connect 14 0 16 0;
#X connect 15 0 14 0;
#X connect 15 0 19 0;
#X connect 16 0 21 0;
#X connect 18 0 15 0;
#X connect 19 0 20 0;
#X connect 21 0 17 0;
#X connect 22 0 14 0;
#X connect 25 0 26 0;
