#N canvas 200 93 534 500 10;
#X declare -path notebank;
#X declare -path absGAMME -path ../absGAMME;
#X declare -stdpath motex -path motex -lib motex;
#X declare -stdpath iemlib -lib iemlib1;
#X obj 28 113 fraise_interface;
#X obj 365 8 r CLOCK;
#X obj 365 51 unpack f f;
#X floatatom 365 73 5 0 0 0 - - -, f 5;
#X floatatom 422 73 5 0 0 0 - - -, f 5;
#X obj 365 98 bng 50 50 50 0 empty empty empty 17 7 0 10 -262144 -1
-1;
#X obj 442 105 r /BPM;
#X floatatom 442 127 5 0 0 0 - - -, f 5;
#X obj 365 29 route list;
#N canvas 34 410 783 457 notebanks 1;
#X obj 27 9 declare -path notebank;
#X obj 246 20 accorder;
#X obj 25 63 notebank 1 7 Chants/ChantsAurore;
#X obj 24 81 notebank 2 8 Chants/ChantsBrigitte;
#X obj 24 100 notebank 3 2 Chants/ChantsCollectifs;
#X obj 24 118 notebank 4 5 Chants/ChantsCorine;
#X obj 24 136 notebank 5 8 Chants/ChantsHubert;
#X obj 24 154 notebank 6 7 Chants/ChantsJean;
#X obj 24 191 notebank 8 4 Chants/ChantsMichele;
#X obj 24 217 notebank 9 6 Chants/ChantsMoricette;
#X obj 24 235 notebank 10 5 Chants/ChantsNicole;
#X obj 24 253 notebank 11 5 Chants/ChantsPatricia;
#X obj 24 271 notebank 12 5 Chants/ChantsPierre;
#X obj 24 289 notebank 13 4 Chants/ChantsRoro;
#X obj 24 307 notebank 14 3 Chants/ChantsVirginie;
#X obj 24 172 notebank 7 6 Chants/ChantsMarie-Eve;
#X obj 23 329 notebank 15 8 RTWOS/ChantDenis 1.23 1.467;
#X obj 23 348 notebank 16 16 RTWOS/ChantNathalie 1.23 1.467;
#X obj 305 254 notebank 19 8 RTWOS/GtDidier 1.23 1.467;
#X obj 384 136 FluteB;
#X obj 306 217 notebank 17 8 RTWOS/Epinette 4.23 1.467;
#X obj 305 235 notebank 18 8 RTWOS/BanjoSeb 2 1.467;
#X obj 306 272 notebank 20 8 RTWOS/PianoDenis 3 1.467;
#X obj 308 310 notebank 22 8 RTWOS/FluteB 2 1.467;
#X obj 308 328 notebank 23 8 RTWOS/GtElecClairSeb 2 1.467;
#X obj 309 346 notebank 24 8 RTWOS/ToyPiano 1.2 1.467;
#X obj 307 291 notebank 21 8 RTWOS/Cello 2 1.467;
#X restore 28 154 pd notebanks;
#X obj 27 9 declare -path absGAMME -path ../absGAMME;
#X obj 27 28 declare -stdpath motex -path motex -lib motex;
#X obj 148 137 getenv HOME;
#X obj 148 118 bng 15 250 50 0 empty empty empty 17 7 0 10 -262144
-1 -1;
#X symbolatom 148 158 10 0 0 0 - - -, f 10;
#X obj 148 199 s DATASDIR;
#X obj 148 97 loadbang;
#X obj 124 225 del 100;
#X obj 124 246 s LOADTABLES;
#X obj 125 140 bng 15 250 50 0 empty empty empty 17 7 0 10 -262144
-1 -1;
#N canvas 397 335 883 531 Repassage 1;
#X obj 332 456 throw~ master;
#X obj 306 165 r Repassage-play;
#X obj 306 186 t a b;
#X obj 306 242 list prepend;
#X obj 306 289 s Repassage-notes;
#X obj 359 209 mod 16;
#X obj 359 191 + 1;
#X obj 333 208 f;
#X obj 621 457 s Repassage-notes;
#X obj 331 412 *~;
#X obj 346 392 line~;
#X msg 346 372 \$1 10;
#X obj 425 373 hsl 128 15 0 1 0 1 empty empty empty -2 -8 0 10 -262144
-1 -1 10199 1;
#X msg 749 417 gamme /GAMME;
#X msg 665 418 gamme /CHORD;
#X msg 586 418 play 0 1 1;
#X obj 52 173 f;
#X obj 52 194 t f f, f 11;
#X obj 115 236 tabread;
#X msg 115 216 set notelength-\$1 \, 0;
#X obj 115 257 t b f;
#X obj 115 278 random;
#X obj 52 321 list append;
#X obj 52 366 s Repassage-play;
#X obj 79 172 + 1;
#X obj 85 127 bng 15 250 50 0 empty empty empty 17 7 0 10 -262144 -1
-1;
#X obj 115 299 + 1;
#X obj 331 433 hip~ 20;
#X obj 79 151 random 14;
#X msg 751 447 gamme /BASS;
#X obj 509 80 hradio 15 1 0 5 empty empty empty 0 -8 0 10 -262144 -1
-1 2;
#X obj 612 64 hradio 15 1 0 3 empty empty empty 0 -8 0 10 -262144 -1
-1 2;
#N canvas 1 81 450 300 mode->bank/gamme 0;
#X obj 140 30 r REPASSE;
#X obj 140 51 route play mode, f 23;
#X obj 140 137 route 1;
#X msg 140 72 \$2 \$1;
#X obj 140 93 route 1;
#X obj 140 158 moses 5, f 8;
#X obj 185 180 - 5;
#X obj 185 201 outlet;
#X obj 140 201 outlet;
#X floatatom 87 201 5 0 0 0 - - -, f 5;
#X floatatom 94 124 5 0 0 0 - - -, f 5;
#X obj 228 115 tgl 15 0 empty empty empty 17 7 0 10 -262144 -1 -1 0
1;
#X obj 140 116 list prepend;
#X connect 0 0 1 0;
#X connect 1 0 3 0;
#X connect 1 1 11 0;
#X connect 1 1 12 1;
#X connect 2 0 5 0;
#X connect 2 0 9 0;
#X connect 3 0 4 0;
#X connect 4 0 10 0;
#X connect 4 0 12 0;
#X connect 5 0 8 0;
#X connect 5 1 6 0;
#X connect 6 0 7 0;
#X connect 12 0 2 0;
#X restore 441 35 pd mode->bank/gamme, f 29;
#X obj 612 84 sel 0 1 2, f 39;
#X obj 689 137 s Repassage-notes;
#X msg 771 106 gamme /GAMME;
#X msg 689 107 gamme /CHORD;
#X msg 612 107 gamme /BASS;
#X msg 509 147 1 2 3 4 5 6 7 8;
#X obj 53 7 table Repasse-banks 10;
#X obj 509 213 list prepend 0;
#X obj 509 234 s Repasse-banks;
#X obj 516 119 loadbang;
#N canvas 1 297 263 224 play 0;
#X obj 53 25 r REPASSE;
#X obj 53 46 route play mode, f 23;
#X msg 53 67 \$2 \$1;
#X obj 93 190 route 1;
#X obj 53 157 outlet;
#X obj 53 132 route 0;
#X floatatom 128 161 5 0 0 0 - - -, f 5;
#X obj 53 111 list prepend 0;
#X connect 0 0 1 0;
#X connect 1 0 2 0;
#X connect 1 1 7 1;
#X connect 2 0 7 0;
#X connect 3 0 6 0;
#X connect 5 0 4 0;
#X connect 7 0 5 0;
#X restore 52 33 pd play;
#X obj 52 100 tabread Repasse-banks;
#X obj 703 63 loadbang;
#X msg 692 378 transpose \$1;
#N canvas 1 162 391 277 deadzone 0;
#X obj 163 42 hsl 128 15 0 1 0 0 empty empty empty -2 -8 0 10 -262144
-1 -1 0 1;
#X obj 115 79 * 7;
#X obj 115 100 - 3.5;
#X obj 115 121 moses -0.5;
#X obj 115 184 / 3;
#X obj 185 121 moses 0.5;
#X msg 185 183 0;
#X obj 167 238 hsl 128 15 -1 1 0 0 empty empty empty -2 -8 0 10 -262144
-1 -1 5636 1;
#X obj 115 205 f;
#X floatatom 81 122 5 0 0 0 - - -, f 5;
#X obj 115 142 + 0.5;
#X obj 236 141 - 0.5;
#X obj 115 41 inlet;
#X obj 115 226 outlet;
#X floatatom 52 81 5 0 0 0 - - -, f 5;
#X connect 1 0 2 0;
#X connect 2 0 3 0;
#X connect 2 0 9 0;
#X connect 3 0 10 0;
#X connect 3 1 5 0;
#X connect 4 0 8 0;
#X connect 5 0 6 0;
#X connect 5 1 11 0;
#X connect 6 0 8 0;
#X connect 8 0 13 0;
#X connect 8 0 7 0;
#X connect 10 0 4 0;
#X connect 11 0 4 0;
#X connect 12 0 1 0;
#X connect 12 0 14 0;
#X restore 692 334 pd deadzone;
#X obj 588 266 r REPASSE;
#X obj 692 355 * 24;
#X msg 578 369 stop -1;
#X obj 588 288 route vol fx transpose;
#X obj 52 148 + 0;
#X obj 434 421 hsl 128 15 0 1 0 1 empty empty empty -2 -8 0 10 -262144
-1 -1 3398 1;
#X obj 431 399 pow 6;
#X msg 534 166 9 10 11 12 13 14 15 16;
#X msg 559 186 17 18 19 20 21 22 23 24;
#X obj 52 342 list append, f 23;
#X obj 52 54 route 1 0, f 24;
#X obj 52 75 t f f, f 23;
#X msg 271 140 stopkey \$1;
#X obj 271 98 spigot;
#X obj 271 119 pipe 150;
#X obj 509 99 sel 0 1 2, f 13;
#X obj 440 59 sel 3 4, f 12;
#X msg 440 82 0;
#X msg 474 82 1;
#X obj 440 106 tgl 15 0 empty empty empty 17 7 0 10 -262144 -1 -1 1
1;
#X obj 331 348 clone noteplayer 16 Repassage-notes;
#X msg 306 263 play \$1 \$2 \$3 \$4;
#X connect 1 0 2 0;
#X connect 2 0 3 0;
#X connect 2 1 7 0;
#X connect 3 0 69 0;
#X connect 5 0 7 1;
#X connect 6 0 5 0;
#X connect 7 0 6 0;
#X connect 7 0 3 1;
#X connect 9 0 27 0;
#X connect 10 0 9 1;
#X connect 11 0 10 0;
#X connect 12 0 54 0;
#X connect 13 0 8 0;
#X connect 14 0 8 0;
#X connect 15 0 8 0;
#X connect 16 0 17 0;
#X connect 17 0 22 0;
#X connect 17 1 19 0;
#X connect 18 0 20 0;
#X connect 19 0 18 0;
#X connect 20 0 21 0;
#X connect 20 1 21 1;
#X connect 21 0 26 0;
#X connect 22 0 57 0;
#X connect 24 0 16 0;
#X connect 25 0 28 0;
#X connect 26 0 22 1;
#X connect 27 0 0 0;
#X connect 28 0 24 0;
#X connect 29 0 8 0;
#X connect 30 0 63 0;
#X connect 31 0 33 0;
#X connect 32 0 64 0;
#X connect 32 1 31 0;
#X connect 33 0 37 0;
#X connect 33 1 36 0;
#X connect 33 2 35 0;
#X connect 35 0 34 0;
#X connect 36 0 34 0;
#X connect 37 0 34 0;
#X connect 38 0 40 0;
#X connect 40 0 41 0;
#X connect 42 0 38 0;
#X connect 43 0 58 0;
#X connect 44 0 52 0;
#X connect 45 0 36 0;
#X connect 46 0 8 0;
#X connect 47 0 49 0;
#X connect 48 0 51 0;
#X connect 49 0 46 0;
#X connect 50 0 8 0;
#X connect 51 0 54 0;
#X connect 51 2 47 0;
#X connect 52 0 16 0;
#X connect 54 0 11 0;
#X connect 55 0 40 0;
#X connect 56 0 40 0;
#X connect 57 0 23 0;
#X connect 58 0 59 0;
#X connect 58 1 61 0;
#X connect 59 0 44 0;
#X connect 59 1 57 1;
#X connect 60 0 4 0;
#X connect 61 0 62 0;
#X connect 62 0 60 0;
#X connect 63 0 38 0;
#X connect 63 1 55 0;
#X connect 63 2 56 0;
#X connect 64 0 65 0;
#X connect 64 1 66 0;
#X connect 64 2 30 0;
#X connect 65 0 67 0;
#X connect 66 0 67 0;
#X connect 67 0 61 1;
#X connect 68 0 9 0;
#X connect 69 0 4 0;
#X restore 31 208 pd Repassage;
#N canvas 1 81 450 300 MASTER 0;
#X obj 176 130 limiter~;
#X obj 136 131 z~ 64;
#X obj 134 19 catch~ master;
#X obj 135 95 *~ 1;
#X obj 136 152 *~;
#X obj 130 193 dac~;
#X obj 162 53 rev3~ 90 90 1000 20;
#X connect 0 0 4 1;
#X connect 1 0 4 0;
#X connect 2 0 3 0;
#X connect 2 0 6 0;
#X connect 3 0 0 0;
#X connect 3 0 1 0;
#X connect 4 0 5 0;
#X connect 4 0 5 1;
#X connect 6 0 3 0;
#X restore 31 283 pd MASTER;
#X obj 273 263 loadbang;
#X msg 273 284 \; pd dsp 1;
#N canvas 154 176 866 457 Chime 0;
#X obj 245 49 t a b;
#X obj 245 105 list prepend;
#X obj 298 72 mod 16;
#X obj 298 54 + 1;
#X obj 272 71 f;
#X obj 245 168 s cristal;
#X obj 53 278 throw~ master;
#X obj 53 232 *~;
#X obj 68 212 line~;
#X msg 68 192 \$1 10;
#X obj 157 200 hsl 128 15 0 1 0 1 empty empty empty -2 -8 0 10 -262144
-1 -1 3473 1;
#X obj 154 220 pow 2;
#X msg 329 125 play 0;
#X obj 53 165 lop~ 2000;
#X obj 213 30 bng 15 250 50 0 empty empty empty 17 7 0 10 -262144 -1
-1;
#X msg 245 126 play \$1 \$2;
#X obj 53 258 hip~ 20;
#X floatatom 144 40 5 0 0 0 - - -, f 5;
#X obj 432 72 hradio 15 1 0 5 empty empty empty 0 -8 0 10 -262144 -1
-1 0;
#X obj 543 71 hradio 15 1 0 3 empty empty empty 0 -8 0 10 -262144 -1
-1 1;
#N canvas 1 81 450 300 mode->bank/gamme 0;
#X obj 140 51 route play mode, f 23;
#X obj 140 137 route 1;
#X obj 140 116 pack f f;
#X msg 140 72 \$2 \$1;
#X obj 140 93 route 1;
#X obj 140 158 moses 5, f 8;
#X obj 185 180 - 5;
#X obj 185 201 outlet;
#X obj 140 201 outlet;
#X obj 140 30 r PORTANT;
#X connect 0 0 3 0;
#X connect 0 1 2 1;
#X connect 1 0 5 0;
#X connect 2 0 1 0;
#X connect 3 0 4 0;
#X connect 4 0 2 0;
#X connect 5 0 8 0;
#X connect 5 1 6 0;
#X connect 6 0 7 0;
#X connect 9 0 0 0;
#X restore 432 51 pd mode->bank/gamme;
#X obj 543 91 sel 0 1 2, f 39;
#X msg 702 113 gamme /GAMME;
#X msg 620 114 gamme /CHORD;
#X msg 543 114 gamme /BASS;
#X obj 432 97 sel 0 1 2 3 4;
#X msg 432 155 1 2 3 4 5 6 7 8;
#X msg 453 184 9 10 11 12 13 14 7 8;
#X obj 452 217 list prepend 0;
#X obj 415 25 loadbang;
#N canvas 1 243 263 224 play 0;
#X obj 53 46 route play mode, f 23;
#X msg 53 67 \$2 \$1;
#X obj 53 88 route 1;
#X obj 53 157 outlet;
#X obj 53 132 route 0;
#X floatatom 128 161 5 0 0 0 - - -, f 5;
#X obj 53 111 list prepend 0;
#X obj 53 25 r PORTANT;
#X connect 0 0 1 0;
#X connect 0 1 6 1;
#X connect 1 0 2 0;
#X connect 2 0 5 0;
#X connect 2 0 6 0;
#X connect 4 0 3 0;
#X connect 6 0 4 0;
#X connect 7 0 0 0;
#X restore 246 21 pd play;
#X obj 634 70 loadbang;
#X obj 620 144 s cristal;
#X obj 452 238 s cristal-banks;
#N canvas 1 135 391 277 deadzone 0;
#X obj 163 42 hsl 128 15 0 1 0 0 empty empty empty -2 -8 0 10 -262144
-1 -1 0 1;
#X obj 115 79 * 7;
#X obj 115 100 - 3.5;
#X obj 115 121 moses -0.5;
#X obj 115 184 / 3;
#X obj 185 121 moses 0.5;
#X msg 185 183 0;
#X obj 167 238 hsl 128 15 -1 1 0 0 empty empty empty -2 -8 0 10 -262144
-1 -1 0 1;
#X obj 115 205 f;
#X floatatom 81 122 5 0 0 0 - - -, f 5;
#X obj 115 142 + 0.5;
#X obj 236 141 - 0.5;
#X obj 115 41 inlet;
#X obj 115 226 outlet;
#X connect 1 0 2 0;
#X connect 2 0 3 0;
#X connect 2 0 9 0;
#X connect 3 0 10 0;
#X connect 3 1 5 0;
#X connect 4 0 8 0;
#X connect 5 0 6 0;
#X connect 5 1 11 0;
#X connect 6 0 8 0;
#X connect 8 0 13 0;
#X connect 10 0 4 0;
#X connect 11 0 4 0;
#X connect 12 0 1 0;
#X restore 516 328 pd deadzone;
#X obj 516 349 * 24;
#X obj 431 301 route vol fx transpose;
#X obj 53 144 clone cristal 16 cristal;
#X msg 516 389 transpose \$1;
#X obj 516 410 s cristal;
#X obj 431 279 r PORTANT;
#X obj 516 370 + 75;
#X connect 0 0 1 0;
#X connect 0 1 4 0;
#X connect 1 0 15 0;
#X connect 2 0 4 1;
#X connect 3 0 2 0;
#X connect 4 0 3 0;
#X connect 4 0 1 1;
#X connect 7 0 16 0;
#X connect 8 0 7 1;
#X connect 9 0 8 0;
#X connect 10 0 11 0;
#X connect 11 0 9 0;
#X connect 12 0 5 0;
#X connect 13 0 7 0;
#X connect 14 0 0 0;
#X connect 15 0 5 0;
#X connect 16 0 6 0;
#X connect 17 0 0 0;
#X connect 18 0 25 0;
#X connect 19 0 21 0;
#X connect 20 0 18 0;
#X connect 20 1 19 0;
#X connect 21 0 24 0;
#X connect 21 1 23 0;
#X connect 21 2 22 0;
#X connect 22 0 32 0;
#X connect 23 0 32 0;
#X connect 24 0 32 0;
#X connect 25 0 26 0;
#X connect 25 1 27 0;
#X connect 26 0 28 0;
#X connect 27 0 28 0;
#X connect 28 0 33 0;
#X connect 29 0 26 0;
#X connect 30 0 0 0;
#X connect 31 0 23 0;
#X connect 34 0 35 0;
#X connect 35 0 41 0;
#X connect 36 0 10 0;
#X connect 36 2 34 0;
#X connect 37 0 13 0;
#X connect 38 0 39 0;
#X connect 40 0 36 0;
#X connect 41 0 38 0;
#X restore 31 233 pd Chime;
#X obj 28 47 declare -stdpath iemlib -lib iemlib1;
#X obj 441 412 s /GAMME;
#X msg 441 392 2741;
#X obj 378 412 s /CHORD;
#X msg 378 394 145;
#X obj 387 341 loadbang;
#X msg 148 178 symbol \$1/Datas/Domozic/Ferailleur;
#X obj 34 403 s REPASSEled;
#X obj 54 379 s PORTANTled;
#X obj 34 334 r TEMPOLED;
#X obj 29 93 ../domoNet Feraille;
#X msg 347 360 1;
#X obj 365 154 GAMMEKBV /GAMME;
#X obj 365 218 GAMMEKBV /CHORD;
#X connect 1 0 8 0;
#X connect 2 0 3 0;
#X connect 2 1 4 0;
#X connect 3 0 5 0;
#X connect 6 0 7 0;
#X connect 12 0 14 0;
#X connect 13 0 12 0;
#X connect 13 0 17 0;
#X connect 14 0 31 0;
#X connect 16 0 13 0;
#X connect 17 0 18 0;
#X connect 19 0 12 0;
#X connect 22 0 23 0;
#X connect 27 0 26 0;
#X connect 29 0 28 0;
#X connect 30 0 29 0;
#X connect 30 0 27 0;
#X connect 31 0 15 0;
#X connect 34 0 33 0;
#X connect 34 0 32 0;
#X connect 36 0 28 0;
#X connect 36 0 26 0;
