#N canvas 770 413 346 462 10;
#X declare -stdpath creb -lib creb;
#X obj 44 343 osc~;
#X obj 82 409 *~;
#X obj 81 331 osc~;
#X obj 81 354 *~ 0.2;
#X obj 81 303 * 3;
#X obj 114 311 osc~;
#X obj 114 283 * 5;
#X obj 44 270 mtof;
#X obj 42 11 declare -stdpath creb -lib creb;
#X obj 81 442 outlet~;
#X obj 44 35 r \$2;
#X msg 119 175 set \$1;
#X obj 119 152 symbol;
#X obj 44 77 route \$1;
#X obj 71 197 gammeRound /GAMME 1000;
#X obj 44 174 t b f;
#X obj 44 224 f, f 5;
#X obj 184 343 ead~ 0.01 3000;
#X obj 115 338 *~ 0.2;
#X obj 184 315 b;
#X obj 44 153 + 90.137;
#X obj 44 130 * 2.87213;
#X obj 44 57 route play gamme transpose;
#X connect 0 0 1 0;
#X connect 1 0 9 0;
#X connect 2 0 3 0;
#X connect 3 0 1 0;
#X connect 4 0 2 0;
#X connect 5 0 18 0;
#X connect 6 0 5 0;
#X connect 7 0 0 0;
#X connect 7 0 4 0;
#X connect 7 0 6 0;
#X connect 10 0 22 0;
#X connect 11 0 14 0;
#X connect 12 0 11 0;
#X connect 13 0 21 0;
#X connect 14 0 16 1;
#X connect 15 0 16 0;
#X connect 15 1 14 0;
#X connect 16 0 7 0;
#X connect 17 0 1 1;
#X connect 18 0 1 0;
#X connect 19 0 17 0;
#X connect 20 0 15 0;
#X connect 21 0 20 0;
#X connect 21 0 19 0;
#X connect 22 0 13 0;
#X connect 22 1 12 0;
#X connect 22 2 20 1;
