#N canvas 865 260 399 508 10;
#X declare -stdpath creb -lib creb;
#X obj 44 343 osc~;
#X obj 82 409 *~;
#X obj 81 331 osc~;
#X obj 81 354 *~ 0.2;
#X obj 114 311 osc~;
#X obj 44 270 mtof;
#X obj 42 11 declare -stdpath creb -lib creb;
#X obj 81 442 outlet~;
#X obj 44 35 r \$2;
#X msg 119 175 set \$1;
#X obj 119 152 symbol;
#X obj 44 77 route \$1;
#X obj 71 197 gammeRound /GAMME 1000;
#X obj 44 174 t b f;
#X obj 44 224 f, f 5;
#X obj 184 225 b;
#X obj 44 153 + 90.137;
#X obj 44 130 * 2.87213;
#X msg 217 81 5;
#X obj 228 183 osc~ 7;
#X obj 114 283 *~ 5;
#X obj 81 303 *~ 3;
#X obj 44 307 *~ 1;
#X obj 44 57 route play gamme transpose vibrato vibrfreq;
#X msg 243 204 \$1 50;
#X obj 243 225 line~;
#X obj 228 246 *~;
#X obj 115 338 *~ 0.2;
#X msg 151 252 0.25;
#X obj 221 291 ead~ 10 3000;
#X connect 0 0 1 0;
#X connect 1 0 7 0;
#X connect 2 0 3 0;
#X connect 3 0 1 0;
#X connect 4 0 27 0;
#X connect 5 0 20 0;
#X connect 5 0 21 0;
#X connect 5 0 22 0;
#X connect 8 0 23 0;
#X connect 9 0 12 0;
#X connect 10 0 9 0;
#X connect 11 0 17 0;
#X connect 12 0 14 1;
#X connect 13 0 14 0;
#X connect 13 1 12 0;
#X connect 14 0 5 0;
#X connect 15 0 28 0;
#X connect 15 0 29 0;
#X connect 16 0 13 0;
#X connect 17 0 16 0;
#X connect 17 0 15 0;
#X connect 18 0 17 0;
#X connect 19 0 26 0;
#X connect 20 0 4 0;
#X connect 21 0 2 0;
#X connect 22 0 0 0;
#X connect 23 0 11 0;
#X connect 23 1 10 0;
#X connect 23 2 16 1;
#X connect 23 3 24 0;
#X connect 23 4 19 0;
#X connect 24 0 25 0;
#X connect 25 0 26 1;
#X connect 26 0 4 0;
#X connect 26 0 2 0;
#X connect 26 0 0 0;
#X connect 27 0 1 0;
#X connect 28 0 0 1;
#X connect 28 0 2 1;
#X connect 28 0 4 1;
#X connect 29 0 1 1;
