#N canvas 730 152 636 246 10;
#X declare -path Fraise -stdpath Fraise;
#X obj 21 16 declare -path Fraise -stdpath Fraise;
#X obj 21 38 pied/pied 0 41424;
#X text 271 19 8 hall-analogiques;
#X text 271 32 2 axl dans les fers (?);
#X text 273 77 un poussoir "mode" -> (+fer ou +chime);
#X text 271 46 8 contacteurs (clés suspendues:chime);
#X obj 18 140 fruit/fruit 1 fer1 10 fw;
#X text 270 62 analogs: vol_fer \, vol_chime \, fx_fers \, fx_chime
;
#N canvas 814 90 570 373 AXL 0;
#X obj 25 173 unpack f f f f f f;
#X floatatom 25 203 5 0 0 0 - - -, f 5;
#X floatatom 78 203 5 0 0 0 - - -, f 5;
#X floatatom 122 203 5 0 0 0 - - -, f 5;
#X obj 25 143 r AXLSLOW1;
#X obj 25 111 axlprocess 1;
#X obj 230 143 s AX-x;
#X obj 345 142 s AX-y;
#X obj 469 138 s AX-z;
#X text 344 160 0=haut 1=bas;
#X text 205 160 0=droite 1=gauche;
#X text 450 154 0=verso 1=recto;
#X obj 232 36 r AXLSLOW1;
#X obj 232 58 unpack f f f;
#X obj 232 94 + 1;
#X obj 232 114 / 2;
#X obj 347 96 + 1;
#X obj 347 116 / 2;
#X obj 468 88 + 1;
#X obj 469 111 / 2;
#X obj 25 72 route 1 2;
#X obj 50 93 axlprocess 2;
#X obj 28 286 unpack f f f f f f;
#X floatatom 28 316 5 0 0 0 - - -, f 5;
#X floatatom 81 316 5 0 0 0 - - -, f 5;
#X floatatom 125 316 5 0 0 0 - - -, f 5;
#X obj 28 256 r AXLSLOW2;
#X msg 399 272 R;
#X text 429 270 reset i2c/axl;
#X obj 25 49 fruit/receive AXL;
#X obj 312 300 fruit/send AXL;
#X obj 153 136 print;
#X connect 0 0 1 0;
#X connect 0 1 2 0;
#X connect 0 2 3 0;
#X connect 4 0 0 0;
#X connect 12 0 13 0;
#X connect 13 0 14 0;
#X connect 13 1 16 0;
#X connect 13 2 18 0;
#X connect 14 0 15 0;
#X connect 15 0 6 0;
#X connect 16 0 17 0;
#X connect 17 0 7 0;
#X connect 18 0 19 0;
#X connect 19 0 8 0;
#X connect 20 0 5 0;
#X connect 20 1 21 0;
#X connect 22 0 23 0;
#X connect 22 1 24 0;
#X connect 22 2 25 0;
#X connect 26 0 22 0;
#X connect 27 0 30 1;
#X connect 29 0 20 0;
#X restore 241 197 pd AXL;
#N canvas 96 117 463 460 fer1 0;
#X obj 9 85 analog/parse;
#X obj 199 153 route s;
#X obj 226 220 tgl 15 0 empty empty empty 17 7 0 10 -262144 -1 -1 0
1;
#X obj 246 220 tgl 15 0 empty empty empty 17 7 0 10 -262144 -1 -1 0
1;
#X obj 266 220 tgl 15 0 empty empty empty 17 7 0 10 -262144 -1 -1 0
1;
#X obj 287 220 tgl 15 0 empty empty empty 17 7 0 10 -262144 -1 -1 0
1;
#X obj 307 220 tgl 15 0 empty empty empty 17 7 0 10 -262144 -1 -1 0
1;
#X obj 327 220 tgl 15 0 empty empty empty 17 7 0 10 -262144 -1 -1 0
1;
#X obj 348 220 tgl 15 0 empty empty empty 17 7 0 10 -262144 -1 -1 0
1;
#X obj 368 220 tgl 15 0 empty empty empty 17 7 0 10 -262144 -1 -1 0
1;
#X obj 388 220 tgl 15 0 empty empty empty 17 7 0 10 -262144 -1 -1 0
1;
#X obj 9 107 unpack f f;
#X obj 9 154 pack f f;
#X obj 66 129 / 16384;
#X obj 258 156 tgl 15 0 empty empty empty 17 7 0 10 -262144 -1 -1 0
1;
#X obj 9 60 fruit/receive fer1;
#X obj 199 240 unpack f f, f 11;
#X obj 199 305 pack f f;
#X obj 328 73 pack f f;
#X obj 305 121 s play_chime;
#X obj 328 96 s play_repassage;
#X text 8 8 fer1 analogs: K5 \, K6 \, K7;
#X text 37 22 switches: VNH2 (K10 \, K9 \, MB2 \, MBEN2 \, MBEN \,
MB1) \, K1 \, K2 \, K3 \, K12, f 65;
#X text 36 37 leds: K4;
#X obj 9 233 route 0 1 2;
#X obj 143 419 s REPASSE;
#X msg 9 280 vol \$1;
#X obj 226 199 route 0 1 2 3 4 5 6 7 8 9, f 35;
#X obj 411 221 tgl 15 0 empty empty empty 17 7 0 10 -262144 -1 -1 0
1;
#X msg 280 349 mode \$1;
#X obj 199 264 moses 9, f 14;
#X obj 280 287 - 9;
#X obj 280 308 sel 0;
#X obj 280 329 f;
#X msg 199 326 play \$1 \$2;
#X obj 226 178 spigot;
#X msg 141 281 fx \$1;
#X msg 56 280 transpose \$1;
#X msg 366 394 l0\$1;
#X obj 366 374 tgl 15 0 empty empty empty 17 7 0 10 -262144 -1 -1 0
1;
#X obj 273 425 fruit/send2 fer1;
#X obj 366 337 r REPASSEled;
#X obj 95 214 route 0 1 2;
#X floatatom 94 233 5 0 0 0 - - -, f 5;
#X floatatom 126 235 5 0 0 0 - - -, f 5;
#X floatatom 160 238 5 0 0 0 - - -, f 5;
#X obj 128 171 tgl 15 0 empty empty empty 17 7 0 10 -262144 -1 -1 0
1;
#X obj 96 193 spigot;
#X obj 304 386 tgl 15 0 empty empty empty 17 7 0 10 -262144 -1 -1 0
1;
#X connect 0 0 11 0;
#X connect 0 1 1 0;
#X connect 1 0 16 0;
#X connect 1 0 35 0;
#X connect 11 0 12 0;
#X connect 11 1 13 0;
#X connect 12 0 24 0;
#X connect 12 0 47 0;
#X connect 13 0 12 1;
#X connect 14 0 35 1;
#X connect 15 0 0 0;
#X connect 16 0 30 0;
#X connect 16 1 17 1;
#X connect 16 1 33 1;
#X connect 17 0 34 0;
#X connect 18 0 20 0;
#X connect 24 0 26 0;
#X connect 24 1 37 0;
#X connect 24 2 36 0;
#X connect 26 0 25 0;
#X connect 27 0 2 0;
#X connect 27 1 3 0;
#X connect 27 2 4 0;
#X connect 27 3 5 0;
#X connect 27 4 6 0;
#X connect 27 5 7 0;
#X connect 27 6 8 0;
#X connect 27 7 9 0;
#X connect 27 8 10 0;
#X connect 27 9 28 0;
#X connect 28 0 39 0;
#X connect 29 0 25 0;
#X connect 30 0 17 0;
#X connect 30 1 31 0;
#X connect 31 0 32 0;
#X connect 32 0 33 0;
#X connect 33 0 29 0;
#X connect 33 0 48 0;
#X connect 34 0 25 0;
#X connect 35 0 27 0;
#X connect 36 0 25 0;
#X connect 37 0 25 0;
#X connect 38 0 40 1;
#X connect 39 0 38 0;
#X connect 41 0 39 0;
#X connect 42 0 43 0;
#X connect 42 1 44 0;
#X connect 42 2 45 0;
#X connect 46 0 47 1;
#X connect 47 0 42 0;
#X restore 17 194 pd fer1;
#N canvas 546 379 468 451 fer2 1;
#X obj 15 54 fruit/receive fer2;
#X obj 272 415 fruit/send2 fer2;
#X msg 365 384 l0\$1;
#X obj 365 364 tgl 15 0 empty empty empty 17 7 0 10 -262144 -1 -1 0
1;
#X obj 15 80 analog/parse;
#X obj 205 148 route s;
#X obj 232 215 tgl 15 0 empty empty empty 17 7 0 10 -262144 -1 -1 0
1;
#X obj 252 215 tgl 15 0 empty empty empty 17 7 0 10 -262144 -1 -1 0
1;
#X obj 272 215 tgl 15 0 empty empty empty 17 7 0 10 -262144 -1 -1 0
1;
#X obj 293 215 tgl 15 0 empty empty empty 17 7 0 10 -262144 -1 -1 0
1;
#X obj 313 215 tgl 15 0 empty empty empty 17 7 0 10 -262144 -1 -1 0
1;
#X obj 333 215 tgl 15 0 empty empty empty 17 7 0 10 -262144 -1 -1 0
1;
#X obj 354 215 tgl 15 0 empty empty empty 17 7 0 10 -262144 -1 -1 0
1;
#X obj 374 215 tgl 15 0 empty empty empty 17 7 0 10 -262144 -1 -1 0
1;
#X obj 394 215 tgl 15 0 empty empty empty 17 7 0 10 -262144 -1 -1 0
1;
#X obj 15 102 unpack f f;
#X obj 15 187 pack f f;
#X obj 72 123 / 16384;
#X obj 264 151 tgl 15 0 empty empty empty 17 7 0 10 -262144 -1 -1 0
1;
#X obj 205 235 unpack f f, f 11;
#X obj 205 323 pack f f;
#X obj 15 228 route 0 1 2;
#X msg 15 275 vol \$1;
#X obj 232 194 route 0 1 2 3 4 5 6 7 8 9, f 35;
#X obj 417 216 tgl 15 0 empty empty empty 17 7 0 10 -262144 -1 -1 0
1;
#X msg 286 358 mode \$1;
#X obj 286 338 f;
#X msg 205 344 play \$1 \$2;
#X obj 232 173 spigot;
#X msg 60 276 fx \$1;
#X msg 106 277 transpose \$1;
#X obj 149 414 s PORTANT;
#X obj 365 341 r PORTANTled;
#X text 40 21 switches: VNH2 (K10 \, K9 \, MB2 \, MBEN2 \, MBEN \,
MB1) \, K1 \, K2 \, K3 \, K12, f 65;
#X text 39 36 leds: K4;
#X text 11 7 fer2 analogs: K5 \, K6 \, K7;
#X obj 98 232 route 0 1 2;
#X floatatom 97 251 5 0 0 0 - - -, f 5;
#X floatatom 129 253 5 0 0 0 - - -, f 5;
#X floatatom 163 256 5 0 0 0 - - -, f 5;
#X obj 131 189 tgl 15 0 empty empty empty 17 7 0 10 -262144 -1 -1 0
1;
#X obj 99 211 spigot;
#X obj 205 259 moses 7, f 8;
#X obj 286 258 moses 8, f 8;
#X obj 331 278 - 1;
#X obj 286 317 b;
#X obj 327 332 tgl 15 0 empty empty empty 17 7 0 10 -262144 -1 -1 0
1;
#X obj 72 142 * -1;
#X obj 72 161 + 1;
#X connect 0 0 4 0;
#X connect 2 0 1 1;
#X connect 3 0 2 0;
#X connect 4 0 15 0;
#X connect 4 1 5 0;
#X connect 5 0 19 0;
#X connect 5 0 28 0;
#X connect 13 0 3 0;
#X connect 15 0 16 0;
#X connect 15 1 17 0;
#X connect 16 0 21 0;
#X connect 16 0 41 0;
#X connect 17 0 47 0;
#X connect 18 0 28 1;
#X connect 19 0 42 0;
#X connect 19 1 20 1;
#X connect 19 1 26 1;
#X connect 20 0 27 0;
#X connect 21 0 22 0;
#X connect 21 1 30 0;
#X connect 21 2 29 0;
#X connect 22 0 31 0;
#X connect 23 0 6 0;
#X connect 23 1 7 0;
#X connect 23 2 8 0;
#X connect 23 3 9 0;
#X connect 23 4 10 0;
#X connect 23 5 11 0;
#X connect 23 6 12 0;
#X connect 23 7 13 0;
#X connect 23 8 14 0;
#X connect 23 9 24 0;
#X connect 25 0 31 0;
#X connect 26 0 25 0;
#X connect 26 0 46 0;
#X connect 27 0 31 0;
#X connect 28 0 23 0;
#X connect 29 0 31 0;
#X connect 30 0 31 0;
#X connect 32 0 3 0;
#X connect 36 0 37 0;
#X connect 36 1 38 0;
#X connect 36 2 39 0;
#X connect 40 0 41 1;
#X connect 41 0 36 0;
#X connect 42 0 20 0;
#X connect 42 1 43 0;
#X connect 43 0 45 0;
#X connect 43 1 44 0;
#X connect 44 0 20 0;
#X connect 45 0 26 0;
#X connect 47 0 48 0;
#X connect 48 0 16 1;
#X restore 462 198 pd fer2;
#X obj 241 143 fruit/fruit 1 AXL 11 fwAxl;
#X obj 463 143 fruit/fruit 1 fer2 12 fw;
