#N canvas 144 197 619 494 10;
#X declare -path Fraise -stdpath Fraise;
#X obj 22 237 analog/parse;
#X obj 21 16 declare -path Fraise -stdpath Fraise;
#X obj 145 278 route s;
#X obj 145 300 route 0 1 2 3 4 5 6 7 8, f 31;
#X obj 145 327 tgl 15 0 empty empty empty 17 7 0 10 -262144 -1 -1 0
1;
#X obj 165 327 tgl 15 0 empty empty empty 17 7 0 10 -262144 -1 -1 0
1;
#X obj 185 327 tgl 15 0 empty empty empty 17 7 0 10 -262144 -1 -1 0
1;
#X obj 206 327 tgl 15 0 empty empty empty 17 7 0 10 -262144 -1 -1 0
1;
#X obj 226 327 tgl 15 0 empty empty empty 17 7 0 10 -262144 -1 -1 0
1;
#X obj 246 327 tgl 15 0 empty empty empty 17 7 0 10 -262144 -1 -1 0
1;
#X obj 267 327 tgl 15 0 empty empty empty 17 7 0 10 -262144 -1 -1 1
1;
#X obj 287 327 tgl 15 0 empty empty empty 17 7 0 10 -262144 -1 -1 0
1;
#X obj 307 327 tgl 15 0 empty empty empty 17 7 0 10 -262144 -1 -1 0
1;
#X obj 22 259 unpack f f;
#X obj 22 306 pack f f;
#X obj 79 281 / 16384;
#X obj 21 38 pied/pied 0 41424;
#X obj 259 277 tgl 15 0 empty empty empty 17 7 0 10 -262144 -1 -1 0
1;
#X obj 34 337 unpack f f;
#X floatatom 34 359 5 0 0 0 - - -, f 5;
#X floatatom 102 364 5 0 0 0 - - -, f 5;
#X text 271 19 8 hall-analogiques;
#X text 271 32 2 axl dans les fers (?);
#X text 273 77 un poussoir "mode" -> (+fer ou +chime);
#X text 271 46 8 contacteurs (clés suspendues:chime);
#X obj 18 140 fruit/fruit 1 fer1 10 fw;
#X obj 22 207 fruit/receive fer1;
#X obj 369 341 moses 6, f 14;
#X obj 369 317 unpack f f, f 16;
#X obj 369 382 pack f f;
#X obj 450 384 pack f f;
#X obj 369 407 s play_chime;
#X obj 450 407 s play_repassage;
#X obj 450 363 - 6;
#N canvas 1 81 852 447 tmp 0;
#X obj 339 334 unpack f f f f f f;
#X floatatom 319 371 5 0 0 0 - - -, f 5;
#X floatatom 372 370 5 0 0 0 - - -, f 5;
#X floatatom 416 370 5 0 0 0 - - -, f 5;
#X obj 340 301 r AXLSLOW1;
#X obj 340 218 fruit/receive blaster3;
#X obj 340 241 route 1;
#X obj 340 263 axlprocess 1;
#X obj 505 307 s AX-x;
#X obj 620 306 s AX-y;
#X obj 744 302 s AX-z;
#X text 619 324 0=haut 1=bas;
#X text 480 324 0=droite 1=gauche;
#X text 725 318 0=verso 1=recto;
#X obj 565 179 r AXLSLOW1;
#X obj 565 210 unpack f f f;
#X obj 507 258 + 1;
#X obj 507 278 / 2;
#X obj 622 260 + 1;
#X obj 622 280 / 2;
#X obj 743 252 + 1;
#X obj 744 275 / 2;
#X obj 59 77 fruit/fruit 1 blaster2 11 fw 1;
#X obj 263 77 fruit/fruit 1 blaster3 12 fwAxl 1;
#X connect 0 0 1 0;
#X connect 0 1 2 0;
#X connect 0 2 3 0;
#X connect 4 0 0 0;
#X connect 5 0 6 0;
#X connect 6 0 7 0;
#X connect 14 0 15 0;
#X connect 15 0 16 0;
#X connect 15 1 18 0;
#X connect 15 2 20 0;
#X connect 16 0 17 0;
#X connect 17 0 8 0;
#X connect 18 0 19 0;
#X connect 19 0 9 0;
#X connect 20 0 21 0;
#X connect 21 0 10 0;
#X restore 444 18 pd tmp;
#X text 270 62 analogs: vol_fer \, vol_chime \, fx_fers \, fx_chime
;
#X connect 0 0 13 0;
#X connect 0 1 2 0;
#X connect 2 0 3 0;
#X connect 2 0 28 0;
#X connect 3 0 4 0;
#X connect 3 1 5 0;
#X connect 3 2 6 0;
#X connect 3 3 7 0;
#X connect 3 4 8 0;
#X connect 3 5 9 0;
#X connect 3 6 10 0;
#X connect 3 7 11 0;
#X connect 3 8 12 0;
#X connect 13 0 14 0;
#X connect 13 1 15 0;
#X connect 14 0 18 0;
#X connect 15 0 14 1;
#X connect 18 0 19 0;
#X connect 18 1 20 0;
#X connect 26 0 0 0;
#X connect 27 0 29 0;
#X connect 27 1 33 0;
#X connect 28 0 27 0;
#X connect 28 1 29 1;
#X connect 28 1 30 1;
#X connect 29 0 31 0;
#X connect 30 0 32 0;
#X connect 33 0 30 0;
