#N canvas 794 81 448 744 10;
#X declare -path ../absGAMME;
#X obj 53 22 r \$2;
#X obj 53 64 route \$1;
#X text 104 84 bank note;
#X obj 52 671 outlet~;
#X msg 239 131 set NT-\$1-\$2;
#X obj 52 650 tabread4~;
#X msg 98 131 set noteaccord-\$1 \, \$2;
#X msg 53 172 set notelength-\$1 \, \$2;
#X obj 53 86 t a a a;
#X obj 53 192 tabread;
#X obj 98 150 tabread;
#X obj 53 213 pack f f;
#X obj 53 234 unpack f f;
#X obj 110 257 t f f;
#X obj 236 26 declare -path ../absGAMME;
#X obj 110 299 -;
#X obj 110 320 mtof;
#X obj 110 367 swap 1;
#X obj 110 389 /;
#X obj 53 487 pack f f;
#X obj 53 410 t f f;
#X obj 80 432 *;
#X msg 53 508 0 \, \$1 \$2;
#X obj 53 555 line~;
#X obj 110 278 gammeRound /GAMME 300;
#X obj 110 342 / 8.175;
#X obj 80 453 / 44.1;
#X obj 53 43 route play gamme, f 23;
#X msg 211 105 set \$1;
#X obj 211 82 symbol;
#X obj 170 352 change;
#X obj 170 485 *;
#X obj 202 439 t f f;
#X obj 170 552 pack f f;
#X obj 170 460 +;
#X obj 170 439 * -1;
#X msg 170 572 \$2 \$1;
#X obj 170 527 moses 1;
#X obj 170 506 / 44.1;
#X obj 170 417 snapshot~;
#X obj 170 396 t b f, f 15;
#X obj 227 369 line;
#X msg 227 348 \$1 100;
#X connect 0 0 27 0;
#X connect 1 0 8 0;
#X connect 4 0 5 0;
#X connect 5 0 3 0;
#X connect 6 0 10 0;
#X connect 7 0 9 0;
#X connect 8 0 7 0;
#X connect 8 1 6 0;
#X connect 8 2 4 0;
#X connect 9 0 11 0;
#X connect 10 0 11 1;
#X connect 11 0 12 0;
#X connect 12 0 20 0;
#X connect 12 1 13 0;
#X connect 13 0 24 0;
#X connect 13 1 15 1;
#X connect 15 0 16 0;
#X connect 16 0 25 0;
#X connect 17 0 18 0;
#X connect 17 1 18 1;
#X connect 18 0 21 1;
#X connect 18 0 30 0;
#X connect 19 0 22 0;
#X connect 20 0 19 0;
#X connect 20 1 21 0;
#X connect 20 1 32 0;
#X connect 21 0 26 0;
#X connect 22 0 23 0;
#X connect 23 0 39 0;
#X connect 23 0 5 0;
#X connect 24 0 15 0;
#X connect 25 0 17 0;
#X connect 26 0 19 1;
#X connect 27 0 1 0;
#X connect 27 1 29 0;
#X connect 28 0 24 0;
#X connect 29 0 28 0;
#X connect 30 0 42 0;
#X connect 31 0 38 0;
#X connect 32 0 34 1;
#X connect 32 1 33 1;
#X connect 33 0 36 0;
#X connect 34 0 31 0;
#X connect 35 0 34 0;
#X connect 36 0 23 0;
#X connect 37 1 33 0;
#X connect 38 0 37 0;
#X connect 39 0 35 0;
#X connect 40 0 39 0;
#X connect 40 1 31 1;
#X connect 41 0 40 0;
#X connect 42 0 41 0;
