#N canvas 832 289 534 479 10;
#X declare -path notebank;
#X declare -path absGAMME -path ../absGAMME;
#X declare -stdpath motex -path motex -lib motex;
#X declare -stdpath iemlib -lib iemlib1;
#X declare -lib iemlib;
#X obj 28 113 fraise_interface;
#X obj 365 8 r CLOCK;
#X obj 365 51 unpack f f;
#X floatatom 365 73 5 0 0 0 - - -, f 5;
#X floatatom 422 73 5 0 0 0 - - -, f 5;
#X obj 365 98 bng 50 50 50 0 empty empty empty 17 7 0 10 -262144 -1
-1;
#X obj 442 105 r /BPM;
#X floatatom 442 127 5 0 0 0 - - -, f 5;
#X obj 365 29 route list;
#X obj 365 154 GAMMEKBV /GAMME;
#N canvas 59 535 400 233 notebanks 1;
#X obj 27 9 declare -path notebank;
#X obj 246 20 accorder;
#X obj 25 63 notebank 1 23 SonsCourts/Hi;
#X obj 25 81 notebank 2 38 SonsCourts/Med;
#X obj 25 99 notebank 3 17 SonsCourts/Low;
#X obj 26 131 notebank 4 8 Cris;
#X obj 27 153 notebank 5 16 Zarbi;
#X restore 28 154 pd notebanks;
#X obj 27 9 declare -path absGAMME -path ../absGAMME;
#X obj 27 28 declare -stdpath motex -path motex -lib motex;
#X obj 148 137 getenv HOME;
#X obj 148 118 bng 15 250 50 0 empty empty empty 17 7 0 10 -262144
-1 -1;
#X symbolatom 148 158 10 0 0 0 - - -, f 10;
#X obj 148 199 s DATASDIR;
#X obj 148 97 loadbang;
#X obj 124 225 del 100;
#X obj 124 246 s LOADTABLES;
#X obj 232 116 bng 15 250 50 0 empty empty empty 17 7 0 10 -262144
-1 -1;
#N canvas 298 575 450 300 MASTER 0;
#X obj 176 130 limiter~;
#X obj 136 131 z~ 64;
#X obj 134 19 catch~ master;
#X obj 135 95 *~ 1;
#X obj 136 152 *~;
#X obj 130 193 dac~;
#X obj 155 45 lop~ 1000;
#X obj 154 68 rev3~ 90 80 1000 20;
#X connect 0 0 4 1;
#X connect 1 0 4 0;
#X connect 2 0 3 0;
#X connect 2 0 6 0;
#X connect 3 0 0 0;
#X connect 3 0 1 0;
#X connect 4 0 5 0;
#X connect 4 0 5 1;
#X connect 6 0 7 0;
#X connect 7 0 3 0;
#X restore 31 283 pd MASTER;
#X obj 273 263 loadbang;
#X msg 273 284 \; pd dsp 1;
#X obj 365 218 GAMMEKBV /CHORD;
#X obj 28 47 declare -stdpath iemlib -lib iemlib1;
#X obj 441 412 s /GAMME;
#X msg 441 392 2741;
#X obj 378 412 s /CHORD;
#X msg 378 394 145;
#X obj 387 341 loadbang;
#X obj 29 93 ../domoNet Moulimix;
#X msg 148 178 symbol \$1/Datas/Domozic/Moulimix;
#N canvas 126 218 877 538 CROQUE 1;
#X obj 63 19 r CROQUE;
#X obj 256 307 hsl 128 15 0 1 0 0 empty empty empty -2 -8 0 10 -262144
-1 -1 12684 1;
#X obj 254 327 pow 2;
#X obj 100 498 throw~ master;
#X obj 253 265 r CROQUE;
#X obj 253 285 route vol;
#X obj 63 39 route fx son pot;
#X obj 295 85 declare -lib iemlib;
#X obj 102 257 noise~;
#X obj 149 244 * 128;
#X obj 149 264 mtof;
#X obj 207 32 r CLOCK;
#X floatatom 333 43 5 0 0 0 - - -, f 5;
#X obj 164 79 mod 2;
#X obj 164 121 *;
#X obj 162 141 t b f;
#X obj 149 163 +;
#X obj 149 184 clip 0 1;
#X obj 164 100 != 0;
#X obj 60 81 * -0.5;
#X obj 149 226 line;
#X obj 55 179 sel 0 1 2 3;
#X obj 59 117 * 3.9;
#X floatatom 14 146 5 0 0 0 - - -, f 5;
#X obj 59 138 i;
#X obj 59 159 change;
#X obj 207 53 ndmetro 2 8;
#X msg 31 216 2 2;
#X msg 57 217 2 4;
#X msg 39 261 nd \$1 \$2;
#X msg 85 217 2 8;
#X msg 111 218 2 16;
#X obj 99 357 bob~;
#X obj 149 285 lop~ 15;
#X floatatom 266 174 5 0 999 0 - - -, f 5;
#X msg 266 220 saturation \$1;
#X obj 266 196 / 100;
#X msg 266 150 500;
#X obj 266 128 loadbang;
#X floatatom 568 150 5 0 0 0 - - -, f 5;
#X obj 568 172 t b f;
#X obj 568 193 random;
#X obj 568 214 + 1;
#X obj 568 129 tabread notelength-4;
#X obj 39 301 clone noteplayer 8 Cris-notes;
#X obj 568 279 s Cris-play;
#X obj 568 323 t a b;
#X obj 568 379 list prepend;
#X obj 621 328 + 1;
#X obj 595 345 f;
#X msg 568 400 play \$1 \$2 \$3;
#X obj 568 302 r Cris-play;
#X obj 621 346 mod 8;
#X obj 568 426 s Cris-notes;
#X obj 570 4 tgl 15 0 empty empty empty 17 7 0 10 -262144 -1 -1 1 1
;
#X obj 144 324 sig~ 2;
#X msg 149 205 \$1 10;
#X msg 568 104 set notelength-\$1 \, 0;
#X obj 568 78 t f f;
#X obj 568 235 list prepend 4;
#X obj 568 56 f 4;
#X msg 649 30 5;
#X msg 631 67 4;
#X obj 569 31 metro 550;
#X obj 703 46 loadbang;
#X obj 703 67 del 10000;
#X obj 271 378 *;
#X obj 287 356 t b f;
#X msg 271 399 \$1 10;
#X obj 271 420 line~;
#X obj 100 477 *~;
#X obj 300 333 > 10;
#X obj 246 348 * 4;
#X connect 0 0 6 0;
#X connect 1 0 2 0;
#X connect 2 0 72 0;
#X connect 4 0 5 0;
#X connect 5 0 1 0;
#X connect 6 0 19 0;
#X connect 6 1 22 0;
#X connect 6 2 16 0;
#X connect 9 0 10 0;
#X connect 9 0 71 0;
#X connect 10 0 33 0;
#X connect 11 0 26 0;
#X connect 13 0 18 0;
#X connect 14 0 15 0;
#X connect 15 0 16 0;
#X connect 15 1 16 1;
#X connect 16 0 17 0;
#X connect 17 0 56 0;
#X connect 18 0 14 0;
#X connect 19 0 14 1;
#X connect 20 0 9 0;
#X connect 21 0 27 0;
#X connect 21 1 28 0;
#X connect 21 2 30 0;
#X connect 21 3 31 0;
#X connect 22 0 24 0;
#X connect 24 0 23 0;
#X connect 24 0 25 0;
#X connect 25 0 21 0;
#X connect 26 0 13 0;
#X connect 27 0 29 0;
#X connect 28 0 29 0;
#X connect 29 0 26 0;
#X connect 30 0 29 0;
#X connect 31 0 29 0;
#X connect 32 0 70 0;
#X connect 33 0 32 1;
#X connect 34 0 36 0;
#X connect 35 0 32 0;
#X connect 36 0 35 0;
#X connect 37 0 34 0;
#X connect 38 0 37 0;
#X connect 39 0 40 0;
#X connect 40 0 41 0;
#X connect 40 1 41 1;
#X connect 41 0 42 0;
#X connect 42 0 59 0;
#X connect 43 0 39 0;
#X connect 44 0 32 0;
#X connect 46 0 47 0;
#X connect 46 1 49 0;
#X connect 47 0 50 0;
#X connect 48 0 52 0;
#X connect 49 0 48 0;
#X connect 49 0 47 1;
#X connect 50 0 53 0;
#X connect 51 0 46 0;
#X connect 52 0 49 1;
#X connect 54 0 63 0;
#X connect 55 0 32 2;
#X connect 56 0 20 0;
#X connect 57 0 43 0;
#X connect 58 0 57 0;
#X connect 58 1 59 1;
#X connect 59 0 45 0;
#X connect 60 0 58 0;
#X connect 61 0 60 1;
#X connect 62 0 60 1;
#X connect 63 0 60 0;
#X connect 64 0 65 0;
#X connect 65 0 54 0;
#X connect 66 0 68 0;
#X connect 67 0 66 0;
#X connect 67 1 66 1;
#X connect 68 0 69 0;
#X connect 69 0 70 1;
#X connect 70 0 3 0;
#X connect 71 0 67 0;
#X connect 72 0 66 0;
#X restore 31 320 pd CROQUE;
#N canvas 102 181 864 694 MOULI 0;
#X obj 104 129 * 130;
#X obj 104 150 mtof;
#X obj 104 109 abs;
#X obj 104 171 - 8.175;
#X obj 107 241 ssaw~;
#X obj 167 213 hsl 128 15 0 1 0 0 empty empty empty -2 -8 0 10 -262144
-1 -1 0 1;
#X obj 164 233 pow 2;
#X obj 196 152 r CONTROL;
#X obj 196 173 route vol;
#X obj 164 17 r CONTROL;
#X obj 164 38 route son;
#X obj 164 61 * 100;
#X obj 164 82 + 30;
#X obj 98 85 r motSpeed;
#X obj 107 283 throw~ master;
#X obj 68 474 throw~ master;
#X obj 67 430 *~;
#X obj 82 410 line~;
#X msg 82 390 \$1 10;
#X obj 171 398 hsl 128 15 0 1 0 1 empty empty empty -2 -8 0 10 -262144
-1 -1 12684 1;
#X obj 168 418 pow 2;
#X obj 331 72 t a b;
#X obj 331 128 list prepend;
#X obj 384 95 mod 16;
#X obj 384 77 + 1;
#X obj 358 94 f;
#X msg 331 149 play \$1 \$2 \$3;
#X obj 331 175 s Mouli-notes;
#X obj 331 51 r Mouli-play;
#X obj 348 253 tabread notelength-1;
#X floatatom 348 274 5 0 0 0 - - -, f 5;
#X msg 348 230 0;
#X obj 348 296 t b f;
#X obj 348 317 random;
#X obj 348 338 + 1;
#X obj 348 407 s Mouli-play;
#X floatatom 495 275 5 0 0 0 - - -, f 5;
#X msg 495 231 0;
#X obj 495 297 t b f;
#X obj 495 318 random;
#X obj 495 339 + 1;
#X obj 495 403 s Mouli-play;
#X obj 495 254 tabread notelength-2;
#X msg 495 380 2 \$1;
#X floatatom 645 270 5 0 0 0 - - -, f 5;
#X msg 645 226 0;
#X obj 645 292 t b f;
#X obj 645 313 random;
#X obj 645 334 + 1;
#X obj 645 399 s Mouli-play;
#X obj 645 249 tabread notelength-3;
#X msg 645 376 3 \$1;
#X msg 581 524 transpose \$1;
#X floatatom 549 484 5 0 0 0 - - -, f 5;
#X obj 581 544 s Mouli-notes;
#X obj 543 70 ndmetro 4 2;
#X obj 543 91 sel 0 1 2 3;
#X obj 543 25 r CLOCK;
#X obj 504 132 b;
#X msg 348 384 1 \$1;
#X obj 348 359 t f b;
#X obj 495 359 t f b;
#X obj 645 353 t f b;
#X obj 580 441 f;
#X msg 636 26 nd 4 4;
#X msg 580 406 7;
#X msg 750 24 nd 4 1;
#X msg 445 405 12;
#X msg 684 24 nd 4 2;
#X obj 298 637 s Mouli-notes;
#X msg 298 617 scratch \$1;
#X obj 299 470 abs;
#X obj 299 446 r motSpeed;
#X floatatom 136 532 5 0 0 0 - - -, f 5;
#X obj 299 528 * 2;
#X obj 67 366 clone noteplayer 16 Mouli-notes;
#X obj 225 295 * 0.5;
#X obj 104 203 lop~ 10;
#X obj 106 262 *~ 0;
#X obj 387 505 i;
#X obj 387 526 change;
#X msg 637 71 nd \$1 \$2;
#X msg 475 582 4 4;
#X obj 409 618 t a;
#X floatatom 509 536 5 0 0 0 - - -, f 5;
#X obj 387 485 * 6.5;
#X msg 502 585 4 8;
#X msg 379 578 4 0.5;
#X msg 728 407 0;
#X obj 386 547 sel 0 1 2 3 4 5 6;
#X msg 416 579 4 1;
#X msg 446 579 4 2;
#X text 393 230 Hi;
#X text 538 229 Mid;
#X text 682 230 Low;
#X obj 168 439 * 1;
#X obj 67 451 hip~ 100;
#X obj 168 460 *;
#X obj 197 442 t b f;
#X obj 210 419 > 0.02;
#X connect 0 0 1 0;
#X connect 1 0 3 0;
#X connect 2 0 0 0;
#X connect 3 0 77 0;
#X connect 4 0 78 0;
#X connect 5 0 6 0;
#X connect 6 0 78 1;
#X connect 7 0 8 0;
#X connect 8 0 76 0;
#X connect 8 0 19 0;
#X connect 9 0 10 0;
#X connect 10 0 11 0;
#X connect 11 0 12 0;
#X connect 12 0 0 1;
#X connect 13 0 2 0;
#X connect 16 0 96 0;
#X connect 17 0 16 1;
#X connect 18 0 17 0;
#X connect 19 0 20 0;
#X connect 20 0 95 0;
#X connect 21 0 22 0;
#X connect 21 1 25 0;
#X connect 22 0 26 0;
#X connect 23 0 25 1;
#X connect 24 0 23 0;
#X connect 25 0 24 0;
#X connect 25 0 22 1;
#X connect 26 0 27 0;
#X connect 28 0 21 0;
#X connect 29 0 30 0;
#X connect 30 0 32 0;
#X connect 31 0 29 0;
#X connect 32 0 33 0;
#X connect 32 1 33 1;
#X connect 33 0 34 0;
#X connect 34 0 60 0;
#X connect 36 0 38 0;
#X connect 37 0 42 0;
#X connect 38 0 39 0;
#X connect 38 1 39 1;
#X connect 39 0 40 0;
#X connect 40 0 61 0;
#X connect 42 0 36 0;
#X connect 43 0 41 0;
#X connect 44 0 46 0;
#X connect 45 0 50 0;
#X connect 46 0 47 0;
#X connect 46 1 47 1;
#X connect 47 0 48 0;
#X connect 48 0 62 0;
#X connect 50 0 44 0;
#X connect 51 0 49 0;
#X connect 52 0 54 0;
#X connect 53 0 52 0;
#X connect 55 0 56 0;
#X connect 56 0 45 0;
#X connect 56 1 58 0;
#X connect 56 2 37 0;
#X connect 56 3 58 0;
#X connect 57 0 55 0;
#X connect 58 0 31 0;
#X connect 59 0 35 0;
#X connect 60 0 59 0;
#X connect 60 1 67 0;
#X connect 61 0 43 0;
#X connect 61 1 65 0;
#X connect 62 0 51 0;
#X connect 62 1 88 0;
#X connect 63 0 52 0;
#X connect 64 0 55 0;
#X connect 65 0 63 0;
#X connect 66 0 55 0;
#X connect 67 0 63 0;
#X connect 68 0 55 0;
#X connect 70 0 69 0;
#X connect 71 0 74 0;
#X connect 71 0 85 0;
#X connect 72 0 71 0;
#X connect 74 0 70 0;
#X connect 74 0 99 0;
#X connect 75 0 16 0;
#X connect 77 0 4 0;
#X connect 78 0 14 0;
#X connect 79 0 80 0;
#X connect 80 0 84 0;
#X connect 80 0 89 0;
#X connect 81 0 55 0;
#X connect 82 0 83 0;
#X connect 83 0 81 0;
#X connect 85 0 79 0;
#X connect 86 0 83 0;
#X connect 87 0 83 0;
#X connect 88 0 63 0;
#X connect 89 0 87 0;
#X connect 89 1 87 0;
#X connect 89 2 90 0;
#X connect 89 3 90 0;
#X connect 89 4 91 0;
#X connect 89 5 82 0;
#X connect 89 6 86 0;
#X connect 90 0 83 0;
#X connect 91 0 83 0;
#X connect 95 0 97 0;
#X connect 96 0 15 0;
#X connect 97 0 18 0;
#X connect 98 0 97 0;
#X connect 98 1 97 1;
#X connect 99 0 98 0;
#X restore 31 341 pd MOULI;
#X connect 1 0 8 0;
#X connect 2 0 3 0;
#X connect 2 1 4 0;
#X connect 3 0 5 0;
#X connect 6 0 7 0;
#X connect 8 0 2 0;
#X connect 13 0 15 0;
#X connect 14 0 13 0;
#X connect 14 0 18 0;
#X connect 15 0 32 0;
#X connect 17 0 14 0;
#X connect 18 0 19 0;
#X connect 20 0 13 0;
#X connect 22 0 23 0;
#X connect 27 0 26 0;
#X connect 29 0 28 0;
#X connect 30 0 29 0;
#X connect 30 0 27 0;
#X connect 32 0 16 0;
