#N canvas 905 331 534 479 10;
#X declare -path notebank;
#X declare -path absGAMME -path ../absGAMME;
#X declare -stdpath motex -path motex -lib motex;
#X declare -stdpath iemlib -lib iemlib1;
#X obj 28 113 fraise_interface;
#X obj 365 8 r CLOCK;
#X obj 365 51 unpack f f;
#X floatatom 365 73 5 0 0 0 - - -, f 5;
#X floatatom 422 73 5 0 0 0 - - -, f 5;
#X obj 365 98 bng 50 50 50 0 empty empty empty 17 7 0 10 -262144 -1
-1;
#X obj 442 105 r /BPM;
#X floatatom 442 127 5 0 0 0 - - -, f 5;
#X obj 29 93 ../domoNet;
#X obj 365 29 route list;
#X obj 365 154 GAMMEKBV /GAMME;
#N canvas 70 396 522 372 notebanks 1;
#X obj 27 9 declare -path notebank;
#X obj 246 20 accorder;
#X obj 25 63 notebank 1 7 Chants/ChantsAurore;
#X obj 24 81 notebank 2 8 Chants/ChantsBrigitte;
#X obj 24 100 notebank 3 2 Chants/ChantsCollectifs;
#X obj 24 118 notebank 4 5 Chants/ChantsCorine;
#X obj 24 136 notebank 5 8 Chants/ChantsHubert;
#X obj 24 154 notebank 6 7 Chants/ChantsJean;
#X obj 24 191 notebank 8 4 Chants/ChantsMichele;
#X obj 24 209 notebank 9 6 Chants/ChantsMoricette;
#X obj 24 227 notebank 10 5 Chants/ChantsNicole;
#X obj 24 245 notebank 11 5 Chants/ChantsPatricia;
#X obj 24 263 notebank 12 5 Chants/ChantsPierre;
#X obj 24 281 notebank 13 4 Chants/ChantsRoro;
#X obj 24 299 notebank 14 3 Chants/ChantsVirginie;
#X obj 24 172 notebank 7 6 Chants/ChantsMarie-Eve;
#X restore 28 154 pd notebanks;
#X obj 27 9 declare -path absGAMME -path ../absGAMME;
#X obj 27 28 declare -stdpath motex -path motex -lib motex;
#X obj 148 137 getenv HOME;
#X obj 148 118 bng 15 250 50 0 empty empty empty 17 7 0 10 -262144
-1 -1;
#X symbolatom 148 158 10 0 0 0 - - -, f 10;
#X obj 148 199 s DATASDIR;
#X obj 148 97 loadbang;
#X obj 124 225 del 100;
#X obj 124 246 s LOADTABLES;
#X obj 232 116 bng 15 250 50 0 empty empty empty 17 7 0 10 -262144
-1 -1;
#N canvas 388 197 883 531 Repassage 0;
#X obj 55 318 throw~ master;
#X obj 54 36 r Repassage-play;
#X obj 54 57 t a b;
#X obj 54 113 list prepend;
#X obj 54 160 s Repassage-notes;
#X obj 107 80 mod 16;
#X obj 107 62 + 1;
#X obj 81 79 f;
#X obj 621 457 s Repassage-notes;
#X obj 54 274 *~;
#X obj 69 254 line~;
#X msg 69 234 \$1 10;
#X obj 158 242 hsl 128 15 0 1 0 1 empty empty empty -2 -8 0 10 -262144
-1 -1 7000 1;
#X obj 155 262 pow 2;
#X msg 749 417 gamme /GAMME;
#X msg 665 418 gamme /CHORD;
#X msg 586 418 play 0 1 1;
#X msg 54 134 play \$1 \$2 \$3;
#X obj 294 100 f;
#X obj 294 121 t f f, f 11;
#X obj 357 163 tabread;
#X msg 357 143 set notelength-\$1 \, 0;
#X obj 357 184 t b f;
#X obj 357 205 random;
#X obj 294 248 list append;
#X obj 294 268 s Repassage-play;
#X msg 266 74 1;
#X obj 342 93 + 1;
#X obj 348 48 bng 15 250 50 0 empty empty empty 17 7 0 10 -262144 -1
-1;
#X obj 357 226 + 1;
#X obj 294 76 + 1;
#X obj 54 295 hip~ 20;
#X obj 342 72 random 14;
#X msg 751 447 gamme /BASS;
#X obj 509 65 hradio 15 1 0 5 empty empty empty 0 -8 0 10 -262144 -1
-1 0;
#X obj 620 64 hradio 15 1 0 3 empty empty empty 0 -8 0 10 -262144 -1
-1 0;
#N canvas 1 81 450 300 mode->bank/gamme 0;
#X obj 140 30 r REPASSE;
#X obj 140 51 route play mode, f 23;
#X obj 140 137 route 1;
#X obj 140 116 pack f f;
#X msg 140 72 \$2 \$1;
#X obj 140 93 route 1;
#X obj 140 158 moses 5, f 8;
#X obj 185 180 - 5;
#X obj 185 201 outlet;
#X obj 140 201 outlet;
#X connect 0 0 1 0;
#X connect 1 0 4 0;
#X connect 1 1 3 1;
#X connect 2 0 6 0;
#X connect 3 0 2 0;
#X connect 4 0 5 0;
#X connect 5 0 3 0;
#X connect 6 0 9 0;
#X connect 6 1 7 0;
#X connect 7 0 8 0;
#X restore 509 44 pd mode->bank/gamme;
#X obj 620 84 sel 0 1 2, f 39;
#X obj 697 137 s Repassage-notes;
#X msg 779 106 gamme /GAMME;
#X msg 697 107 gamme /CHORD;
#X msg 620 107 gamme /BASS;
#X obj 509 90 sel 0 1 2 3 4;
#X msg 509 148 1 2 3 4 5 6 7 8;
#X msg 530 177 9 10 11 12 13 14 7 8;
#X obj 53 7 table Repasse-banks 10;
#X obj 529 210 list prepend 0;
#X obj 529 231 s Repasse-banks;
#X obj 492 18 loadbang;
#N canvas 1 189 263 224 play 0;
#X obj 53 25 r REPASSE;
#X obj 53 46 route play mode, f 23;
#X obj 53 111 pack f f;
#X msg 53 67 \$2 \$1;
#X obj 53 88 route 1;
#X obj 53 157 outlet;
#X obj 53 132 route 0;
#X connect 0 0 1 0;
#X connect 1 0 3 0;
#X connect 1 1 2 1;
#X connect 2 0 6 0;
#X connect 3 0 4 0;
#X connect 4 0 2 0;
#X connect 6 0 5 0;
#X restore 294 6 pd play;
#X obj 294 27 tabread Repasse-banks;
#X obj 711 63 loadbang;
#X msg 692 378 transpose \$1;
#N canvas 1 135 391 277 deadzone 0;
#X obj 163 42 hsl 128 15 0 1 0 0 empty empty empty -2 -8 0 10 -262144
-1 -1 0 1;
#X obj 115 79 * 7;
#X obj 115 100 - 3.5;
#X obj 115 121 moses -0.5;
#X obj 115 184 / 3;
#X obj 185 121 moses 0.5;
#X msg 185 183 0;
#X obj 167 238 hsl 128 15 -1 1 0 0 empty empty empty -2 -8 0 10 -262144
-1 -1 0 1;
#X obj 115 205 f;
#X floatatom 81 122 5 0 0 0 - - -, f 5;
#X obj 115 142 + 0.5;
#X obj 236 141 - 0.5;
#X obj 115 41 inlet;
#X obj 115 226 outlet;
#X connect 1 0 2 0;
#X connect 2 0 3 0;
#X connect 2 0 9 0;
#X connect 3 0 10 0;
#X connect 3 1 5 0;
#X connect 4 0 8 0;
#X connect 5 0 6 0;
#X connect 5 1 11 0;
#X connect 6 0 8 0;
#X connect 8 0 13 0;
#X connect 10 0 4 0;
#X connect 11 0 4 0;
#X connect 12 0 1 0;
#X restore 692 334 pd deadzone;
#X obj 692 286 r REPASSE;
#X obj 692 307 route transpose;
#X obj 692 355 * 24;
#X obj 348 307 r REPASSE;
#X obj 348 328 route fx;
#X obj 675 265 hsl 128 15 0 1 0 0 empty empty empty -2 -8 0 10 -262144
-1 -1 8000 1;
#X obj 212 38 metro 1000;
#X obj 219 17 tgl 15 0 empty empty empty 17 7 0 10 -262144 -1 -1 0
1;
#X msg 578 369 stop -1;
#X obj 54 210 clone noteplayer 16 Repassage-notes;
#X connect 1 0 2 0;
#X connect 2 0 3 0;
#X connect 2 1 7 0;
#X connect 3 0 17 0;
#X connect 5 0 7 1;
#X connect 6 0 5 0;
#X connect 7 0 6 0;
#X connect 7 0 3 1;
#X connect 9 0 31 0;
#X connect 10 0 9 1;
#X connect 11 0 10 0;
#X connect 12 0 13 0;
#X connect 13 0 11 0;
#X connect 14 0 8 0;
#X connect 15 0 8 0;
#X connect 16 0 8 0;
#X connect 17 0 4 0;
#X connect 18 0 19 0;
#X connect 19 0 24 0;
#X connect 19 1 21 0;
#X connect 20 0 22 0;
#X connect 21 0 20 0;
#X connect 22 0 23 0;
#X connect 22 1 23 1;
#X connect 23 0 29 0;
#X connect 24 0 25 0;
#X connect 26 0 18 0;
#X connect 27 0 18 0;
#X connect 28 0 32 0;
#X connect 29 0 24 1;
#X connect 30 0 18 0;
#X connect 31 0 0 0;
#X connect 32 0 27 0;
#X connect 33 0 8 0;
#X connect 34 0 42 0;
#X connect 35 0 37 0;
#X connect 36 0 34 0;
#X connect 36 1 35 0;
#X connect 37 0 41 0;
#X connect 37 1 40 0;
#X connect 37 2 39 0;
#X connect 39 0 38 0;
#X connect 40 0 38 0;
#X connect 41 0 38 0;
#X connect 42 0 43 0;
#X connect 42 1 44 0;
#X connect 43 0 46 0;
#X connect 44 0 46 0;
#X connect 46 0 47 0;
#X connect 48 0 43 0;
#X connect 49 0 50 0;
#X connect 50 0 30 0;
#X connect 51 0 40 0;
#X connect 52 0 8 0;
#X connect 53 0 56 0;
#X connect 54 0 55 0;
#X connect 55 0 53 0;
#X connect 56 0 52 0;
#X connect 57 0 58 0;
#X connect 59 0 53 0;
#X connect 60 0 26 0;
#X connect 61 0 60 0;
#X connect 62 0 8 0;
#X connect 63 0 9 0;
#X restore 31 208 pd Repassage;
#N canvas 1 81 450 300 MASTER 0;
#X obj 176 130 limiter~;
#X obj 136 131 z~ 64;
#X obj 134 19 catch~ master;
#X obj 135 95 *~ 1;
#X obj 136 152 *~;
#X obj 130 193 dac~;
#X obj 162 53 rev3~ 90 95 3000 20;
#X connect 0 0 4 1;
#X connect 1 0 4 0;
#X connect 2 0 3 0;
#X connect 2 0 6 0;
#X connect 3 0 0 0;
#X connect 3 0 1 0;
#X connect 4 0 5 0;
#X connect 4 0 5 1;
#X connect 6 0 3 0;
#X restore 31 283 pd MASTER;
#X obj 273 263 loadbang;
#X msg 273 284 \; pd dsp 1;
#X obj 365 218 GAMMEKBV /CHORD;
#N canvas 330 543 652 300 Chime 0;
#X obj 245 49 t a b;
#X obj 245 105 list prepend;
#X obj 298 72 mod 16;
#X obj 298 54 + 1;
#X obj 272 71 f;
#X obj 245 28 r cristal-play;
#X obj 245 168 s cristal;
#X obj 53 278 throw~ master;
#X obj 53 232 *~;
#X obj 68 212 line~;
#X msg 68 192 \$1 10;
#X obj 157 200 hsl 128 15 0 1 0 1 empty empty empty -2 -8 0 10 -262144
-1 -1 2100 1;
#X obj 154 220 pow 2;
#X msg 386 127 play 0;
#X msg 525 45 gamme /GAMME;
#X msg 441 46 gamme /CHORD;
#X obj 397 85 s cristal;
#X obj 53 165 lop~ 2000;
#X obj 213 30 bng 15 250 50 0 empty empty empty 17 7 0 10 -262144 -1
-1;
#X obj 462 276 s cristal-play;
#X obj 510 157 r play_chime;
#X msg 245 126 play \$1 \$2;
#X obj 510 178 spigot;
#X obj 559 183 tgl 15 0 empty empty empty 17 7 0 10 -262144 -1 -1 0
1;
#X obj 409 180 spigot;
#X obj 458 185 tgl 15 0 empty empty empty 17 7 0 10 -262144 -1 -1 0
1;
#X obj 409 159 r play_repassage;
#X msg 462 219 \$2 \$1;
#X obj 462 240 route 1;
#X obj 53 144 clone cristal 16 cristal;
#X obj 53 258 hip~ 20;
#X floatatom 144 40 5 0 0 0 - - -, f 5;
#X connect 0 0 1 0;
#X connect 0 1 4 0;
#X connect 1 0 21 0;
#X connect 2 0 4 1;
#X connect 3 0 2 0;
#X connect 4 0 3 0;
#X connect 4 0 1 1;
#X connect 5 0 0 0;
#X connect 8 0 30 0;
#X connect 9 0 8 1;
#X connect 10 0 9 0;
#X connect 11 0 12 0;
#X connect 12 0 10 0;
#X connect 13 0 6 0;
#X connect 14 0 16 0;
#X connect 15 0 16 0;
#X connect 17 0 8 0;
#X connect 18 0 0 0;
#X connect 20 0 22 0;
#X connect 21 0 6 0;
#X connect 22 0 27 0;
#X connect 23 0 22 1;
#X connect 24 0 27 0;
#X connect 25 0 24 1;
#X connect 26 0 24 0;
#X connect 27 0 28 0;
#X connect 28 0 19 0;
#X connect 29 0 17 0;
#X connect 30 0 7 0;
#X connect 31 0 0 0;
#X restore 31 233 pd Chime;
#X obj 28 47 declare -stdpath iemlib -lib iemlib1;
#X obj 441 412 s /GAMME;
#X msg 441 392 2741;
#X obj 378 412 s /CHORD;
#X msg 378 394 145;
#X obj 387 341 loadbang;
#X msg 148 178 symbol \$1/Datas/Domozic/Ferailleur;
#X connect 1 0 9 0;
#X connect 2 0 3 0;
#X connect 2 1 4 0;
#X connect 3 0 5 0;
#X connect 6 0 7 0;
#X connect 9 0 2 0;
#X connect 14 0 16 0;
#X connect 15 0 14 0;
#X connect 15 0 19 0;
#X connect 16 0 34 0;
#X connect 18 0 15 0;
#X connect 19 0 20 0;
#X connect 21 0 14 0;
#X connect 24 0 25 0;
#X connect 30 0 29 0;
#X connect 32 0 31 0;
#X connect 33 0 32 0;
#X connect 33 0 30 0;
#X connect 34 0 17 0;
