#N canvas 525 145 913 707 10;
#X declare -path Fraise -stdpath Fraise -stdpath moonlib;
#X obj 21 38 pied/pied 0 41424;
#X obj 22 132 fruit/fruit 1 mouli1 10 fw;
#X obj 256 68 analog/parse;
#X obj 473 203 tgl 15 0 empty empty empty 17 7 0 10 -262144 -1 -1 0
1;
#X obj 256 90 unpack f f;
#X obj 256 137 pack f f;
#X obj 516 138 tgl 15 0 empty empty empty 17 7 0 10 -262144 -1 -1 0
1;
#X msg 255 215 vol \$1;
#X msg 473 242 mode \$1;
#X msg 300 216 fx \$1;
#X msg 624 385 l0\$1;
#X obj 624 365 tgl 15 0 empty empty empty 17 7 0 10 -262144 -1 -1 0
1;
#X obj 473 182 route 0, f 8;
#X obj 256 258 s CONTROL;
#X obj 519 408 fruit/send2 mouli1;
#X obj 15 432 dcmotor/motor mouli1 120 motor;
#X obj 578 306 hsl 128 15 -1023 1023 0 0 empty empty empty -2 -8 0
10 -262144 -1 -1 0 1;
#X msg 578 282 0;
#X msg 558 342 c 120 c 4 i \$1;
#X msg 669 383 SAVE;
#X msg 605 527 c 120 c 3 i \$1;
#X floatatom 622 493 8 0 0 0 - - -, f 8;
#X floatatom 490 335 5 0 0 0 - - -, f 5;
#X obj 490 355 / 1023;
#X obj 490 376 * 16;
#X floatatom 490 397 5 0 0 0 - - -, f 5;
#X floatatom 659 441 5 0 0 0 - - -, f 5;
#X obj 659 461 * 10;
#X floatatom 699 442 5 0 0 0 - - -, f 5;
#X obj 699 462 * 100;
#X obj 21 16 declare -path Fraise -stdpath Fraise -stdpath moonlib
;
#X obj 520 19 tgl 15 0 empty empty empty 17 7 0 10 -262144 -1 -1 0
1;
#X obj 408 126 spigot;
#X text 19 196 #define SPEEDPOT K2 #define VOLPOT K3 #define FXPOT
K4 #define SONPOT K5 #define CROQUESON K6 #define CROQUEFX MA1 #define
CROQUEVOL MA2 #define CROQUEPOT MB1 #define MODELED K1 #define MODESW
K7 #define MOTD_A K8 #define MOTD_B K9, f 22;
#X msg 343 215 son \$1;
#X msg 390 210 speed \$1;
#X floatatom 84 394 5 0 0 0 - - -, f 5;
#X floatatom 120 397 5 0 0 0 - - -, f 5;
#X floatatom 190 398 5 0 0 0 - - -, f 5;
#X floatatom 156 399 5 0 0 0 - - -, f 5;
#X obj 94 347 spigot;
#X obj 94 368 route 0 1 2 3 4 5 6 7, f 45;
#X floatatom 224 397 5 0 0 0 - - -, f 5;
#X floatatom 261 398 5 0 0 0 - - -, f 5;
#X floatatom 331 399 5 0 0 0 - - -, f 5;
#X floatatom 297 400 5 0 0 0 - - -, f 5;
#X obj 143 344 tgl 15 0 empty empty empty 17 7 0 10 -262144 -1 -1 0
1;
#X obj 473 161 spigot 1;
#X obj 586 585 r CONTROL;
#X obj 586 606 route speed;
#X floatatom 586 627 5 0 0 0 - - -, f 5;
#X obj 598 651 * 1300;
#X obj 255 190 route 3 2 1 0, f 24;
#X obj 556 180 / 1300;
#X msg 265 309 vol \$1;
#X msg 310 310 fx \$1;
#X msg 353 309 son \$1;
#X obj 266 341 s CROQUE;
#X floatatom 371 351 5 0 0 0 - - -, f 5;
#X floatatom 225 240 5 0 0 0 - - -, f 5;
#X msg 409 387 pot \$1;
#X obj 266 284 route 5 7 6 4, f 24;
#X obj 410 303 - 0.43;
#X obj 409 325 / 0.562;
#X obj 409 346 clip 0 1;
#X obj 409 367 change;
#X obj 556 201 s motSpeed;
#X obj 658 358 r TEMPOLED;
#X obj 556 135 unpack f f f f;
#X obj 473 95 route s M P;
#X floatatom 745 107 8 0 0 0 - - -, f 8;
#X obj 746 80 maxlib/speedlim 40;
#X floatatom 475 2 5 0 0 0 - - -, f 5;
#X obj 408 147 print;
#X floatatom 753 58 8 0 0 0 - - -, f 8;
#X obj 754 31 maxlib/speedlim 40;
#X obj 556 160 mavg 2;
#X obj 256 43 fruit/receive mouli1;
#X obj 313 112 / 8192;
#X connect 2 0 4 0;
#X connect 2 1 69 0;
#X connect 3 0 8 0;
#X connect 4 0 5 0;
#X connect 4 1 78 0;
#X connect 5 0 40 0;
#X connect 5 0 52 0;
#X connect 6 0 47 1;
#X connect 7 0 13 0;
#X connect 8 0 13 0;
#X connect 9 0 13 0;
#X connect 10 0 14 1;
#X connect 11 0 10 0;
#X connect 12 0 3 0;
#X connect 16 0 18 0;
#X connect 16 0 22 0;
#X connect 17 0 16 0;
#X connect 18 0 14 0;
#X connect 19 0 14 1;
#X connect 20 0 14 0;
#X connect 21 0 20 0;
#X connect 22 0 23 0;
#X connect 23 0 24 0;
#X connect 24 0 25 0;
#X connect 26 0 27 0;
#X connect 27 0 21 0;
#X connect 28 0 29 0;
#X connect 29 0 21 0;
#X connect 31 0 32 1;
#X connect 32 0 73 0;
#X connect 34 0 13 0;
#X connect 35 0 13 0;
#X connect 40 0 41 0;
#X connect 41 0 36 0;
#X connect 41 1 37 0;
#X connect 41 2 39 0;
#X connect 41 3 38 0;
#X connect 41 4 42 0;
#X connect 41 5 43 0;
#X connect 41 6 45 0;
#X connect 41 7 44 0;
#X connect 46 0 40 1;
#X connect 47 0 12 0;
#X connect 48 0 49 0;
#X connect 49 0 50 0;
#X connect 49 0 51 0;
#X connect 51 0 20 0;
#X connect 52 0 7 0;
#X connect 52 1 9 0;
#X connect 52 2 34 0;
#X connect 52 3 35 0;
#X connect 52 4 61 0;
#X connect 53 0 66 0;
#X connect 54 0 57 0;
#X connect 55 0 57 0;
#X connect 56 0 57 0;
#X connect 60 0 57 0;
#X connect 61 0 54 0;
#X connect 61 1 55 0;
#X connect 61 2 56 0;
#X connect 61 3 62 0;
#X connect 62 0 63 0;
#X connect 63 0 64 0;
#X connect 64 0 65 0;
#X connect 65 0 60 0;
#X connect 67 0 11 0;
#X connect 68 0 76 0;
#X connect 69 0 47 0;
#X connect 69 1 68 0;
#X connect 69 1 32 0;
#X connect 71 0 70 0;
#X connect 75 0 74 0;
#X connect 76 0 53 0;
#X connect 77 0 2 0;
#X connect 78 0 5 1;
