#N canvas 401 113 981 626 10;
#X declare -path Fraise -stdpath Fraise;
#X obj 21 16 declare -path Fraise -stdpath Fraise;
#X obj 21 38 pied/pied 0 41424;
#X obj 18 140 fruit/fruit 1 mouli1 10 fw;
#X obj 256 68 analog/parse;
#X obj 473 203 tgl 15 0 empty empty empty 17 7 0 10 -262144 -1 -1 0
1;
#X obj 256 90 unpack f f;
#X obj 256 137 pack f f;
#X obj 313 112 / 16384;
#X obj 516 138 tgl 15 0 empty empty empty 17 7 0 10 -262144 -1 -1 0
1;
#X obj 331 165 unpack f f;
#X floatatom 331 187 5 0 0 0 - - -, f 5;
#X floatatom 399 192 5 0 0 0 - - -, f 5;
#X obj 256 216 route 0 1 2;
#X msg 256 263 vol \$1;
#X msg 473 307 mode \$1;
#X obj 473 161 spigot;
#X msg 301 264 fx \$1;
#X msg 347 265 transpose \$1;
#X msg 624 385 l0\$1;
#X obj 624 365 tgl 15 0 empty empty empty 17 7 0 10 -262144 -1 -1 0
1;
#X obj 256 43 fruit/receive mouli1;
#X obj 473 95 route s M;
#X obj 473 182 route 0, f 8;
#X obj 390 402 s CONTROL;
#X obj 519 408 fruit/send2 mouli1;
#X floatatom 590 155 8 0 0 0 - - -, f 8;
#X obj 15 432 dcmotor/motor mouli1 120 motor;
#X obj 578 306 hsl 128 15 -1023 1023 0 0 empty empty empty -2 -8 0
10 -262144 -1 -1 6350 1;
#X msg 578 282 0;
#X msg 558 342 c 120 c 4 i \$1;
#X msg 696 389 SAVE;
#X msg 605 527 c 120 c 3 i \$1;
#X floatatom 622 493 8 0 0 0 - - -, f 8;
#X floatatom 490 335 5 0 0 0 - - -, f 5;
#X obj 490 355 / 1023;
#X obj 490 376 * 16;
#X floatatom 490 397 5 0 0 0 - - -, f 5;
#X floatatom 682 431 5 0 0 0 - - -, f 5;
#X obj 682 451 * 10;
#X obj 638 73 f;
#X obj 638 94 t f f;
#X obj 640 123 -;
#X obj 638 210 +;
#X obj 667 209 * 0.9;
#X floatatom 638 231 8 0 0 0 - - -, f 8;
#X obj 637 2 tgl 15 0 empty empty empty 17 7 0 10 -262144 -1 -1 1 1
;
#X obj 641 253 mavg 20;
#X floatatom 641 274 8 0 0 0 - - -, f 8;
#X floatatom 684 173 5 0 0 0 - - -, f 5;
#X floatatom 726 281 8 0 0 0 - - -, f 8;
#X obj 726 260 mavg 200;
#X obj 697 102 + 32768;
#X obj 697 123 mod 65536;
#X obj 697 144 - 32768;
#X floatatom 722 432 5 0 0 0 - - -, f 5;
#X obj 722 452 * 100;
#X obj 839 254 lop~ 10;
#X obj 839 296 *~ 0.1;
#X obj 839 317 dac~;
#X obj 836 163 * 130;
#X obj 836 184 mtof;
#X obj 839 275 ssaw~;
#X obj 838 103 abs;
#X floatatom 880 180 5 0 0 0 - - -, f 5;
#X obj 836 205 - 8.175;
#X floatatom 727 45 5 0 0 0 - - -, f 5;
#X obj 638 34 metro 5;
#X obj 638 189 * 360;
#X obj 836 142 / 4000;
#X connect 3 0 5 0;
#X connect 3 1 21 0;
#X connect 4 0 14 0;
#X connect 5 0 6 0;
#X connect 5 1 7 0;
#X connect 6 0 12 0;
#X connect 7 0 6 1;
#X connect 8 0 15 1;
#X connect 9 0 10 0;
#X connect 9 1 11 0;
#X connect 12 0 13 0;
#X connect 12 1 16 0;
#X connect 12 2 17 0;
#X connect 13 0 23 0;
#X connect 14 0 23 0;
#X connect 15 0 22 0;
#X connect 16 0 23 0;
#X connect 17 0 23 0;
#X connect 18 0 24 1;
#X connect 19 0 18 0;
#X connect 20 0 3 0;
#X connect 21 0 15 0;
#X connect 21 1 39 1;
#X connect 21 1 25 0;
#X connect 22 0 4 0;
#X connect 27 0 29 0;
#X connect 27 0 33 0;
#X connect 28 0 27 0;
#X connect 29 0 24 0;
#X connect 30 0 24 1;
#X connect 31 0 24 0;
#X connect 32 0 31 0;
#X connect 33 0 34 0;
#X connect 34 0 35 0;
#X connect 35 0 36 0;
#X connect 37 0 38 0;
#X connect 38 0 32 0;
#X connect 39 0 40 0;
#X connect 40 0 41 1;
#X connect 40 1 41 0;
#X connect 41 0 51 0;
#X connect 42 0 43 0;
#X connect 42 0 44 0;
#X connect 43 0 42 1;
#X connect 44 0 46 0;
#X connect 44 0 62 0;
#X connect 45 0 66 0;
#X connect 46 0 47 0;
#X connect 47 0 50 0;
#X connect 48 0 67 1;
#X connect 50 0 49 0;
#X connect 51 0 52 0;
#X connect 52 0 53 0;
#X connect 53 0 67 0;
#X connect 54 0 55 0;
#X connect 55 0 32 0;
#X connect 56 0 61 0;
#X connect 57 0 58 0;
#X connect 57 0 58 1;
#X connect 59 0 60 0;
#X connect 60 0 63 0;
#X connect 60 0 64 0;
#X connect 61 0 57 0;
#X connect 62 0 68 0;
#X connect 64 0 56 0;
#X connect 66 0 39 0;
#X connect 67 0 42 0;
#X connect 68 0 59 0;
