#N canvas 794 81 411 744 10;
#X declare -path ../absGAMME;
#X obj 27 24 r \$2;
#X text 59 88 bank note;
#X obj 27 684 outlet~;
#X msg 213 125 set NT-\$1-\$2;
#X obj 26 612 tabread4~;
#X msg 72 125 set noteaccord-\$1 \, \$2;
#X msg 27 166 set notelength-\$1 \, \$2;
#X obj 27 102 t a a a, f 16;
#X obj 27 186 tabread;
#X obj 72 144 tabread;
#X obj 27 207 pack f f;
#X obj 27 228 unpack f f;
#X obj 84 251 t f f;
#X obj 191 14 declare -path ../absGAMME;
#X obj 84 328 -;
#X obj 84 350 mtof;
#X obj 84 420 swap 1;
#X obj 84 442 /;
#X obj 27 525 pack f f;
#X obj 27 448 t f f;
#X obj 54 470 *;
#X msg 27 546 0 \, \$1 \$2;
#X obj 27 576 line~;
#X obj 84 307 gammeRound /GAMME 300;
#X obj 84 372 / 8.175;
#X obj 54 491 / 44.1;
#X msg 39 276 set \$1;
#X obj 39 253 symbol;
#X obj 194 354 change;
#X obj 144 538 *;
#X obj 176 492 t f f;
#X obj 183 603 pack f f;
#X obj 144 513 +;
#X obj 144 492 * -1;
#X msg 183 623 \$2 \$1;
#X obj 144 580 moses 1;
#X obj 144 559 / 44.1;
#X obj 144 470 snapshot~;
#X obj 144 449 t b f, f 15;
#X obj 194 416 line;
#X obj 84 276 +;
#X obj 194 374 pack f f;
#X obj 194 395 t a b;
#X msg 237 396 100;
#X msg 239 350 0;
#X obj 26 661 *~;
#X obj 270 629 line~;
#X msg 270 601 0 \, 1 10;
#X msg 327 600 0 50;
#X obj 27 66 route \$1;
#X obj 234 71 route \$1 -1;
#X obj 234 92 b;
#X obj 139 373 t b f;
#X obj 27 45 route play gamme transpose stop scratch, f 61;
#X obj 84 398 * 1;
#X connect 0 0 53 0;
#X connect 3 0 4 0;
#X connect 4 0 45 0;
#X connect 5 0 9 0;
#X connect 6 0 8 0;
#X connect 7 0 6 0;
#X connect 7 1 5 0;
#X connect 7 2 3 0;
#X connect 7 2 44 0;
#X connect 7 2 47 0;
#X connect 8 0 10 0;
#X connect 9 0 10 1;
#X connect 10 0 11 0;
#X connect 11 0 19 0;
#X connect 11 1 12 0;
#X connect 12 0 40 0;
#X connect 12 1 14 1;
#X connect 14 0 15 0;
#X connect 15 0 24 0;
#X connect 16 0 17 0;
#X connect 16 1 17 1;
#X connect 17 0 20 1;
#X connect 17 0 28 0;
#X connect 18 0 21 0;
#X connect 19 0 18 0;
#X connect 19 1 20 0;
#X connect 19 1 30 0;
#X connect 20 0 25 0;
#X connect 21 0 22 0;
#X connect 22 0 37 0;
#X connect 22 0 4 0;
#X connect 23 0 14 0;
#X connect 24 0 54 0;
#X connect 25 0 18 1;
#X connect 26 0 23 0;
#X connect 27 0 26 0;
#X connect 28 0 41 0;
#X connect 29 0 36 0;
#X connect 30 0 32 1;
#X connect 30 1 31 1;
#X connect 31 0 34 0;
#X connect 32 0 29 0;
#X connect 33 0 32 0;
#X connect 34 0 22 0;
#X connect 35 1 31 0;
#X connect 36 0 35 0;
#X connect 37 0 33 0;
#X connect 38 0 37 0;
#X connect 38 1 29 1;
#X connect 39 0 38 0;
#X connect 40 0 23 0;
#X connect 41 0 42 0;
#X connect 42 0 39 0;
#X connect 42 1 43 0;
#X connect 43 0 41 1;
#X connect 44 0 41 1;
#X connect 45 0 2 0;
#X connect 46 0 45 1;
#X connect 47 0 46 0;
#X connect 48 0 46 0;
#X connect 49 0 7 0;
#X connect 50 0 51 0;
#X connect 50 1 51 0;
#X connect 51 0 48 0;
#X connect 52 0 54 0;
#X connect 52 1 54 1;
#X connect 53 0 49 0;
#X connect 53 1 27 0;
#X connect 53 2 40 1;
#X connect 53 3 50 0;
#X connect 53 4 52 0;
#X connect 54 0 16 0;
