#N canvas 139 37 876 507 10;
#X obj 112 140 cnv 15 200 100 empty empty empty 20 12 0 14 -163379
-66577 0;
#N canvas 0 22 450 300 (subpatch) 0;
#X array \$0-scope 1539 float 0;
#X coords 0 1 1538 -1 200 100 1;
#X restore 111 140 graph;
#X obj 470 230 inlet~;
#X obj 513 334 metro 100;
#X obj 212 104 hsl 50 15 100 44100 1 1 \$0-zoom empty zoom -34 8 0
10 -262144 -1 -1 2200 0;
#X obj 475 433 r \$0-zoom;
#X msg 475 456 resize \$1;
#X obj 475 478 s \$0-scope;
#X text 172 119 (jump on click);
#X obj 594 230 r \$0-zoom;
#X obj 300 108 tgl 15 0 empty empty view -30 7 0 10 -262144 -1 -1 0
1;
#X obj 480 385 tabwrite~ \$0-scope;
#X obj 591 275 + 5;
#X obj 594 299 int;
#X obj 593 252 / 10;
#X text 403 32 oscilloscope;
#X connect 2 0 11 0;
#X connect 3 0 11 0;
#X connect 5 0 6 0;
#X connect 6 0 7 0;
#X connect 9 0 14 0;
#X connect 10 0 3 0;
#X connect 12 0 13 0;
#X connect 13 0 3 1;
#X connect 14 0 12 0;
#X coords 0 -1 1 1 220 150 1 100 100;
