#N canvas 487 160 450 402 10;
#X obj 167 72 osc~;
#X obj 163 22 nbx 5 14 1 10000 1 1 empty empty empty 0 -8 0 10 -262144
-1 -1 18.4342 256;
#X obj 142 233 dac~;
#X obj 202 235 diy-scope;
#X obj 165 121 shaper(new);
#X connect 0 0 4 0;
#X connect 1 0 0 0;
#X connect 4 0 2 0;
#X connect 4 0 2 1;
#X connect 4 0 3 0;
