#N canvas 139 130 815 638 10;
#X declare -stdpath creb -lib creb;
#X declare -stdpath cyclone -lib cyclone;
#X obj 51 579 throw~ MASTER;
#X obj 89 177 lop~ 5000;
#X obj 48 238 lop~ 150;
#X floatatom 226 128 5 0 0 0 - - -, f 5;
#X obj 226 147 mtof;
#X floatatom 226 169 5 0 0 0 - - -, f 5;
#X obj 110 212 hip~ 500;
#X obj 49 33 declare -stdpath creb -lib creb;
#X obj 50 55 declare -stdpath cyclone -lib cyclone;
#X obj 107 323 atan~;
#X obj 299 157 r BASSE_DISTO;
#X obj 299 180 pow 3;
#X obj 105 296 *~;
#X msg 299 223 \$1 5;
#X obj 299 245 line~;
#X obj 51 481 hip~ 5;
#X obj 187 258 *~ 3;
#X obj 109 238 bp~ 100 5;
#X obj 187 236 bp~ 440 20;
#X obj 126 154 +~;
#X obj 377 420 r BASSE_MODE;
#X floatatom 377 442 5 0 0 0 - - -, f 5;
#N canvas 5 74 798 777 autoRythm 0;
#X obj 273 36 r BASSE_TRIG;
#X obj 273 200 t b b;
#X obj 273 222 timer;
#X obj 187 158 tgl 15 0 empty empty empty 17 7 0 10 -262144 -1 -1 0
1;
#X obj 366 163 r CLOCK;
#X obj 366 185 route list;
#X obj 366 207 unpack f f;
#X obj 190 322 del;
#X obj 190 298 * 2;
#X obj 321 274 /;
#X obj 321 296 t f f;
#X msg 377 332 1 \$1;
#X obj 377 354 /;
#X obj 255 374 log;
#X obj 255 399 /;
#X obj 286 373 log;
#X msg 304 344 2;
#X obj 304 322 loadbang;
#X obj 255 344 max 1;
#X obj 255 445 i;
#X obj 255 421 + 0.5;
#X msg 255 467 1 \$1;
#X obj 255 489 <<;
#X obj 377 383 log;
#X obj 377 408 /;
#X obj 408 382 log;
#X obj 377 454 i;
#X obj 377 430 + 0.5;
#X msg 377 476 1 \$1;
#X obj 377 498 <<;
#X obj 187 36 tgl 15 0 empty empty empty 17 7 0 10 -262144 -1 -1 0
1;
#X obj 187 56 metro 130;
#X obj 244 589 ndmetro;
#X obj 263 536 pack f f;
#X msg 190 344 -1;
#X msg 263 558 nd \$1 \$2;
#X obj 244 611 sel 0;
#X obj 215 615 bng 15 250 50 0 empty empty empty 17 7 0 10 -262144
-1 -1;
#X obj 165 508 r CLOCK;
#X floatatom 225 34 5 0 0 0 - - -, f 5;
#X obj 165 530 spigot;
#X obj 273 245 moses 3000;
#X msg 203 480 1;
#X msg 171 481 0;
#X obj 273 61 spigot;
#X obj 375 38 r BASSE_MODE;
#X obj 375 60 == 2;
#X obj 273 172 sel 0;
#X msg 273 94 \$2 \$1;
#X obj 273 121 unpack f f;
#X obj 244 633 f;
#X obj 244 698 s BASSE_TRIG_AUTO;
#X obj 315 586 r BASSE_KB;
#X obj 315 609 lastKeyOn;
#X obj 315 631 != -1;
#X obj 244 663 spigot;
#X connect 0 0 44 0;
#X connect 1 0 2 0;
#X connect 1 1 2 1;
#X connect 2 0 41 0;
#X connect 3 0 1 0;
#X connect 4 0 5 0;
#X connect 5 0 6 0;
#X connect 6 1 9 1;
#X connect 7 0 34 0;
#X connect 7 0 43 0;
#X connect 8 0 7 0;
#X connect 9 0 10 0;
#X connect 10 0 18 0;
#X connect 10 1 11 0;
#X connect 11 0 12 0;
#X connect 12 0 23 0;
#X connect 13 0 14 0;
#X connect 14 0 20 0;
#X connect 15 0 14 1;
#X connect 16 0 15 0;
#X connect 16 0 25 0;
#X connect 17 0 16 0;
#X connect 18 0 13 0;
#X connect 19 0 21 0;
#X connect 20 0 19 0;
#X connect 21 0 22 0;
#X connect 22 0 33 0;
#X connect 23 0 24 0;
#X connect 24 0 27 0;
#X connect 25 0 24 1;
#X connect 26 0 28 0;
#X connect 27 0 26 0;
#X connect 28 0 29 0;
#X connect 29 0 33 1;
#X connect 30 0 31 0;
#X connect 31 0 3 0;
#X connect 32 0 36 0;
#X connect 33 0 35 0;
#X connect 34 0 32 0;
#X connect 35 0 32 0;
#X connect 36 0 37 0;
#X connect 36 0 50 0;
#X connect 38 0 40 0;
#X connect 39 0 31 1;
#X connect 40 0 32 0;
#X connect 41 0 9 0;
#X connect 41 0 8 0;
#X connect 41 0 42 0;
#X connect 42 0 40 1;
#X connect 43 0 40 1;
#X connect 44 0 48 0;
#X connect 45 0 46 0;
#X connect 46 0 44 1;
#X connect 47 0 1 0;
#X connect 48 0 49 0;
#X connect 49 0 47 0;
#X connect 49 1 50 1;
#X connect 50 0 55 0;
#X connect 52 0 53 0;
#X connect 53 0 54 0;
#X connect 54 0 55 1;
#X connect 55 0 51 0;
#X restore 495 162 pd autoRythm;
#X obj 124 83 clone 4 basseCorde;
#X obj 52 538 *~ 1;
#X obj 75 416 z~ 64;
#X obj 111 450 *~;
#X obj 130 419 limiter~ 10 1;
#X obj 149 393 hip~ 500;
#X obj 489 247 * -1;
#X obj 489 269 + 1;
#X obj 488 212 hsl 128 15 0 1 0 0 empty empty empty -2 -8 0 10 -262144
-1 -1 0 1;
#X obj 451 361 hsl 128 15 0 1 0 0 empty empty empty -2 -8 0 10 -262144
-1 -1 12693 1;
#X obj 111 353 *~;
#X obj 366 392 line~;
#X msg 366 370 \$1 10;
#X obj 489 291 pow 0.5;
#X obj 482 316 max 0.3;
#X obj 299 201 * 200;
#X obj 123 107 hp6_butt~ 80;
#X obj 50 508 hp6_butt~ 80;
#X obj 124 130 hip~ 120;
#X connect 1 0 2 0;
#X connect 2 0 15 0;
#X connect 3 0 4 0;
#X connect 4 0 5 0;
#X connect 5 0 18 1;
#X connect 6 0 17 0;
#X connect 6 0 18 0;
#X connect 9 0 33 0;
#X connect 10 0 11 0;
#X connect 10 0 29 0;
#X connect 11 0 38 0;
#X connect 12 0 9 0;
#X connect 13 0 14 0;
#X connect 14 0 12 1;
#X connect 15 0 40 0;
#X connect 16 0 12 0;
#X connect 17 0 12 0;
#X connect 18 0 16 0;
#X connect 19 0 1 0;
#X connect 19 0 6 0;
#X connect 20 0 21 0;
#X connect 23 0 39 0;
#X connect 24 0 0 0;
#X connect 25 0 26 0;
#X connect 26 0 15 0;
#X connect 27 0 26 1;
#X connect 29 0 30 0;
#X connect 30 0 36 0;
#X connect 31 0 29 0;
#X connect 33 0 25 0;
#X connect 33 0 27 0;
#X connect 34 0 33 1;
#X connect 35 0 34 0;
#X connect 36 0 37 0;
#X connect 37 0 32 0;
#X connect 37 0 35 0;
#X connect 38 0 13 0;
#X connect 39 0 41 0;
#X connect 40 0 24 0;
#X connect 41 0 19 0;
